<svg width="157" height="161" viewBox="0 0 157 161" fill="none" xmlns="http://www.w3.org/2000/svg">
<g opacity="0.6">
<path fill-rule="evenodd" clip-rule="evenodd" d="M153.85 58.5853C149.078 42.7121 139.725 28.6815 127.017 18.3308C117.335 10.267 105.945 4.62151 93.753 1.84267C88.7943 0.767044 83.7455 0.183324 78.6769 0.0996459C67.9806 -0.371443 58.0451 0.782724 50.1843 4.52788C46.1963 6.41224 42.5079 7.96683 39.004 10.0161C32.2692 14.2148 26.0141 19.1683 20.3547 24.7847C17.6115 27.7062 15.1131 30.8579 12.8858 34.2065C7.66097 40.8766 4.03017 48.6996 2.28177 57.0543C0.306529 67.3903 -0.390492 77.9388 0.207073 88.4523C0.713992 97.8677 2.89334 107.11 6.63865 115.728C8.19309 119.538 10.299 123.087 12.8858 126.257C14.1998 127.718 15.3524 129.343 16.6203 130.827C20.4469 135.326 24.5733 139.825 28.6996 143.782C31.8132 146.346 35.1639 148.594 38.7043 150.495C40.3753 151.621 42.1155 152.636 43.9141 153.533C45.8966 154.452 48.1096 154.593 50.3226 155.512C54.477 157.323 58.8495 158.559 63.3241 159.186C68.4647 159.822 73.0982 160.859 78.0775 161C83.1771 160.972 88.2657 160.515 93.292 159.634C97.6086 158.958 101.762 157.456 105.533 155.206C109.175 153.227 113.37 152.403 116.713 149.717C117.128 149.717 117.243 149.435 117.013 149.882C116.782 150.33 116.39 150.141 116.275 150.495C116.16 150.848 115.906 150.73 116.114 150.801C116.321 150.872 116.114 150.613 116.275 150.636C121.798 148.032 126.843 144.479 131.19 140.131C135.648 135.982 139.527 131.227 142.716 125.998C144.26 123.195 145.851 120.557 147.326 117.754C148.698 114.731 149.884 111.624 150.876 108.45C153.343 101.839 155.142 94.9888 156.248 88.0048C157.783 78.1443 156.961 68.0505 153.85 58.5853V58.5853ZM117.543 29.6134C122.384 33.4998 124.966 40.0244 124.09 48.1978C123.629 48.5276 123.306 47.397 122.914 46.8317C119.841 42.5923 116.166 38.8452 112.01 35.714C107.24 31.7336 101.76 28.7342 95.8738 26.881C99.4174 25.4283 103.263 24.917 107.053 25.3948C110.842 25.8726 114.451 27.324 117.543 29.6134V29.6134ZM46.081 25.0438C46.2297 24.9752 46.384 24.92 46.5421 24.8789C51.1686 24.3547 55.8514 24.8774 60.2581 26.41C49.1325 30.9067 39.6617 38.8461 33.1718 49.1164C31.7846 44.1754 32.3625 38.8746 34.78 34.3667C37.1974 29.8588 41.2588 26.5083 46.081 25.0438V25.0438ZM15.7212 91.6557C16.3922 86.1703 18.9301 81.1008 22.8905 77.3346C22.8905 77.1462 23.1901 77.3346 23.1901 77.0284C23.1901 76.7222 23.3285 77.0284 23.3285 77.1698C24.3428 92.0797 27.9389 105.27 34.8546 113.608C23.1901 112.407 14.6839 105.624 15.7212 91.6557ZM133.126 81.4331C133.265 81.4331 133.265 81.4331 133.288 81.598C141.517 88.6643 136.653 107.673 129.253 112.384C127.432 113.538 124.966 113.726 123.122 114.739C127.709 105.482 133.103 95.8013 133.126 81.4331ZM58.9903 133.253C61.8076 134.442 64.77 135.235 67.7962 135.608C70.3521 136.206 72.9377 136.662 75.5418 136.974C79.1967 137.025 82.8479 136.717 86.4455 136.056C89.4858 135.983 92.4776 135.261 95.2284 133.936C94.1234 136.958 92.2666 139.633 89.8412 141.699C87.4157 143.764 84.5053 145.148 81.397 145.713C77.4901 146.226 73.5198 145.698 69.8709 144.182C64.9081 142.204 60.8968 138.325 58.6906 133.371C58.8058 133.276 58.8981 133.276 58.9903 133.253Z" fill="#414141"/>
<path fill-rule="evenodd" clip-rule="evenodd" d="M100.762 21.5343C100.421 22.1733 100.12 22.8342 99.8625 23.5128C99.609 23.7013 98.9866 23.5128 98.8252 23.819C98.8482 23.0418 99.1018 21.2987 100.762 21.5343Z" fill="white"/>
<path fill-rule="evenodd" clip-rule="evenodd" d="M98.5262 21.9817C97.9038 23.1359 97.4428 24.4549 95.8291 24.5727C96.1749 23.1359 96.7973 22.0524 98.5262 21.9817Z" fill="white"/>
<path fill-rule="evenodd" clip-rule="evenodd" d="M132.687 28.365C132.387 28.8832 131.811 29.0952 131.627 29.7312C131.097 29.7312 130.889 29.1659 130.589 28.8126C131.004 27.5642 132.111 26.9047 132.687 28.365Z" fill="white"/>
<path fill-rule="evenodd" clip-rule="evenodd" d="M133.287 29.001C133.561 29.3697 133.853 29.7235 134.163 30.0609C133.794 30.4614 133.587 31.0031 133.125 31.2858C132.592 30.9751 132.171 30.4957 131.927 29.9196C132.618 29.8725 132.572 29.0481 133.287 29.001Z" fill="white"/>
<path fill-rule="evenodd" clip-rule="evenodd" d="M97.7652 29.9197C98.2724 29.9197 98.7795 29.9197 98.6643 30.5321C98.3185 30.3908 97.7191 30.485 97.7652 29.9197Z" fill="white"/>
<path fill-rule="evenodd" clip-rule="evenodd" d="M99.5618 30.532H100.022V31.1444C99.6309 31.1915 99.5158 30.9324 99.5618 30.532Z" fill="white"/>
<path fill-rule="evenodd" clip-rule="evenodd" d="M100.899 30.9795C101.36 30.9795 101.452 31.1444 101.798 31.1444V32.063C101.267 31.9452 100.806 31.7568 100.899 30.9795Z" fill="white"/>
<path fill-rule="evenodd" clip-rule="evenodd" d="M67.0361 31.5918C65.1919 32.5104 63.2325 33.2877 61.3652 34.1828C61.3652 33.7117 61.6419 33.7352 61.5266 33.2641C63.3708 32.8873 65.238 31.0265 67.0361 31.5918Z" fill="white"/>
<path fill-rule="evenodd" clip-rule="evenodd" d="M102.557 31.5919C103.088 31.5919 103.272 31.8746 103.733 31.8981C103.806 32.288 103.799 32.6893 103.71 33.0758C103.018 32.8403 102.327 32.6754 102.557 31.5919Z" fill="white"/>
<path fill-rule="evenodd" clip-rule="evenodd" d="M104.495 32.3691C104.623 32.4612 104.775 32.5106 104.932 32.5105V33.8766C104.195 33.9708 104.587 32.9344 104.495 32.3691Z" fill="white"/>
<path fill-rule="evenodd" clip-rule="evenodd" d="M105.833 33.2644C106.294 33.2644 106.225 33.6884 106.57 33.7355C106.34 33.9475 106.432 34.5128 106.432 34.9603C106.109 34.9603 105.948 34.6306 105.694 34.4892C105.556 33.9239 105.856 33.759 105.833 33.2644Z" fill="white"/>
<path fill-rule="evenodd" clip-rule="evenodd" d="M69.1323 34.3478C66.0771 35.283 63.0886 36.4321 60.188 37.7868C60.2816 37.3156 60.4286 36.8571 60.626 36.4206C63.2309 35.5256 65.6975 34.4892 68.3946 33.6647C68.8095 33.6412 68.7404 34.2301 69.1323 34.3478Z" fill="white"/>
<path fill-rule="evenodd" clip-rule="evenodd" d="M60.4883 33.8767C60.4768 34.1978 60.3469 34.5026 60.1245 34.7298C59.9021 34.9571 59.6038 35.0899 59.2896 35.1015C59.5431 34.5598 59.7275 33.9474 60.4883 33.8767Z" fill="white"/>
<path fill-rule="evenodd" clip-rule="evenodd" d="M118.65 60.0928C117.912 60.0928 117.612 59.1742 117.313 58.7267C113.08 52.0463 107.69 46.2113 101.407 41.5084C99.1467 39.6697 96.6962 38.0899 94.0991 36.7975C93.0387 36.3499 88.1516 35.6904 87.6675 34.442H87.8288C87.8148 34.3426 87.8378 34.2414 87.8933 34.1586C87.9488 34.0757 88.0327 34.0171 88.1285 33.9945C95.0355 35.7978 101.381 39.3639 106.57 44.3585C110.46 47.7025 113.916 51.5417 116.852 55.7824L118.35 57.9258C118.557 58.4911 119.457 59.4333 118.65 60.0928Z" fill="white"/>
<path fill-rule="evenodd" clip-rule="evenodd" d="M107.169 34.1829C107.86 34.3949 108.229 34.9366 108.068 36.0201C107.33 35.8552 107.054 35.2193 107.169 34.1829Z" fill="white"/>
<path fill-rule="evenodd" clip-rule="evenodd" d="M58.5295 34.6541C58.5737 34.7936 58.5845 34.9419 58.5611 35.0866C58.5378 35.2313 58.4808 35.3682 58.395 35.4858C58.3093 35.6034 58.1972 35.6983 58.0682 35.7626C57.9392 35.8269 57.797 35.8587 57.6535 35.8553C57.6074 35.1958 58.1837 34.9838 58.5295 34.6541Z" fill="white"/>
<path fill-rule="evenodd" clip-rule="evenodd" d="M135.225 34.7953C140.836 40.6274 145.111 47.6584 147.742 55.3819C148.111 56.324 148.872 57.7373 148.204 58.7266C144.561 50.035 140.758 41.5319 135.225 34.7953Z" fill="white"/>
<path fill-rule="evenodd" clip-rule="evenodd" d="M108.806 35.4313C109.037 35.4313 109.175 35.6668 109.405 35.7375V36.9623C108.599 36.7974 108.668 36.2086 108.806 35.4313Z" fill="white"/>
<path fill-rule="evenodd" clip-rule="evenodd" d="M56.6158 35.8553C56.6158 36.6326 56.247 36.8211 55.7168 36.9389C55.9704 36.5384 55.9704 35.8789 56.6158 35.8553Z" fill="white"/>
<path fill-rule="evenodd" clip-rule="evenodd" d="M110.305 36.6327C111.065 36.7976 111.526 37.2922 111.342 38.4464C110.858 38.4464 110.697 37.9988 110.305 37.834V36.6327Z" fill="white"/>
<path fill-rule="evenodd" clip-rule="evenodd" d="M59.7294 36.7739C59.6672 37.2935 59.4469 37.78 59.0994 38.1646C58.7519 38.5493 58.2949 38.8126 57.793 38.9174C58.0235 37.7868 58.3923 36.7739 59.7294 36.7739Z" fill="white"/>
<path fill-rule="evenodd" clip-rule="evenodd" d="M54.8178 36.9388C54.8178 37.5277 54.3803 37.6926 54.0811 37.9988C53.6667 37.5748 54.2883 36.9153 54.8178 36.9388Z" fill="white"/>
<path fill-rule="evenodd" clip-rule="evenodd" d="M57.3544 37.7867C57.4248 38.2399 57.3642 38.7043 57.1799 39.1227C56.9956 39.5412 56.6957 39.8955 56.3171 40.1422C56.2234 39.6879 56.2734 39.215 56.4598 38.7916C56.6463 38.3683 56.9595 38.0164 57.3544 37.7867Z" fill="white"/>
<path fill-rule="evenodd" clip-rule="evenodd" d="M52.7193 37.9988C53.0416 38.4463 52.5581 39.3414 51.9826 39.3649C51.9365 38.6112 52.42 38.3992 52.7193 37.9988Z" fill="white"/>
<path fill-rule="evenodd" clip-rule="evenodd" d="M112.103 37.9988C115.718 40.7735 118.931 44.0565 121.646 47.7503C122.499 48.9045 123.951 50.3177 123.283 51.8723C120.033 47.2405 116.282 42.9975 112.103 39.2236V37.9988Z" fill="white"/>
<path fill-rule="evenodd" clip-rule="evenodd" d="M55.7162 38.6112C55.8015 39.1539 55.6984 39.7099 55.4248 40.1831C55.1511 40.6563 54.7241 41.0168 54.2178 41.2022C54.5636 40.1422 54.771 39.0116 55.7162 38.6112Z" fill="white"/>
<path fill-rule="evenodd" clip-rule="evenodd" d="M51.2223 39.0586C51.2223 40.4012 48.456 42.2855 47.0498 43.4868C42.8449 47.1228 39.5295 51.7123 37.3679 56.8893C35.7081 55.7351 37.3679 53.8272 37.9442 52.7908C40.4569 49.1399 44.03 45.7245 46.6118 42.4269C48.2037 41.385 49.7426 40.2608 51.2223 39.0586V39.0586Z" fill="white"/>
<path fill-rule="evenodd" clip-rule="evenodd" d="M70.9313 39.671C71.1848 39.8123 71.254 40.1421 71.2079 40.5896C70.7468 40.5896 70.5624 40.943 70.0322 40.8959V40.1421C70.2166 39.8595 70.9082 40.1421 70.9313 39.671Z" fill="white"/>
<path fill-rule="evenodd" clip-rule="evenodd" d="M86.1432 40.2836V41.5084H85.8449C85.9596 41.1316 85.5466 40.1423 86.1432 40.2836Z" fill="white"/>
<path fill-rule="evenodd" clip-rule="evenodd" d="M87.022 40.5897H87.5745C87.7112 40.9819 87.7584 41.4008 87.7126 41.8145C87.045 41.791 87.2522 40.9901 87.022 40.5897Z" fill="white"/>
<path fill-rule="evenodd" clip-rule="evenodd" d="M67.335 40.7311H67.796V41.8146C67.4733 41.8146 67.358 42.1915 66.897 42.1208C67.1275 41.7439 67.1275 41.1315 67.335 40.7311Z" fill="white"/>
<path fill-rule="evenodd" clip-rule="evenodd" d="M88.2197 41.0373C88.2197 40.8724 88.496 40.9195 88.6802 40.896C88.8644 40.8724 88.8183 41.7675 88.9795 42.1208C88.1046 42.4977 88.5881 41.2964 88.2197 41.0373Z" fill="white"/>
<path fill-rule="evenodd" clip-rule="evenodd" d="M89.7197 41.2021C90.2032 41.2021 90.1341 42.3563 90.019 42.5683C89.5125 42.4976 89.8809 41.6968 89.7197 41.2021Z" fill="white"/>
<path fill-rule="evenodd" clip-rule="evenodd" d="M65.8364 41.3434C66.481 41.5083 65.8364 42.8038 65.3989 42.8744C65.5033 42.3526 65.6496 41.8406 65.8364 41.3434V41.3434Z" fill="white"/>
<path fill-rule="evenodd" clip-rule="evenodd" d="M90.7568 41.5083C91.3554 41.5083 91.4245 42.262 91.3554 43.0393C90.5496 43.1336 90.7799 42.1914 90.7568 41.5083Z" fill="white"/>
<path fill-rule="evenodd" clip-rule="evenodd" d="M51.6825 41.8146C51.867 42.5212 51.1754 43.6283 50.7835 44.17C50.7326 43.7322 50.7879 43.2882 50.9447 42.8774C51.1015 42.4666 51.3549 42.1016 51.6825 41.8146V41.8146Z" fill="white"/>
<path fill-rule="evenodd" clip-rule="evenodd" d="M64.1995 41.9559C64.7066 42.3328 64.0842 44.0523 63.1621 43.9345C63.5079 43.275 63.5771 42.3328 64.1995 41.9559Z" fill="white"/>
<path fill-rule="evenodd" clip-rule="evenodd" d="M91.9541 42.1207C92.3685 41.9794 92.3455 42.3327 92.6908 42.2621V43.6282C92.1843 43.5105 92.0001 42.8274 91.9541 42.1207Z" fill="white"/>
<path fill-rule="evenodd" clip-rule="evenodd" d="M93.4536 42.4977C93.891 42.7097 93.9141 43.3456 93.891 44.0287C93.1774 44.17 93.5457 43.1337 93.4536 42.4977Z" fill="white"/>
<path fill-rule="evenodd" clip-rule="evenodd" d="M62.4243 42.7332C62.4243 43.2514 62.1707 44.8059 61.2256 44.8531C61.5944 44.0993 61.5944 43.0158 62.4243 42.7332Z" fill="white"/>
<path fill-rule="evenodd" clip-rule="evenodd" d="M94.4917 43.0393C95.2054 43.1806 95.2745 43.9344 95.2284 44.853C94.4917 44.853 94.4917 43.8637 94.4917 43.0393Z" fill="white"/>
<path fill-rule="evenodd" clip-rule="evenodd" d="M71.2063 43.6281C66.8697 45.5942 62.6853 47.8934 58.689 50.506C58.4584 49.1163 59.9799 48.4804 60.9942 47.915C64.1131 45.9742 67.4799 44.484 70.9989 43.4868C70.9989 43.4868 71.068 43.6281 71.2063 43.6281Z" fill="white"/>
<path fill-rule="evenodd" clip-rule="evenodd" d="M95.8288 43.7931C96.059 43.7931 96.1972 44.0051 96.4274 44.0993V45.6068C95.5986 45.6539 95.8749 44.5704 95.8288 43.7931Z" fill="white"/>
<path fill-rule="evenodd" clip-rule="evenodd" d="M97.1638 44.5469C97.394 44.5469 97.5552 44.7824 97.7624 44.8531C97.7624 45.3242 97.9696 46.1721 97.6243 46.3841C96.7955 46.4312 97.302 45.1828 97.1638 44.5469Z" fill="white"/>
<path fill-rule="evenodd" clip-rule="evenodd" d="M58.6902 44.8531C58.8515 45.5362 58.6902 47.0673 57.6528 47.2086C57.8834 46.2664 57.9525 45.23 58.6902 44.8531Z" fill="white"/>
<path fill-rule="evenodd" clip-rule="evenodd" d="M98.5253 45.4655C99.072 45.6829 99.5786 45.9935 100.024 46.3841C99.8942 46.8831 99.8398 47.3994 99.8623 47.9151C99.309 47.656 98.9402 47.232 98.3639 46.9965C98.2486 46.3134 98.5714 46.0779 98.5253 45.4655Z" fill="white"/>
<path fill-rule="evenodd" clip-rule="evenodd" d="M56.7545 46.2192C56.8519 46.7786 56.7614 47.3552 56.4978 47.8554C56.2342 48.3557 55.8129 48.7503 55.3022 48.9751C55.3339 48.4355 55.4803 47.9095 55.7311 47.4336C55.9819 46.9577 56.3311 46.5433 56.7545 46.2192V46.2192Z" fill="white"/>
<path fill-rule="evenodd" clip-rule="evenodd" d="M71.6696 46.9965C68.1656 48.2684 64.7539 49.7995 61.3652 51.1185C62.0337 49.7052 63.6705 49.4932 65.0997 48.975C67.1744 48.2449 69.3644 46.2192 71.6696 46.9965Z" fill="white"/>
<path fill-rule="evenodd" clip-rule="evenodd" d="M100.6 46.8317C101.615 48.0094 105.81 49.5875 105.372 52.3198C104.404 52.0372 103.39 50.2706 102.26 49.4227C101.131 48.5747 99.8397 48.7396 100.6 46.8317Z" fill="white"/>
<path fill-rule="evenodd" clip-rule="evenodd" d="M54.2176 48.1978C54.9092 48.9986 53.7335 50.4354 53.1572 50.9536C53.2421 49.9495 53.6105 48.9921 54.2176 48.1978V48.1978Z" fill="white"/>
<path fill-rule="evenodd" clip-rule="evenodd" d="M89.1201 49.2813C89.3737 48.928 90.1805 49.2813 90.0192 49.8938C89.512 49.8938 89.3737 49.564 89.1201 49.2813Z" fill="white"/>
<path fill-rule="evenodd" clip-rule="evenodd" d="M90.6181 49.4226C91.2167 49.4226 91.2858 49.8701 91.2167 50.5061C90.6642 50.4826 90.549 50.0586 90.6181 49.4226Z" fill="white"/>
<path fill-rule="evenodd" clip-rule="evenodd" d="M91.954 49.8938C92.5526 49.8938 92.3914 50.4591 92.3914 50.9538C91.8159 51.048 91.977 50.3649 91.954 49.8938Z" fill="white"/>
<path fill-rule="evenodd" clip-rule="evenodd" d="M52.4211 50.2C53.0435 51.8017 50.9919 53.5211 49.7471 54.6046C49.8162 52.2963 51.7065 51.9194 52.4211 50.2Z" fill="white"/>
<path fill-rule="evenodd" clip-rule="evenodd" d="M92.9938 50.3412L93.8928 50.8123V51.9193C93.5788 51.816 93.3133 51.5976 93.1473 51.3063C92.9814 51.015 92.9267 50.6712 92.9938 50.3412V50.3412Z" fill="white"/>
<path fill-rule="evenodd" clip-rule="evenodd" d="M56.455 52.9323C56.2576 52.5467 56.1935 52.1043 56.273 51.6768C56.3525 51.2493 56.5709 50.8617 56.893 50.5769C57.6076 51.1893 56.8699 52.6026 56.455 52.9323Z" fill="white"/>
<path fill-rule="evenodd" clip-rule="evenodd" d="M88.0818 51.1187C88.5423 51.1187 88.5883 51.6133 88.5192 52.1786C87.8976 52.2964 87.7595 51.472 88.0818 51.1187Z" fill="white"/>
<path fill-rule="evenodd" clip-rule="evenodd" d="M94.6534 51.4012C95.368 51.4012 95.6677 52.1079 95.5294 53.0972C94.8609 52.9323 94.492 52.3905 94.6534 51.4012Z" fill="white"/>
<path fill-rule="evenodd" clip-rule="evenodd" d="M89.4192 51.5662C89.5045 51.6298 89.6015 51.6751 89.7044 51.6994C89.8073 51.7237 89.9139 51.7264 90.0178 51.7075V52.4848H89.4192C89.12 52.2021 89.3732 51.9195 89.4192 51.5662Z" fill="white"/>
<path fill-rule="evenodd" clip-rule="evenodd" d="M55.5563 51.7075C55.7629 52.1143 55.8489 52.5738 55.8039 53.0299C55.7589 53.4859 55.5849 53.9186 55.3031 54.275C54.9347 53.5212 55.0268 51.9195 55.5563 51.7075Z" fill="white"/>
<path fill-rule="evenodd" clip-rule="evenodd" d="M106.27 51.7075C106.696 51.9658 107.029 52.3572 107.22 52.8239C107.411 53.2905 107.45 53.8075 107.331 54.2985C106.885 54.062 106.535 53.673 106.341 53.1995C106.147 52.7259 106.122 52.1979 106.27 51.7075V51.7075Z" fill="white"/>
<path fill-rule="evenodd" clip-rule="evenodd" d="M90.7563 51.9194C91.0326 51.9194 91.0787 52.1079 91.3549 52.0843V52.8381C90.7333 53.0736 90.7103 52.579 90.7563 51.9194Z" fill="white"/>
<path fill-rule="evenodd" clip-rule="evenodd" d="M92.1853 52.626C92.5536 52.626 92.4616 53.1442 92.4616 53.5446C91.863 53.6859 92.1853 52.9557 92.1853 52.626Z" fill="white"/>
<path fill-rule="evenodd" clip-rule="evenodd" d="M96.1268 52.626C96.8175 52.626 96.5182 53.4739 96.5872 53.9921C96.0807 53.8979 96.1038 53.2619 96.1268 52.626Z" fill="white"/>
<path fill-rule="evenodd" clip-rule="evenodd" d="M54.5175 52.9323C54.08 53.5211 54.7937 55.2877 53.9189 55.2877C54.034 54.4868 53.5275 52.9558 54.5175 52.9323Z" fill="white"/>
<path fill-rule="evenodd" clip-rule="evenodd" d="M93.1523 53.2384C93.6364 53.3562 94.0975 53.4975 94.0514 54.157C93.6825 54.4161 93.014 53.9686 93.1523 53.2384Z" fill="white"/>
<path fill-rule="evenodd" clip-rule="evenodd" d="M97.1636 53.4033C98.247 54.7224 100.437 54.9344 100.46 57.3605C99.3305 56.489 98.2931 55.4997 97.1636 54.6046V53.4033Z" fill="white"/>
<path fill-rule="evenodd" clip-rule="evenodd" d="M94.6522 53.9922C95.1824 54.11 95.6435 54.2984 95.5282 55.0757C95.0672 54.8873 94.4909 54.793 94.6522 53.9922Z" fill="white"/>
<path fill-rule="evenodd" clip-rule="evenodd" d="M108.322 53.9922C108.677 54.2034 108.956 54.5259 109.118 54.912C109.28 55.298 109.316 55.7271 109.221 56.1356C108.322 55.9943 108.137 55.0992 108.322 53.9922Z" fill="white"/>
<path fill-rule="evenodd" clip-rule="evenodd" d="M53.1567 54.2749C53.2915 54.8198 53.3098 55.388 53.2105 55.9408C53.1112 56.4936 52.8965 57.0181 52.5812 57.4783C52.4246 56.9356 52.3951 56.3628 52.4951 55.8063C52.5951 55.2498 52.8217 54.7251 53.1567 54.2749Z" fill="white"/>
<path fill-rule="evenodd" clip-rule="evenodd" d="M95.9881 54.7695C96.3339 54.9109 96.7027 55.0286 96.5875 55.6882C97.3899 55.9575 98.1316 56.3879 98.7689 56.9542C99.4063 57.5205 99.9264 58.2112 100.299 58.9858C99.6073 59.1271 98.8927 57.7374 97.9936 57.0072C97.2589 56.5081 96.5651 55.9488 95.9189 55.3348L95.9881 54.7695Z" fill="white"/>
<path fill-rule="evenodd" clip-rule="evenodd" d="M48.9837 55.0758C49.4672 55.5704 48.7305 56.1122 48.5463 56.442C48.1319 56.018 48.8456 55.4291 48.9837 55.0758Z" fill="white"/>
<path fill-rule="evenodd" clip-rule="evenodd" d="M110.006 56.3005C110.719 56.6067 110.535 57.2427 110.466 58.1142C109.89 57.9729 109.66 56.8894 110.006 56.3005Z" fill="white"/>
<path fill-rule="evenodd" clip-rule="evenodd" d="M51.52 56.6304C51.7733 57.0072 51.8653 58.5147 51.2207 58.4676C51.1183 57.8382 51.2236 57.1918 51.52 56.6304Z" fill="white"/>
<path fill-rule="evenodd" clip-rule="evenodd" d="M100.899 56.748C101.236 56.8981 101.511 57.1642 101.675 57.5C101.839 57.8358 101.883 58.2199 101.798 58.5853C101.061 58.4204 100.784 57.7844 100.899 56.748Z" fill="white"/>
<path fill-rule="evenodd" clip-rule="evenodd" d="M111.343 58.1143C111.872 58.2556 111.941 59.4804 111.642 59.9515C111.182 59.716 111.389 58.7738 111.343 58.1143Z" fill="white"/>
<path fill-rule="evenodd" clip-rule="evenodd" d="M102.258 58.2792C102.742 58.4912 102.926 59.0094 102.834 59.7867C102.166 59.7631 102.235 58.9858 102.258 58.2792Z" fill="white"/>
<path fill-rule="evenodd" clip-rule="evenodd" d="M50.3213 58.4205C50.4618 58.7359 50.5227 59.0822 50.4986 59.4278C50.4745 59.7735 50.366 60.1074 50.1832 60.3991C50.0487 60.0823 49.991 59.737 50.0151 59.3925C50.0391 59.048 50.1442 58.7145 50.3213 58.4205V58.4205Z" fill="white"/>
<path fill-rule="evenodd" clip-rule="evenodd" d="M148.941 59.1742C149.149 59.3684 149.315 59.6049 149.429 59.8685C149.543 60.1321 149.602 60.4171 149.602 60.7052C149.602 60.9934 149.543 61.2783 149.429 61.542C149.315 61.8056 149.149 62.042 148.941 62.2363C148.647 61.782 148.491 61.2496 148.491 60.7052C148.491 60.1609 148.647 59.6285 148.941 59.1742V59.1742Z" fill="white"/>
<path fill-rule="evenodd" clip-rule="evenodd" d="M100.76 59.3391C101.175 59.716 101.798 59.9044 101.659 60.8701C101.198 60.4933 100.691 60.2106 100.76 59.3391Z" fill="white"/>
<path fill-rule="evenodd" clip-rule="evenodd" d="M103.434 59.9514C103.872 60.2105 103.825 60.9878 103.895 61.6238C103.365 61.3411 103.434 60.658 103.434 59.9514Z" fill="white"/>
<path fill-rule="evenodd" clip-rule="evenodd" d="M112.54 59.9514C113.004 60.6401 113.216 61.4741 113.139 62.3069C112.803 62.0336 112.563 61.6562 112.455 61.2314C112.347 60.8066 112.377 60.3574 112.54 59.9514V59.9514Z" fill="white"/>
<path fill-rule="evenodd" clip-rule="evenodd" d="M49.146 60.87C49.6065 61.4117 49.3072 62.0242 48.9849 62.5424C48.3863 62.189 49.0539 61.3411 49.146 60.87Z" fill="white"/>
<path fill-rule="evenodd" clip-rule="evenodd" d="M102.26 60.87C102.452 61.0319 102.595 61.2462 102.673 61.4881C102.75 61.73 102.759 61.9894 102.698 62.2362C102.191 62.1419 102.214 61.506 102.26 60.87Z" fill="white"/>
<path fill-rule="evenodd" clip-rule="evenodd" d="M45.7105 61.1763C46.5393 61.1763 46.3551 62.6838 45.8486 62.99C45.3421 63.2962 45.5724 61.4589 45.7105 61.1763Z" fill="white"/>
<path fill-rule="evenodd" clip-rule="evenodd" d="M104.495 61.4589C105.094 62.2833 106.178 63.3668 105.832 64.6623C104.818 64.1912 104.403 63.0841 104.495 61.4589Z" fill="white"/>
<path fill-rule="evenodd" clip-rule="evenodd" d="M150.138 62.0714C151.314 63.3434 150.138 64.6624 149.539 65.7459C148.501 64.5682 149.423 62.8252 150.138 62.0714Z" fill="white"/>
<path fill-rule="evenodd" clip-rule="evenodd" d="M103.296 62.5425C103.873 62.8958 104.011 63.7438 104.195 64.5211C103.878 64.3112 103.626 64.0142 103.467 63.6642C103.308 63.3141 103.249 62.9253 103.296 62.5425V62.5425Z" fill="white"/>
<path fill-rule="evenodd" clip-rule="evenodd" d="M78.9762 63.1548C78.6996 63.673 78.0081 63.7907 77.7775 64.356C77.547 63.9085 78.1694 63.037 78.9762 63.1548Z" fill="white"/>
<path fill-rule="evenodd" clip-rule="evenodd" d="M80.3143 63.4611C79.9685 63.8144 79.8302 64.3797 79.1387 64.3562C79.1786 64.0783 79.3248 63.8279 79.5452 63.6601C79.7657 63.4922 80.0423 63.4207 80.3143 63.4611V63.4611Z" fill="white"/>
<path fill-rule="evenodd" clip-rule="evenodd" d="M114.937 64.3562C114.937 64.9451 114.799 65.5575 114.178 65.581C114.247 65.0157 114.316 64.4033 114.937 64.3562Z" fill="white"/>
<path fill-rule="evenodd" clip-rule="evenodd" d="M78.3546 64.9685C78.7235 65.3218 78.1011 65.9342 77.7553 66.052C77.1329 65.4631 78.1702 65.4631 78.3546 64.9685Z" fill="white"/>
<path fill-rule="evenodd" clip-rule="evenodd" d="M112.933 64.9685C113.279 65.1805 112.772 65.7929 112.795 66.1933C112.587 66.1933 112.38 66.1933 112.357 66.3582C111.942 66.0756 112.357 65.4396 112.495 65.1334C112.634 64.8272 112.933 65.1569 112.933 64.9685Z" fill="white"/>
<path fill-rule="evenodd" clip-rule="evenodd" d="M151.037 65.1333C151.199 65.1333 151.291 65.1333 151.337 65.2746C151.082 66.3759 150.62 67.4159 149.977 68.3367C149.078 66.8528 150.622 66.0519 151.037 65.1333Z" fill="white"/>
<path fill-rule="evenodd" clip-rule="evenodd" d="M110.904 65.5809H111.503C111.226 66.0049 111.342 66.8529 110.604 66.8058C110.635 66.3831 110.737 65.9689 110.904 65.5809V65.5809Z" fill="white"/>
<path fill-rule="evenodd" clip-rule="evenodd" d="M110.006 65.7458C109.799 66.1186 109.695 66.5421 109.707 66.9707C109.325 67.1332 108.92 67.2288 108.508 67.2533C108.672 66.8151 108.773 66.355 108.807 65.8872C109.361 66.052 109.453 65.6281 110.006 65.7458Z" fill="white"/>
<path fill-rule="evenodd" clip-rule="evenodd" d="M151.477 67.1121C152.699 68.4076 150.831 69.8208 150.439 70.9279C149.448 69.232 151.246 68.4076 151.477 67.1121Z" fill="white"/>
<path fill-rule="evenodd" clip-rule="evenodd" d="M152.123 69.703C153.114 71.3754 151.085 72.4589 150.786 73.825C149.817 72.082 151.731 71.0692 152.123 69.703Z" fill="white"/>
<path fill-rule="evenodd" clip-rule="evenodd" d="M66.8273 74.885C66.189 75.1039 65.5115 75.1773 64.8424 75.1C64.1733 75.0227 63.5289 74.7965 62.9546 74.4375C61.6867 69.5146 69.1326 71.7523 66.8273 74.885ZM65.0523 74.1313C65.3828 74.128 65.7007 74.0018 65.9468 73.7764C66.1928 73.551 66.3501 73.2417 66.3893 72.9065C65.6286 71.1399 63.3234 73.1185 64.9601 74.1313H65.0523Z" fill="white"/>
<path fill-rule="evenodd" clip-rule="evenodd" d="M91.3557 74.885C90.3183 71.7052 95.2515 71.0692 94.1911 74.2726C94.0484 74.5078 93.8606 74.711 93.6389 74.87C93.4173 75.0289 93.1664 75.1404 92.9014 75.1976C92.6365 75.2549 92.3629 75.2567 92.0973 75.2029C91.8316 75.1492 91.5793 75.0411 91.3557 74.885V74.885Z" fill="white"/>
<path fill-rule="evenodd" clip-rule="evenodd" d="M123.583 72.9063C124.205 72.7885 124.344 73.1418 124.92 73.0476C124.759 73.5894 124.298 73.8249 124.182 74.4373C123.606 74.4373 123.445 74.1547 122.845 74.2724C123.026 73.7835 123.275 73.3234 123.583 72.9063Z" fill="white"/>
<path fill-rule="evenodd" clip-rule="evenodd" d="M81.2126 73.354C79.0457 75.7094 76.0489 77.0285 74.2969 79.6195C76.5854 78.3931 78.6957 76.8472 80.5671 75.0263C81.0973 74.6259 81.9272 73.6366 82.6418 74.1313C81.3179 75.727 79.6541 76.992 77.7778 77.8293C76.8197 79.4558 75.4911 80.8214 73.905 81.81C73.5452 80.9355 73.3422 80.0021 73.3057 79.0542C75.6109 77.0756 78.0775 75.309 80.2213 73.2598L81.2126 73.354Z" fill="white"/>
<path fill-rule="evenodd" clip-rule="evenodd" d="M127.157 73.825C126.93 74.2173 126.569 74.5108 126.144 74.6497C125.72 74.7887 125.259 74.7634 124.852 74.5787C124.9 74.3311 125.012 74.1012 125.176 73.9128C125.341 73.7244 125.551 73.5845 125.787 73.5075C126.022 73.4306 126.273 73.4195 126.514 73.4753C126.755 73.5311 126.977 73.6519 127.157 73.825V73.825Z" fill="white"/>
<path fill-rule="evenodd" clip-rule="evenodd" d="M43.7751 112.078C42.4611 111.818 41.7926 110.499 40.9397 109.487C38.2567 106.561 36.1304 103.15 34.6695 99.4288C31.5138 91.3013 30.2358 82.5395 30.935 73.8251H31.2347C31.4191 73.6367 31.5574 73.6838 31.5344 73.9664C30.935 91.4674 36.1448 103.009 43.7751 112.078Z" fill="white"/>
<path fill-rule="evenodd" clip-rule="evenodd" d="M34.0714 73.825C34.9013 73.9899 34.5094 75.2618 34.5325 75.9449C34.4764 85.9382 36.8529 95.7889 41.4482 104.611C42.1304 105.74 42.9014 106.812 43.7534 107.814C44.4219 108.638 45.7589 109.628 45.3901 111.017C44.1956 110.211 43.2201 109.109 42.5547 107.814C40.0596 104.178 38.0517 100.217 36.5841 96.0368C34.1609 89.0055 33.1495 81.5473 33.6104 74.1077C33.6104 73.8486 33.7487 73.825 33.7487 73.6366C33.7487 73.4481 34.0484 73.7072 34.0714 73.825Z" fill="white"/>
<path fill-rule="evenodd" clip-rule="evenodd" d="M128.055 74.1312C128.355 74.3197 128.77 74.4139 129.093 74.5788C128.631 75.1676 128.101 75.7329 127.294 75.1912C127.317 74.6023 127.917 74.5788 128.055 74.1312Z" fill="white"/>
<path fill-rule="evenodd" clip-rule="evenodd" d="M82.9643 74.5787C83.264 74.5787 83.264 75.0027 83.5636 75.0263C83.0692 75.7773 82.4713 76.4516 81.7886 77.0284C81.2123 77.5466 80.3363 78.5594 79.4834 77.9235C80.7166 76.8905 81.8796 75.773 82.9643 74.5787V74.5787Z" fill="white"/>
<path fill-rule="evenodd" clip-rule="evenodd" d="M39.9045 74.7201H40.3425C39.9455 78.0218 40.0466 81.3661 40.6421 84.6365C40.2042 84.6365 40.0428 85.6258 39.6048 85.2489C39.3544 81.738 39.4548 78.2102 39.9045 74.7201V74.7201Z" fill="white"/>
<path fill-rule="evenodd" clip-rule="evenodd" d="M30.4989 92.2683C28.5715 86.7479 27.9091 80.8494 28.5625 75.0264C28.77 75.0264 28.9774 75.0264 29.0005 74.8851C29.0235 74.7438 29.1388 74.8851 29.1618 75.0264C29.8073 80.4675 29.692 87.4867 30.4989 92.2683Z" fill="white"/>
<path fill-rule="evenodd" clip-rule="evenodd" d="M117.012 74.8849C118.228 83.773 116.273 92.8115 111.503 100.347C111.203 97.45 112.886 95.0475 113.808 92.5743C115.827 87.0762 116.492 81.155 115.744 75.3324C115.744 75.1204 115.744 74.9084 115.906 74.8849H117.012Z" fill="white"/>
<path fill-rule="evenodd" clip-rule="evenodd" d="M131.191 75.4739C130.983 75.9214 130.499 76.0863 130.291 76.5338C129.807 76.5338 129.554 76.0627 129.093 75.9214C129.168 75.7167 129.292 75.5348 129.454 75.3925C129.617 75.2501 129.812 75.1521 130.021 75.1074C130.23 75.0628 130.447 75.0729 130.652 75.137C130.856 75.2011 131.042 75.317 131.191 75.4739V75.4739Z" fill="white"/>
<path fill-rule="evenodd" clip-rule="evenodd" d="M26.1637 75.1912C26.3251 75.1912 26.279 75.3796 26.3251 75.4974C25.3569 82.7757 27.8465 91.4673 29.4602 97.7563C31.2209 103.494 33.8921 108.897 37.3671 113.75C35.8917 113.75 35.3154 112.101 34.5317 111.017C33.6843 109.953 32.9138 108.828 32.2264 107.649C30.8099 105.211 29.7022 102.599 28.93 99.8762C28.5611 98.1803 28.3998 96.3195 27.8926 94.388C26.7583 90.3541 25.9867 86.2228 25.5874 82.0455C25.7373 79.8655 25.7373 77.6774 25.5874 75.4974C25.7949 75.4738 25.9562 75.2618 26.1637 75.1912Z" fill="white"/>
<path fill-rule="evenodd" clip-rule="evenodd" d="M44.5123 75.1912C44.7658 75.1912 44.7658 75.3325 44.9733 75.3325C45.1937 81.7475 46.7663 88.0384 49.5838 93.7756C48.9152 94.0347 48.7539 93.069 48.5464 92.7157C45.6528 87.5206 44.2096 81.6139 44.3739 75.6387C44.3278 75.4738 44.5123 75.4738 44.5123 75.1912Z" fill="white"/>
<path fill-rule="evenodd" clip-rule="evenodd" d="M121.645 75.3325C122.152 75.2147 122.221 75.568 122.682 75.4973C123.858 80.6558 122.014 85.4844 121.184 89.9833C121.184 90.3602 120.677 90.478 120.446 90.7371C120.481 92.1942 120.23 93.6436 119.709 95.0004C119.248 91.3259 121.299 86.5915 121.645 82.3517C121.807 80.2553 121.645 78.1826 121.645 75.8036V75.3325Z" fill="white"/>
<path fill-rule="evenodd" clip-rule="evenodd" d="M84.3485 76.11C83.2537 77.2848 82.0578 78.3569 80.7754 79.3134C80.8907 77.8059 83.0806 77.1464 83.7491 75.8037C84.1641 75.686 84.0488 76.11 84.3485 76.11Z" fill="white"/>
<path fill-rule="evenodd" clip-rule="evenodd" d="M124.319 75.9449C124.504 75.9449 124.596 75.9449 124.619 76.1098C125.357 76.1098 125.311 77.2404 125.38 77.6173C125.717 83.3202 124.795 89.0276 122.683 94.3174C123.236 88.4052 125.241 82.5402 124.319 75.9449Z" fill="white"/>
<path fill-rule="evenodd" clip-rule="evenodd" d="M132.689 76.416C132.413 77.1933 131.49 77.8057 130.891 77.0284C131.375 76.3454 131.952 75.5916 132.689 76.416Z" fill="white"/>
<path fill-rule="evenodd" clip-rule="evenodd" d="M84.9476 76.7223C84.9476 76.9814 84.9476 77.3347 85.2472 77.476C84.2332 78.6817 83.0799 79.7574 81.8124 80.6794C80.1296 82.234 79.0001 85.1312 76.1416 84.6366C77.4556 83.1527 79.2767 82.0927 80.752 80.6794C82.0271 79.23 83.4317 77.9052 84.9476 76.7223V76.7223Z" fill="white"/>
<path fill-rule="evenodd" clip-rule="evenodd" d="M130.592 79.3132C132.298 79.8785 131.606 82.7286 131.629 84.6365C131.629 85.3432 131.422 84.4717 131.03 84.6365C131.426 86.3402 131.426 88.1149 131.03 89.8185C130.615 89.4416 130.569 88.6879 130.154 88.2875C130.154 90.1483 131.283 92.1975 130.154 94.0819C129.739 93.5401 129.647 92.6686 129.255 92.1033C130.116 87.8961 130.564 83.6115 130.592 79.3132V79.3132Z" fill="white"/>
<path fill-rule="evenodd" clip-rule="evenodd" d="M109.407 79.4546C110.236 79.8315 110.19 81.1034 110.167 82.3518C109.292 81.9985 109.384 80.703 109.407 79.4546Z" fill="white"/>
<path fill-rule="evenodd" clip-rule="evenodd" d="M76.8786 80.1847C77.1783 80.1847 76.8786 80.6793 77.3397 80.6322C76.5969 81.7024 75.6278 82.588 74.5043 83.2232C74.5043 83.0112 74.2737 82.8463 74.2046 82.6108C74.9423 81.5273 76.164 81.0562 76.8786 80.1847Z" fill="white"/>
<path fill-rule="evenodd" clip-rule="evenodd" d="M78.839 81.2918C77.6633 82.022 76.3493 84.5423 75.1045 83.6472C76.3493 82.9877 77.2483 81.1976 78.839 81.2918Z" fill="white"/>
<path fill-rule="evenodd" clip-rule="evenodd" d="M46.7505 81.7394C48.733 87.5573 50.7846 93.281 54.5191 97.2853C50.047 94.0348 47.857 88.4524 46.7505 81.7394Z" fill="white"/>
<path fill-rule="evenodd" clip-rule="evenodd" d="M109.267 82.658C109.64 82.9004 109.918 83.2689 110.053 83.6992C110.188 84.1296 110.171 84.5946 110.005 85.0134C109.336 84.613 109.152 83.7886 109.267 82.658Z" fill="white"/>
<path fill-rule="evenodd" clip-rule="evenodd" d="M106.016 85.5552C106.016 86.0498 105.693 86.2147 105.14 86.1676C105.002 86.1676 105.14 85.7436 104.817 85.6965C104.84 85.037 106.016 84.5895 106.016 85.5552Z" fill="white"/>
<path fill-rule="evenodd" clip-rule="evenodd" d="M108.968 85.1077C109.844 85.2961 109.96 86.2618 109.706 87.2276C109.401 86.9806 109.17 86.6507 109.039 86.2759C108.909 85.901 108.884 85.4961 108.968 85.1077Z" fill="white"/>
<path fill-rule="evenodd" clip-rule="evenodd" d="M40.6407 85.3904C41.3554 86.1206 40.5255 86.8508 40.1797 87.3925C39.993 87.0637 39.8974 86.6891 39.9031 86.309C40.1105 86.0028 40.4333 85.7437 40.6407 85.3904Z" fill="white"/>
<path fill-rule="evenodd" clip-rule="evenodd" d="M41.0783 87.2511C41.2397 87.2511 41.1936 87.5573 41.378 87.5573C41.378 88.4524 40.8017 88.5937 40.6403 89.2297C39.9026 88.4524 40.8247 87.84 41.0783 87.2511Z" fill="white"/>
<path fill-rule="evenodd" clip-rule="evenodd" d="M108.668 87.2511C109 87.436 109.249 87.7463 109.361 88.1159C109.473 88.4855 109.439 88.8851 109.267 89.2297C108.322 89.1355 108.506 88.0519 108.668 87.2511Z" fill="white"/>
<path fill-rule="evenodd" clip-rule="evenodd" d="M41.6775 89.0648C42.3691 89.8421 41.6775 91.0905 40.9399 91.4203C40.6171 90.1483 41.2626 89.8421 41.6775 89.0648Z" fill="white"/>
<path fill-rule="evenodd" clip-rule="evenodd" d="M88.0824 90.4309C88.067 90.7919 87.9705 91.1444 87.8003 91.4612C87.6302 91.778 87.391 92.0505 87.1013 92.2577C86.8116 92.465 86.4791 92.6013 86.1296 92.6562C85.7801 92.7111 85.4229 92.6831 85.0856 92.5743C84.9372 91.3742 85.2605 90.163 85.9847 89.2061C86.7578 89.4652 87.4714 89.8819 88.0824 90.4309Z" fill="white"/>
<path fill-rule="evenodd" clip-rule="evenodd" d="M108.323 89.371C108.761 89.371 108.692 90.0305 109.084 90.1247C107.784 95.0262 104.89 99.3294 100.877 102.326C100.716 101.784 101.361 101.431 101.615 101.101C102.833 99.7429 103.979 98.3197 105.05 96.8377C106.375 94.4633 107.472 91.9626 108.323 89.371V89.371Z" fill="white"/>
<path fill-rule="evenodd" clip-rule="evenodd" d="M68.6714 89.8185C68.4468 90.2391 68.3701 90.7257 68.454 91.1971C68.5379 91.6686 68.7773 92.0964 69.1324 92.4094C70.3081 92.5508 70.4925 91.6793 70.4694 90.5722C71.4837 90.5722 71.2071 91.6086 71.0688 92.2681C70.555 92.7643 69.8902 93.0653 69.1854 93.121C68.4806 93.1768 67.7784 92.9838 67.196 92.5743C66.8272 91.2082 67.196 89.6065 68.6714 89.8185Z" fill="white"/>
<path fill-rule="evenodd" clip-rule="evenodd" d="M104.934 90.737C104.918 91.1096 104.815 91.4729 104.634 91.797C104.38 91.8505 104.115 91.7997 103.897 91.6557C103.712 90.8784 104.519 90.4544 104.934 90.737Z" fill="white"/>
<path fill-rule="evenodd" clip-rule="evenodd" d="M41.9774 91.3495C42.4846 91.9619 41.7469 92.6214 41.5394 93.0219C41.2628 93.0219 41.5394 92.5036 41.2397 92.4094C41.2628 91.8206 41.8391 91.8206 41.9774 91.3495Z" fill="white"/>
<path fill-rule="evenodd" clip-rule="evenodd" d="M104.034 93.022C103.778 94.4591 103.237 95.8275 102.445 97.0428C101.652 98.2582 100.623 99.2946 99.4233 100.088C100.622 97.568 102.42 95.6365 103.596 93.022H104.034Z" fill="white"/>
<path fill-rule="evenodd" clip-rule="evenodd" d="M42.4378 93.1869C43.1745 93.5638 42.2306 94.2468 42.1385 94.6944C41.4709 94.3175 42.1846 93.5873 42.4378 93.1869Z" fill="white"/>
<path fill-rule="evenodd" clip-rule="evenodd" d="M129.069 93.6343C129.714 94.2702 130.221 96.2017 129.207 96.8377C128.908 95.6129 128.47 94.8356 129.069 93.6343Z" fill="white"/>
<path fill-rule="evenodd" clip-rule="evenodd" d="M122.153 94.3174C122.407 94.4587 122.153 95.024 122.591 95.0711C122.292 96.1311 121.923 97.1439 121.692 98.2745C121.482 97.6206 121.414 96.9274 121.493 96.2437C121.573 95.56 121.798 94.9025 122.153 94.3174Z" fill="white"/>
<path fill-rule="evenodd" clip-rule="evenodd" d="M43.0388 94.6943C43.3615 94.6943 43.2002 95.1419 43.4768 95.1654C43.4768 95.6836 42.9466 95.7307 42.8774 96.2254C42.5317 96.2254 42.7161 95.7778 42.4395 95.7543C42.4625 95.2361 42.9697 95.189 43.0388 94.6943Z" fill="white"/>
<path fill-rule="evenodd" clip-rule="evenodd" d="M118.811 94.8591C119.364 95.2831 119.065 96.767 118.95 97.4501C118.758 97.0498 118.647 96.6141 118.623 96.169C118.599 95.7239 118.663 95.2784 118.811 94.8591V94.8591Z" fill="white"/>
<path fill-rule="evenodd" clip-rule="evenodd" d="M43.7747 96.3666C44.2818 96.3666 44.0282 96.9319 44.374 96.979C44.374 97.5207 43.8438 97.5679 43.7747 98.0625C43.3597 98.0625 43.498 97.403 43.1753 97.2852C43.3367 96.9554 43.7747 96.7906 43.7747 96.3666Z" fill="white"/>
<path fill-rule="evenodd" clip-rule="evenodd" d="M51.084 96.6729C51.8908 97.3324 53.2509 98.039 53.1587 99.0283C52.6065 98.9256 52.1033 98.6387 51.7278 98.2124C51.3524 97.7862 51.1259 97.2447 51.084 96.6729V96.6729Z" fill="white"/>
<path fill-rule="evenodd" clip-rule="evenodd" d="M118.051 96.6729C118.29 97.2645 118.39 97.9055 118.342 98.5439C118.294 99.1823 118.1 99.8001 117.775 100.347C117.564 99.7496 117.48 99.1132 117.528 98.4798C117.576 97.8465 117.754 97.2307 118.051 96.6729V96.6729Z" fill="white"/>
<path fill-rule="evenodd" clip-rule="evenodd" d="M128.215 96.6729C128.561 97.0316 128.777 97.5001 128.827 98.0011C128.877 98.5021 128.759 99.0057 128.492 99.4287C128.132 98.5592 128.035 97.599 128.215 96.6729V96.6729Z" fill="white"/>
<path fill-rule="evenodd" clip-rule="evenodd" d="M31.0961 96.8376H31.6947C31.8328 97.2145 31.9249 97.6856 31.5335 97.8976C31.4313 97.8649 31.3374 97.8099 31.2581 97.7363C31.1789 97.6626 31.1163 97.5723 31.0746 97.4714C31.033 97.3705 31.0133 97.2615 31.017 97.1521C31.0207 97.0426 31.0477 96.9353 31.0961 96.8376V96.8376Z" fill="white"/>
<path fill-rule="evenodd" clip-rule="evenodd" d="M121.048 97.2853C121.241 97.9171 121.302 98.5834 121.227 99.2409C121.151 99.8984 120.941 100.532 120.61 101.101C119.849 99.8292 120.679 98.3452 121.048 97.2853Z" fill="white"/>
<path fill-rule="evenodd" clip-rule="evenodd" d="M44.8138 98.0626C45.1135 98.0626 44.9522 98.6279 45.2749 98.675C45.2285 98.8984 45.1183 99.1026 44.9583 99.2619C44.7982 99.4212 44.5955 99.5285 44.3759 99.5701C44.3849 99.4715 44.3599 99.3727 44.3052 99.291C44.2505 99.2092 44.1694 99.1497 44.0762 99.1226C44.1914 98.6279 44.6064 98.463 44.8138 98.0626Z" fill="white"/>
<path fill-rule="evenodd" clip-rule="evenodd" d="M127.454 99.0283C127.731 99.3439 127.908 99.738 127.961 100.158C128.015 100.579 127.942 101.006 127.754 101.384C127.534 101.04 127.392 100.649 127.341 100.241C127.289 99.8332 127.328 99.4187 127.454 99.0283Z" fill="white"/>
<path fill-rule="evenodd" clip-rule="evenodd" d="M45.5739 99.7349C46.0349 99.5935 45.8735 100.135 46.1502 100.182C46.1502 100.677 45.7352 100.865 45.5739 101.242C44.6518 100.795 45.2511 100.371 45.5739 99.7349Z" fill="white"/>
<path fill-rule="evenodd" clip-rule="evenodd" d="M110.466 100.041C111.434 101.195 110.466 102.397 109.867 103.245C109.014 101.996 109.867 100.96 110.466 100.041Z" fill="white"/>
<path fill-rule="evenodd" clip-rule="evenodd" d="M116.874 100.041C117.496 100.559 117.242 101.784 116.874 102.397C116.345 101.666 116.713 100.795 116.874 100.041Z" fill="white"/>
<path fill-rule="evenodd" clip-rule="evenodd" d="M119.709 100.653C120.261 101.219 119.962 102.608 119.548 103.009C119.304 102.232 119.361 101.388 119.709 100.653V100.653Z" fill="white"/>
<path fill-rule="evenodd" clip-rule="evenodd" d="M46.9104 101.384C46.9104 101.902 46.3809 101.949 46.3118 102.444C46.0816 102.161 46.473 101.384 46.9104 101.384Z" fill="white"/>
<path fill-rule="evenodd" clip-rule="evenodd" d="M126.557 101.384C126.767 101.688 126.904 102.038 126.956 102.407C127.008 102.775 126.974 103.151 126.857 103.504C126.646 103.2 126.51 102.849 126.458 102.481C126.406 102.112 126.44 101.736 126.557 101.384Z" fill="white"/>
<path fill-rule="evenodd" clip-rule="evenodd" d="M47.648 102.467C47.648 103.009 47.1184 103.056 47.0494 103.527C46.635 103.15 47.1875 102.467 47.648 102.467Z" fill="white"/>
<path fill-rule="evenodd" clip-rule="evenodd" d="M118.81 102.467C119.018 102.868 118.995 103.504 119.248 103.857C118.852 104.292 118.546 104.805 118.349 105.364C118.202 104.878 118.167 104.363 118.247 103.86C118.327 103.358 118.52 102.881 118.81 102.467V102.467Z" fill="white"/>
<path fill-rule="evenodd" clip-rule="evenodd" d="M115.976 102.632C116.297 103.056 116.205 103.433 116.113 103.998C115.792 103.739 116.068 103.033 115.976 102.632Z" fill="white"/>
<path fill-rule="evenodd" clip-rule="evenodd" d="M108.668 102.773C108.921 103.121 109.043 103.55 109.013 103.982C108.984 104.414 108.804 104.821 108.507 105.129C108.323 104.564 108.323 103.08 108.668 102.773Z" fill="white"/>
<path fill-rule="evenodd" clip-rule="evenodd" d="M125.818 103.08C126.076 103.41 126.227 103.813 126.252 104.235C126.277 104.657 126.174 105.076 125.957 105.435C125.733 105.09 125.603 104.69 125.578 104.276C125.554 103.863 125.637 103.45 125.818 103.08Z" fill="white"/>
<path fill-rule="evenodd" clip-rule="evenodd" d="M115.237 104.304C115.628 104.705 115.237 105.694 115.099 105.977C114.615 105.506 115.237 104.728 115.237 104.304Z" fill="white"/>
<path fill-rule="evenodd" clip-rule="evenodd" d="M107.33 104.446C107.906 104.611 107.653 106.377 107.33 106.589C107.126 106.271 107.018 105.898 107.018 105.517C107.018 105.137 107.126 104.764 107.33 104.446V104.446Z" fill="white"/>
<path fill-rule="evenodd" clip-rule="evenodd" d="M117.543 104.752C117.722 105.086 117.804 105.465 117.779 105.844C117.755 106.224 117.625 106.588 117.405 106.895C117.224 106.562 117.141 106.183 117.165 105.803C117.19 105.423 117.321 105.058 117.543 104.752V104.752Z" fill="white"/>
<path fill-rule="evenodd" clip-rule="evenodd" d="M124.921 105.223C125.243 105.906 125.703 106.448 125.22 107.202C125.005 106.566 124.904 105.896 124.921 105.223V105.223Z" fill="white"/>
<path fill-rule="evenodd" clip-rule="evenodd" d="M49.2841 105.364H49.7445C49.7445 105.765 49.7445 106.024 49.2841 105.977C48.8236 105.93 49.3071 105.788 49.2841 105.364Z" fill="white"/>
<path fill-rule="evenodd" clip-rule="evenodd" d="M114.178 106.424C114.708 107.249 113.579 107.649 113.44 108.262C113.071 107.626 113.994 107.013 114.178 106.424Z" fill="white"/>
<path fill-rule="evenodd" clip-rule="evenodd" d="M77.0409 109.793C73.6292 109.227 69.8948 108.945 68.0967 106.731C68.2119 106.731 68.235 106.589 68.3964 106.589C68.5577 106.589 68.5347 106.589 68.5347 106.731C69.9409 107.178 71.3701 107.814 72.8685 108.262C74.329 108.546 75.7368 109.063 77.0409 109.793Z" fill="white"/>
<path fill-rule="evenodd" clip-rule="evenodd" d="M116.574 106.731C116.746 106.957 116.826 107.244 116.796 107.53C116.766 107.815 116.628 108.078 116.413 108.262C116.044 107.908 116.367 106.99 116.574 106.731Z" fill="white"/>
<path fill-rule="evenodd" clip-rule="evenodd" d="M124.182 106.731C124.465 107.004 124.637 107.377 124.662 107.775C124.688 108.172 124.566 108.565 124.32 108.874C124.097 108.568 123.966 108.204 123.942 107.823C123.917 107.443 124.001 107.064 124.182 106.731V106.731Z" fill="white"/>
<path fill-rule="evenodd" clip-rule="evenodd" d="M105.233 107.037C105.993 107.272 105.671 108.709 105.233 109.039C104.911 108.639 105.095 107.484 105.233 107.037Z" fill="white"/>
<path fill-rule="evenodd" clip-rule="evenodd" d="M115.675 107.955C116.136 108.544 115.675 109.416 115.376 109.793C115.236 109.492 115.189 109.154 115.243 108.826C115.296 108.497 115.447 108.193 115.675 107.955V107.955Z" fill="white"/>
<path fill-rule="evenodd" clip-rule="evenodd" d="M89.1206 109.934C83.3806 112.925 71.0246 112.289 66.0684 108.426C66.1836 108.426 66.2067 108.262 66.368 108.262C72.4984 110.616 79.1106 111.353 85.5936 110.405C86.8615 110.193 87.991 109.298 89.1206 109.934Z" fill="white"/>
<path fill-rule="evenodd" clip-rule="evenodd" d="M123.282 108.45C123.444 108.75 123.54 109.082 123.564 109.424C123.588 109.765 123.539 110.108 123.42 110.429C123.166 109.816 122.798 108.921 123.282 108.45Z" fill="white"/>
<path fill-rule="evenodd" clip-rule="evenodd" d="M89.4188 108.568H90.1565C90.2717 109.039 90.2717 108.874 90.1565 109.321C89.4649 109.392 89.1652 109.086 89.4188 108.568Z" fill="white"/>
<path fill-rule="evenodd" clip-rule="evenodd" d="M112.701 108.733C113.115 109.039 112.494 109.51 112.402 109.793C111.941 109.486 112.586 108.992 112.701 108.733Z" fill="white"/>
<path fill-rule="evenodd" clip-rule="evenodd" d="M114.477 109.486C115.099 110.688 113.97 111.394 113.739 112.219C113.14 111.041 114.108 110.17 114.477 109.486Z" fill="white"/>
<path fill-rule="evenodd" clip-rule="evenodd" d="M122.154 110.099C122.661 110.099 122.707 111.371 122.454 111.771C122.154 111.559 122.154 110.452 122.154 110.099Z" fill="white"/>
<path fill-rule="evenodd" clip-rule="evenodd" d="M111.34 110.405C111.801 110.829 111.34 111.489 111.041 111.771C110.627 111.3 111.248 110.806 111.34 110.405Z" fill="white"/>
<path fill-rule="evenodd" clip-rule="evenodd" d="M121.484 111.3C121.614 111.45 121.713 111.624 121.777 111.813C121.841 112.002 121.867 112.202 121.854 112.401C121.841 112.601 121.789 112.796 121.702 112.975C121.615 113.154 121.494 113.313 121.345 113.444C120.585 112.878 121.069 111.865 121.484 111.3Z" fill="white"/>
<path fill-rule="evenodd" clip-rule="evenodd" d="M112.933 111.771C114.017 112.643 112.172 114.857 111.596 113.609C111.942 113.609 111.919 113.868 112.334 113.75C112.08 112.714 112.564 112.36 112.933 111.771Z" fill="white"/>
<path fill-rule="evenodd" clip-rule="evenodd" d="M62.7249 112.219C63.121 112.141 63.5309 112.187 63.901 112.351C64.2711 112.515 64.5843 112.789 64.7996 113.137C64.3846 114.103 62.2177 113.161 62.7249 112.219Z" fill="white"/>
<path fill-rule="evenodd" clip-rule="evenodd" d="M110.004 112.219C110.419 112.549 109.82 113.137 109.406 113.137C109.59 112.808 109.912 112.643 110.004 112.219Z" fill="white"/>
<path fill-rule="evenodd" clip-rule="evenodd" d="M120.148 113.444C120.978 114.339 120.009 115.799 118.649 115.422C118.995 114.598 119.848 114.244 120.148 113.444Z" fill="white"/>
<path fill-rule="evenodd" clip-rule="evenodd" d="M67.1964 113.75C67.4496 113.75 67.5187 113.938 67.7949 113.915C67.7949 114.386 67.6568 114.574 67.1964 114.503C67.1058 114.4 67.0557 114.266 67.0557 114.127C67.0557 113.988 67.1058 113.853 67.1964 113.75V113.75Z" fill="white"/>
<path fill-rule="evenodd" clip-rule="evenodd" d="M65.9996 116.953C63.6943 116.953 61.6196 115.446 59.4297 114.81C59.5449 114.409 59.8677 114.244 60.029 113.915C62.0706 114.818 64.0636 115.833 65.9996 116.953Z" fill="white"/>
<path fill-rule="evenodd" clip-rule="evenodd" d="M94.1907 114.197C94.5826 114.197 94.3752 114.315 94.3521 114.503C91.4936 115.54 87.8514 118.107 84.2091 118.626C83.3107 118.673 82.4105 118.673 81.512 118.626C79.0454 118.767 76.2792 119.709 73.9048 118.626C73.9048 117.024 75.3801 117.848 76.21 117.872C82.4151 118.277 88.6155 117.01 94.1907 114.197Z" fill="white"/>
<path fill-rule="evenodd" clip-rule="evenodd" d="M72.867 114.504H73.4656V115.116C72.9821 115.187 72.798 114.998 72.867 114.504Z" fill="white"/>
<path fill-rule="evenodd" clip-rule="evenodd" d="M80.3147 114.975H80.7751C80.916 115.198 80.9656 115.468 80.9133 115.728C80.4528 115.728 80.637 115.728 80.1766 115.728C80.1243 115.468 80.1739 115.198 80.3147 114.975V114.975Z" fill="white"/>
<path fill-rule="evenodd" clip-rule="evenodd" d="M67.6348 116.647C68.4416 116.647 68.8796 117 69.7325 116.953C69.7325 117.518 69.5481 117.683 69.5712 118.178C68.8104 118.178 68.3955 117.777 67.6348 117.707V116.647Z" fill="white"/>
<path fill-rule="evenodd" clip-rule="evenodd" d="M71.0698 117.26C71.7153 117.142 71.9228 117.519 72.5682 117.401C72.6177 117.871 72.5625 118.346 72.4069 118.791C72.1763 118.461 71.3234 118.791 71.0698 118.484V117.26Z" fill="white"/>
<path fill-rule="evenodd" clip-rule="evenodd" d="M57.9526 122.583C62.7205 124.607 67.7398 125.947 72.8674 126.563C74.6425 126.775 76.5327 127.199 78.2386 127.317C81.5613 127.142 84.8587 126.629 88.0819 125.786C89.7878 125.551 91.4706 125.409 92.992 125.032C94.329 124.486 95.7329 124.13 97.1645 123.972C96.3807 125.244 94.5826 125.48 93.1534 125.951C82.9643 129.154 65.8134 128.306 57.9526 123.596V122.583Z" fill="white"/>
<path fill-rule="evenodd" clip-rule="evenodd" d="M95.9887 130.521C96.3114 130.827 95.689 131.439 95.8273 132.052C91.8556 133.417 87.764 134.387 83.6096 134.949C83.0102 134.76 84.209 133.983 84.3473 133.559C88.3808 133.307 92.331 132.276 95.9887 130.521V130.521Z" fill="white"/>
<path fill-rule="evenodd" clip-rule="evenodd" d="M58.23 130.968C64.756 132.956 71.5466 133.886 78.3546 133.724C78.3546 134.431 77.4555 134.336 77.2942 134.949C69.8714 134.643 63.0479 133.842 58.23 130.968Z" fill="white"/>
<path fill-rule="evenodd" clip-rule="evenodd" d="M83.3108 133.724C82.9954 134.225 82.5439 134.621 82.0116 134.863C81.4794 135.106 80.8894 135.185 80.314 135.09C80.6132 134.573 81.0624 134.164 81.5993 133.919C82.1362 133.674 82.7343 133.606 83.3108 133.724Z" fill="white"/>
<path fill-rule="evenodd" clip-rule="evenodd" d="M80.6597 133.865C80.36 134.313 79.7607 134.478 79.6224 135.09H78.3545C78.7925 134.36 79.1844 133.63 80.6597 133.865Z" fill="white"/>
<path fill-rule="evenodd" clip-rule="evenodd" d="M65.3998 152.167C65.2614 152.78 64.7082 152.992 64.5007 153.533C63.9936 153.533 63.9475 153.298 63.4634 153.392C63.9936 152.874 64.1088 151.908 65.3998 152.167Z" fill="white"/>
<path fill-rule="evenodd" clip-rule="evenodd" d="M67.4971 152.167C66.8978 152.78 66.5059 154.216 65.1919 153.698C65.9296 153.204 66.114 152.049 67.4971 152.167Z" fill="white"/>
<path fill-rule="evenodd" clip-rule="evenodd" d="M69.2705 152.308C69.1091 153.156 68.4637 153.533 68.0948 154.146C67.726 154.146 67.6568 153.886 67.1958 154.004C67.8643 153.415 68.1179 152.403 69.2705 152.308Z" fill="white"/>
<path fill-rule="evenodd" clip-rule="evenodd" d="M71.6695 152.615C70.9088 153.274 70.7013 154.475 69.1338 154.287C69.6179 153.203 70.0328 152.214 71.6695 152.615Z" fill="white"/>
<path fill-rule="evenodd" clip-rule="evenodd" d="M73.1685 152.78C72.6844 153.533 72.0159 154.829 70.8633 154.287C71.5548 153.769 71.7854 152.685 73.1685 152.78Z" fill="white"/>
<path fill-rule="evenodd" clip-rule="evenodd" d="M75.1041 152.921C74.3203 153.557 74.0667 155.017 72.7988 154.593C73.3982 153.934 73.744 152.874 75.1041 152.921Z" fill="white"/>
<path fill-rule="evenodd" clip-rule="evenodd" d="M77.9394 153.203C76.5793 153.627 76.3949 155.276 74.3433 155.017C75.1962 153.934 75.7725 152.709 77.9394 153.203Z" fill="white"/>
<path fill-rule="evenodd" clip-rule="evenodd" d="M79.8763 153.204C79.1386 154.169 78.6776 155.559 76.7412 155.182C77.7094 154.311 77.8708 152.756 79.8763 153.204Z" fill="white"/>
<path fill-rule="evenodd" clip-rule="evenodd" d="M62.726 154.146C63.0718 154.146 63.1179 154.664 63.4637 154.758C63.2562 155.206 62.8874 154.57 62.4263 154.758C62.2188 154.334 62.726 154.452 62.726 154.146Z" fill="white"/>
<path fill-rule="evenodd" clip-rule="evenodd" d="M85.0852 6.29455C92.5448 6.13827 99.9431 7.70007 106.731 10.8641C105.303 9.34487 103.437 8.33009 101.406 7.96692C93.8912 5.37593 84.1401 5.2346 73.7435 4.76352C69.228 4.38905 64.6882 5.06553 60.4655 6.74209C61.7564 7.54294 63.5084 6.60076 65.0759 6.29455C68.2311 5.78374 71.4265 5.57869 74.6195 5.68214C65.0997 6.8316 55.8612 9.72816 47.3487 14.2324C45.8734 15.0804 44.4211 15.5986 43.038 16.3759C41.7693 17.2473 40.5671 18.2158 39.4418 19.2731C37.3902 20.8748 35.0158 22.1467 32.8719 23.7013C30.7281 25.2559 28.8608 26.9754 26.6248 28.4122C25.8871 30.2023 23.5588 31.9218 22.0143 33.759C18.0602 38.3797 14.7054 43.5018 12.0327 48.9987C13.6687 44.4268 15.9269 40.1132 18.7409 36.1851C20.1414 34.3336 21.6341 32.5568 23.213 30.8618C24.8037 29.1659 25.9793 27.0225 27.5238 25.3736C29.4371 23.348 31.6963 21.4401 33.794 19.5793C40.2486 13.9026 48.5244 10.9348 56.8463 6.93052C51.2344 8.2031 45.852 10.3648 40.8941 13.3373C50.4936 6.42821 62.0043 2.83786 73.7435 3.09115C78.9275 3.1621 84.1017 3.57121 89.2346 4.31598C92.1853 4.81062 95.3204 4.81063 97.9253 5.37593C101.18 6.1791 104.335 7.35648 107.331 8.88554C116.021 12.8898 122.96 19.2259 129.691 24.879C129.441 25.3176 129.24 25.7838 129.092 26.2687C129.507 26.6691 129.945 25.1617 130.59 25.7976C130.59 26.2452 130.936 26.3629 131.19 26.5749C131.19 27.2816 130.521 27.5171 130.291 28.0824C127.308 24.965 124.12 22.0609 120.747 19.3908C118.509 17.1265 115.943 15.2278 113.14 13.7613C114.696 15.4456 116.445 16.9323 118.35 18.1895C120.171 19.697 121.807 21.4872 123.582 22.9004C113.463 15.1981 101.683 7.8727 85.0852 6.29455Z" fill="white"/>
<path fill-rule="evenodd" clip-rule="evenodd" d="M6.47745 72.4354C7.79143 71.6346 7.5148 69.7973 7.67617 68.6432C9.08235 58.6796 13.1626 51.0009 16.8971 43.3221C19.1043 39.6025 21.8741 36.2635 25.1037 33.4293C27.9937 30.2921 31.1572 27.4302 34.5551 24.879C38.0104 22.3301 41.5962 19.9713 45.2974 17.8127C49.0179 15.3589 53.011 13.3664 57.1924 11.877C61.7687 10.3166 66.454 9.11186 71.2081 8.27314C76.6855 7.8411 82.1951 8.19791 87.5752 9.33309C96.7903 10.9163 105.671 14.1031 113.832 18.7549C127.433 26.7163 139.212 42.4977 144.606 59.1743C145.667 62.4012 146.128 66.2406 146.912 69.8445C147.868 73.6246 148.172 77.5463 147.811 81.4332C147.193 88.8086 145.691 96.0786 143.339 103.08C141.009 109.148 138.106 114.97 134.671 120.463C131.374 125.786 126.095 129.155 122.453 134.172C119.249 136.715 116.275 139.778 112.702 142.109C112.333 142.345 111.526 142.109 111.204 142.416C107.051 144.804 102.642 146.693 98.064 148.045C93.0893 149.733 87.9352 150.808 82.7112 151.249C77.2092 151.355 71.7106 150.897 66.298 149.882C57.0908 148.443 48.2307 145.247 40.1798 140.461C36.5204 138.328 33.0899 135.81 29.9446 132.947C28.7459 131.816 27.6394 130.12 26.3715 128.683C25.1037 127.247 23.4669 126.187 22.4296 124.938C20.7974 122.679 19.3039 120.32 17.9575 117.872C11.3286 106.201 7.82989 92.9491 7.81448 79.4547C7.81448 78.1592 8.32163 76.2277 6.9385 75.1913C6.35606 77.2162 6.09914 79.3242 6.17777 81.4332C6.37597 93.5339 9.2859 105.427 14.684 116.2C15.742 118.614 17.0398 120.911 18.5568 123.054C19.0179 123.643 19.6633 123.973 20.1935 124.585C22.1299 126.705 23.6283 129.296 25.8644 131.439C27.8392 133.678 29.9735 135.764 32.2498 137.681C33.4025 138.459 34.7625 139.047 35.9843 139.825C44.6396 145.188 53.9377 149.384 63.647 152.309C62.5635 153.792 60.6732 152.591 59.3362 152.167C57.9992 151.743 55.9475 151.201 54.403 150.801C45.5652 148.139 37.4162 143.505 30.544 137.234C23.5751 131.599 17.8354 124.539 13.6928 116.506C12.5985 113.605 11.0831 110.89 9.19762 108.45C13.35 119.764 20.2896 129.792 29.3453 137.563C33.775 141.542 38.687 144.922 43.9604 147.621C49.8139 150.388 55.9324 152.527 62.2177 154.004C61.5262 154.9 60.4197 154.004 59.682 153.84C57.1232 153.109 53.8037 152.521 51.314 151.484C49.3316 150.707 47.3952 149.411 45.3666 148.446C39.3075 145.849 33.6289 142.409 28.4923 138.223C22.0097 132.582 16.5477 125.822 12.3558 118.249C5.64757 106.401 2.28195 91.7972 3.34235 73.3541C3.64985 69.3197 4.19643 65.3081 4.97906 61.3413C5.23263 59.9987 5.20958 58.7268 5.4401 57.3842C6.03597 55.142 6.80684 52.9523 7.74532 50.836C9.84255 44.7868 13.033 39.1938 17.1506 34.3479C22.1842 27.9322 28.0379 22.2361 34.5551 17.4123C29.3083 22.102 24.4222 27.1969 19.94 32.652C18.3351 34.4021 16.8848 36.2938 15.6061 38.3051C14.7302 39.7654 14.2 41.7204 13.3009 43.487C12.4019 45.2536 11.5028 46.714 10.8113 48.3628C9.49729 52.0137 8.82878 55.9709 7.5148 59.9516C6.2991 64.0135 5.526 68.2001 5.20958 72.4354C4.55571 78.6309 4.70297 84.8873 5.64757 91.0434C5.85504 85.0606 5.16347 77.641 6.40829 71.2342C6.70797 70.1036 6.10862 72.2234 6.47745 72.4354ZM65.399 64.8274C68.5152 63.1007 71.2162 60.6869 73.3059 57.761C78.4004 50.9302 76.8559 36.562 72.2685 29.8726C71.1658 28.0065 69.8672 26.2689 68.3957 24.6906C67.4276 23.8897 66.2288 23.2773 65.2606 22.5471C64.2924 21.8169 63.3012 20.9925 62.1255 20.1917C58.6619 19.0366 55.0234 18.526 51.3832 18.6842C48.9224 18.9443 46.5093 19.5548 44.214 20.4979C40.6178 21.8169 36.6067 23.7955 34.9931 26.5985C40.6409 23.3009 47.5565 18.4251 56.9157 20.1917C58.9291 20.7844 60.8821 21.5732 62.7479 22.5471C67.5723 24.9178 71.3488 29.054 73.3289 34.1359C75.7975 40.3145 75.9616 47.2038 73.79 53.4977C72.1295 57.1193 69.6766 60.3026 66.6207 62.8017C64.7579 64.139 62.7554 65.2608 60.6502 66.1464C59.6128 66.641 58.5294 66.5233 57.6765 67.2064C60.4888 67.8659 63.2781 66.0522 65.399 64.8274ZM94.0529 25.3501C94.1912 24.879 94.5831 24.667 94.4909 23.984C93.1077 24.4079 92.8772 25.7976 92.1856 26.7163C90.4567 28.742 88.6126 29.2366 87.2525 31.7569C86.7453 32.6755 85.9846 33.6413 85.6158 34.4892C85.2658 35.8841 85.0649 37.3135 85.0164 38.7526C84.3733 41.0469 84.1237 43.4376 84.2787 45.8189C84.8865 50.1479 86.4643 54.2751 88.8892 57.8788C91.2788 60.6874 94.2858 62.8775 97.6637 64.2696C101.042 65.6616 104.694 66.216 108.322 65.8873C108.207 66.3113 108.322 66.9708 108.023 67.2535C106.386 67.1357 104.657 67.0179 102.951 66.8059C101.245 66.5939 99.6776 65.8402 98.6403 66.4997C102.979 68.4942 107.839 68.9743 112.472 67.8659C119.387 66.0286 126.557 59.9045 128.285 53.2386C128.922 49.5818 128.717 45.8239 127.686 42.2622C127.409 48.3864 127.456 53.7803 125.381 57.6668C124.245 59.2319 122.885 60.6135 121.347 61.7653C119.88 63.2047 118.092 64.2559 116.137 64.8274C116.344 64.1914 116.344 63.2963 117.174 63.2963C117.174 63.6261 116.944 64.3563 117.474 64.2149C117.635 63.0843 118.65 62.6132 118.673 61.8595C120.379 61.6004 121.162 59.8574 122.707 59.8809C122.707 59.2921 122.43 59.1507 122.545 58.5148C124.297 56.866 124.735 53.8039 125.819 51.4484C125.519 49.093 126.51 46.9966 126.418 44.5941C126.211 39.1766 124.113 32.8169 121.208 29.9668C118.245 27.0745 114.6 25.0137 110.627 23.984C107.631 23.5364 104.634 23.3009 101.084 23.0653C101.314 22.5236 101.36 21.8169 101.821 21.5343C105.313 21.4236 108.808 21.6285 112.264 22.1467C110.477 20.9854 108.411 20.3497 106.294 20.3095C102.486 19.8958 98.6359 20.2316 94.9519 21.2987C89.1197 23.9133 83.933 28.6006 82.8495 35.3136C83.933 34.6777 84.3248 33.288 84.9473 32.2751C87.465 28.0547 91.2253 24.7566 95.6896 22.8533C94.9519 23.5129 95.2285 25.1617 94.0529 25.3501ZM52.1209 21.9818C50.853 22.0996 49.4238 21.9818 48.0867 22.1467C42.5194 23.3516 37.524 26.4689 33.9327 30.9796C32.2483 33.6079 31.125 36.5695 30.6362 39.6712C29.7833 48.3392 33.2641 57.1486 37.6671 60.3991C40.2029 62.307 43.2919 65.3927 46.888 65.2749C48.663 65.2749 50.0231 65.6046 51.4985 65.5811C52.9738 65.5575 53.965 65.1807 55.0946 65.1336C56.2242 65.0865 56.8235 65.3927 57.6304 65.2749C59.8514 64.6581 61.9608 63.6798 63.8775 62.3777C66.6978 60.9891 69.0435 58.7648 70.6088 55.9944C71.0698 55.1936 71.577 54.2279 71.9458 53.4034C73.548 49.3368 73.9096 44.8702 72.9831 40.5898C72.7265 38.5717 72.2787 36.5838 71.6461 34.6541C68.8337 27.2816 60.6502 22.712 52.5589 21.5343C52.5589 21.5343 52.3744 21.5343 52.3975 21.6756C52.4205 21.8169 52.19 21.8641 52.1209 21.9818ZM121.485 28.3651C119.508 25.8407 116.795 24.0257 113.739 23.1831C116.344 24.9026 118.811 26.7634 121.485 28.3651ZM28.6998 49.093C29.4766 51.1128 30.0333 53.214 30.3596 55.3585C32.8723 60.2813 36.0765 64.5447 41.8857 66.0286C40.5717 64.1443 37.598 63.6732 35.9152 61.7417C34.3268 59.6798 32.9806 57.4346 31.9041 55.0523C30.6796 52.3515 29.9006 49.4625 29.5988 46.502C28.9995 41.5016 29.7987 36.43 31.9041 31.8747C32.296 31.0503 32.8723 30.2965 32.6648 29.8961C28.3771 32.7698 27.455 42.4977 28.6998 49.1165V49.093ZM125.381 34.0181C125.381 33.3351 125.196 32.864 124.62 32.7933C124.62 33.4999 124.805 33.9475 125.381 34.0417V34.0181ZM127.294 39.9539C127.368 38.5557 127.005 37.1698 126.257 35.9967C126.018 36.6898 125.989 37.4406 126.174 38.1508C126.359 38.8611 126.749 39.4977 127.294 39.9774V39.9539ZM81.6738 42.0973C81.3972 48.1273 83.0339 55.3349 85.5466 58.7032C86.6071 59.8618 87.7556 60.9329 88.9814 61.9066C91.0339 64.0284 93.702 65.4163 96.5886 65.8637C96.7039 65.11 95.7818 65.2278 95.3899 64.9451C94.998 64.6625 94.5139 64.0501 94.0529 63.7439C93.223 63.1785 92.1856 63.0372 91.3558 62.519C84.6706 58.2321 82.6651 49.0459 82.1349 38.729C81.7761 39.8205 81.6197 40.9708 81.6738 42.1209V42.0973ZM80.1754 61.1529C74.5276 59.1036 72.8448 70.5746 79.7144 68.9258C80.7061 68.524 81.5308 67.7832 82.0478 66.8297C82.5649 65.8762 82.7423 64.769 82.5498 63.6967C81.6277 62.5426 81.2128 61.5533 80.1754 61.1764V61.1529ZM45.113 67.2535C46.1042 67.3948 47.0033 68.3605 48.0867 67.8659C48.3864 66.4055 45.6201 66.5939 45.113 67.2535ZM50.6455 67.5597C50.415 68.7138 52.6741 68.5018 52.9507 67.8659C52.6741 67.277 51.2218 67.3006 50.6916 67.5597H50.6455ZM29.1608 69.9151C26.1508 70.4703 23.2813 71.6399 20.7237 73.3541C20.1244 73.8487 19.6403 74.6967 18.9487 75.3326C17.3202 76.6229 16.0097 78.2846 15.122 80.1848C14.5001 81.1898 14.1943 82.3653 14.2461 83.5531C16.7405 79.5209 20.1082 76.1282 24.0894 73.6367C27.6702 71.6843 31.5817 70.4453 35.6155 69.9858C38.3126 69.9858 40.4103 70.9751 42.7847 71.0457C40.0646 67.5832 33.9557 68.7374 29.1608 70.0093V69.9151ZM67.9347 75.7095C70.2399 72.3883 66.6438 68.7845 63.3243 69.6089C61.4801 70.0564 60.7424 72.4354 60.7885 75.2384C61.895 77.8294 66.5746 77.8294 67.9347 75.8037V75.7095ZM89.258 74.626C89.8113 77.2405 94.4678 77.4525 95.6896 75.7095C97.8334 72.6239 95.436 68.8787 91.3558 70.2213C90.5236 70.5734 89.8486 71.2282 89.4612 72.059C89.0737 72.8899 89.0014 73.838 89.258 74.7202V74.626ZM56.3164 81.4332C54.6105 79.596 53.2274 77.0992 51.2218 75.1913C49.1719 73.2611 46.8383 71.6715 44.3062 70.4804C44.1678 70.4804 44.1217 70.6217 44.0065 70.6453C43.8912 70.6689 43.776 70.7631 43.776 71.0693C45.3205 72.883 47.5335 73.4247 49.2854 74.7202C54.4952 78.8894 56.8927 85.4846 58.2297 93.5638C58.7655 89.4161 58.1003 85.1989 56.3164 81.4332V81.4332ZM117.313 71.0693C113.361 71.1505 109.52 72.4204 106.271 74.7202C107.769 75.0735 109.221 73.7309 111.042 73.2127C114.715 72.0299 118.63 71.8673 122.384 72.7416C122.256 73.2129 122 73.6375 121.646 73.9665C110.812 73.2598 102.974 77.8058 99.2627 85.2491C97.1381 88.8152 96.2 92.9881 96.5886 97.144C97.017 102.733 99.4854 107.954 103.504 111.771C106.26 113.852 109.338 115.444 112.61 116.482C115.754 117.665 119.137 118.03 122.453 117.542C127.169 116.352 131.431 113.752 134.694 110.075C137.843 105.568 139.608 100.206 139.765 94.6708C139.774 91.8152 139.274 88.9818 138.29 86.309C138.013 85.6024 138.06 84.7073 137.852 84.1891C136.792 81.551 134.025 79.9964 132.32 77.9236C132.804 77.9236 133.034 76.8166 133.518 77.1699C134.002 77.5232 133.518 77.9236 133.518 78.7009C134.164 78.9129 133.841 78.1121 134.417 78.2298C138.728 82.3754 141.079 89.6066 140.595 98.3689C140.595 100.442 139.95 102.326 139.696 104.446C143.108 100.819 142.002 92.8336 140.895 87.5338C140.296 84.8251 139.074 82.4696 138.59 80.4675C138.129 78.748 134.717 76.3926 133.219 75.2855C130.656 73.5183 127.758 72.3225 124.712 71.7759C124.39 71.7759 124.39 71.399 124.413 71.0222C122.315 71.6817 119.71 70.928 117.313 71.0693V71.0693ZM50.9452 109.322C53.3293 106.47 55.0127 103.079 55.8553 99.4288C56.2674 98.0903 56.5227 96.7067 56.6161 95.3068C56.7544 88.7115 55.0024 80.5617 50.0462 76.7223C49.6312 76.3926 49.0319 76.1335 48.5478 75.8037C45.7508 73.8575 42.624 72.4598 39.3269 71.6817C32.757 69.9858 27.478 72.6003 23.3517 74.7202C22.4757 76.1806 20.8159 77.0757 19.6403 78.536C17.9187 80.7402 16.5565 83.2138 15.6061 85.8615C11.5028 97.1205 15.9058 108.45 24.0894 112.831C27.9895 115.064 32.3898 116.224 36.8603 116.2C39.3875 115.823 41.8839 115.256 44.3292 114.504C46.6186 112.891 48.8268 111.162 50.9452 109.322V109.322ZM74.0666 75.474C74.4585 74.3198 75.7033 73.99 76.1413 72.883C68.7646 74.6967 71.3464 86.5681 77.9394 87.3689C79.2464 87.4487 80.5534 87.2131 81.7548 86.6811C82.9562 86.1492 84.0182 85.3358 84.855 84.3069C85.4774 83.4354 86.3073 81.5746 85.3161 80.3497C85.0333 81.2776 84.5513 82.1292 83.9052 82.8424C83.2591 83.5556 82.4652 84.1122 81.5816 84.4718C82.6651 83.0349 84.2326 82.1163 84.855 80.1848C82.5498 80.9857 81.0745 85.673 78.1468 85.0842C80.8232 83.0028 83.2731 80.6338 85.4544 78.0178C85.8002 78.2063 85.4544 79.0542 86.0538 79.0778C86.1836 77.6448 85.8443 76.2082 85.0892 74.9934C84.3342 73.7785 83.2059 72.854 81.8813 72.3648C81.6277 72.0821 81.8813 72.1763 81.8813 71.7759C80.9362 71.7759 80.5673 72.5532 79.3456 72.3648C79.0459 72.6474 79.3456 72.9301 79.3456 73.2834C77.2939 74.6496 75.3345 76.9108 73.5364 77.9943C73.5364 75.6388 75.588 75.1206 76.6484 73.7309C75.6341 74.1785 74.7121 75.474 74.0666 75.474ZM104.634 76.2277C98.502 80.703 91.2175 91.2083 95.5282 101.69C95.1981 99.6752 95.0975 97.628 95.2285 95.5895C95.7568 90.1247 97.8314 84.9355 101.199 80.6559C102.421 79.1485 104.403 78.3005 104.934 76.2277H104.634ZM12.2866 86.7801C10.9957 94.3175 11.9408 103.975 16.3208 107.037C14.2092 103.321 12.985 99.1491 12.7477 94.8593C12.5171 91.1141 13.9694 87.7929 14.2461 84.1891H13.8081C13.347 85.1077 13.2087 86.3326 12.2866 86.7801ZM88.6817 95.0006C89.4713 94.3885 90.0537 93.5393 90.3472 92.572C90.6407 91.6047 90.6306 90.5678 90.3184 89.6066C89.8013 88.6997 89.0165 87.9834 88.0765 87.5602C87.1365 87.1371 86.0895 87.0289 85.0856 87.2512C83.2414 87.7458 82.642 90.7843 82.7803 93.0456C84.3479 94.3175 86.607 95.9428 88.6817 95.0006V95.0006ZM73.0062 89.6066C72.5682 87.9814 70.0786 87.0156 67.9347 87.4632C65.7908 87.9107 64.961 90.1248 65.2606 92.81C67.4737 96.673 74.4815 95.1184 73.0062 89.6066ZM7.5148 99.5701C7.61937 98.3079 7.24832 97.0526 6.47745 96.0605C6.20082 97.3089 6.17777 99.4995 7.5148 99.5701ZM55.9245 102.938C55.1668 104.888 54.1839 106.739 52.9969 108.45C51.3659 110.256 49.5142 111.839 47.4874 113.161C46.5355 113.942 45.5344 114.658 44.4906 115.305C43.4763 115.87 42.0009 115.94 41.2172 117.118C46.1503 116.977 48.1328 113.821 51.4985 112.101C54.5644 109.581 55.694 105.93 57.469 102.185C58.42 100.472 58.8906 98.5237 58.8291 96.5552C58.8035 96.4928 58.7569 96.4418 58.6976 96.4116C58.6384 96.3813 58.5705 96.3738 58.5063 96.3903C57.4183 98.4806 56.5305 100.674 55.8553 102.938H55.9245ZM101.061 120.227C100.329 116.616 98.6194 113.286 96.1276 110.617C92.5314 105.741 88.6817 101.973 81.9505 100.866C79.6671 100.456 77.3531 100.251 75.0348 100.253C70.3389 100.564 65.9032 102.567 62.5174 105.906C59.8552 107.915 57.6201 110.455 55.9475 113.373C55.4865 114.245 54.7258 115.022 54.4491 115.728C53.1845 119.18 52.6274 122.86 52.8124 126.54C53.7576 132.641 57.031 140.319 60.8807 143.311C61.2726 143.617 61.6414 144.206 62.2177 144.088C61.0232 141.955 59.6748 139.916 58.1836 137.987C56.8451 135.78 55.7913 133.405 55.0485 130.921C54.0747 126.617 54.1618 122.133 55.3021 117.872C56.6789 113.459 59.4626 109.644 63.209 107.037C64.5893 105.823 66.0878 104.758 67.6811 103.857C71.7024 102.006 76.1426 101.313 80.5212 101.855C83.2763 102.238 85.9253 103.194 88.3043 104.665C90.6833 106.136 92.7418 108.089 94.3526 110.405C95.6272 111.925 96.7688 113.557 97.7643 115.281C99.7994 120.189 100.722 125.503 100.461 130.827C102.167 127.812 101.614 123.902 101.061 120.227ZM8.5752 105.365C8.57474 104.917 8.47976 104.475 8.29675 104.068C8.11374 103.662 7.84702 103.301 7.5148 103.009C7.23818 103.739 7.23818 105.647 8.5752 105.365ZM88.9814 106.589C88.4973 106.165 88.4973 105.694 87.921 105.365C85.5622 104.346 83.0354 103.794 80.4751 103.739C76.3752 103.263 72.2239 103.838 68.3957 105.412C66.8977 106.007 65.4485 106.724 64.0619 107.555C63.4626 107.956 62.8171 108.874 61.9642 109.534C59.0908 112.077 57.0093 115.424 55.9769 119.162C54.9445 122.9 55.0064 126.865 56.155 130.568C56.5374 132.408 57.0223 134.225 57.6073 136.009C59.3327 138.89 61.7029 141.312 64.523 143.075C67.1262 145.074 70.127 146.464 73.3135 147.148C76.5001 147.831 79.7947 147.792 82.9648 147.032C84.8432 146.445 86.6833 145.737 88.4742 144.912C90.0879 142.557 93.0847 141.214 95.0441 138.647C97.195 135.542 98.5286 131.925 98.9169 128.142C99.2115 124.696 98.8066 121.224 97.7277 117.945C96.6488 114.666 94.919 111.65 92.6467 109.086C91.5171 108.215 90.0418 107.555 88.9814 106.589ZM96.8883 104.234C96.5656 104.234 96.5886 103.786 96.2889 104.093C98.3406 109.816 102.306 115.493 107.331 117.495C110.674 118.838 114.454 121.075 118.857 119.851C108.023 118.107 100.715 112.808 96.7961 104.14L96.8883 104.234ZM131.467 114.457C128.47 117.189 124.874 117.99 120.724 119.945C126.551 119.291 131.977 116.594 136.077 112.313C137.897 110.62 139.154 108.388 139.673 105.93C139.673 105.93 139.835 105.789 139.673 105.765C139.512 105.741 139.673 105.6 139.512 105.624C136.991 108.68 134.313 111.597 131.49 114.362L131.467 114.457ZM30.0368 117.354C30.982 117.519 32.6878 117.801 33.4486 117.189C27.5802 115.753 22.079 113.055 17.312 109.275C20.3733 113.54 24.9509 116.407 30.0599 117.26L30.0368 117.354ZM35.6846 117.66C36.0074 117.66 36.0074 117.895 35.846 118.107C36.7681 118.367 38.7275 118.437 38.9811 117.495C38.3356 116.765 36.307 117.142 35.7077 117.566L35.6846 117.66ZM99.5393 133.206C99.3658 133.259 99.2128 133.366 99.1013 133.512C97.8375 135.367 96.6902 137.303 95.6665 139.306C94.4373 141.116 92.9266 142.707 91.1944 144.017C87.3176 146.931 82.7158 148.67 77.9163 149.034C75.4728 149.034 72.7987 147.81 70.4474 148.422C74.4268 150.098 78.8393 150.372 82.9878 149.199C84.3709 148.799 85.9385 148.587 87.1603 148.116C88.6101 147.313 89.9639 146.341 91.1944 145.219C91.8399 144.771 92.6006 144.583 93.1308 144.159C93.8241 143.416 94.4709 142.629 95.0672 141.803C97.1649 139.448 99.6776 136.763 99.839 133.394C99.7237 133.253 99.6776 133.135 99.5624 133.112L99.5393 133.206ZM64.961 145.855C65.6525 146.561 66.2058 147.433 67.635 147.386C67.2892 146.302 65.8139 144.771 64.961 145.76V145.855Z" fill="white"/>
<path fill-rule="evenodd" clip-rule="evenodd" d="M34.3711 51.9195C37.852 44.0758 44.5832 37.7868 52.1213 33.0759C55.2578 31.0824 58.6581 29.5594 62.2182 28.5535C62.3796 28.9774 61.8032 28.9068 61.6188 29.001C59.3136 30.1787 56.409 31.3564 54.173 32.8168C46.4762 37.8825 39.7627 44.359 34.3711 51.9195V51.9195Z" fill="white"/>
<path fill-rule="evenodd" clip-rule="evenodd" d="M133.865 31.8981C134.28 31.7568 134.372 31.2857 134.626 30.9795C141.827 39.2805 147.218 49.0521 150.44 59.6452C147.42 52.0372 144.608 44.6175 139.997 38.6111C138.107 36.1615 135.802 34.2771 133.865 31.8981Z" fill="white"/>
<path fill-rule="evenodd" clip-rule="evenodd" d="M88.3818 32.652C90.2596 32.6339 92.11 33.1126 93.753 34.0417C98.6907 35.9369 103.281 38.6681 107.331 42.1209C112.448 46.6433 117.704 51.5426 120.609 57.973C112.656 46.6669 103.712 36.4678 88.3818 32.652Z" fill="white"/>
<path fill-rule="evenodd" clip-rule="evenodd" d="M53.6179 40.2834C53.9867 41.6732 52.6958 42.6389 51.8198 43.322C52.0664 42.1308 52.7001 41.0599 53.6179 40.2834V40.2834Z" fill="white"/>
<path fill-rule="evenodd" clip-rule="evenodd" d="M50.0463 43.3221C50.2538 43.6519 49.7236 44.5234 49.7466 45.1594C45.6664 47.9859 43.1537 52.5084 40.5257 57.0544C40.1569 57.6904 39.742 58.5854 39.0504 58.8916C37.9439 57.6903 39.6959 55.7589 40.3874 54.4634C43.0194 50.2582 46.2783 46.4991 50.0463 43.3221V43.3221Z" fill="white"/>
<path fill-rule="evenodd" clip-rule="evenodd" d="M60.6273 43.7931C60.5243 44.5708 60.2132 45.3044 59.7283 45.913C59.7052 45.489 59.9127 43.958 60.6273 43.7931Z" fill="white"/>
<path fill-rule="evenodd" clip-rule="evenodd" d="M119.411 141.426C114.793 144.303 110.013 146.898 105.095 149.199C102.56 150.236 99.8164 151.201 97.0271 152.238C91.4756 154.451 85.5283 155.439 79.5765 155.135C79.2077 154.852 79.9223 154.381 80.1759 154.075C80.4295 153.769 80.66 153.204 81.5129 153.204C82.3659 153.204 80.5447 154.028 80.6139 154.876C82.3659 155.347 82.1814 152.52 84.3484 152.897C85.1321 152.897 84.0026 153.204 84.0487 153.51C92.5319 153.274 102.49 149.623 109.406 146.655C114.287 143.781 118.969 140.571 123.422 137.045C126.694 133.429 130.181 130.023 133.865 126.846C133.865 126.187 133.404 126.399 133.865 125.927C144.079 113.135 149.945 97.2947 150.577 80.7972C150.716 77.7822 150.209 74.1548 152.214 73.1891C152.342 82.8139 151.139 92.4089 148.641 101.69C147.046 107.41 144.721 112.89 141.725 117.99C140.342 120.345 138.613 122.701 137.115 125.056C134.935 128.48 132.383 131.64 129.508 134.478C133.865 132.122 136.423 127.27 139.351 122.889C142.39 118.625 145.037 114.083 147.258 109.322C147.696 108.262 148.088 106.966 148.457 105.671C151.983 95.0662 153.546 83.8836 153.067 72.6945C153.633 74.0446 153.84 75.5234 153.666 76.9814C154.427 93.9406 148.71 108.215 142.901 119.238C140.865 123.42 138.308 127.315 135.294 130.827C132.276 134.301 128.924 137.458 125.289 140.249C121.624 142.604 117.774 145.242 113.763 147.715C109.392 150.05 104.785 151.89 100.024 153.204C95.0461 155.001 89.8898 156.234 84.648 156.878C78.7505 157.376 72.8132 156.964 67.0361 155.653C72.747 156.159 78.4853 156.261 84.21 155.959C85.6854 155.959 87.2299 156.124 88.6822 155.959C91.6664 155.419 94.5712 154.493 97.3268 153.204C105.372 150.071 113.809 146.914 119.411 141.426Z" fill="white"/>
<path fill-rule="evenodd" clip-rule="evenodd" d="M57.793 120.227C67.2444 123.478 83.842 125.904 94.1924 121.452C94.6535 121.735 92.8093 122.229 92.1177 122.512C86.6755 124.762 80.798 125.697 74.9438 125.244C71.7765 124.953 68.6383 124.394 65.5616 123.572C62.5187 122.771 59.3375 122.112 57.793 120.227Z" fill="white"/>
<path fill-rule="evenodd" clip-rule="evenodd" d="M80.4756 64.3562C81.098 65.793 79.4152 67.7009 78.1704 66.7116C79.0371 66.0338 79.8122 65.2418 80.4756 64.3562Z" fill="white"/>
</g>
</svg>
