<svg width="150" height="159" viewBox="0 0 150 159" fill="none" xmlns="http://www.w3.org/2000/svg">
<g opacity="0.6">
<path fill-rule="evenodd" clip-rule="evenodd" d="M146.839 57.8082C142.284 42.1456 133.358 28.3011 121.229 18.0876C111.987 10.1308 101.117 4.56021 89.4805 1.81823C84.7478 0.75687 79.929 0.180893 75.0914 0.0983241C64.8826 -0.366516 55.3999 0.772342 47.8973 4.46782C44.091 6.32718 40.5708 7.86115 37.2265 9.88321C30.7987 14.0262 24.8286 18.914 19.4271 24.4559C16.8089 27.3387 14.4244 30.4486 12.2986 33.7527C7.31184 40.3344 3.84651 48.0537 2.17779 56.2975C0.29256 66.4964 -0.372696 76.905 0.197636 87.2791C0.681454 96.5696 2.76149 105.69 6.33611 114.193C7.81971 117.952 9.82964 121.455 12.2986 124.583C13.5527 126.024 14.6528 127.627 15.8628 129.091C19.5151 133.531 23.4534 137.97 27.3917 141.875C30.3634 144.405 33.5614 146.623 36.9405 148.499C38.5353 149.61 40.1962 150.611 41.9129 151.497C43.805 152.403 45.9172 152.543 48.0293 153.449C51.9944 155.236 56.1676 156.455 60.4383 157.075C65.3447 157.702 69.767 158.725 74.5194 158.864C79.3865 158.836 84.2433 158.386 89.0405 157.516C93.1604 156.85 97.1241 155.367 100.723 153.147C104.2 151.195 108.204 150.381 111.394 147.732C111.79 147.732 111.9 147.453 111.68 147.894C111.46 148.336 111.086 148.15 110.976 148.499C110.866 148.847 110.624 148.731 110.822 148.801C111.02 148.87 110.822 148.615 110.976 148.638C116.248 146.068 121.063 142.562 125.211 138.272C129.466 134.179 133.168 129.486 136.212 124.327C137.686 121.561 139.204 118.958 140.612 116.192C141.922 113.209 143.053 110.143 144.001 107.012C146.355 100.489 148.072 93.7288 149.127 86.8375C150.593 77.1078 149.808 67.1479 146.839 57.8082V57.8082ZM112.186 29.2206C116.807 33.0555 119.271 39.4935 118.435 47.5585C117.995 47.8839 117.687 46.7683 117.313 46.2105C114.379 42.0274 110.872 38.3299 106.906 35.2402C102.352 31.3127 97.1226 28.3531 91.5047 26.5245C94.8867 25.091 98.5576 24.5865 102.174 25.058C105.791 25.5294 109.236 26.9616 112.186 29.2206V29.2206ZM43.981 24.7116C44.1229 24.6439 44.2702 24.5894 44.4211 24.5489C48.8368 24.0317 53.3062 24.5475 57.5121 26.0596C46.8934 30.4968 37.8542 38.3309 31.6601 48.4649C30.3361 43.5895 30.8877 38.359 33.195 33.9108C35.5022 29.4627 39.3786 26.1567 43.981 24.7116V24.7116ZM15.0048 90.44C15.6452 85.0273 18.0674 80.0251 21.8473 76.3089C21.8473 76.1229 22.1333 76.3089 22.1333 76.0067C22.1333 75.7046 22.2653 76.0067 22.2653 76.1462C23.2334 90.8584 26.6657 103.874 33.2662 112.102C22.1333 110.916 14.0147 104.222 15.0048 90.44ZM127.059 80.353C127.191 80.353 127.191 80.353 127.213 80.5157C135.068 87.4883 130.426 106.245 123.363 110.893C121.625 112.032 119.271 112.218 117.511 113.217C121.889 104.083 127.037 94.5306 127.059 80.353ZM56.302 131.485C58.9909 132.659 61.8183 133.441 64.7066 133.81C67.146 134.399 69.6138 134.849 72.0992 135.158C75.5876 135.207 79.0724 134.904 82.506 134.251C85.4078 134.18 88.2633 133.467 90.8886 132.159C89.834 135.141 88.0618 137.781 85.7469 139.819C83.432 141.857 80.6543 143.222 77.6876 143.78C73.9587 144.286 70.1693 143.766 66.6868 142.27C61.9501 140.318 58.1216 136.49 56.0159 131.602C56.126 131.509 56.214 131.509 56.302 131.485Z" fill="#414141"/>
<path fill-rule="evenodd" clip-rule="evenodd" d="M96.1699 21.2486C95.8444 21.8792 95.5578 22.5313 95.3119 23.2009C95.0698 23.3868 94.4758 23.2009 94.3218 23.5031C94.3438 22.7361 94.5858 21.0162 96.1699 21.2486Z" fill="white"/>
<path fill-rule="evenodd" clip-rule="evenodd" d="M94.0361 21.6901C93.4421 22.8289 93.002 24.1305 91.4619 24.2467C91.7919 22.8289 92.386 21.7598 94.0361 21.6901Z" fill="white"/>
<path fill-rule="evenodd" clip-rule="evenodd" d="M126.64 27.9888C126.354 28.5001 125.804 28.7093 125.628 29.3368C125.122 29.3368 124.924 28.779 124.638 28.4303C125.034 27.1985 126.09 26.5477 126.64 27.9888Z" fill="white"/>
<path fill-rule="evenodd" clip-rule="evenodd" d="M127.213 28.6163C127.474 28.9801 127.753 29.3292 128.049 29.6622C127.697 30.0573 127.499 30.5919 127.059 30.8708C126.549 30.5643 126.148 30.0912 125.915 29.5228C126.575 29.4763 126.531 28.6628 127.213 28.6163Z" fill="white"/>
<path fill-rule="evenodd" clip-rule="evenodd" d="M93.31 29.5228C93.7941 29.5228 94.2781 29.5228 94.1681 30.1271C93.8381 29.9877 93.266 30.0806 93.31 29.5228Z" fill="white"/>
<path fill-rule="evenodd" clip-rule="evenodd" d="M95.0247 30.127H95.4642V30.7312C95.0907 30.7777 94.9808 30.5221 95.0247 30.127Z" fill="white"/>
<path fill-rule="evenodd" clip-rule="evenodd" d="M96.3003 30.5686C96.7404 30.5686 96.8284 30.7313 97.1584 30.7313V31.6377C96.6524 31.5215 96.2123 31.3356 96.3003 30.5686Z" fill="white"/>
<path fill-rule="evenodd" clip-rule="evenodd" d="M63.9813 31.1728C62.2211 32.0792 60.351 32.8462 58.5688 33.7294C58.5688 33.2645 58.8329 33.2878 58.7229 32.8229C60.483 32.4511 62.2651 30.615 63.9813 31.1728Z" fill="white"/>
<path fill-rule="evenodd" clip-rule="evenodd" d="M97.8835 31.1729C98.3895 31.1729 98.5655 31.4518 99.0056 31.475C99.0756 31.8597 99.0681 32.2557 98.9836 32.6371C98.3235 32.4047 97.6635 32.242 97.8835 31.1729Z" fill="white"/>
<path fill-rule="evenodd" clip-rule="evenodd" d="M99.7327 31.9398C99.855 32.0307 100.001 32.0794 100.15 32.0793V33.4273C99.4471 33.5203 99.8206 32.4976 99.7327 31.9398Z" fill="white"/>
<path fill-rule="evenodd" clip-rule="evenodd" d="M101.01 32.8231C101.45 32.8231 101.384 33.2415 101.714 33.288C101.494 33.4971 101.582 34.0549 101.582 34.4965C101.274 34.4965 101.12 34.1712 100.878 34.0317C100.746 33.4739 101.032 33.3112 101.01 32.8231Z" fill="white"/>
<path fill-rule="evenodd" clip-rule="evenodd" d="M65.982 33.8922C63.0661 34.815 60.2138 35.9488 57.4453 37.2856C57.5347 36.8206 57.6749 36.3682 57.8633 35.9375C60.3495 35.0543 62.7037 34.0317 65.2779 33.2182C65.6739 33.195 65.6079 33.776 65.982 33.8922Z" fill="white"/>
<path fill-rule="evenodd" clip-rule="evenodd" d="M57.7315 33.4274C57.7206 33.7442 57.5965 34.045 57.3843 34.2692C57.1721 34.4934 56.8874 34.6244 56.5874 34.636C56.8294 34.1014 57.0054 33.4971 57.7315 33.4274Z" fill="white"/>
<path fill-rule="evenodd" clip-rule="evenodd" d="M113.243 59.2957C112.539 59.2957 112.253 58.3893 111.967 57.9477C107.927 51.356 102.782 45.5984 96.7854 40.9578C94.6285 39.1435 92.2896 37.5847 89.8108 36.3094C88.7988 35.8678 84.1344 35.217 83.6724 33.9852H83.8264C83.8129 33.8871 83.8349 33.7872 83.8879 33.7054C83.9408 33.6237 84.021 33.5659 84.1124 33.5436C90.7046 35.3229 96.7611 38.8417 101.714 43.7701C105.427 47.0698 108.724 50.858 111.527 55.0424L112.957 57.1575C113.155 57.7153 114.013 58.6449 113.243 59.2957Z" fill="white"/>
<path fill-rule="evenodd" clip-rule="evenodd" d="M102.285 33.7295C102.945 33.9387 103.297 34.4732 103.143 35.5424C102.439 35.3797 102.175 34.7521 102.285 33.7295Z" fill="white"/>
<path fill-rule="evenodd" clip-rule="evenodd" d="M55.862 34.1943C55.9042 34.332 55.9145 34.4784 55.8922 34.6212C55.8699 34.7639 55.8155 34.899 55.7337 35.0151C55.6518 35.1311 55.5449 35.2248 55.4217 35.2882C55.2986 35.3516 55.1629 35.383 55.0259 35.3797C54.9819 34.7289 55.532 34.5197 55.862 34.1943Z" fill="white"/>
<path fill-rule="evenodd" clip-rule="evenodd" d="M129.062 34.3337C134.418 40.0885 138.498 47.0263 141.009 54.6473C141.361 55.5769 142.088 56.9715 141.449 57.9476C137.973 49.3713 134.343 40.981 129.062 34.3337Z" fill="white"/>
<path fill-rule="evenodd" clip-rule="evenodd" d="M103.848 34.9613C104.068 34.9613 104.2 35.1937 104.419 35.2635V36.472C103.65 36.3093 103.716 35.7283 103.848 34.9613Z" fill="white"/>
<path fill-rule="evenodd" clip-rule="evenodd" d="M54.0358 35.3798C54.0358 36.1467 53.6838 36.3327 53.1777 36.4489C53.4198 36.0538 53.4198 35.403 54.0358 35.3798Z" fill="white"/>
<path fill-rule="evenodd" clip-rule="evenodd" d="M105.278 36.1467C106.004 36.3094 106.444 36.7975 106.268 37.9364C105.806 37.9364 105.652 37.4948 105.278 37.3321V36.1467Z" fill="white"/>
<path fill-rule="evenodd" clip-rule="evenodd" d="M57.0073 36.2861C56.948 36.7988 56.7377 37.2789 56.406 37.6584C56.0744 38.0379 55.6382 38.2978 55.1592 38.4012C55.3792 37.2855 55.7312 36.2861 57.0073 36.2861Z" fill="white"/>
<path fill-rule="evenodd" clip-rule="evenodd" d="M52.3195 36.4488C52.3195 37.0299 51.902 37.1926 51.6164 37.4947C51.2209 37.0764 51.8142 36.4256 52.3195 36.4488Z" fill="white"/>
<path fill-rule="evenodd" clip-rule="evenodd" d="M54.7406 37.2855C54.8078 37.7327 54.7499 38.1909 54.574 38.6038C54.3981 39.0167 54.1119 39.3663 53.7505 39.6097C53.6611 39.1615 53.7088 38.6948 53.8868 38.2771C54.0647 37.8593 54.3637 37.5121 54.7406 37.2855Z" fill="white"/>
<path fill-rule="evenodd" clip-rule="evenodd" d="M50.3169 37.4948C50.6245 37.9363 50.1631 38.8195 49.6138 38.8428C49.5698 38.099 50.0313 37.8899 50.3169 37.4948Z" fill="white"/>
<path fill-rule="evenodd" clip-rule="evenodd" d="M106.994 37.4948C110.444 40.2327 113.511 43.4721 116.102 47.1169C116.916 48.2558 118.303 49.6503 117.664 51.1843C114.562 46.6139 110.983 42.4272 106.994 38.7033V37.4948Z" fill="white"/>
<path fill-rule="evenodd" clip-rule="evenodd" d="M53.1772 38.099C53.2586 38.6345 53.1602 39.1831 52.899 39.65C52.6379 40.1169 52.2304 40.4727 51.7471 40.6556C52.0771 39.6097 52.2751 38.4941 53.1772 38.099Z" fill="white"/>
<path fill-rule="evenodd" clip-rule="evenodd" d="M48.8878 38.5405C48.8878 39.8653 46.2476 41.7247 44.9055 42.91C40.8922 46.4978 37.7279 51.0264 35.6647 56.1347C34.0806 54.9959 35.6647 53.1133 36.2148 52.0906C38.613 48.4881 42.0232 45.118 44.4874 41.8641C46.0068 40.8361 47.4755 39.7268 48.8878 38.5405V38.5405Z" fill="white"/>
<path fill-rule="evenodd" clip-rule="evenodd" d="M67.6989 39.1448C67.9409 39.2842 68.0069 39.6096 67.9629 40.0512C67.5229 40.0512 67.3469 40.3998 66.8408 40.3534V39.6096C67.0168 39.3307 67.6769 39.6096 67.6989 39.1448Z" fill="white"/>
<path fill-rule="evenodd" clip-rule="evenodd" d="M82.2174 39.7492V40.9578H81.9327C82.0422 40.586 81.648 39.6098 82.2174 39.7492Z" fill="white"/>
<path fill-rule="evenodd" clip-rule="evenodd" d="M83.0562 40.0513H83.5835C83.7139 40.4382 83.759 40.8516 83.7154 41.2599C83.0781 41.2366 83.2759 40.4464 83.0562 40.0513Z" fill="white"/>
<path fill-rule="evenodd" clip-rule="evenodd" d="M64.2662 40.1908H64.7062V41.2599C64.3982 41.2599 64.2882 41.6318 63.8481 41.5621C64.0682 41.1902 64.0682 40.5859 64.2662 40.1908Z" fill="white"/>
<path fill-rule="evenodd" clip-rule="evenodd" d="M84.1992 40.4929C84.1992 40.3302 84.4629 40.3767 84.6387 40.3535C84.8145 40.3302 84.7705 41.2134 84.9243 41.5621C84.0894 41.9339 84.5508 40.7486 84.1992 40.4929Z" fill="white"/>
<path fill-rule="evenodd" clip-rule="evenodd" d="M85.6309 40.6556C86.0923 40.6556 86.0264 41.7945 85.9165 42.0037C85.4331 41.9339 85.7847 41.1437 85.6309 40.6556Z" fill="white"/>
<path fill-rule="evenodd" clip-rule="evenodd" d="M62.8359 40.795C63.4512 40.9577 62.8359 42.236 62.4185 42.3058C62.5181 41.7909 62.6577 41.2856 62.8359 40.795V40.795Z" fill="white"/>
<path fill-rule="evenodd" clip-rule="evenodd" d="M86.621 40.9578C87.1923 40.9578 87.2582 41.7015 87.1923 42.4685C86.4232 42.5615 86.6429 41.6318 86.621 40.9578Z" fill="white"/>
<path fill-rule="evenodd" clip-rule="evenodd" d="M49.3273 41.2599C49.5033 41.9571 48.8432 43.0495 48.4692 43.5841C48.4206 43.152 48.4734 42.714 48.6231 42.3086C48.7727 41.9033 49.0146 41.5431 49.3273 41.2599V41.2599Z" fill="white"/>
<path fill-rule="evenodd" clip-rule="evenodd" d="M61.2738 41.3994C61.7578 41.7713 61.1638 43.468 60.2837 43.3517C60.6137 42.701 60.6797 41.7713 61.2738 41.3994Z" fill="white"/>
<path fill-rule="evenodd" clip-rule="evenodd" d="M87.7637 41.5621C88.1592 41.4226 88.1372 41.7712 88.4668 41.7015V43.0496C87.9834 42.9333 87.8076 42.2593 87.7637 41.5621Z" fill="white"/>
<path fill-rule="evenodd" clip-rule="evenodd" d="M89.1946 41.934C89.6121 42.1431 89.6341 42.7707 89.6121 43.4447C88.931 43.5841 89.2825 42.5615 89.1946 41.934Z" fill="white"/>
<path fill-rule="evenodd" clip-rule="evenodd" d="M59.5796 42.1664C59.5796 42.6777 59.3376 44.2117 58.4355 44.2582C58.7876 43.5144 58.7876 42.4453 59.5796 42.1664Z" fill="white"/>
<path fill-rule="evenodd" clip-rule="evenodd" d="M90.1855 42.4684C90.8667 42.6078 90.9326 43.3516 90.8887 44.258C90.1855 44.258 90.1855 43.2819 90.1855 42.4684Z" fill="white"/>
<path fill-rule="evenodd" clip-rule="evenodd" d="M67.9615 43.0495C63.8225 44.9894 59.8287 47.2582 56.0146 49.8362C55.7945 48.4649 57.2467 47.8373 58.2147 47.2795C61.1915 45.3644 64.4049 43.894 67.7635 42.91C67.7635 42.91 67.8295 43.0495 67.9615 43.0495Z" fill="white"/>
<path fill-rule="evenodd" clip-rule="evenodd" d="M91.4617 43.2122C91.6814 43.2122 91.8133 43.4213 92.033 43.5143V45.0018C91.242 45.0483 91.5057 43.9791 91.4617 43.2122Z" fill="white"/>
<path fill-rule="evenodd" clip-rule="evenodd" d="M92.7357 43.9559C92.9555 43.9559 93.1093 44.1884 93.307 44.2581C93.307 44.7229 93.5048 45.5596 93.1752 45.7688C92.3842 45.8153 92.8676 44.5835 92.7357 43.9559Z" fill="white"/>
<path fill-rule="evenodd" clip-rule="evenodd" d="M56.0155 44.2582C56.1695 44.9322 56.0155 46.4429 55.0254 46.5824C55.2454 45.6527 55.3114 44.6301 56.0155 44.2582Z" fill="white"/>
<path fill-rule="evenodd" clip-rule="evenodd" d="M94.0353 44.8624C94.5571 45.077 95.0407 45.3835 95.4654 45.7689C95.3418 46.2613 95.2899 46.7707 95.3114 47.2796C94.7834 47.0239 94.4314 46.6056 93.8813 46.3732C93.7713 45.6991 94.0793 45.4667 94.0353 44.8624Z" fill="white"/>
<path fill-rule="evenodd" clip-rule="evenodd" d="M54.1683 45.6062C54.2613 46.1582 54.1749 46.7271 53.9233 47.2207C53.6717 47.7143 53.2696 48.1036 52.7822 48.3255C52.8125 47.7931 52.9521 47.2741 53.1915 46.8044C53.4309 46.3348 53.7642 45.9259 54.1683 45.6062V45.6062Z" fill="white"/>
<path fill-rule="evenodd" clip-rule="evenodd" d="M68.4036 46.3731C65.0594 47.6281 61.8031 49.1389 58.5688 50.4404C59.2069 49.0459 60.769 48.8367 62.1331 48.3254C64.1133 47.6049 66.2034 45.6061 68.4036 46.3731Z" fill="white"/>
<path fill-rule="evenodd" clip-rule="evenodd" d="M96.0158 46.2104C96.9838 47.3725 100.988 48.9298 100.57 51.6258C99.646 51.3469 98.678 49.6038 97.5999 48.7671C96.5218 47.9304 95.2897 48.0931 96.0158 46.2104Z" fill="white"/>
<path fill-rule="evenodd" clip-rule="evenodd" d="M51.7469 47.5585C52.407 48.3487 51.2849 49.7665 50.7349 50.2778C50.8159 49.287 51.1675 48.3423 51.7469 47.5585V47.5585Z" fill="white"/>
<path fill-rule="evenodd" clip-rule="evenodd" d="M85.0586 48.6276C85.3006 48.279 86.0707 48.6276 85.9167 49.2319C85.4326 49.2319 85.3006 48.9065 85.0586 48.6276Z" fill="white"/>
<path fill-rule="evenodd" clip-rule="evenodd" d="M86.4884 48.7671C87.0597 48.7671 87.1256 49.2087 87.0597 49.8362C86.5323 49.813 86.4225 49.3946 86.4884 48.7671Z" fill="white"/>
<path fill-rule="evenodd" clip-rule="evenodd" d="M87.7634 49.2319C88.3347 49.2319 88.1809 49.7897 88.1809 50.2778C87.6315 50.3708 87.7854 49.6968 87.7634 49.2319Z" fill="white"/>
<path fill-rule="evenodd" clip-rule="evenodd" d="M50.0322 49.5341C50.6262 51.1145 48.6681 52.8112 47.48 53.8803C47.546 51.6026 49.3501 51.2307 50.0322 49.5341Z" fill="white"/>
<path fill-rule="evenodd" clip-rule="evenodd" d="M88.7557 49.6735L89.6137 50.1383V51.2307C89.3141 51.1287 89.0606 50.9132 88.9022 50.6258C88.7438 50.3383 88.6916 49.9991 88.7557 49.6735V49.6735Z" fill="white"/>
<path fill-rule="evenodd" clip-rule="evenodd" d="M53.8822 52.2302C53.6938 51.8497 53.6326 51.4131 53.7085 50.9913C53.7843 50.5694 53.9928 50.187 54.3002 49.906C54.9822 50.5103 54.2782 51.9048 53.8822 52.2302Z" fill="white"/>
<path fill-rule="evenodd" clip-rule="evenodd" d="M84.0678 50.4406C84.5073 50.4406 84.5512 50.9286 84.4853 51.4864C83.892 51.6027 83.7602 50.7892 84.0678 50.4406Z" fill="white"/>
<path fill-rule="evenodd" clip-rule="evenodd" d="M90.3397 50.7195C91.0217 50.7195 91.3078 51.4167 91.1757 52.3929C90.5377 52.2302 90.1857 51.6956 90.3397 50.7195Z" fill="white"/>
<path fill-rule="evenodd" clip-rule="evenodd" d="M85.3443 50.8822C85.4257 50.945 85.5183 50.9897 85.6165 51.0137C85.7147 51.0377 85.8164 51.0404 85.9156 51.0217V51.7886H85.3443C85.0587 51.5097 85.3004 51.2308 85.3443 50.8822Z" fill="white"/>
<path fill-rule="evenodd" clip-rule="evenodd" d="M53.0244 51.0216C53.2215 51.423 53.3036 51.8764 53.2607 52.3264C53.2178 52.7764 53.0516 53.2034 52.7827 53.555C52.4311 52.8112 52.519 51.2308 53.0244 51.0216Z" fill="white"/>
<path fill-rule="evenodd" clip-rule="evenodd" d="M101.428 51.0216C101.834 51.2765 102.152 51.6627 102.334 52.1232C102.516 52.5836 102.553 53.0938 102.44 53.5782C102.014 53.3449 101.68 52.961 101.495 52.4938C101.31 52.0265 101.286 51.5055 101.428 51.0216V51.0216Z" fill="white"/>
<path fill-rule="evenodd" clip-rule="evenodd" d="M86.6204 51.2307C86.8841 51.2307 86.928 51.4166 87.1917 51.3934V52.1371C86.5984 52.3696 86.5765 51.8815 86.6204 51.2307Z" fill="white"/>
<path fill-rule="evenodd" clip-rule="evenodd" d="M87.9841 51.928C88.3356 51.928 88.2478 52.4393 88.2478 52.8344C87.6765 52.9739 87.9841 52.2534 87.9841 51.928Z" fill="white"/>
<path fill-rule="evenodd" clip-rule="evenodd" d="M91.746 51.928C92.4052 51.928 92.1195 52.7647 92.1854 53.276C91.702 53.183 91.724 52.5555 91.746 51.928Z" fill="white"/>
<path fill-rule="evenodd" clip-rule="evenodd" d="M52.0328 52.2301C51.6153 52.8112 52.2965 54.5543 51.4615 54.5543C51.5713 53.7641 51.0879 52.2533 52.0328 52.2301Z" fill="white"/>
<path fill-rule="evenodd" clip-rule="evenodd" d="M88.9074 52.5322C89.3694 52.6484 89.8094 52.7879 89.7654 53.4387C89.4134 53.6943 88.7753 53.2527 88.9074 52.5322Z" fill="white"/>
<path fill-rule="evenodd" clip-rule="evenodd" d="M92.7358 52.6949C93.7699 53.9965 95.8601 54.2057 95.8821 56.5996C94.804 55.7396 93.8139 54.7635 92.7358 53.8803V52.6949Z" fill="white"/>
<path fill-rule="evenodd" clip-rule="evenodd" d="M90.3389 53.276C90.845 53.3922 91.285 53.5781 91.175 54.3451C90.735 54.1592 90.1849 54.0662 90.3389 53.276Z" fill="white"/>
<path fill-rule="evenodd" clip-rule="evenodd" d="M103.385 53.276C103.724 53.4844 103.991 53.8026 104.146 54.1836C104.3 54.5645 104.334 54.9879 104.243 55.391C103.385 55.2516 103.209 54.3684 103.385 53.276Z" fill="white"/>
<path fill-rule="evenodd" clip-rule="evenodd" d="M50.7343 53.5549C50.8629 54.0926 50.8804 54.6533 50.7856 55.1988C50.6908 55.7442 50.4859 56.2617 50.185 56.7158C50.0355 56.1803 50.0073 55.6151 50.1028 55.066C50.1982 54.5169 50.4145 53.9992 50.7343 53.5549Z" fill="white"/>
<path fill-rule="evenodd" clip-rule="evenodd" d="M91.6139 54.0431C91.9439 54.1825 92.2959 54.2988 92.1859 54.9495C92.9518 55.2153 93.6596 55.64 94.2679 56.1988C94.8762 56.7576 95.3727 57.4391 95.7282 58.2034C95.0681 58.3429 94.3861 56.9716 93.528 56.2511C92.8268 55.7585 92.1645 55.2067 91.5479 54.6009L91.6139 54.0431Z" fill="white"/>
<path fill-rule="evenodd" clip-rule="evenodd" d="M46.7514 54.3452C47.2129 54.8333 46.5097 55.3679 46.3339 55.6933C45.9384 55.2749 46.6196 54.6938 46.7514 54.3452Z" fill="white"/>
<path fill-rule="evenodd" clip-rule="evenodd" d="M104.992 55.5537C105.673 55.8559 105.498 56.4834 105.432 57.3433C104.882 57.2039 104.663 56.1348 104.992 55.5537Z" fill="white"/>
<path fill-rule="evenodd" clip-rule="evenodd" d="M49.1721 55.8792C49.4138 56.251 49.5017 57.7385 48.8865 57.692C48.7888 57.071 48.8893 56.4331 49.1721 55.8792Z" fill="white"/>
<path fill-rule="evenodd" clip-rule="evenodd" d="M96.3009 55.9954C96.6224 56.1434 96.8844 56.406 97.0413 56.7374C97.1981 57.0687 97.2398 57.4477 97.159 57.8082C96.4549 57.6455 96.1909 57.018 96.3009 55.9954Z" fill="white"/>
<path fill-rule="evenodd" clip-rule="evenodd" d="M106.269 57.3434C106.774 57.4828 106.84 58.6914 106.554 59.1563C106.115 58.9238 106.313 57.9942 106.269 57.3434Z" fill="white"/>
<path fill-rule="evenodd" clip-rule="evenodd" d="M97.598 57.5061C98.0595 57.7153 98.2353 58.2266 98.1474 58.9936C97.5102 58.9703 97.5761 58.2034 97.598 57.5061Z" fill="white"/>
<path fill-rule="evenodd" clip-rule="evenodd" d="M48.0283 57.6456C48.1624 57.9568 48.2206 58.2985 48.1975 58.6396C48.1745 58.9806 48.071 59.3101 47.8965 59.598C47.7681 59.2854 47.7131 58.9446 47.736 58.6047C47.759 58.2648 47.8593 57.9357 48.0283 57.6456V57.6456Z" fill="white"/>
<path fill-rule="evenodd" clip-rule="evenodd" d="M142.153 58.3893C142.352 58.5809 142.511 58.8143 142.619 59.0744C142.728 59.3345 142.784 59.6157 142.784 59.9C142.784 60.1843 142.728 60.4655 142.619 60.7256C142.511 60.9858 142.352 61.2191 142.153 61.4107C141.873 60.9624 141.724 60.4371 141.724 59.9C141.724 59.3629 141.873 58.8376 142.153 58.3893V58.3893Z" fill="white"/>
<path fill-rule="evenodd" clip-rule="evenodd" d="M96.1687 58.552C96.5647 58.9239 97.1587 59.1098 97.0267 60.0627C96.5867 59.6909 96.1027 59.412 96.1687 58.552Z" fill="white"/>
<path fill-rule="evenodd" clip-rule="evenodd" d="M98.7206 59.1562C99.1381 59.4119 99.0941 60.1789 99.1601 60.8064C98.6547 60.5275 98.7206 59.8535 98.7206 59.1562Z" fill="white"/>
<path fill-rule="evenodd" clip-rule="evenodd" d="M107.411 59.1562C107.854 59.8358 108.057 60.6588 107.983 61.4805C107.662 61.2108 107.433 60.8384 107.33 60.4192C107.227 60.0001 107.256 59.5568 107.411 59.1562V59.1562Z" fill="white"/>
<path fill-rule="evenodd" clip-rule="evenodd" d="M46.9063 60.0626C47.3457 60.5972 47.0601 61.2015 46.7524 61.7128C46.1811 61.3642 46.8184 60.5275 46.9063 60.0626Z" fill="white"/>
<path fill-rule="evenodd" clip-rule="evenodd" d="M97.5999 60.0626C97.7832 60.2224 97.9197 60.4339 97.9936 60.6726C98.0675 60.9112 98.0758 61.1672 98.0174 61.4107C97.534 61.3177 97.556 60.6902 97.5999 60.0626Z" fill="white"/>
<path fill-rule="evenodd" clip-rule="evenodd" d="M43.6274 60.3649C44.4184 60.3649 44.2426 61.8524 43.7592 62.1545C43.2758 62.4566 43.4955 60.6438 43.6274 60.3649Z" fill="white"/>
<path fill-rule="evenodd" clip-rule="evenodd" d="M99.7331 60.6437C100.305 61.4571 101.339 62.5263 101.009 63.8046C100.041 63.3398 99.6451 62.2474 99.7331 60.6437Z" fill="white"/>
<path fill-rule="evenodd" clip-rule="evenodd" d="M143.296 61.248C144.418 62.5031 143.296 63.8047 142.724 64.8738C141.734 63.7117 142.614 61.9918 143.296 61.248Z" fill="white"/>
<path fill-rule="evenodd" clip-rule="evenodd" d="M98.589 61.7129C99.1391 62.0615 99.2711 62.8982 99.4471 63.6652C99.1446 63.4582 98.9035 63.1651 98.7517 62.8197C98.5999 62.4743 98.5435 62.0906 98.589 61.7129V61.7129Z" fill="white"/>
<path fill-rule="evenodd" clip-rule="evenodd" d="M75.3769 62.3171C75.1129 62.8284 74.4529 62.9446 74.2328 63.5024C74.0128 63.0608 74.6069 62.2009 75.3769 62.3171Z" fill="white"/>
<path fill-rule="evenodd" clip-rule="evenodd" d="M76.6543 62.6193C76.3243 62.9679 76.1923 63.5257 75.5322 63.5025C75.5703 63.2283 75.7099 62.9812 75.9203 62.8156C76.1307 62.65 76.3947 62.5794 76.6543 62.6193V62.6193Z" fill="white"/>
<path fill-rule="evenodd" clip-rule="evenodd" d="M109.7 63.5026C109.7 64.0836 109.568 64.6879 108.975 64.7111C109.041 64.1533 109.106 63.549 109.7 63.5026Z" fill="white"/>
<path fill-rule="evenodd" clip-rule="evenodd" d="M74.7837 64.1067C75.1357 64.4553 74.5417 65.0596 74.2116 65.1758C73.6176 64.5948 74.6077 64.5948 74.7837 64.1067Z" fill="white"/>
<path fill-rule="evenodd" clip-rule="evenodd" d="M107.786 64.1067C108.116 64.3159 107.632 64.9202 107.654 65.3153C107.456 65.3153 107.258 65.3153 107.236 65.478C106.84 65.1991 107.236 64.5715 107.368 64.2694C107.5 63.9672 107.786 64.2926 107.786 64.1067Z" fill="white"/>
<path fill-rule="evenodd" clip-rule="evenodd" d="M144.154 64.2694C144.308 64.2694 144.396 64.2694 144.44 64.4089C144.197 65.4955 143.756 66.5217 143.142 67.4303C142.284 65.9661 143.758 65.1758 144.154 64.2694Z" fill="white"/>
<path fill-rule="evenodd" clip-rule="evenodd" d="M105.849 64.7111H106.422C106.158 65.1294 106.268 65.9661 105.563 65.9196C105.593 65.5026 105.69 65.0939 105.849 64.7111V64.7111Z" fill="white"/>
<path fill-rule="evenodd" clip-rule="evenodd" d="M104.993 64.8737C104.795 65.2416 104.697 65.6595 104.707 66.0823C104.343 66.2427 103.957 66.337 103.563 66.3612C103.72 65.9288 103.816 65.4748 103.849 65.0132C104.377 65.1759 104.465 64.7575 104.993 64.8737Z" fill="white"/>
<path fill-rule="evenodd" clip-rule="evenodd" d="M144.574 66.2219C145.74 67.5002 143.958 68.8948 143.584 69.9871C142.638 68.3137 144.354 67.5002 144.574 66.2219Z" fill="white"/>
<path fill-rule="evenodd" clip-rule="evenodd" d="M145.19 68.7784C146.136 70.4286 144.2 71.4978 143.914 72.8458C142.99 71.1259 144.816 70.1265 145.19 68.7784Z" fill="white"/>
<path fill-rule="evenodd" clip-rule="evenodd" d="M63.7819 73.8917C63.1726 74.1077 62.526 74.1801 61.8874 74.1038C61.2488 74.0275 60.6338 73.8044 60.0856 73.4501C58.8755 68.5925 65.982 70.8005 63.7819 73.8917ZM62.0877 73.148C62.4031 73.1447 62.7066 73.0202 62.9414 72.7978C63.1763 72.5754 63.3264 72.2702 63.3638 71.9394C62.6378 70.1962 60.4376 72.1486 61.9997 73.148H62.0877Z" fill="white"/>
<path fill-rule="evenodd" clip-rule="evenodd" d="M87.1924 73.8918C86.2023 70.7541 90.9107 70.1265 89.8986 73.2875C89.7624 73.5195 89.5831 73.72 89.3715 73.8769C89.16 74.0338 88.9206 74.1437 88.6677 74.2002C88.4148 74.2567 88.1537 74.2585 87.9001 74.2055C87.6466 74.1524 87.4058 74.0457 87.1924 73.8918V73.8918Z" fill="white"/>
<path fill-rule="evenodd" clip-rule="evenodd" d="M117.951 71.9393C118.545 71.8231 118.677 72.1717 119.227 72.0787C119.073 72.6133 118.633 72.8457 118.523 73.45C117.973 73.45 117.819 73.1711 117.247 73.2873C117.42 72.8048 117.657 72.3509 117.951 71.9393Z" fill="white"/>
<path fill-rule="evenodd" clip-rule="evenodd" d="M77.5114 72.3809C75.4433 74.7051 72.5831 76.0067 70.9109 78.5633C73.0951 77.3532 75.1093 75.8279 76.8954 74.0311C77.4014 73.636 78.1935 72.6598 78.8755 73.1479C77.6119 74.7225 76.0239 75.9707 74.2332 76.7969C73.3188 78.4018 72.0506 79.7493 70.5369 80.7248C70.1935 79.8619 69.9997 78.9408 69.9648 78.0055C72.165 76.0532 74.5192 74.31 76.5654 72.288L77.5114 72.3809Z" fill="white"/>
<path fill-rule="evenodd" clip-rule="evenodd" d="M121.362 72.8457C121.145 73.2329 120.801 73.5225 120.396 73.6596C119.99 73.7967 119.551 73.7717 119.162 73.5895C119.207 73.3452 119.314 73.1183 119.471 72.9324C119.628 72.7465 119.83 72.6084 120.054 72.5325C120.279 72.4566 120.518 72.4456 120.748 72.5007C120.978 72.5558 121.19 72.6749 121.362 72.8457V72.8457Z" fill="white"/>
<path fill-rule="evenodd" clip-rule="evenodd" d="M41.7801 110.591C40.526 110.335 39.888 109.034 39.0739 108.034C36.5132 105.147 34.4838 101.782 33.0894 98.1099C30.0776 90.0902 28.8579 81.4447 29.5252 72.8458H29.8112C29.9872 72.6599 30.1192 72.7064 30.0972 72.9853C29.5252 90.2541 34.4976 101.643 41.7801 110.591Z" fill="white"/>
<path fill-rule="evenodd" clip-rule="evenodd" d="M32.5186 72.8458C33.3107 73.0085 32.9367 74.2636 32.9587 74.9376C32.9051 84.7983 35.1734 94.5184 39.5592 103.223C40.2104 104.338 40.9462 105.395 41.7593 106.384C42.3974 107.197 43.6735 108.174 43.3215 109.545C42.1814 108.749 41.2504 107.662 40.6153 106.384C38.2339 102.796 36.3175 98.8877 34.9168 94.763C32.604 87.825 31.6387 80.4657 32.0786 73.1247C32.0786 72.869 32.2106 72.8458 32.2106 72.6599C32.2106 72.4739 32.4966 72.7296 32.5186 72.8458Z" fill="white"/>
<path fill-rule="evenodd" clip-rule="evenodd" d="M122.219 73.1479C122.505 73.3339 122.901 73.4269 123.209 73.5895C122.769 74.1706 122.263 74.7284 121.493 74.1938C121.515 73.6128 122.087 73.5895 122.219 73.1479Z" fill="white"/>
<path fill-rule="evenodd" clip-rule="evenodd" d="M79.1836 73.5895C79.4696 73.5895 79.4696 74.0078 79.7556 74.0311C79.2837 74.7721 78.7131 75.4375 78.0615 76.0066C77.5115 76.518 76.6754 77.5174 75.8613 76.8898C77.0383 75.8706 78.1483 74.7679 79.1836 73.5895V73.5895Z" fill="white"/>
<path fill-rule="evenodd" clip-rule="evenodd" d="M38.0859 73.729H38.5039C38.1251 76.9869 38.2215 80.2869 38.7899 83.5139C38.3719 83.5139 38.2179 84.4901 37.7999 84.1182C37.5609 80.6539 37.6567 77.1728 38.0859 73.729V73.729Z" fill="white"/>
<path fill-rule="evenodd" clip-rule="evenodd" d="M29.109 91.0443C27.2695 85.5972 26.6372 79.7769 27.2608 74.0312C27.4588 74.0312 27.6569 74.0312 27.6789 73.8917C27.7009 73.7523 27.8109 73.8917 27.8329 74.0312C28.4489 79.4001 28.3389 86.3262 29.109 91.0443Z" fill="white"/>
<path fill-rule="evenodd" clip-rule="evenodd" d="M111.68 73.8916C112.841 82.6618 110.974 91.5805 106.421 99.0162C106.135 96.1574 107.741 93.7868 108.622 91.3463C110.549 85.9212 111.184 80.0785 110.47 74.3332C110.47 74.124 110.47 73.9148 110.624 73.8916H111.68Z" fill="white"/>
<path fill-rule="evenodd" clip-rule="evenodd" d="M125.212 74.4728C125.014 74.9144 124.552 75.0771 124.354 75.5187C123.892 75.5187 123.65 75.0538 123.21 74.9144C123.282 74.7124 123.4 74.5329 123.555 74.3925C123.71 74.252 123.896 74.1553 124.096 74.1112C124.296 74.0671 124.503 74.0772 124.698 74.1404C124.893 74.2036 125.07 74.318 125.212 74.4728V74.4728Z" fill="white"/>
<path fill-rule="evenodd" clip-rule="evenodd" d="M24.9714 74.1938C25.1254 74.1938 25.0814 74.3798 25.1254 74.496C24.2014 81.6778 26.5776 90.2541 28.1177 96.4597C29.7982 102.121 32.3477 107.453 35.6643 112.241C34.2561 112.241 33.7061 110.614 32.958 109.545C32.1493 108.495 31.4139 107.384 30.7579 106.221C29.4059 103.816 28.3486 101.239 27.6116 98.5515C27.2596 96.878 27.1056 95.0419 26.6216 93.1361C25.5389 89.1557 24.8024 85.0791 24.4214 80.9573C24.5645 78.8062 24.5645 76.6471 24.4214 74.496C24.6194 74.4727 24.7734 74.2636 24.9714 74.1938Z" fill="white"/>
<path fill-rule="evenodd" clip-rule="evenodd" d="M42.4839 74.1938C42.7259 74.1938 42.7259 74.3333 42.9239 74.3333C43.1343 80.6632 44.6352 86.8707 47.3243 92.5318C46.6862 92.7875 46.5322 91.8345 46.3342 91.4859C43.5725 86.3597 42.1951 80.5313 42.3519 74.6354C42.3079 74.4728 42.4839 74.4728 42.4839 74.1938Z" fill="white"/>
<path fill-rule="evenodd" clip-rule="evenodd" d="M116.102 74.3333C116.586 74.217 116.652 74.5657 117.092 74.4959C118.214 79.5859 116.454 84.3506 115.662 88.7898C115.662 89.1616 115.178 89.2779 114.958 89.5335C114.99 90.9713 114.751 92.4015 114.254 93.7403C113.814 90.1146 115.772 85.4429 116.102 81.2594C116.256 79.1908 116.102 77.1455 116.102 74.7981V74.3333Z" fill="white"/>
<path fill-rule="evenodd" clip-rule="evenodd" d="M80.5045 75.1004C79.4596 76.2597 78.3182 77.3176 77.0942 78.2613C77.2042 76.7738 79.2944 76.123 79.9325 74.7982C80.3285 74.682 80.2185 75.1004 80.5045 75.1004Z" fill="white"/>
<path fill-rule="evenodd" clip-rule="evenodd" d="M118.654 74.9376C118.83 74.9376 118.918 74.9376 118.94 75.1003C119.644 75.1003 119.6 76.2159 119.666 76.5878C119.988 82.2151 119.108 87.8468 117.092 93.0664C117.62 87.2326 119.534 81.4454 118.654 74.9376Z" fill="white"/>
<path fill-rule="evenodd" clip-rule="evenodd" d="M126.642 75.4025C126.378 76.1694 125.498 76.7737 124.926 76.0067C125.388 75.3327 125.938 74.589 126.642 75.4025Z" fill="white"/>
<path fill-rule="evenodd" clip-rule="evenodd" d="M81.0765 75.7046C81.0765 75.9603 81.0765 76.3089 81.3625 76.4483C80.3947 77.6381 79.294 78.6994 78.0843 79.6092C76.4782 81.1432 75.4001 84.002 72.6719 83.5139C73.926 82.0497 75.6641 81.0038 77.0722 79.6092C78.2892 78.179 79.6298 76.8718 81.0765 75.7046V75.7046Z" fill="white"/>
<path fill-rule="evenodd" clip-rule="evenodd" d="M124.64 78.2612C126.268 78.819 125.608 81.6313 125.63 83.5139C125.63 84.2112 125.432 83.3512 125.058 83.5139C125.436 85.1949 125.436 86.9461 125.058 88.6272C124.662 88.2553 124.618 87.5115 124.222 87.1164C124.222 88.9525 125.3 90.9746 124.222 92.834C123.826 92.2994 123.738 91.4394 123.364 90.8816C124.187 86.7302 124.614 82.5024 124.64 78.2612V78.2612Z" fill="white"/>
<path fill-rule="evenodd" clip-rule="evenodd" d="M104.421 78.4006C105.212 78.7725 105.168 80.0276 105.146 81.2594C104.311 80.9108 104.399 79.6325 104.421 78.4006Z" fill="white"/>
<path fill-rule="evenodd" clip-rule="evenodd" d="M73.375 79.1211C73.661 79.1211 73.375 79.6092 73.815 79.5627C73.106 80.6187 72.1811 81.4925 71.1088 82.1193C71.1088 81.9101 70.8888 81.7474 70.8228 81.515C71.5268 80.4459 72.6929 79.981 73.375 79.1211Z" fill="white"/>
<path fill-rule="evenodd" clip-rule="evenodd" d="M75.2459 80.2135C74.1238 80.934 72.8697 83.4209 71.6816 82.5377C72.8697 81.8869 73.7278 80.1205 75.2459 80.2135Z" fill="white"/>
<path fill-rule="evenodd" clip-rule="evenodd" d="M44.6201 80.6552C46.5123 86.3959 48.4704 92.0437 52.0347 95.9949C47.7664 92.7875 45.6762 87.2791 44.6201 80.6552Z" fill="white"/>
<path fill-rule="evenodd" clip-rule="evenodd" d="M104.287 81.5615C104.644 81.8007 104.909 82.1643 105.038 82.589C105.166 83.0136 105.15 83.4725 104.991 83.8857C104.353 83.4906 104.177 82.6771 104.287 81.5615Z" fill="white"/>
<path fill-rule="evenodd" clip-rule="evenodd" d="M101.185 84.4203C101.185 84.9084 100.877 85.0711 100.349 85.0246C100.217 85.0246 100.349 84.6063 100.041 84.5598C100.063 83.909 101.185 83.4674 101.185 84.4203Z" fill="white"/>
<path fill-rule="evenodd" clip-rule="evenodd" d="M104.002 83.9788C104.838 84.1647 104.948 85.1176 104.706 86.0705C104.415 85.8268 104.194 85.5014 104.07 85.1315C103.945 84.7615 103.922 84.3621 104.002 83.9788Z" fill="white"/>
<path fill-rule="evenodd" clip-rule="evenodd" d="M38.7888 84.2577C39.4708 84.9782 38.6787 85.6987 38.3487 86.2333C38.1706 85.9088 38.0793 85.5392 38.0847 85.1641C38.2827 84.862 38.5907 84.6063 38.7888 84.2577Z" fill="white"/>
<path fill-rule="evenodd" clip-rule="evenodd" d="M39.2062 86.0938C39.3602 86.0938 39.3162 86.3959 39.4922 86.3959C39.4922 87.2791 38.9422 87.4185 38.7882 88.0461C38.0841 87.2791 38.9642 86.6748 39.2062 86.0938Z" fill="white"/>
<path fill-rule="evenodd" clip-rule="evenodd" d="M103.715 86.0938C104.033 86.2762 104.27 86.5824 104.377 86.9471C104.484 87.3117 104.452 87.7061 104.287 88.0461C103.385 87.9531 103.561 86.884 103.715 86.0938Z" fill="white"/>
<path fill-rule="evenodd" clip-rule="evenodd" d="M39.7781 87.8834C40.4382 88.6504 39.7781 89.8822 39.0741 90.2076C38.766 88.9526 39.3821 88.6504 39.7781 87.8834Z" fill="white"/>
<path fill-rule="evenodd" clip-rule="evenodd" d="M84.0683 89.2314C84.0535 89.5876 83.9614 89.9355 83.799 90.2481C83.6367 90.5606 83.4084 90.8296 83.1319 91.034C82.8554 91.2385 82.538 91.373 82.2044 91.4272C81.8708 91.4814 81.5299 91.4537 81.208 91.3464C81.0663 90.1623 81.3749 88.9671 82.0661 88.0228C82.804 88.2785 83.4851 88.6897 84.0683 89.2314Z" fill="white"/>
<path fill-rule="evenodd" clip-rule="evenodd" d="M103.386 88.1855C103.804 88.1855 103.738 88.8363 104.112 88.9293C102.872 93.7658 100.109 98.0119 96.2798 100.969C96.1258 100.434 96.7418 100.085 96.9838 99.7601C98.146 98.4199 99.2403 97.0156 100.262 95.5533C101.528 93.2104 102.574 90.7428 103.386 88.1855V88.1855Z" fill="white"/>
<path fill-rule="evenodd" clip-rule="evenodd" d="M65.5419 88.627C65.3276 89.0421 65.2544 89.5223 65.3345 89.9874C65.4145 90.4526 65.6431 90.8748 65.9819 91.1837C67.104 91.3231 67.28 90.4632 67.258 89.3708C68.2261 89.3708 67.9621 90.3934 67.8301 91.0442C67.3397 91.5338 66.7052 91.8308 66.0325 91.8858C65.3598 91.9408 64.6896 91.7504 64.1338 91.3463C63.7818 89.9983 64.1338 88.4179 65.5419 88.627Z" fill="white"/>
<path fill-rule="evenodd" clip-rule="evenodd" d="M100.152 89.5335C100.136 89.9011 100.038 90.2596 99.866 90.5794C99.6231 90.6322 99.3703 90.5821 99.162 90.4399C98.986 89.6729 99.756 89.2546 100.152 89.5335Z" fill="white"/>
<path fill-rule="evenodd" clip-rule="evenodd" d="M40.0644 90.1378C40.5484 90.7421 39.8444 91.3929 39.6464 91.788C39.3824 91.788 39.6464 91.2767 39.3604 91.1837C39.3824 90.6027 39.9324 90.6027 40.0644 90.1378Z" fill="white"/>
<path fill-rule="evenodd" clip-rule="evenodd" d="M99.2929 91.7881C99.0491 93.2062 98.5329 94.5564 97.7761 95.7556C97.0193 96.9548 96.0379 97.9775 94.8926 98.7607C96.0367 96.2738 97.7528 94.3679 98.8749 91.7881H99.2929Z" fill="white"/>
<path fill-rule="evenodd" clip-rule="evenodd" d="M40.5038 91.9508C41.2069 92.3227 40.306 92.9967 40.2181 93.4383C39.5809 93.0664 40.2621 92.3459 40.5038 91.9508Z" fill="white"/>
<path fill-rule="evenodd" clip-rule="evenodd" d="M123.187 92.3923C123.803 93.0199 124.287 94.9257 123.319 95.5532C123.033 94.3447 122.615 93.5777 123.187 92.3923Z" fill="white"/>
<path fill-rule="evenodd" clip-rule="evenodd" d="M116.587 93.0663C116.829 93.2057 116.587 93.7635 117.005 93.81C116.719 94.8559 116.367 95.8553 116.147 96.9709C115.945 96.3257 115.881 95.6417 115.957 94.967C116.033 94.2924 116.248 93.6436 116.587 93.0663Z" fill="white"/>
<path fill-rule="evenodd" clip-rule="evenodd" d="M41.0774 93.4382C41.3854 93.4382 41.2314 93.8798 41.4954 93.9031C41.4954 94.4144 40.9894 94.4609 40.9234 94.949C40.5934 94.949 40.7694 94.5074 40.5054 94.4841C40.5274 93.9728 41.0114 93.9263 41.0774 93.4382Z" fill="white"/>
<path fill-rule="evenodd" clip-rule="evenodd" d="M113.397 93.6008C113.924 94.0192 113.639 95.4834 113.529 96.1575C113.346 95.7625 113.24 95.3326 113.217 94.8933C113.194 94.4541 113.256 94.0145 113.397 93.6008V93.6008Z" fill="white"/>
<path fill-rule="evenodd" clip-rule="evenodd" d="M41.7796 95.0884C42.2636 95.0884 42.0216 95.6462 42.3516 95.6927C42.3516 96.2272 41.8456 96.2737 41.7796 96.7618C41.3835 96.7618 41.5155 96.111 41.2075 95.9948C41.3615 95.6694 41.7796 95.5067 41.7796 95.0884Z" fill="white"/>
<path fill-rule="evenodd" clip-rule="evenodd" d="M48.7559 95.3905C49.5259 96.0413 50.824 96.7385 50.736 97.7147C50.209 97.6134 49.7287 97.3303 49.3704 96.9097C49.012 96.4891 48.7959 95.9548 48.7559 95.3905V95.3905Z" fill="white"/>
<path fill-rule="evenodd" clip-rule="evenodd" d="M112.671 95.3905C112.899 95.9743 112.995 96.6068 112.949 97.2367C112.903 97.8667 112.717 98.4763 112.407 99.0163C112.207 98.4265 112.127 97.7984 112.172 97.1735C112.217 96.5486 112.388 95.9409 112.671 95.3905V95.3905Z" fill="white"/>
<path fill-rule="evenodd" clip-rule="evenodd" d="M122.372 95.3905C122.702 95.7445 122.908 96.2068 122.956 96.7012C123.004 97.1955 122.891 97.6924 122.636 98.1098C122.293 97.2518 122.201 96.3044 122.372 95.3905V95.3905Z" fill="white"/>
<path fill-rule="evenodd" clip-rule="evenodd" d="M29.6789 95.5532H30.2502C30.382 95.9251 30.4699 96.3899 30.0964 96.5991C29.9989 96.5669 29.9092 96.5125 29.8335 96.4399C29.7579 96.3673 29.6981 96.2781 29.6584 96.1785C29.6187 96.079 29.5999 95.9715 29.6034 95.8635C29.607 95.7555 29.6327 95.6496 29.6789 95.5532V95.5532Z" fill="white"/>
<path fill-rule="evenodd" clip-rule="evenodd" d="M115.531 95.9949C115.716 96.6183 115.774 97.2758 115.702 97.9245C115.63 98.5733 115.43 99.1987 115.113 99.7601C114.387 98.505 115.179 97.0408 115.531 95.9949Z" fill="white"/>
<path fill-rule="evenodd" clip-rule="evenodd" d="M42.7714 96.7618C43.0575 96.7618 42.9034 97.3196 43.2115 97.3661C43.1672 97.5865 43.062 97.788 42.9093 97.9452C42.7565 98.1024 42.5631 98.2083 42.3534 98.2493C42.3621 98.152 42.3382 98.0546 42.286 97.9739C42.2337 97.8932 42.1564 97.8345 42.0674 97.8077C42.1774 97.3197 42.5734 97.157 42.7714 96.7618Z" fill="white"/>
<path fill-rule="evenodd" clip-rule="evenodd" d="M121.646 97.7147C121.91 98.0261 122.079 98.4149 122.13 98.8299C122.181 99.2449 122.112 99.6664 121.931 100.039C121.722 99.6992 121.587 99.3138 121.537 98.9114C121.488 98.5089 121.525 98.0999 121.646 97.7147Z" fill="white"/>
<path fill-rule="evenodd" clip-rule="evenodd" d="M43.4968 98.4119C43.9368 98.2725 43.7828 98.8071 44.0468 98.8535C44.0468 99.3416 43.6508 99.5275 43.4968 99.8994C42.6167 99.4578 43.1888 99.0395 43.4968 98.4119Z" fill="white"/>
<path fill-rule="evenodd" clip-rule="evenodd" d="M105.432 98.7141C106.356 99.853 105.432 101.038 104.86 101.875C104.046 100.643 104.86 99.6205 105.432 98.7141Z" fill="white"/>
<path fill-rule="evenodd" clip-rule="evenodd" d="M111.548 98.7141C112.141 99.2254 111.9 100.434 111.548 101.038C111.043 100.318 111.394 99.4579 111.548 98.7141Z" fill="white"/>
<path fill-rule="evenodd" clip-rule="evenodd" d="M114.253 99.3184C114.781 99.8762 114.495 101.247 114.099 101.643C113.867 100.876 113.922 100.043 114.253 99.3184V99.3184Z" fill="white"/>
<path fill-rule="evenodd" clip-rule="evenodd" d="M44.7726 100.039C44.7726 100.55 44.2672 100.597 44.2013 101.085C43.9816 100.806 44.3551 100.039 44.7726 100.039Z" fill="white"/>
<path fill-rule="evenodd" clip-rule="evenodd" d="M120.79 100.039C120.99 100.339 121.121 100.685 121.171 101.048C121.22 101.412 121.188 101.783 121.076 102.131C120.875 101.831 120.745 101.485 120.695 101.121C120.645 100.758 120.678 100.387 120.79 100.039Z" fill="white"/>
<path fill-rule="evenodd" clip-rule="evenodd" d="M45.4763 101.108C45.4763 101.643 44.9709 101.689 44.905 102.154C44.5095 101.782 45.0369 101.108 45.4763 101.108Z" fill="white"/>
<path fill-rule="evenodd" clip-rule="evenodd" d="M113.396 101.108C113.594 101.503 113.572 102.131 113.814 102.479C113.435 102.909 113.143 103.415 112.956 103.967C112.815 103.487 112.782 102.979 112.858 102.483C112.935 101.987 113.119 101.516 113.396 101.108V101.108Z" fill="white"/>
<path fill-rule="evenodd" clip-rule="evenodd" d="M110.691 101.271C110.997 101.689 110.91 102.061 110.822 102.619C110.515 102.363 110.778 101.666 110.691 101.271Z" fill="white"/>
<path fill-rule="evenodd" clip-rule="evenodd" d="M103.716 101.41C103.957 101.753 104.074 102.176 104.045 102.602C104.017 103.029 103.846 103.43 103.562 103.734C103.386 103.177 103.386 101.712 103.716 101.41Z" fill="white"/>
<path fill-rule="evenodd" clip-rule="evenodd" d="M120.085 101.712C120.33 102.038 120.475 102.436 120.499 102.852C120.522 103.268 120.424 103.682 120.216 104.037C120.003 103.696 119.879 103.301 119.856 102.893C119.832 102.485 119.911 102.078 120.085 101.712Z" fill="white"/>
<path fill-rule="evenodd" clip-rule="evenodd" d="M109.985 102.921C110.359 103.316 109.985 104.292 109.853 104.571C109.392 104.106 109.985 103.339 109.985 102.921Z" fill="white"/>
<path fill-rule="evenodd" clip-rule="evenodd" d="M102.439 103.06C102.988 103.223 102.747 104.966 102.439 105.175C102.244 104.861 102.141 104.494 102.141 104.118C102.141 103.742 102.244 103.375 102.439 103.06V103.06Z" fill="white"/>
<path fill-rule="evenodd" clip-rule="evenodd" d="M112.187 103.362C112.357 103.692 112.435 104.066 112.412 104.44C112.388 104.815 112.265 105.175 112.055 105.477C111.882 105.149 111.802 104.775 111.826 104.399C111.849 104.024 111.974 103.664 112.187 103.362V103.362Z" fill="white"/>
<path fill-rule="evenodd" clip-rule="evenodd" d="M119.228 103.827C119.535 104.501 119.975 105.036 119.513 105.78C119.309 105.152 119.212 104.491 119.228 103.827V103.827Z" fill="white"/>
<path fill-rule="evenodd" clip-rule="evenodd" d="M47.0382 103.967H47.4776C47.4776 104.362 47.4776 104.618 47.0382 104.571C46.5987 104.525 47.0602 104.385 47.0382 103.967Z" fill="white"/>
<path fill-rule="evenodd" clip-rule="evenodd" d="M108.975 105.013C109.481 105.826 108.403 106.221 108.271 106.826C107.919 106.198 108.799 105.594 108.975 105.013Z" fill="white"/>
<path fill-rule="evenodd" clip-rule="evenodd" d="M73.5298 108.336C70.2736 107.779 66.7093 107.5 64.9932 105.315C65.1032 105.315 65.1252 105.176 65.2792 105.176C65.4332 105.176 65.4112 105.176 65.4112 105.315C66.7533 105.757 68.1174 106.384 69.5475 106.826C70.9414 107.107 72.2852 107.616 73.5298 108.336Z" fill="white"/>
<path fill-rule="evenodd" clip-rule="evenodd" d="M111.261 105.315C111.426 105.539 111.502 105.821 111.474 106.103C111.445 106.385 111.314 106.644 111.108 106.826C110.756 106.477 111.064 105.571 111.261 105.315Z" fill="white"/>
<path fill-rule="evenodd" clip-rule="evenodd" d="M118.523 105.315C118.793 105.585 118.957 105.953 118.981 106.345C119.006 106.737 118.889 107.125 118.654 107.43C118.442 107.128 118.317 106.768 118.294 106.393C118.27 106.018 118.35 105.643 118.523 105.315V105.315Z" fill="white"/>
<path fill-rule="evenodd" clip-rule="evenodd" d="M100.438 105.617C101.163 105.849 100.855 107.267 100.438 107.593C100.13 107.198 100.306 106.059 100.438 105.617Z" fill="white"/>
<path fill-rule="evenodd" clip-rule="evenodd" d="M110.404 106.523C110.843 107.104 110.404 107.964 110.118 108.336C109.984 108.039 109.94 107.706 109.991 107.382C110.042 107.058 110.186 106.758 110.404 106.523V106.523Z" fill="white"/>
<path fill-rule="evenodd" clip-rule="evenodd" d="M85.0593 108.476C79.5809 111.427 67.788 110.8 63.0576 106.988C63.1676 106.988 63.1896 106.826 63.3436 106.826C69.1946 109.149 75.5055 109.876 81.6931 108.941C82.9031 108.731 83.9812 107.848 85.0593 108.476Z" fill="white"/>
<path fill-rule="evenodd" clip-rule="evenodd" d="M117.663 107.011C117.818 107.307 117.91 107.635 117.933 107.972C117.956 108.309 117.909 108.648 117.795 108.964C117.553 108.36 117.202 107.476 117.663 107.011Z" fill="white"/>
<path fill-rule="evenodd" clip-rule="evenodd" d="M85.3439 107.128H86.048C86.158 107.593 86.158 107.43 86.048 107.871C85.3879 107.941 85.1019 107.639 85.3439 107.128Z" fill="white"/>
<path fill-rule="evenodd" clip-rule="evenodd" d="M107.565 107.29C107.961 107.593 107.367 108.057 107.279 108.336C106.84 108.034 107.455 107.546 107.565 107.29Z" fill="white"/>
<path fill-rule="evenodd" clip-rule="evenodd" d="M109.26 108.034C109.854 109.22 108.776 109.917 108.556 110.73C107.983 109.568 108.908 108.708 109.26 108.034Z" fill="white"/>
<path fill-rule="evenodd" clip-rule="evenodd" d="M116.587 108.638C117.071 108.638 117.115 109.893 116.873 110.289C116.587 110.079 116.587 108.987 116.587 108.638Z" fill="white"/>
<path fill-rule="evenodd" clip-rule="evenodd" d="M106.266 108.941C106.706 109.359 106.266 110.01 105.981 110.289C105.585 109.824 106.179 109.336 106.266 108.941Z" fill="white"/>
<path fill-rule="evenodd" clip-rule="evenodd" d="M115.947 109.824C116.072 109.971 116.167 110.143 116.227 110.33C116.288 110.516 116.313 110.714 116.301 110.911C116.288 111.107 116.239 111.3 116.156 111.476C116.073 111.653 115.957 111.81 115.815 111.939C115.089 111.381 115.551 110.382 115.947 109.824Z" fill="white"/>
<path fill-rule="evenodd" clip-rule="evenodd" d="M107.787 110.289C108.821 111.149 107.061 113.334 106.511 112.102C106.841 112.102 106.819 112.357 107.215 112.241C106.973 111.218 107.435 110.87 107.787 110.289Z" fill="white"/>
<path fill-rule="evenodd" clip-rule="evenodd" d="M59.8664 110.73C60.2445 110.653 60.6357 110.699 60.9889 110.861C61.3422 111.022 61.6411 111.293 61.8466 111.637C61.4505 112.59 59.3824 111.66 59.8664 110.73Z" fill="white"/>
<path fill-rule="evenodd" clip-rule="evenodd" d="M104.991 110.73C105.387 111.056 104.815 111.637 104.42 111.637C104.596 111.311 104.903 111.149 104.991 110.73Z" fill="white"/>
<path fill-rule="evenodd" clip-rule="evenodd" d="M114.672 111.939C115.464 112.822 114.54 114.263 113.242 113.891C113.572 113.078 114.386 112.729 114.672 111.939Z" fill="white"/>
<path fill-rule="evenodd" clip-rule="evenodd" d="M64.1343 112.241C64.376 112.241 64.4419 112.427 64.7056 112.404C64.7056 112.869 64.5738 113.054 64.1343 112.985C64.0478 112.882 64 112.75 64 112.613C64 112.476 64.0478 112.343 64.1343 112.241V112.241Z" fill="white"/>
<path fill-rule="evenodd" clip-rule="evenodd" d="M62.9917 115.402C60.7915 115.402 58.8114 113.914 56.7212 113.287C56.8312 112.892 57.1392 112.729 57.2932 112.404C59.2418 113.295 61.144 114.296 62.9917 115.402Z" fill="white"/>
<path fill-rule="evenodd" clip-rule="evenodd" d="M89.8981 112.682C90.2721 112.682 90.0741 112.799 90.0521 112.985C87.3239 114.007 83.8477 116.541 80.3714 117.052C79.5139 117.098 78.6547 117.098 77.7972 117.052C75.443 117.191 72.8028 118.121 70.5366 117.052C70.5366 115.472 71.9447 116.285 72.7368 116.308C78.6591 116.708 84.577 115.458 89.8981 112.682Z" fill="white"/>
<path fill-rule="evenodd" clip-rule="evenodd" d="M69.5466 112.985H70.1179V113.589C69.6564 113.659 69.4807 113.473 69.5466 112.985Z" fill="white"/>
<path fill-rule="evenodd" clip-rule="evenodd" d="M76.6546 113.45H77.0941C77.2285 113.67 77.2759 113.937 77.2259 114.193C76.7865 114.193 76.9623 114.193 76.5228 114.193C76.4729 113.937 76.5202 113.67 76.6546 113.45V113.45Z" fill="white"/>
<path fill-rule="evenodd" clip-rule="evenodd" d="M64.5527 115.1C65.3228 115.1 65.7408 115.448 66.5549 115.402C66.5549 115.96 66.3789 116.122 66.4009 116.61C65.6748 116.61 65.2788 116.215 64.5527 116.146V115.1Z" fill="white"/>
<path fill-rule="evenodd" clip-rule="evenodd" d="M67.8311 115.704C68.4471 115.588 68.6451 115.96 69.2612 115.844C69.3084 116.307 69.2557 116.776 69.1072 117.215C68.8871 116.89 68.0731 117.215 67.8311 116.913V115.704Z" fill="white"/>
<path fill-rule="evenodd" clip-rule="evenodd" d="M55.3115 120.957C59.8621 122.954 64.6527 124.276 69.5466 124.885C71.2408 125.094 73.0449 125.512 74.673 125.628C77.8443 125.456 80.9914 124.949 84.0677 124.118C85.6959 123.885 87.302 123.746 88.7541 123.374C90.0302 122.835 91.37 122.483 92.7364 122.328C91.9884 123.583 90.2722 123.816 88.9081 124.28C79.1834 127.441 62.8141 126.605 55.3115 121.956V120.957Z" fill="white"/>
<path fill-rule="evenodd" clip-rule="evenodd" d="M91.6142 128.789C91.9222 129.091 91.3282 129.696 91.4602 130.3C87.6695 131.648 83.7644 132.605 79.7993 133.159C79.2272 132.973 80.3713 132.206 80.5033 131.787C84.353 131.539 88.1232 130.521 91.6142 128.789V128.789Z" fill="white"/>
<path fill-rule="evenodd" clip-rule="evenodd" d="M55.5762 129.231C61.8048 131.192 68.286 132.11 74.7837 131.95C74.7837 132.647 73.9256 132.554 73.7716 133.159C66.687 132.857 60.1745 132.066 55.5762 129.231Z" fill="white"/>
<path fill-rule="evenodd" clip-rule="evenodd" d="M79.514 131.95C79.213 132.444 78.7821 132.835 78.2741 133.075C77.7661 133.314 77.203 133.392 76.6538 133.298C76.9394 132.788 77.3681 132.384 77.8806 132.143C78.393 131.901 78.9638 131.834 79.514 131.95Z" fill="white"/>
<path fill-rule="evenodd" clip-rule="evenodd" d="M76.9839 132.09C76.6978 132.531 76.1258 132.694 75.9938 133.298H74.7837C75.2017 132.578 75.5758 131.857 76.9839 132.09Z" fill="white"/>
<path fill-rule="evenodd" clip-rule="evenodd" d="M62.4194 150.149C62.2874 150.753 61.7594 150.962 61.5614 151.497C61.0773 151.497 61.0333 151.264 60.5713 151.357C61.0773 150.846 61.1873 149.893 62.4194 150.149Z" fill="white"/>
<path fill-rule="evenodd" clip-rule="evenodd" d="M64.4214 150.149C63.8493 150.753 63.4753 152.171 62.2212 151.66C62.9252 151.171 63.1013 150.033 64.4214 150.149Z" fill="white"/>
<path fill-rule="evenodd" clip-rule="evenodd" d="M66.1139 150.288C65.9599 151.125 65.3439 151.497 64.9919 152.101C64.6398 152.101 64.5738 151.845 64.1338 151.961C64.7718 151.38 65.0139 150.381 66.1139 150.288Z" fill="white"/>
<path fill-rule="evenodd" clip-rule="evenodd" d="M68.4036 150.59C67.6775 151.241 67.4795 152.426 65.9834 152.24C66.4454 151.171 66.8415 150.195 68.4036 150.59Z" fill="white"/>
<path fill-rule="evenodd" clip-rule="evenodd" d="M69.834 150.753C69.3719 151.497 68.7339 152.775 67.6338 152.24C68.2938 151.729 68.5139 150.66 69.834 150.753Z" fill="white"/>
<path fill-rule="evenodd" clip-rule="evenodd" d="M71.6816 150.892C70.9336 151.52 70.6915 152.961 69.4814 152.543C70.0535 151.892 70.3835 150.846 71.6816 150.892Z" fill="white"/>
<path fill-rule="evenodd" clip-rule="evenodd" d="M74.3873 151.171C73.0892 151.59 72.9132 153.217 70.9551 152.961C71.7691 151.892 72.3192 150.683 74.3873 151.171Z" fill="white"/>
<path fill-rule="evenodd" clip-rule="evenodd" d="M76.2364 151.171C75.5323 152.124 75.0923 153.496 73.2441 153.124C74.1682 152.264 74.3222 150.73 76.2364 151.171Z" fill="white"/>
<path fill-rule="evenodd" clip-rule="evenodd" d="M59.8673 152.101C60.1973 152.101 60.2413 152.612 60.5714 152.705C60.3733 153.147 60.0213 152.519 59.5813 152.705C59.3833 152.287 59.8673 152.403 59.8673 152.101Z" fill="white"/>
<path fill-rule="evenodd" clip-rule="evenodd" d="M81.2078 6.211C88.3274 6.05679 95.3885 7.59788 101.867 10.72C100.504 9.22086 98.7236 8.21954 96.785 7.86119C89.6124 5.30457 80.3057 5.16511 70.3829 4.70027C66.0732 4.33078 61.7403 4.99828 57.7099 6.6526C58.942 7.44283 60.6142 6.51315 62.1103 6.211C65.1217 5.70697 68.1715 5.50464 71.219 5.60671C62.133 6.74092 53.3155 9.59906 45.191 14.0436C43.7829 14.8803 42.3968 15.3916 41.0767 16.1586C39.8658 17.0184 38.7184 17.9741 37.6444 19.0173C35.6862 20.5978 33.4201 21.8529 31.3739 23.3868C29.3278 24.9208 27.5456 26.6175 25.4115 28.0352C24.7074 29.8016 22.4852 31.4983 21.0111 33.3112C17.2372 37.8706 14.0353 42.9247 11.4844 48.3488C13.0458 43.8374 15.2011 39.5811 17.8869 35.7051C19.2235 33.8781 20.6482 32.1249 22.1552 30.4524C23.6733 28.779 24.7954 26.664 26.2695 25.037C28.0957 23.0382 30.2518 21.1556 32.254 19.3195C38.4145 13.7182 46.3131 10.7897 54.2557 6.83854C48.8996 8.09423 43.7624 10.2273 39.0305 13.1604C48.1925 6.34289 59.1787 2.80016 70.3829 3.05009C75.3306 3.1201 80.2691 3.52378 85.1681 4.25868C87.9843 4.74676 90.9765 4.74676 93.4627 5.30457C96.5691 6.09708 99.5806 7.25885 102.439 8.76762C110.734 12.7188 117.357 18.9709 123.781 24.5489C123.542 24.9817 123.35 25.4417 123.209 25.9202C123.605 26.3153 124.023 24.8278 124.639 25.4554C124.639 25.897 124.969 26.0132 125.211 26.2224C125.211 26.9196 124.573 27.152 124.353 27.7099C121.507 24.6338 118.463 21.7683 115.244 19.1336C113.108 16.8993 110.66 15.0257 107.984 13.5787C109.469 15.2406 111.139 16.7077 112.956 17.9482C114.694 19.4357 116.256 21.2021 117.951 22.5966C108.292 14.9965 97.049 7.76822 81.2078 6.211Z" fill="white"/>
<path fill-rule="evenodd" clip-rule="evenodd" d="M6.18225 71.4746C7.43635 70.6844 7.17233 68.8715 7.32634 67.7326C8.66845 57.9013 12.5627 50.3244 16.127 42.7475C18.2337 39.0772 20.8773 35.7825 23.9596 32.9858C26.718 29.8902 29.7373 27.0663 32.9803 24.549C36.2782 22.0339 39.7006 19.7064 43.2331 17.5764C46.784 15.1552 50.5951 13.189 54.586 11.7194C58.9538 10.1797 63.4256 8.99096 67.963 8.16336C73.1908 7.73705 78.4493 8.08913 83.5842 9.20925C92.3794 10.7714 100.856 13.916 108.644 18.5061C121.625 26.3619 132.868 41.934 138.016 58.3893C139.029 61.5735 139.469 65.3619 140.217 68.918C141.13 72.648 141.42 76.5176 141.075 80.353C140.485 87.6306 139.052 94.8041 136.806 101.712C134.583 107.7 131.813 113.445 128.534 118.865C125.387 124.118 120.349 127.441 116.873 132.392C113.815 134.902 110.976 137.923 107.566 140.224C107.214 140.457 106.444 140.224 106.136 140.527C102.172 142.883 97.9641 144.747 93.595 146.081C88.847 147.747 83.9279 148.808 78.9419 149.242C73.6906 149.347 68.4426 148.895 63.2767 147.894C54.489 146.474 46.0327 143.32 38.3487 138.597C34.8561 136.494 31.582 134.009 28.58 131.183C27.4359 130.068 26.3798 128.394 25.1697 126.976C23.9596 125.559 22.3975 124.513 21.4074 123.281C19.8497 121.052 18.4242 118.724 17.1391 116.308C10.8123 104.792 7.47306 91.7161 7.45835 78.4007C7.45835 77.1224 7.94239 75.2165 6.62229 74.1939C6.06639 76.1919 5.82119 78.272 5.89623 80.353C6.08539 92.2932 8.86271 104.029 14.0149 114.658C15.0246 117.04 16.2632 119.307 17.7111 121.422C18.1512 122.003 18.7672 122.328 19.2733 122.932C21.1214 125.024 22.5515 127.581 24.6857 129.696C26.5705 131.905 28.6076 133.964 30.7802 135.855C31.8802 136.622 33.1783 137.203 34.3444 137.97C42.6053 143.262 51.4796 147.402 60.7465 150.288C59.7124 151.752 57.9082 150.567 56.6321 150.149C55.356 149.73 53.3979 149.196 51.9238 148.801C43.4887 146.174 35.711 141.601 29.152 135.413C22.5008 129.854 17.0226 122.887 13.0688 114.96C12.0244 112.098 10.578 109.419 8.77845 107.012C12.7416 118.176 19.365 128.07 28.0079 135.739C32.2358 139.665 36.9239 143 41.957 145.663C47.5438 148.393 53.3835 150.504 59.3824 151.962C58.7223 152.845 57.6662 151.962 56.9622 151.799C54.52 151.078 51.3517 150.497 48.9756 149.475C47.0834 148.708 45.2353 147.429 43.2991 146.477C37.5161 143.915 32.0964 140.52 27.1939 136.389C21.0066 130.824 15.7936 124.153 11.7927 116.68C5.39019 104.99 2.17795 90.5795 3.19002 72.381C3.48352 68.4002 4.00518 64.4418 4.75214 60.5276C4.99416 59.2028 4.97216 57.9477 5.19218 56.6229C5.76089 54.4105 6.49664 52.2498 7.39235 50.1617C9.394 44.1927 12.439 38.6739 16.369 33.8923C21.1732 27.5617 26.7602 21.9411 32.9803 17.1813C27.9727 21.8088 23.3093 26.8361 19.0312 32.2188C17.4995 33.9458 16.1153 35.8124 14.8949 37.7969C14.0589 39.2379 13.5528 41.167 12.6948 42.9102C11.8367 44.6533 10.9786 46.0943 10.3186 47.7213C9.06448 51.3238 8.42643 55.2284 7.17233 59.1563C6.01203 63.1644 5.27417 67.2955 4.97216 71.4746C4.34809 77.5878 4.48864 83.7613 5.39019 89.8358C5.58821 83.9323 4.92816 76.6111 6.11625 70.2892C6.40227 69.1736 5.83023 71.2654 6.18225 71.4746ZM62.4186 63.9674C65.3928 62.2637 67.9707 59.8819 69.9652 56.9948C74.8275 50.2546 73.3534 36.077 68.9751 29.4763C67.9226 27.635 66.6832 25.9205 65.2788 24.363C64.3547 23.5728 63.2107 22.9685 62.2866 22.248C61.3625 21.5275 60.4164 20.714 59.2943 19.9238C55.9885 18.784 52.5159 18.2802 49.0416 18.4363C46.6929 18.693 44.3897 19.2954 42.199 20.226C38.7668 21.5275 34.9385 23.4798 33.3984 26.2456C38.7888 22.9918 45.3893 18.1807 54.322 19.9238C56.2435 20.5087 58.1076 21.287 59.8884 22.248C64.4929 24.5872 68.0973 28.6686 69.9872 33.6831C72.3433 39.7797 72.4999 46.5776 70.4272 52.788C68.8424 56.3616 66.5013 59.5027 63.5847 61.9686C61.8067 63.2882 59.8955 64.3951 57.8862 65.269C56.8962 65.7571 55.8621 65.6408 55.048 66.3149C57.7322 66.9656 60.3944 65.176 62.4186 63.9674ZM89.7667 25.0138C89.8987 24.549 90.2727 24.3398 90.1847 23.6658C88.8646 24.0841 88.6446 25.4554 87.9846 26.3619C86.3344 28.3607 84.5743 28.8487 83.2762 31.3356C82.7922 32.2421 82.0661 33.195 81.7141 34.0317C81.3801 35.408 81.1883 36.8185 81.142 38.2385C80.5283 40.5024 80.2901 42.8614 80.438 45.2111C81.0181 49.4827 82.524 53.5551 84.8383 57.111C87.1191 59.8824 89.989 62.0434 93.213 63.417C96.4369 64.7906 99.9231 65.3376 103.386 65.0133C103.276 65.4317 103.386 66.0824 103.1 66.3613C101.538 66.2451 99.8875 66.1289 98.2594 65.9197C96.6312 65.7106 95.1351 64.9668 94.145 65.6176C98.286 67.5856 102.925 68.0593 107.346 66.9656C113.947 65.1528 120.789 59.1098 122.439 52.5324C123.047 48.9241 122.851 45.216 121.867 41.7016C121.603 47.7445 121.647 53.0669 119.667 56.9018C118.583 58.4462 117.285 59.8095 115.817 60.946C114.417 62.3663 112.71 63.4035 110.844 63.9674C111.042 63.3399 111.042 62.4567 111.834 62.4567C111.834 62.7821 111.614 63.5026 112.12 63.3631C112.274 62.2475 113.243 61.7827 113.265 61.0389C114.893 60.7833 115.641 59.0634 117.115 59.0866C117.115 58.5055 116.851 58.3661 116.961 57.7386C118.633 56.1116 119.051 53.0902 120.085 50.766C119.799 48.4418 120.745 46.3732 120.657 44.0025C120.459 38.6569 118.457 32.3815 115.685 29.5693C112.856 26.7154 109.377 24.6819 105.586 23.6658C102.726 23.2242 99.8655 22.9918 96.4772 22.7593C96.6972 22.2248 96.7412 21.5275 97.1813 21.2486C100.514 21.1394 103.849 21.3416 107.148 21.8529C105.442 20.707 103.471 20.0798 101.45 20.04C97.8154 19.6319 94.1409 19.9632 90.6248 21.0162C85.0583 23.5961 80.108 28.2212 79.0739 34.8452C80.108 34.2176 80.482 32.8464 81.076 31.847C83.479 27.6825 87.068 24.4282 91.3288 22.5502C90.6248 23.2009 90.8888 24.8279 89.7667 25.0138ZM49.7456 21.6902C48.5355 21.8064 47.1714 21.6902 45.8953 21.8529C40.5817 23.0418 35.814 26.1178 32.3863 30.5687C30.7787 33.1621 29.7066 36.0844 29.24 39.145C28.426 47.698 31.7482 56.3905 35.9506 59.5979C38.3707 61.4805 41.319 64.5252 44.7512 64.409C46.4454 64.409 47.7435 64.7344 49.1516 64.7112C50.5597 64.6879 51.5058 64.316 52.5838 64.2696C53.6619 64.2231 54.234 64.5252 55.004 64.409C57.1239 63.8004 59.1371 62.8351 60.9665 61.5503C63.6583 60.1801 65.897 57.9852 67.391 55.2517C67.831 54.4614 68.315 53.5085 68.6671 52.695C70.1963 48.6823 70.5414 44.275 69.6572 40.0514C69.4122 38.06 68.9848 36.0985 68.3811 34.1944C65.6968 26.9197 57.8862 22.4107 50.1636 21.2486C50.1636 21.2486 49.9876 21.2486 50.0096 21.3881C50.0316 21.5275 49.8116 21.574 49.7456 21.6902ZM115.949 27.9888C114.061 25.4979 111.472 23.707 108.556 22.8756C111.042 24.5722 113.397 26.4083 115.949 27.9888ZM27.3919 48.4418C28.1333 50.4348 28.6646 52.5081 28.976 54.6241C31.3742 59.4817 34.4324 63.6885 39.9769 65.1528C38.7228 63.2934 35.8845 62.8286 34.2784 60.9227C32.7625 58.8881 31.4776 56.6727 30.4501 54.322C29.2814 51.6571 28.538 48.8063 28.25 45.8851C27.6779 40.9511 28.4407 35.9468 30.4501 31.4519C30.8242 30.6384 31.3742 29.8946 31.1762 29.4995C27.0839 32.335 26.2038 41.934 27.3919 48.465V48.4418ZM119.667 33.5669C119.667 32.8929 119.491 32.428 118.941 32.3583C118.941 33.0556 119.117 33.4971 119.667 33.5901V33.5669ZM121.493 39.4239C121.564 38.0443 121.217 36.6767 120.503 35.5192C120.275 36.2031 120.247 36.9439 120.424 37.6447C120.6 38.3456 120.973 38.9737 121.493 39.4471V39.4239ZM77.9518 41.5389C77.6878 47.4888 79.2499 54.6009 81.6481 57.9245C82.6603 59.0677 83.7564 60.1247 84.9263 61.0854C86.8853 63.179 89.4318 64.5485 92.1869 64.9901C92.2969 64.2463 91.4168 64.3625 91.0428 64.0836C90.6688 63.8047 90.2067 63.2004 89.7667 62.8983C88.9746 62.3405 87.9846 62.201 87.1925 61.6897C80.812 57.4597 78.8979 48.3953 78.3918 38.2153C78.0494 39.2923 77.9002 40.4273 77.9518 41.5621V41.5389ZM76.5217 60.3417C71.1313 58.3196 69.5251 69.6385 76.0816 68.0115C77.0282 67.6151 77.8153 66.8841 78.3088 65.9432C78.8022 65.0023 78.9716 63.9098 78.7879 62.8518C77.9078 61.7129 77.5118 60.7368 76.5217 60.3649V60.3417ZM43.0571 66.3613C44.0032 66.5008 44.8612 67.4537 45.8953 66.9656C46.1813 65.5246 43.5411 65.7106 43.0571 66.3613ZM48.3375 66.6635C48.1175 67.8023 50.2737 67.5932 50.5377 66.9656C50.2737 66.3846 48.8875 66.4078 48.3815 66.6635H48.3375ZM27.8319 68.9877C24.9591 69.5355 22.2203 70.6896 19.7793 72.381C19.2073 72.8691 18.7452 73.7058 18.0852 74.3334C16.5309 75.6065 15.2801 77.2461 14.4329 79.1212C13.8393 80.1128 13.5475 81.2727 13.5968 82.4448C15.9776 78.4661 19.1918 75.1183 22.9916 72.6599C26.4092 70.7334 30.1425 69.5109 33.9924 69.0574C36.5666 69.0574 38.5688 70.0336 40.8349 70.1033C38.2387 66.6867 32.4083 67.8256 27.8319 69.0807V68.9877ZM64.8388 74.7052C67.0389 71.4281 63.6067 67.8721 60.4384 68.6855C58.6783 69.1271 57.9742 71.4746 58.0183 74.2404C59.0743 76.797 63.5407 76.797 64.8388 74.7982V74.7052ZM85.1903 73.6361C85.7184 76.216 90.1627 76.4251 91.3288 74.7052C93.375 71.6605 91.0868 67.965 87.1925 69.2898C86.3982 69.6373 85.754 70.2833 85.3842 71.1032C85.0145 71.923 84.9454 72.8586 85.1903 73.7291V73.6361ZM53.7499 80.353C52.1218 78.5402 50.8017 76.0765 48.8875 74.1939C46.9311 72.2893 44.7038 70.7207 42.287 69.5455C42.155 69.5455 42.111 69.685 42.001 69.7082C41.891 69.7314 41.781 69.8244 41.781 70.1265C43.2551 71.9162 45.3673 72.4507 47.0394 73.7291C52.0118 77.8429 54.3 84.3507 55.5761 92.3227C56.0874 88.23 55.4526 84.0687 53.7499 80.353V80.353ZM111.966 70.1265C108.195 70.2067 104.529 71.4598 101.428 73.7291C102.858 74.0777 104.244 72.7529 105.982 72.2416C109.487 71.0744 113.223 70.914 116.807 71.7767C116.685 72.2417 116.441 72.6607 116.103 72.9853C105.762 72.2881 98.2814 76.7738 94.7391 84.1182C92.7113 87.637 91.816 91.7546 92.1869 95.8554C92.5958 101.371 94.9516 106.522 98.7874 110.289C101.417 112.342 104.355 113.913 107.478 114.937C110.479 116.105 113.708 116.464 116.873 115.983C121.374 114.808 125.441 112.243 128.556 108.615C131.561 104.168 133.246 98.8768 133.396 93.415C133.404 90.5973 132.927 87.8015 131.988 85.1641C131.724 84.4669 131.768 83.5837 131.57 83.0723C130.558 80.4692 127.918 78.9353 126.29 76.89C126.752 76.89 126.972 75.7976 127.434 76.1462C127.896 76.4949 127.434 76.89 127.434 77.657C128.05 77.8661 127.742 77.0759 128.292 77.1921C132.406 81.2827 134.65 88.418 134.188 97.064C134.188 99.1093 133.572 100.969 133.33 103.06C136.586 99.4812 135.53 91.6022 134.474 86.3727C133.902 83.6999 132.736 81.3757 132.274 79.4001C131.834 77.7034 128.578 75.3792 127.148 74.2869C124.702 72.5431 121.935 71.3631 119.029 70.8238C118.721 70.8238 118.721 70.4519 118.743 70.0801C116.741 70.7308 114.255 69.9871 111.966 70.1265V70.1265ZM48.6235 107.872C50.899 105.058 52.5057 101.711 53.3099 98.1099C53.7032 96.7892 53.9469 95.4239 54.0359 94.0426C54.168 87.5348 52.4958 79.4931 47.7655 75.7046C47.3694 75.3792 46.7974 75.1236 46.3354 74.7982C43.6658 72.8778 40.6816 71.4986 37.5347 70.7308C31.2642 69.0574 26.2258 71.6373 22.2875 73.7291C21.4514 75.1701 19.8673 76.0533 18.7452 77.4943C17.1021 79.6692 15.802 82.11 14.8949 84.7225C10.9786 95.8322 15.1809 107.012 22.9916 111.335C26.714 113.538 30.9138 114.683 35.1805 114.658C37.5925 114.287 39.9752 113.728 42.309 112.985C44.4941 111.394 46.6016 109.687 48.6235 107.872V107.872ZM70.6912 74.4728C71.0653 73.3339 72.2534 73.0086 72.6714 71.9162C65.6308 73.7058 68.095 85.4198 74.3875 86.21C75.635 86.2887 76.8824 86.0562 78.0291 85.5313C79.1757 85.0064 80.1894 84.2039 80.988 83.1886C81.5821 82.3286 82.3741 80.4925 81.4281 79.2839C81.1582 80.1995 80.6981 81.0398 80.0815 81.7435C79.4648 82.4472 78.7071 82.9965 77.8638 83.3512C78.8979 81.9335 80.394 81.027 80.988 79.1212C78.7879 79.9114 77.3797 84.5366 74.5855 83.9555C77.1399 81.9018 79.4782 79.5642 81.5601 76.9829C81.8901 77.1689 81.5601 78.0056 82.1321 78.0288C82.256 76.6148 81.9322 75.1973 81.2116 73.9986C80.4909 72.7998 79.414 71.8876 78.1498 71.4049C77.9078 71.126 78.1498 71.2189 78.1498 70.8238C77.2477 70.8238 76.8957 71.5908 75.7296 71.4049C75.4436 71.6838 75.7296 71.9627 75.7296 72.3113C73.7715 73.6593 71.9013 75.8906 70.1852 76.9597C70.1852 74.6355 72.1433 74.1242 73.1554 72.7529C72.1873 73.1945 71.3073 74.4728 70.6912 74.4728ZM99.8655 75.2165C94.013 79.6325 87.0605 89.9985 91.1748 100.341C90.8597 98.353 90.7638 96.333 90.8888 94.3215C91.3929 88.9292 93.3731 83.8088 96.5872 79.586C97.7533 78.0986 99.6455 77.2618 100.152 75.2165H99.8655ZM11.7267 85.629C10.4946 93.0664 11.3967 102.596 15.577 105.617C13.5617 101.951 12.3933 97.8339 12.1667 93.601C11.9467 89.9055 13.3328 86.6284 13.5968 83.0723H13.1788C12.7388 83.9788 12.6068 85.1874 11.7267 85.629ZM84.6403 93.7404C85.3939 93.1364 85.9497 92.2985 86.2299 91.344C86.51 90.3895 86.5004 89.3664 86.2024 88.418C85.7089 87.5231 84.9599 86.8163 84.0627 86.3988C83.1655 85.9812 82.1662 85.8745 81.208 86.0938C79.4479 86.5819 78.8759 89.5801 79.0079 91.8113C80.504 93.0664 82.6602 94.6701 84.6403 93.7404V93.7404ZM69.6792 88.418C69.2611 86.8143 66.8849 85.8614 64.8388 86.303C62.7926 86.7446 62.0006 88.9293 62.2866 91.5789C64.3987 95.3906 71.0873 93.8566 69.6792 88.418ZM7.17233 98.2494C7.27213 97.0039 6.91799 95.7652 6.18225 94.7863C5.91823 96.0181 5.89623 98.1796 7.17233 98.2494ZM53.3759 101.573C52.6527 103.497 51.7147 105.323 50.5817 107.012C49.025 108.793 47.2577 110.355 45.3233 111.66C44.4148 112.431 43.4593 113.137 42.4631 113.775C41.495 114.333 40.0869 114.403 39.3388 115.565C44.0472 115.425 45.9393 112.311 49.1516 110.614C52.0778 108.127 53.1559 104.525 54.85 100.829C55.7577 99.1388 56.2068 97.2168 56.1481 95.2744C56.1237 95.2128 56.0792 95.1625 56.0227 95.1327C55.9661 95.1028 55.9014 95.0954 55.8401 95.1117C54.8016 97.1743 53.9543 99.3381 53.3099 101.573H53.3759ZM96.4552 118.633C95.7564 115.069 94.1251 111.783 91.7469 109.15C88.3146 104.339 84.6403 100.62 78.2158 99.5277C76.0365 99.1234 73.8279 98.9212 71.6153 98.9234C67.1334 99.2297 62.8998 101.206 59.6684 104.501C57.1275 106.483 54.9942 108.99 53.3979 111.869C52.9579 112.729 52.2318 113.496 51.9678 114.193C50.7608 117.599 50.2291 121.23 50.4057 124.861C51.3077 130.881 54.432 138.458 58.1063 141.41C58.4803 141.712 58.8323 142.293 59.3824 142.177C58.2423 140.072 56.9553 138.06 55.5321 136.157C54.2545 133.979 53.2488 131.635 52.5398 129.184C51.6104 124.937 51.6936 120.513 52.7818 116.308C54.096 111.954 56.7528 108.19 60.3284 105.617C61.6458 104.42 63.0761 103.368 64.5968 102.479C68.4348 100.653 72.6726 99.9694 76.8517 100.504C79.4813 100.882 82.0095 101.826 84.2801 103.277C86.5507 104.728 88.5154 106.656 90.0527 108.941C91.2692 110.441 92.3588 112.051 93.309 113.752C95.2514 118.594 96.1314 123.839 95.8832 129.092C97.5113 126.117 96.9833 122.258 96.4552 118.633ZM8.18441 103.967C8.18397 103.525 8.09331 103.089 7.91865 102.688C7.74398 102.287 7.48941 101.93 7.17233 101.643C6.90831 102.363 6.90831 104.246 8.18441 103.967ZM84.9263 105.175C84.4643 104.757 84.4643 104.292 83.9143 103.967C81.6629 102.962 79.2513 102.417 76.8077 102.363C72.8946 101.894 68.9325 102.461 65.2788 104.013C63.849 104.601 62.4659 105.308 61.1425 106.128C60.5704 106.524 59.9544 107.43 59.1403 108.081C56.3979 110.59 54.4113 113.893 53.4259 117.581C52.4406 121.27 52.4997 125.182 53.5959 128.836C53.9609 130.652 54.4237 132.444 54.982 134.205C56.6288 137.048 58.891 139.438 61.5825 141.177C64.0671 143.149 66.9311 144.521 69.9725 145.196C73.0138 145.87 76.1583 145.832 79.1839 145.082C80.9767 144.503 82.733 143.804 84.4423 142.99C85.9824 140.666 88.8426 139.341 90.7128 136.808C92.7656 133.744 94.0384 130.175 94.4091 126.442C94.6902 123.041 94.3038 119.616 93.2741 116.381C92.2443 113.145 90.5934 110.169 88.4246 107.639C87.3465 106.779 85.9384 106.128 84.9263 105.175ZM92.4729 102.851C92.1649 102.851 92.1869 102.41 91.9009 102.712C93.859 108.36 97.6433 113.961 102.44 115.937C105.63 117.261 109.238 119.469 113.441 118.261C103.1 116.541 96.1252 111.311 92.3849 102.758L92.4729 102.851ZM125.475 112.938C122.615 115.634 119.183 116.425 115.223 118.354C120.784 117.708 125.962 115.047 129.876 110.823C131.612 109.152 132.812 106.95 133.308 104.525C133.308 104.525 133.462 104.385 133.308 104.362C133.154 104.339 133.308 104.199 133.154 104.223C130.748 107.238 128.192 110.116 125.497 112.845L125.475 112.938ZM28.668 115.797C29.5701 115.96 31.1982 116.239 31.9242 115.634C26.3233 114.218 21.0728 111.555 16.5231 107.825C19.4449 112.034 23.8138 114.863 28.69 115.704L28.668 115.797ZM34.0584 116.099C34.3664 116.099 34.3664 116.332 34.2124 116.541C35.0925 116.796 36.9626 116.866 37.2046 115.937C36.5886 115.216 34.6525 115.588 34.0804 116.006L34.0584 116.099ZM95.0031 131.439C94.8375 131.492 94.6915 131.597 94.5851 131.741C93.3788 133.572 92.2839 135.481 91.3068 137.459C90.1336 139.244 88.6918 140.814 87.0385 142.107C83.3384 144.982 78.9463 146.698 74.3655 147.058C72.0333 147.058 69.4811 145.849 67.237 146.453C71.035 148.107 75.2464 148.377 79.2059 147.22C80.526 146.825 82.0221 146.616 83.1882 146.151C84.572 145.359 85.864 144.399 87.0385 143.292C87.6545 142.851 88.3806 142.665 88.8866 142.246C89.5484 141.514 90.1657 140.737 90.7348 139.922C92.7369 137.598 95.1351 134.948 95.2891 131.625C95.1791 131.485 95.1351 131.369 95.0251 131.346L95.0031 131.439ZM62.0006 143.92C62.6606 144.617 63.1887 145.477 64.5528 145.431C64.2227 144.362 62.8146 142.851 62.0006 143.827V143.92Z" fill="white"/>
<path fill-rule="evenodd" clip-rule="evenodd" d="M32.8047 51.2308C36.1269 43.4912 42.5514 37.2855 49.746 32.6371C52.7395 30.6701 55.9849 29.1673 59.3827 28.1747C59.5367 28.593 58.9867 28.5233 58.8107 28.6163C56.6105 29.7784 53.8383 30.9405 51.7041 32.3815C44.3581 37.38 37.9506 43.7705 32.8047 51.2308V51.2308Z" fill="white"/>
<path fill-rule="evenodd" clip-rule="evenodd" d="M127.765 31.475C128.161 31.3356 128.249 30.8707 128.491 30.5686C135.364 38.7596 140.509 48.4015 143.584 58.8541C140.702 51.347 138.017 44.0257 133.617 38.099C131.813 35.6818 129.613 33.8225 127.765 31.475Z" fill="white"/>
<path fill-rule="evenodd" clip-rule="evenodd" d="M84.354 32.2189C86.1462 32.201 87.9123 32.6734 89.4804 33.5902C94.1931 35.4602 98.574 38.1552 102.439 41.5622C107.324 46.0246 112.34 50.859 115.112 57.204C107.522 46.0479 98.9851 35.9841 84.354 32.2189Z" fill="white"/>
<path fill-rule="evenodd" clip-rule="evenodd" d="M51.1746 39.7491C51.5267 41.1204 50.2946 42.0733 49.4585 42.7474C49.6938 41.572 50.2987 40.5153 51.1746 39.7491V39.7491Z" fill="white"/>
<path fill-rule="evenodd" clip-rule="evenodd" d="M47.7657 42.7476C47.9637 43.0729 47.4577 43.9329 47.4797 44.5604C43.5854 47.3495 41.1872 51.8119 38.679 56.2976C38.327 56.9252 37.931 57.8084 37.2709 58.1105C36.2148 56.9252 37.887 55.0193 38.547 53.741C41.059 49.5916 44.1695 45.8824 47.7657 42.7476V42.7476Z" fill="white"/>
<path fill-rule="evenodd" clip-rule="evenodd" d="M57.8646 43.2122C57.7663 43.9796 57.4693 44.7034 57.0065 45.3039C56.9845 44.8856 57.1825 43.3749 57.8646 43.2122Z" fill="white"/>
<path fill-rule="evenodd" clip-rule="evenodd" d="M113.969 139.55C109.561 142.389 104.999 144.95 100.306 147.22C97.8856 148.243 95.2674 149.196 92.6052 150.218C87.3067 152.403 81.6304 153.377 75.9499 153.077C75.5979 152.798 76.2799 152.333 76.5219 152.031C76.7639 151.729 76.984 151.171 77.798 151.171C78.6121 151.171 76.874 151.985 76.94 152.822C78.6121 153.286 78.4361 150.497 80.5042 150.869C81.2523 150.869 80.1742 151.171 80.2182 151.474C88.3148 151.241 97.8196 147.639 104.42 144.71C109.078 141.874 113.547 138.706 117.797 135.227C120.92 131.659 124.248 128.298 127.764 125.164C127.764 124.513 127.324 124.722 127.764 124.257C137.513 111.634 143.111 96.0042 143.715 79.7255C143.847 76.7505 143.363 73.1712 145.277 72.2183C145.4 81.7154 144.251 91.1832 141.867 100.341C140.344 105.985 138.125 111.393 135.266 116.425C133.946 118.749 132.296 121.073 130.866 123.397C128.785 126.775 126.35 129.894 123.606 132.694C127.764 130.37 130.206 125.582 133 121.259C135.901 117.052 138.427 112.57 140.547 107.872C140.965 106.826 141.339 105.547 141.691 104.269C145.057 93.8052 146.549 82.771 146.091 71.7302C146.631 73.0624 146.829 74.5216 146.663 75.9603C147.389 92.6945 141.933 106.779 136.389 117.656C134.445 121.783 132.005 125.626 129.128 129.091C126.247 132.52 123.048 135.634 119.579 138.388C116.081 140.712 112.407 143.316 108.578 145.756C104.407 148.059 100.01 149.875 95.4654 151.171C90.7145 152.945 85.7931 154.161 80.7903 154.797C75.1615 155.289 69.4947 154.882 63.981 153.589C69.4316 154.088 74.9084 154.189 80.3722 153.891C81.7803 153.891 83.2544 154.053 84.6406 153.891C87.4887 153.357 90.2612 152.444 92.8912 151.171C100.57 148.08 108.622 144.966 113.969 139.55Z" fill="white"/>
<path fill-rule="evenodd" clip-rule="evenodd" d="M55.1592 118.632C64.1799 121.84 80.0211 124.234 89.8999 119.841C90.3399 120.12 88.5798 120.608 87.9197 120.887C82.7255 123.108 77.1159 124.03 71.5284 123.583C68.5054 123.296 65.5102 122.744 62.5738 121.933C59.6695 121.143 56.6333 120.492 55.1592 118.632Z" fill="white"/>
<path fill-rule="evenodd" clip-rule="evenodd" d="M76.8081 63.5026C77.4021 64.9203 75.796 66.8029 74.6079 65.8268C75.4351 65.1579 76.1749 64.3764 76.8081 63.5026Z" fill="white"/>
</g>
</svg>
