<svg width="85" height="99" viewBox="0 0 85 99" fill="none" xmlns="http://www.w3.org/2000/svg">
<g opacity="0.6" clip-path="url(#clip0_1274_1766)">
<path fill-rule="evenodd" clip-rule="evenodd" d="M49.21 4.15C48.96 4 48.9 4.46 48.75 4.34C47.07 3 45.52 1.24 43.78 0C43.63 0.15 43.58 0.34 43.27 0.42C42.2251 1.85809 41.0501 3.19706 39.76 4.42C38.53 5.72 37.35 7.1 36.18 8.42C29.18 16.55 22.28 24.73 15.32 32.84C14.75 34.12 13.42 35.02 12.32 36.2C10.59 38.12 9.2 39.98 7.52 42.04C7 42.73 5.82 44.62 5.16 45C4.50749 45.2165 3.83868 45.3803 3.16 45.49C2.07068 45.8668 1.01385 46.3317 0 46.88C1.6 51.2 3.65 56.08 5.41 60.27C5.70271 61.2251 6.10894 62.1417 6.62 63C7.16 63.21 7.62 63.69 8.28 63.53C11.43 71.94 15.33 80.02 18.68 88.16C18.87 88.39 18.68 88.49 18.68 88.64C18.96 88.58 18.93 88.79 19.03 88.97C19.75 90.24 20.18 91.9 20.86 93.33C21.54 94.76 22.2 96 22.8 97.14C23 97.03 23.05 96.91 23.2 97.14C23.6644 97.7698 24.3281 98.2242 25.0832 98.4293C25.8384 98.6345 26.6408 98.5783 27.36 98.27C27.36 98.44 26.97 98.57 27.28 98.71C27.74 98.64 27.77 98.16 28.18 97.93C28.4125 97.8291 28.6535 97.7488 28.9 97.69C31.3 96.82 34.27 95.38 36.71 94.48C36.71 94.98 36.43 95.33 36.29 95.75C36.83 95.44 36.87 94.57 37.41 94.19C38.0284 93.8722 38.6787 93.6208 39.35 93.44C41.81 92.52 44.35 91.09 46.74 90.34C46.93 90.23 46.92 90.6 47.09 90.54C48.38 89.26 50.94 88.68 52.9 87.76C55.09 86.76 57.29 85.76 59.47 85C59.38 85.41 58.85 85.65 58.91 86.12C59.54 85.9 59.56 85.12 60.05 84.76C60.8612 84.3501 61.7168 84.0347 62.6 83.82C64.71 83.05 66.93 81.94 69.02 81.2C69.26 80.99 69.31 81.27 69.5 81.2C72.5 79.7 77.28 77.97 80.73 76.35C82.58 75.48 84.62 74.25 83.89 72.63C84.54 70.75 81.56 67.46 81.89 65.75C81.65 65.75 81.72 66.14 81.59 65.87C80.88 64.08 80.22 62.32 79.74 60.63C78.8545 59.1502 78.0887 57.6019 77.45 56C77.11 55.15 76.58 54.33 76.8 53.81C76.56 53.81 76.51 53.65 76.37 53.44C75.79 52.54 75.47 50.9 74.89 49.89C74.83 49.58 75.22 49.45 75.02 49.08C74.95 48.91 74.63 49.34 74.6 49.08C74.2269 48.4823 74.0486 47.7834 74.09 47.08C73.97 47.08 73.77 47.31 73.75 47.08C73.68 46.18 72.75 45.24 72.68 44.38C72.63 43.92 73.06 43.73 72.87 43.38C72.55 43.38 72.65 43.86 72.41 43.77C71.48 41.43 70.68 39.14 69.61 36.77C69.8911 36.5797 70.1851 36.4093 70.49 36.26C70.55 35.76 70.37 35.69 70.11 35.19C69.01 33.11 68.11 29.95 67.11 27.92C60.7262 29.947 54.4541 32.3103 48.32 35C38.88 39 29.45 43 20.32 46.7C19.54 46.06 18.62 45.22 17.7 45.34C20.43 42.15 22.78 38.59 25.7 35.47C28.62 32.35 31.17 28.89 34.03 25.68C36.89 22.47 39.69 19.17 42.45 15.93C45.21 12.69 47.56 9.12 50.45 6.2C50.21 5.4 49.67 5.29 49.27 4.85C49 4.67 49.58 4.32 49.21 4.15Z" fill="#1C1C1C"/>
<path fill-rule="evenodd" clip-rule="evenodd" d="M45.0802 2.11998C45.1957 2.3241 45.2279 2.56492 45.1701 2.79223C45.1124 3.01953 44.9691 3.21576 44.7702 3.33998C44.4102 2.99998 44.5502 1.99998 45.0802 2.11998Z" fill="white"/>
<path fill-rule="evenodd" clip-rule="evenodd" d="M42.3902 3.52002C43.1002 5.44002 43.6202 7.69002 44.3902 9.79002C43.3902 10.87 42.5702 12 41.6002 13.08C40.8502 10.89 40.4602 8.86002 39.6602 6.65002C40.6002 5.62002 41.5402 4.59002 42.3902 3.52002Z" fill="white"/>
<path fill-rule="evenodd" clip-rule="evenodd" d="M46.4998 3.71002C46.4998 4.32002 46.5698 4.99002 45.7998 5.31002C45.9998 4.79002 45.7498 3.85002 46.4998 3.71002Z" fill="white"/>
<path fill-rule="evenodd" clip-rule="evenodd" d="M38.54 7.88002C38.79 7.73002 39.06 8.03002 39.02 8.22002C38.9204 8.20094 38.826 8.16072 38.7432 8.10207C38.6604 8.04342 38.5911 7.9677 38.54 7.88002V7.88002Z" fill="white"/>
<path fill-rule="evenodd" clip-rule="evenodd" d="M38.4399 8.12C38.4399 8.23 38.5599 8.22 38.5899 8.33C38.4199 8.41 38.2299 8.52 38.1699 8.33C38.3199 8.27 38.2499 8.14 38.4399 8.12Z" fill="white"/>
<path fill-rule="evenodd" clip-rule="evenodd" d="M35.2395 11.58C36.2995 13.83 36.5595 16.17 37.3795 18.48C36.2895 19.62 35.3795 20.83 34.3795 22.01C33.6395 19.61 33.0095 17.15 32.2695 15.01C33.2095 13.87 34.3395 12.77 35.2395 11.58Z" fill="white"/>
<path fill-rule="evenodd" clip-rule="evenodd" d="M44.7998 11.06C43.7998 12.14 43.0098 13.28 42.0098 14.35C42.0098 14.09 41.7398 13.69 41.7598 13.43C42.6198 12.37 43.5399 11.33 44.3999 10.27C44.7499 10.26 44.6098 10.82 44.7998 11.06Z" fill="white"/>
<path fill-rule="evenodd" clip-rule="evenodd" d="M31.8999 16.82C31.6079 16.6926 31.3557 16.4888 31.1699 16.23C31.5999 15.56 31.6599 16.24 31.8999 16.82Z" fill="white"/>
<path fill-rule="evenodd" clip-rule="evenodd" d="M31.0001 16.44C31.2901 16.55 31.5001 16.86 31.7501 17.09C31.6101 17.14 31.6201 17.26 31.4201 17.29C31.2408 17.0988 31.0354 16.9339 30.8101 16.8C30.7501 16.63 31.0001 16.59 31.0001 16.44Z" fill="white"/>
<path fill-rule="evenodd" clip-rule="evenodd" d="M31.2496 17.56C31.1496 17.62 31.0796 17.68 31.0696 17.78C30.7731 17.6646 30.521 17.458 30.3496 17.19C30.6596 16.69 30.9996 17.26 31.2496 17.56Z" fill="white"/>
<path fill-rule="evenodd" clip-rule="evenodd" d="M30.2402 17.44C30.4143 17.6264 30.6014 17.8001 30.8002 17.96C30.7523 18.0961 30.6563 18.2099 30.5302 18.28C30.3078 18.1375 30.1001 17.9734 29.9102 17.79C30.0002 17.67 30.0002 17.51 30.2402 17.44Z" fill="white"/>
<path fill-rule="evenodd" clip-rule="evenodd" d="M29.6999 17.94C29.9651 18.0526 30.1887 18.2448 30.3399 18.49C30.3399 18.56 30.1999 18.59 30.2199 18.68C29.9599 18.68 29.8199 18.33 29.5699 18.27C29.5299 18.13 29.6899 18.07 29.6999 17.94Z" fill="white"/>
<path fill-rule="evenodd" clip-rule="evenodd" d="M29.3001 18.45C29.4433 18.4832 29.5763 18.5506 29.6877 18.6463C29.7992 18.7421 29.8858 18.8635 29.9401 19C29.8401 19.06 29.7601 19.12 29.7601 19.22C29.4953 19.1069 29.2718 18.9148 29.1201 18.67C29.1901 18.6 29.2301 18.52 29.3001 18.45Z" fill="white"/>
<path fill-rule="evenodd" clip-rule="evenodd" d="M28.7797 19C29.1597 18.86 29.2997 19.32 29.5397 19.5C29.3997 19.57 29.3797 19.7 29.3197 19.8C29.0797 19.76 28.5997 19.35 28.7797 19Z" fill="white"/>
<path fill-rule="evenodd" clip-rule="evenodd" d="M30.1104 27.55C29.081 28.7876 27.9756 29.9599 26.8004 31.06C26.1204 28.66 25.4104 26.25 24.6504 23.82C25.7304 22.56 26.8004 21.3 27.9204 20.05C28.5804 22.33 29.1404 25 30.1104 27.55Z" fill="white"/>
<path fill-rule="evenodd" clip-rule="evenodd" d="M40.94 14.73C41.1 14.73 41.13 15.13 41.24 15.29C40.31 16.43 39.41 17.59 38.36 18.69C38.13 18.11 38.73 18.06 39.01 17.8C39.29 17.54 39.21 17.39 39.4 17.09C39.7 16.59 40.24 16.09 40.51 15.66C40.78 15.23 40.74 15.06 40.94 14.73Z" fill="white"/>
<path fill-rule="evenodd" clip-rule="evenodd" d="M32.0003 18.6C31.6725 19.4788 31.278 20.3313 30.8203 21.15C31.0031 20.2895 31.2955 19.4561 31.6903 18.67C31.7339 18.6366 31.7841 18.6131 31.8376 18.601C31.8912 18.5889 31.9467 18.5886 32.0003 18.6Z" fill="white"/>
<path fill-rule="evenodd" clip-rule="evenodd" d="M33.3396 19.77C33.2634 20.4665 33.0636 21.1437 32.7496 21.77C32.5524 22.433 32.2336 23.0536 31.8096 23.6C32.0865 22.2421 32.6047 20.9449 33.3396 19.77V19.77Z" fill="white"/>
<path fill-rule="evenodd" clip-rule="evenodd" d="M37.37 18.62C37.57 18.62 37.82 19.17 37.8 19.33C36.8405 20.6439 35.7878 21.8871 34.65 23.05C34.6275 22.8361 34.5629 22.6288 34.46 22.44C35.48 21.19 36.46 19.92 37.37 18.62Z" fill="white"/>
<path fill-rule="evenodd" clip-rule="evenodd" d="M23.9996 24.63C23.9996 24.86 24.1196 25.1 24.1496 25.32C23.9543 25.2226 23.7808 25.0865 23.6396 24.92C23.8596 24.85 23.7996 24.68 23.9996 24.63Z" fill="white"/>
<path fill-rule="evenodd" clip-rule="evenodd" d="M23.4502 25.21C23.6702 25.21 23.9102 25.5 23.9102 25.64C23.7146 25.55 23.5532 25.3992 23.4502 25.21Z" fill="white"/>
<path fill-rule="evenodd" clip-rule="evenodd" d="M23.18 25.53C23.4 25.44 23.44 25.77 23.62 25.76C23.68 25.93 23.42 25.97 23.26 26.05C23.2 25.87 23.05 25.92 23 25.75C23.1 25.69 23.17 25.63 23.18 25.53Z" fill="white"/>
<path fill-rule="evenodd" clip-rule="evenodd" d="M22.5399 26.28C22.5764 26.2853 22.6112 26.2986 22.642 26.319C22.6727 26.3394 22.6986 26.3663 22.7177 26.3979C22.7368 26.4294 22.7487 26.4648 22.7526 26.5015C22.7564 26.5381 22.7521 26.5752 22.7399 26.61C22.5799 26.74 22.5599 26.51 22.4299 26.53C22.3599 26.4 22.5799 26.39 22.5399 26.28Z" fill="white"/>
<path fill-rule="evenodd" clip-rule="evenodd" d="M22.1697 26.71C22.2997 26.71 22.3897 26.8 22.4597 26.93C22.2697 27.08 22.2297 26.88 22.0997 26.87C21.9697 26.86 22.1997 26.79 22.1697 26.71Z" fill="white"/>
<path fill-rule="evenodd" clip-rule="evenodd" d="M21.7998 27.14L21.9698 27.06C22.0198 27.16 22.0598 27.26 22.0998 27.35C21.9398 27.43 21.8698 27.28 21.7998 27.14Z" fill="white"/>
<path fill-rule="evenodd" clip-rule="evenodd" d="M21.2797 27.7C21.4397 27.7 21.5497 27.82 21.6297 28.03C21.4497 28.08 21.2297 27.86 21.2797 27.7Z" fill="white"/>
<path fill-rule="evenodd" clip-rule="evenodd" d="M20.9998 28C21.2698 28.09 21.4098 28.4 21.1798 28.6C20.9998 28.56 20.9198 28.13 20.9998 28Z" fill="white"/>
<path fill-rule="evenodd" clip-rule="evenodd" d="M33.61 22.86C33.7 23.04 33.55 23.13 33.42 23.22C33.34 23 33.49 23 33.61 22.86Z" fill="white"/>
<path fill-rule="evenodd" clip-rule="evenodd" d="M20.1197 29C20.3397 29.1 20.3497 29.51 20.4097 29.7C19.4129 31.0006 18.3305 32.2333 17.1697 33.39C17.0397 33.09 17.0997 32.88 16.9697 32.58C18.0897 31.42 19.1497 30.23 20.1197 29Z" fill="white"/>
<path fill-rule="evenodd" clip-rule="evenodd" d="M33.75 23.35C33.95 23.44 33.75 23.76 33.88 23.98C33.3245 24.7345 32.6947 25.4313 32 26.06C31.83 25.78 32.2 25.54 32.32 25.38C32.8575 24.7483 33.3362 24.0688 33.75 23.35V23.35Z" fill="white"/>
<path fill-rule="evenodd" clip-rule="evenodd" d="M24.3802 27.9C24.2314 28.5735 23.9675 29.2162 23.6002 29.8C23.3202 30.41 23.2602 31.16 22.7402 31.66C22.979 30.2938 23.5413 29.0045 24.3802 27.9V27.9Z" fill="white"/>
<path fill-rule="evenodd" clip-rule="evenodd" d="M20.4095 30.18C20.6195 30.3 20.6795 30.77 20.8295 31.03C20.8295 31.14 20.5595 31.14 20.5895 31.27C20.6195 31.4 20.8495 31.18 20.8995 31.34C21.2695 32.28 21.4195 33.13 21.7595 34.06C21.8795 34.27 21.7595 34.37 21.6795 34.5C22.1995 34.8 22.1795 35.77 22.4795 36.42C21.4795 37.7 20.3995 38.94 19.2695 40.17C18.8295 38.17 17.7695 35.86 17.2695 33.82C18.3847 32.6675 19.4331 31.4522 20.4095 30.18V30.18Z" fill="white"/>
<path fill-rule="evenodd" clip-rule="evenodd" d="M31.89 26.25C31.6712 26.682 31.3687 27.0661 31 27.38C31.0095 27.1216 31.1008 26.873 31.2608 26.6699C31.4207 26.4668 31.6411 26.3198 31.89 26.25V26.25Z" fill="white"/>
<path fill-rule="evenodd" clip-rule="evenodd" d="M24.6495 29.36C24.7195 29.36 24.7395 29.45 24.7795 29.51C24.6795 30.07 24.5195 30.66 24.4095 31.24C24.2995 31.82 24.3595 32.48 23.7695 32.81C23.9249 31.6291 24.2203 30.471 24.6495 29.36V29.36Z" fill="white"/>
<path fill-rule="evenodd" clip-rule="evenodd" d="M15.9296 33.84C15.9921 33.9009 16.0413 33.9742 16.074 34.0551C16.1067 34.136 16.1222 34.2228 16.1196 34.31C15.9596 34.31 15.8696 34.07 15.6896 34.08C15.5096 34.09 15.7796 33.89 15.9296 33.84Z" fill="white"/>
<path fill-rule="evenodd" clip-rule="evenodd" d="M30.3003 28C29.8931 28.7421 29.3737 29.4167 28.7603 30C28.1903 30.63 27.6303 31.31 27.0203 31.89C26.9103 31.44 27.3803 31.17 27.6303 30.89C28.4003 30.01 29.4803 28.98 30.1903 28.04L30.3003 28Z" fill="white"/>
<path fill-rule="evenodd" clip-rule="evenodd" d="M15.5004 34.29C15.6312 34.4126 15.7548 34.5429 15.8704 34.68C15.8104 34.97 15.3104 34.8 15.3904 35.16C15.1704 35 15.0904 34.4 15.5004 34.29Z" fill="white"/>
<path fill-rule="evenodd" clip-rule="evenodd" d="M15.0004 34.93C15.0704 35.28 15.1004 35.61 14.8304 35.83C14.5604 36.05 14.6004 35.61 14.3504 35.83C14.3004 35.44 14.6604 35.2 15.0004 34.93Z" fill="white"/>
<path fill-rule="evenodd" clip-rule="evenodd" d="M14.0003 36C14.2803 36.14 14.1203 36.91 13.7003 37.08C13.695 36.9089 13.6505 36.7413 13.5703 36.59C13.6103 36.34 13.8603 36.19 14.0003 36Z" fill="white"/>
<path fill-rule="evenodd" clip-rule="evenodd" d="M13.2199 36.82C13.6199 37.05 13.1599 37.72 12.8799 37.99C12.6599 37.94 12.8299 37.65 12.6699 37.47C12.8299 37.25 13.0499 37 13.2199 36.82Z" fill="white"/>
<path fill-rule="evenodd" clip-rule="evenodd" d="M12.5403 37.66C12.7103 38.55 11.5403 39.56 10.9003 40.26C10.3308 40.904 9.81885 41.5966 9.37027 42.33C9.06027 42.4 9.20027 42.62 8.93027 42.59C8.72027 43.36 7.93027 43.9 7.53027 44.59C7.21027 44.59 6.83027 44.72 6.53027 44.75C8.69027 42.47 10.6103 40.06 12.5403 37.66Z" fill="white"/>
<path fill-rule="evenodd" clip-rule="evenodd" d="M25.9199 32.72C25.9524 32.6908 25.9939 32.6737 26.0375 32.6715C26.0811 32.6693 26.1242 32.6822 26.1594 32.708C26.1946 32.7339 26.2198 32.771 26.2309 32.8133C26.2419 32.8555 26.238 32.9003 26.2199 32.94C26.0899 33 25.9999 32.85 25.9199 32.72Z" fill="white"/>
<path fill-rule="evenodd" clip-rule="evenodd" d="M25.5601 33.15C25.7301 33.07 25.8201 33.22 25.9101 33.34C25.8101 33.42 25.8201 33.53 25.6701 33.58C25.5501 33.38 25.4701 33.34 25.5601 33.15Z" fill="white"/>
<path fill-rule="evenodd" clip-rule="evenodd" d="M23 34.62C23.15 34.62 23.19 34.77 23.26 34.92C23.1 35.07 23.11 34.73 23 34.62Z" fill="white"/>
<path fill-rule="evenodd" clip-rule="evenodd" d="M25.1797 33.72C25.2102 33.7161 25.2412 33.7206 25.2694 33.7329C25.2976 33.7452 25.3219 33.7649 25.3397 33.79C25.2897 34.29 24.7897 34.6 24.4697 34.97C24.1497 35.34 23.8597 35.74 23.5797 36.1C23.5097 35.87 23.8097 35.56 23.9997 35.31C24.2342 34.9438 24.513 34.608 24.8297 34.31C24.9307 34.1044 25.0477 33.9071 25.1797 33.72V33.72Z" fill="white"/>
<path fill-rule="evenodd" clip-rule="evenodd" d="M11.7297 40.94C11.9497 41.58 12.0197 42.56 11.3597 43C11.1943 42.6619 11.141 42.2799 11.2076 41.9095C11.2741 41.539 11.457 41.1994 11.7297 40.94Z" fill="white"/>
<path fill-rule="evenodd" clip-rule="evenodd" d="M13.58 40.64C13.6707 41.3458 13.4922 42.0599 13.08 42.64C12.19 42.28 13 41.07 13.58 40.64Z" fill="white"/>
<path fill-rule="evenodd" clip-rule="evenodd" d="M22.6701 37C21.7162 38.4198 20.6458 39.7577 19.4701 41C19.3701 40.54 19.8701 40.26 20.1301 40C20.9001 39.13 21.7901 38.09 22.5501 37.14L22.6701 37Z" fill="white"/>
<path fill-rule="evenodd" clip-rule="evenodd" d="M9.1697 43.31C9.3997 43.26 9.3697 43.59 9.1697 43.65C9.0997 43.51 9.1897 43.43 9.1697 43.31Z" fill="white"/>
<path fill-rule="evenodd" clip-rule="evenodd" d="M8.99992 45.5C8.17436 45.7465 7.32721 45.914 6.46992 46C5.5056 46.2175 4.57186 46.5534 3.68992 47C6.48877 46.4906 9.32533 46.2163 12.1699 46.18C14.0541 46.2249 15.8862 46.8078 17.4499 47.86C20.1616 49.3501 22.2796 51.7258 23.4499 54.59C20.8999 55.65 17.2899 57.15 14.2599 58.59C12.5393 59.2345 10.8931 60.0626 9.34992 61.06C9.88992 60.89 11.1799 60.38 11.4499 60.86C10.0499 61.26 8.94992 62.19 7.68992 62.17C5.36992 58.17 3.68992 52.34 1.41992 47.57C3.50879 46.5879 5.72291 45.8981 7.99992 45.52C8.26992 45.46 8.75992 45.16 8.99992 45.5ZM2.74992 48.05C2.66992 48.05 2.63992 48.05 2.54992 48.05C2.45992 48.05 2.46992 48.15 2.47992 48.21C3.47992 51.72 6.35992 56.65 7.47992 60.21C7.68992 60.87 7.53992 61.43 8.47992 61.29C6.88456 56.747 4.96978 52.3227 2.74992 48.05V48.05ZM4.42992 50.43C4.80646 50.7608 5.27749 50.9649 5.77638 51.0133C6.27526 51.0618 6.77675 50.9522 7.20992 50.7C7.58455 50.1864 7.75556 49.5523 7.68992 48.92C7.6415 48.6457 7.52562 48.3877 7.35273 48.1693C7.17983 47.9509 6.95533 47.7789 6.69945 47.6688C6.44356 47.5587 6.16432 47.514 5.88685 47.5386C5.60938 47.5633 5.34239 47.6565 5.10992 47.81C4.85913 47.9005 4.63417 48.0507 4.45454 48.2477C4.27491 48.4448 4.14602 48.6826 4.07904 48.9407C4.01206 49.1987 4.00901 49.4692 4.07015 49.7288C4.13129 49.9883 4.25478 50.229 4.42992 50.43V50.43ZM8.49992 59.32C9.56992 60.72 12.5699 59.15 11.3499 57.16C11.0259 56.7605 10.5603 56.5012 10.05 56.436C9.53977 56.3708 9.024 56.5047 8.60992 56.81C8.28319 57.14 8.09094 57.5798 8.07061 58.0438C8.05028 58.5077 8.20331 58.9626 8.49992 59.32V59.32ZM18.6699 55.05C18.9519 55.3832 19.3438 55.6046 19.7747 55.6743C20.2056 55.744 20.6473 55.6573 21.0199 55.43C22.9399 54.43 21.0199 50.95 18.9599 52.43C18.5863 52.7472 18.3482 53.1952 18.2943 53.6824C18.2403 54.1695 18.3747 54.6588 18.6699 55.05Z" fill="white"/>
<path fill-rule="evenodd" clip-rule="evenodd" d="M18.4298 40.79C18.6698 40.84 18.4798 41.12 18.3198 41.18C18.3098 41 18.4498 40.94 18.4298 40.79Z" fill="white"/>
<path fill-rule="evenodd" clip-rule="evenodd" d="M22.4104 50.26C22.0724 50.2292 21.7378 50.1689 21.4104 50.08C20.2083 48.7777 18.7993 47.683 17.2404 46.84C16.5011 46.416 15.7021 46.1058 14.8704 45.92C14.4204 45.84 13.9404 45.92 13.4704 45.83C12.1134 45.594 10.7376 45.4836 9.36035 45.5C9.36035 45.43 9.36035 45.39 9.36035 45.35C9.36035 45.31 9.36035 45.25 9.36035 45.21C10.1402 45.2682 10.9244 45.2177 11.6904 45.06C12.7953 45.0845 13.8932 45.2423 14.9604 45.53C16.0311 45.691 17.0765 45.9902 18.0704 46.42C18.4428 46.6781 18.7939 46.9657 19.1204 47.28C20.2804 48.19 21.5204 48.65 22.4104 50.26Z" fill="white"/>
<path fill-rule="evenodd" clip-rule="evenodd" d="M18.8197 41.72C18.4055 42.4738 17.8642 43.1504 17.2197 43.72C17.1097 44.09 16.6597 44.72 16.2197 44.72C17.0997 43.72 17.7697 42.59 18.5797 41.54C18.7597 41.4 18.7697 41.62 18.8197 41.72Z" fill="white"/>
<path fill-rule="evenodd" clip-rule="evenodd" d="M6.99998 49.35C6.92836 49.6143 6.79466 49.8577 6.60998 50.06C6.08843 50.0742 5.57094 49.9645 5.09998 49.74C4.39998 48.29 6.64998 47.68 6.99998 49.35ZM6.48998 48.81C6.26998 48.54 5.75998 48.64 5.48998 48.97C5.25998 50.44 7.21998 49.71 6.47998 48.81H6.48998Z" fill="white"/>
<path fill-rule="evenodd" clip-rule="evenodd" d="M21.0801 47.27C21.6301 47.1 22.2701 46.71 22.7301 46.78C22.4501 46.99 21.8401 47.31 21.6801 47.7C21.4201 47.71 21.2701 47.44 21.0801 47.27Z" fill="white"/>
<path fill-rule="evenodd" clip-rule="evenodd" d="M23.4004 46.43C23.4004 46.43 23.4004 46.37 23.4004 46.35C24.2904 45.96 25.3504 45.52 26.2204 45.23C26.9004 45.01 27.6304 44.53 28.2204 44.66C26.7688 45.4236 25.269 46.0917 23.7304 46.66C23.6328 46.5669 23.5215 46.4893 23.4004 46.43Z" fill="white"/>
<path fill-rule="evenodd" clip-rule="evenodd" d="M29.3203 44.08C30.3203 43.73 31.6003 43.08 32.6903 42.67C32.9803 42.57 33.4203 42.33 33.6903 42.54C32.7903 43.31 30.9203 43.54 29.5703 44.27C29.4903 44.15 29.3403 44.26 29.3203 44.08Z" fill="white"/>
<path fill-rule="evenodd" clip-rule="evenodd" d="M34.4004 42L39.0004 40.09C39.0704 40.39 39.3104 40.26 39.3904 40.54C37.8404 41.09 36.1904 41.86 34.6704 42.32C34.6104 42.14 34.4604 42.2 34.4004 42Z" fill="white"/>
<path fill-rule="evenodd" clip-rule="evenodd" d="M39.9297 39.7C41.4097 39.33 43.5697 37.81 44.5997 38.29C44.4621 38.5069 44.2858 38.6967 44.0797 38.85C44.0797 38.65 44.3797 38.58 44.1997 38.32C43.8497 38.32 43.6797 38.74 43.4297 38.92C43.1797 39.1 43.1997 38.68 42.9797 38.83C42.184 39.3485 41.3318 39.7745 40.4397 40.1C40.2697 40 40.0597 39.93 39.9297 39.7Z" fill="white"/>
<path fill-rule="evenodd" clip-rule="evenodd" d="M49.8697 35.87C49.2497 36.46 47.0997 37 45.9997 37.7C47.449 37.392 48.8582 36.9189 50.1997 36.29C50.9384 36.9234 51.7277 37.4953 52.5597 38C53.4228 38.4533 54.2399 38.9892 54.9997 39.6C55.2797 39.87 55.3597 40.23 55.8097 40.22C55.8097 40.45 55.4197 40.22 55.5097 40.48C55.8097 40.53 56.2097 40.35 56.3997 40.65C55.3397 41.24 54.2897 41.58 53.2597 42.11C53.0097 42.2 53.0097 41.7 52.7697 41.77C52.5297 41.84 52.7697 42.12 52.7697 42.31L52.0697 42.6C52.0697 42.45 51.9597 42.32 51.8697 42.28C49.6397 40.79 47.4697 39.14 45.2197 37.68C45.8281 37.2622 46.505 36.9542 47.2197 36.77C48.1597 36.43 49.0797 35.79 49.8697 35.87Z" fill="white"/>
<path fill-rule="evenodd" clip-rule="evenodd" d="M50.5498 35.52C50.5498 35.47 50.5498 35.45 50.5498 35.44C51.3998 35.04 52.5498 34.63 53.4198 34.3C53.8398 34.15 54.4198 33.62 54.7698 34.08C53.7698 34.45 52.6798 34.8 51.5798 35.28C51.3798 35.45 51.3698 35.17 51.2198 35.23C51.1098 35.46 50.8298 35.71 50.5498 35.52Z" fill="white"/>
<path fill-rule="evenodd" clip-rule="evenodd" d="M55.7803 33.32C56.5303 33.12 57.5303 32.61 58.4203 32.32C58.9014 32.046 59.4466 31.9045 60.0003 31.91C58.8703 32.4 57.2303 33.12 56.0003 33.53C55.9003 33.42 55.8103 33.44 55.7803 33.32Z" fill="white"/>
<path fill-rule="evenodd" clip-rule="evenodd" d="M60.8896 31.32C61.0696 31.23 61.1797 31.32 61.3797 31.18C61.5097 31.48 60.9996 31.72 60.8896 31.32Z" fill="white"/>
<path fill-rule="evenodd" clip-rule="evenodd" d="M24.2998 46.94L28.7798 45.06C30.5298 46.34 32.3198 47.54 34.0598 48.86C32.9198 49.37 31.5198 49.94 30.6798 50.42C31.0498 50.63 31.5598 50.37 32.0198 50.2C32.7998 49.91 33.6998 49.46 34.4598 49.2C34.7398 49.2 34.9198 49.49 35.1698 49.59C34.2321 50.0651 33.2709 50.4924 32.2898 50.87C32.1298 50.99 32.0698 50.87 31.9798 50.79C31.8898 50.71 31.9298 51.06 31.7098 51.11C31.4898 51.16 31.5498 51.02 31.4998 50.93C31.1498 51.11 31.1898 51.45 30.6598 51.55C28.8587 50.4304 27.1589 49.1556 25.5798 47.74C25.1189 47.5324 24.6883 47.2633 24.2998 46.94V46.94Z" fill="white"/>
<path fill-rule="evenodd" clip-rule="evenodd" d="M30 44.55L30.34 44.41C30.3566 44.4815 30.3465 44.5566 30.3115 44.621C30.2764 44.6855 30.219 44.735 30.15 44.76C30.1114 44.7378 30.078 44.7076 30.0521 44.6713C30.0262 44.6351 30.0085 44.5937 30 44.55V44.55Z" fill="white"/>
<path fill-rule="evenodd" clip-rule="evenodd" d="M35.1602 42.52C36.6202 42.01 38.1602 41.33 39.6602 40.7C41.4002 42.04 43.4202 43.3 45.0602 44.45C43.5502 45.02 42.0602 45.57 40.4802 46.24C39.9402 45.85 39.2902 45.52 38.7202 45.13C38.1305 44.7873 37.6141 44.332 37.2002 43.79C36.43 43.5324 35.7312 43.0974 35.1602 42.52V42.52Z" fill="white"/>
<path fill-rule="evenodd" clip-rule="evenodd" d="M43.6396 39.1C43.6396 39.66 43.2796 40.5 42.5596 40.44C42.6196 39.92 42.9996 39.06 43.6396 39.1Z" fill="white"/>
<path fill-rule="evenodd" clip-rule="evenodd" d="M40.7695 40.24C40.9095 40.17 41.0395 40.11 41.1395 40.15C41.2395 40.19 41.0795 40.28 41.1395 40.37C41.1082 40.3923 41.072 40.4067 41.034 40.4121C40.9959 40.4174 40.9571 40.4136 40.9208 40.4009C40.8846 40.3881 40.8519 40.3669 40.8256 40.3389C40.7993 40.3109 40.78 40.277 40.7695 40.24V40.24Z" fill="white"/>
<path fill-rule="evenodd" clip-rule="evenodd" d="M56.4199 33.87C57.5299 33.25 58.9899 32.77 60.2299 32.21C62.0999 33.45 63.9099 34.85 65.7699 36.11C64.6999 36.6 63.1899 37.11 61.9299 37.72C61.6199 37.4 60.9299 37.27 61.0899 36.72C60.8699 36.72 60.8699 36.97 60.6899 36.89C60.0499 36.2 59.1599 36.15 58.6199 35.23C57.8206 34.8933 57.0785 34.4345 56.4199 33.87V33.87Z" fill="white"/>
<path fill-rule="evenodd" clip-rule="evenodd" d="M65.5705 30.24C65.4205 30.77 65.1905 31.9 64.4805 31.73C64.5305 31.15 65.0005 30.27 65.5705 30.24Z" fill="white"/>
<path fill-rule="evenodd" clip-rule="evenodd" d="M44.5896 40.07C44.5896 40.55 44.4196 41.18 43.8596 41.26C43.8021 41.0056 43.8462 40.7388 43.9826 40.5165C44.1189 40.2942 44.3368 40.134 44.5896 40.07Z" fill="white"/>
<path fill-rule="evenodd" clip-rule="evenodd" d="M66.5201 31.21C66.8601 31.65 66.5201 32.68 65.9201 32.56C65.7301 32 66.1401 31.59 66.5201 31.21Z" fill="white"/>
<path fill-rule="evenodd" clip-rule="evenodd" d="M21.6201 50.33C21.9201 50.3089 22.2199 50.3728 22.4852 50.5143C22.7505 50.6558 22.9705 50.8692 23.1201 51.13C22.8165 51.185 22.5033 51.136 22.231 50.9908C21.9588 50.8456 21.7435 50.6128 21.6201 50.33V50.33Z" fill="white"/>
<path fill-rule="evenodd" clip-rule="evenodd" d="M45.3799 40.49C45.5299 40.38 45.5499 40.56 45.6699 40.49C45.7219 40.5958 45.749 40.7121 45.749 40.83C45.749 40.9479 45.7219 41.0642 45.6699 41.17C45.5299 41.27 45.4999 41.1 45.3899 41.17C45.3072 40.9515 45.3037 40.7109 45.3799 40.49Z" fill="white"/>
<path fill-rule="evenodd" clip-rule="evenodd" d="M22.4199 51.42C22.8999 51.63 23.5599 51.37 23.7799 52.22C23.4861 52.1339 23.1737 52.1339 22.8799 52.22C22.7399 51.89 22.5499 51.72 22.4199 51.42Z" fill="white"/>
<path fill-rule="evenodd" clip-rule="evenodd" d="M9.68964 57.59C10.2196 57.08 10.6896 57.78 10.8696 58.46C10.5996 59.04 9.69964 58.87 9.23964 58.8C9.14964 58.6 9.04964 58.4 9.15964 58.29C9.44964 58.14 9.49964 58.56 9.76964 58.44C10.5296 58.29 10.1896 57.5 9.68964 57.59Z" fill="white"/>
<path fill-rule="evenodd" clip-rule="evenodd" d="M23.1396 52.49C23.4095 52.5824 23.6873 52.6494 23.9696 52.69C24.0496 52.86 24.1196 53.03 24.1896 53.21C23.9582 53.2306 23.7269 53.1701 23.5353 53.0387C23.3437 52.9073 23.2038 52.7133 23.1396 52.49V52.49Z" fill="white"/>
<path fill-rule="evenodd" clip-rule="evenodd" d="M28.1699 51.13C28.4199 51.39 28.5499 51.94 28.7799 52.24C28.4396 51.9638 28.2207 51.5654 28.1699 51.13Z" fill="white"/>
<path fill-rule="evenodd" clip-rule="evenodd" d="M27.17 51.82C27.1989 51.8621 27.2188 51.9097 27.2285 51.9598C27.2381 52.0099 27.2372 52.0615 27.226 52.1113C27.2147 52.161 27.1932 52.2079 27.163 52.249C27.1327 52.2901 27.0942 52.3245 27.05 52.35C26.88 52.09 27 51.93 27.17 51.82Z" fill="white"/>
<path fill-rule="evenodd" clip-rule="evenodd" d="M23.8096 53.44C23.9896 53.44 24.1496 53.54 24.3396 53.56L24.6096 54.2C24.2296 54.22 23.9996 54 23.8096 53.44Z" fill="white"/>
<path fill-rule="evenodd" clip-rule="evenodd" d="M27.6396 52C27.8796 51.89 27.8696 52.38 27.9996 52.53C27.7596 52.61 27.7696 52.12 27.6396 52Z" fill="white"/>
<path fill-rule="evenodd" clip-rule="evenodd" d="M25.5098 52.93C25.7298 52.8 25.9198 53.34 25.9098 53.38C25.6298 53.59 25.6398 53.09 25.5098 52.93Z" fill="white"/>
<path fill-rule="evenodd" clip-rule="evenodd" d="M36.79 48.2C36.9879 48.1176 37.1918 48.0507 37.4 48C37.47 48.24 37.63 48.28 37.7 48.56C37.4906 48.7502 37.2225 48.8632 36.94 48.88C36.8488 48.6644 36.7979 48.4339 36.79 48.2V48.2Z" fill="white"/>
<path fill-rule="evenodd" clip-rule="evenodd" d="M46.1304 45C44.7504 45.74 43.0204 46.33 41.5004 47C41.3304 46.87 40.9404 46.65 40.9404 46.48C42.3104 45.82 44.0704 45.18 45.5604 44.61C45.7415 44.7526 45.9319 44.8829 46.1304 45V45Z" fill="white"/>
<path fill-rule="evenodd" clip-rule="evenodd" d="M26.6396 52.52C26.7796 52.52 26.9796 53.01 26.7196 53.04C26.6655 52.9661 26.6299 52.8803 26.616 52.7898C26.6021 52.6993 26.6102 52.6067 26.6396 52.52V52.52Z" fill="white"/>
<path fill-rule="evenodd" clip-rule="evenodd" d="M36.2305 48.5L36.5205 48.38C36.5905 48.66 36.7505 48.69 36.8305 48.93L36.4805 49.08C36.4005 48.89 36.3205 48.69 36.2305 48.5Z" fill="white"/>
<path fill-rule="evenodd" clip-rule="evenodd" d="M37.6904 47.89L37.9804 47.77C37.9804 47.98 38.2804 48.28 38.1904 48.43C37.8904 48.56 37.8704 48 37.6904 47.89Z" fill="white"/>
<path fill-rule="evenodd" clip-rule="evenodd" d="M38.3799 47.6L38.6199 47.5C38.6199 47.72 39.0099 48.08 38.7699 48.19C38.5299 48.3 38.5199 47.77 38.3799 47.6Z" fill="white"/>
<path fill-rule="evenodd" clip-rule="evenodd" d="M39 47.33C39.22 47.23 39.33 47.82 39.32 47.94C39.18 47.9 39.14 47.51 39 47.33Z" fill="white"/>
<path fill-rule="evenodd" clip-rule="evenodd" d="M39.4902 47.13L39.6702 47.06C39.7502 47.27 39.8402 47.49 39.9302 47.7C39.6502 47.85 39.6302 47.34 39.4902 47.13Z" fill="white"/>
<path fill-rule="evenodd" clip-rule="evenodd" d="M50.5404 42.5C50.7404 42.56 50.8804 42.76 50.9804 43.06C50.8988 43.1475 50.7996 43.2168 50.6893 43.2634C50.579 43.3099 50.4601 43.3326 50.3404 43.33L50.1904 43C50.3304 42.83 50.5204 42.7 50.5404 42.5Z" fill="white"/>
<path fill-rule="evenodd" clip-rule="evenodd" d="M35.8496 48.73C36.0496 48.67 36.0796 49.02 36.1896 49.2C36.0258 49.0868 35.9058 48.9209 35.8496 48.73Z" fill="white"/>
<path fill-rule="evenodd" clip-rule="evenodd" d="M40.0898 47.09C40.2598 47.09 40.3798 47.32 40.5498 47.37C40.7198 47.42 40.3498 47.49 40.2798 47.55L40.0898 47.09Z" fill="white"/>
<path fill-rule="evenodd" clip-rule="evenodd" d="M47.2401 44.09L47.4301 44.55L47.3201 44.6C47.3001 44.44 47.0001 44.15 47.2401 44.09Z" fill="white"/>
<path fill-rule="evenodd" clip-rule="evenodd" d="M27.3798 52.49C27.4598 52.49 27.4898 52.61 27.5298 52.7L27.2998 52.79C27.1698 52.63 27.3998 52.61 27.3798 52.49Z" fill="white"/>
<path fill-rule="evenodd" clip-rule="evenodd" d="M47.6104 44L47.9004 43.88C47.9604 44.01 48.0104 44.15 48.0704 44.28C47.8004 44.49 47.6904 44.26 47.6104 44Z" fill="white"/>
<path fill-rule="evenodd" clip-rule="evenodd" d="M48.25 43.73L48.6 43.58C48.629 43.6617 48.6624 43.7418 48.7 43.82C48.88 43.73 48.7 43.5 49.03 43.47C49.15 43.63 49.03 43.68 49.12 43.84L48.59 44.06C48.53 43.83 48.28 44.06 48.25 43.73Z" fill="white"/>
<path fill-rule="evenodd" clip-rule="evenodd" d="M49.5498 43.25L49.8998 43.11L50.0498 43.45L49.6998 43.6L49.5498 43.25Z" fill="white"/>
<path fill-rule="evenodd" clip-rule="evenodd" d="M57.2305 40C57.4505 39.81 57.6505 40.14 57.3805 40.21C57.3505 40.13 57.2605 40.15 57.2305 40Z" fill="white"/>
<path fill-rule="evenodd" clip-rule="evenodd" d="M59.9304 39C60.0104 39 60.0404 39.12 60.0804 39.21L59.3804 39.5C59.2604 38.89 60.0004 39.5 59.9304 39Z" fill="white"/>
<path fill-rule="evenodd" clip-rule="evenodd" d="M61.5302 38.57C61.1702 38.67 60.7202 39 60.4102 38.97C60.6102 38.85 61.2302 38.19 61.5302 38.57Z" fill="white"/>
<path fill-rule="evenodd" clip-rule="evenodd" d="M66.6102 36.64C65.2419 37.2418 63.8395 37.7627 62.4102 38.2V38.08C62.4102 38.02 62.4102 37.97 62.4102 37.94C63.2602 37.62 64.3602 37.08 65.2602 36.75C65.7102 36.57 66.2502 36.31 66.6102 36.64Z" fill="white"/>
<path fill-rule="evenodd" clip-rule="evenodd" d="M68.5 35.44C68.63 35.5 68.71 35.72 68.81 35.86C68.59 36 68.61 35.57 68.5 35.44Z" fill="white"/>
<path fill-rule="evenodd" clip-rule="evenodd" d="M68.1903 35.84C68.2703 35.84 68.3003 35.97 68.3403 36.05L68.1703 36.12C68.0003 36 68.2003 36 68.1903 35.84Z" fill="white"/>
<path fill-rule="evenodd" clip-rule="evenodd" d="M24.1699 54.45C24.331 54.5018 24.4803 54.585 24.609 54.6949C24.7378 54.8048 24.8434 54.939 24.9199 55.09C24.685 55.042 24.4611 54.9504 24.2599 54.82C24.1399 54.66 24.2799 54.61 24.1699 54.45Z" fill="white"/>
<path fill-rule="evenodd" clip-rule="evenodd" d="M22.7002 55.68C23.2702 55.31 23.5102 55.75 23.9102 55.79C23.8301 55.8756 23.7316 55.9417 23.6221 55.9834C23.5126 56.0251 23.395 56.0413 23.2783 56.0307C23.1616 56.0201 23.0489 55.983 22.9487 55.9222C22.8485 55.8614 22.7635 55.7786 22.7002 55.68V55.68Z" fill="white"/>
<path fill-rule="evenodd" clip-rule="evenodd" d="M11.3496 60.58C11.5148 60.4206 11.722 60.3116 11.9469 60.2656C12.1717 60.2195 12.4051 60.2384 12.6196 60.32C12.4508 60.4734 12.2438 60.5785 12.0203 60.6242C11.7968 60.67 11.5651 60.6547 11.3496 60.58V60.58Z" fill="white"/>
<path fill-rule="evenodd" clip-rule="evenodd" d="M12.5801 60.07C12.8901 59.73 13.5101 59.67 13.7101 60C13.5366 60.0885 13.3468 60.1404 13.1524 60.1525C12.958 60.1645 12.7632 60.1364 12.5801 60.07V60.07Z" fill="white"/>
<path fill-rule="evenodd" clip-rule="evenodd" d="M13.6602 59.55C13.817 59.4268 14.0107 59.3597 14.2102 59.3597C14.4096 59.3597 14.6033 59.4268 14.7602 59.55C14.6041 59.675 14.4101 59.7431 14.2102 59.7431C14.0102 59.7431 13.8162 59.675 13.6602 59.55Z" fill="white"/>
<path fill-rule="evenodd" clip-rule="evenodd" d="M14.6104 59.21C14.9504 58.79 15.4004 59.09 15.7204 59.09C15.3804 59.52 14.9204 59.25 14.6104 59.21Z" fill="white"/>
<path fill-rule="evenodd" clip-rule="evenodd" d="M15.5996 58.8C15.9096 58.41 16.3696 58.63 16.5996 58.7C16.3396 59.11 15.8896 58.84 15.5996 58.8Z" fill="white"/>
<path fill-rule="evenodd" clip-rule="evenodd" d="M16.6504 58.36C17.0004 57.94 17.4704 58.22 17.7804 58.29C17.4204 58.74 17.0004 58.38 16.6504 58.36Z" fill="white"/>
<path fill-rule="evenodd" clip-rule="evenodd" d="M17.6299 57.94C17.9899 57.5 18.4299 57.88 18.7699 57.88C18.3999 58.34 17.9999 57.94 17.6299 57.94Z" fill="white"/>
<path fill-rule="evenodd" clip-rule="evenodd" d="M18.5596 57.55C18.5596 57.4 18.9196 57.38 19.0596 57.28C19.2002 57.4206 19.3827 57.5119 19.5796 57.54C19.2496 58 18.8996 57.49 18.5596 57.55Z" fill="white"/>
<path fill-rule="evenodd" clip-rule="evenodd" d="M19.4902 57.16C20.0814 56.8367 20.6966 56.5592 21.3302 56.33C21.4259 56.4723 21.5669 56.578 21.7302 56.63C21.0702 57.08 20.0002 57.52 19.4902 57.16Z" fill="white"/>
<path fill-rule="evenodd" clip-rule="evenodd" d="M21.7002 56.24C22.0502 55.79 22.5102 56.08 22.7802 56.24C22.4402 56.64 22.0002 56.36 21.7002 56.24Z" fill="white"/>
<path fill-rule="evenodd" clip-rule="evenodd" d="M23.8203 55.42C24.1603 54.98 24.5503 55.42 24.8203 55.42C24.6803 55.65 24.2303 55.66 24.1303 55.71C24.1003 55.52 24.0003 55.4 23.8203 55.42Z" fill="white"/>
<path fill-rule="evenodd" clip-rule="evenodd" d="M47.7504 46.13C42.6804 48.49 37.0404 50.83 31.7504 52.84C30.0421 53.6522 28.2694 54.3212 26.4504 54.84L26.4004 54.72C26.4004 54.66 26.4004 54.61 26.4004 54.58C32.4004 52.21 38.9004 49.47 45.2304 46.82C46.0904 46.48 47.0004 45.93 47.7504 46.13Z" fill="white"/>
<path fill-rule="evenodd" clip-rule="evenodd" d="M67.7995 37.85C67.8795 38.21 67.4795 38.16 67.3695 38.3C67.2595 38.44 67.5295 38.58 67.2595 38.69C64.4695 39.6 61.6095 40.76 58.7195 41.8C55.8295 42.84 53.0395 44.12 50.2695 44.8C50.2095 44.8 50.1595 44.8 50.1295 44.8C50.0995 44.8 50.1295 44.69 50.1295 44.66C55.8595 42.47 61.7895 40 67.7995 37.85Z" fill="white"/>
<path fill-rule="evenodd" clip-rule="evenodd" d="M15.0002 61C14.5402 61.45 12.8702 62.57 11.9502 62.35C12.0102 61.93 13.5202 61.2 14.2402 60.98C14.5102 60.86 14.8502 60.77 15.0002 61Z" fill="white"/>
<path fill-rule="evenodd" clip-rule="evenodd" d="M17.8599 59.63C18.0099 60.02 17.2499 60.2 17.1699 59.78C17.2899 59.59 17.7299 59.45 17.8599 59.63Z" fill="white"/>
<path fill-rule="evenodd" clip-rule="evenodd" d="M23.2802 57.22C23.4802 57.48 23.1702 57.91 23.0102 58.22C22.8502 58.53 22.5902 58.9 22.4102 59.22C22.0402 59.89 21.8302 60.9 21.0102 61.11C20.9102 60.74 21.2302 60.36 21.3902 60.11C21.8894 59.1026 22.5035 58.1563 23.2202 57.29L23.2802 57.22Z" fill="white"/>
<path fill-rule="evenodd" clip-rule="evenodd" d="M68 38.54C68.54 38.27 68.82 39.02 68.71 39.41C68.3 39.43 68 38.93 68 38.54Z" fill="white"/>
<path fill-rule="evenodd" clip-rule="evenodd" d="M21.2601 58.27C21.3201 58.77 20.9501 59.21 20.7401 59.65C20.5301 60.09 20.5101 60.75 19.9301 60.81C19.9146 60.308 20.0289 59.8105 20.2619 59.3655C20.4949 58.9206 20.8387 58.5433 21.2601 58.27V58.27Z" fill="white"/>
<path fill-rule="evenodd" clip-rule="evenodd" d="M24.2098 57.17C24.3598 57.76 23.9098 58.4 23.6098 58.99C23.3098 59.58 23.0798 60.35 22.5098 60.61C22.5592 60.1001 22.7307 59.6096 23.0098 59.18C23.3398 58.5 23.6598 57.91 24.0098 57.24L24.2098 57.17Z" fill="white"/>
<path fill-rule="evenodd" clip-rule="evenodd" d="M10.0699 63.38C10.0699 63.38 10.1299 63.38 10.1499 63.38C12.8699 68.88 15.3099 74.99 17.7699 80.9C19.3199 84.61 21.2599 88.31 22.3299 91.9C21.9286 91.5048 21.6121 91.0318 21.3999 90.51C20.5399 88.95 19.8799 87.19 19.0799 85.51C17.0799 81.08 15.0799 76.2 13.0799 71.51C12.0799 69.1 10.9799 66.75 10.2099 64.51C10.0731 64.2261 10.0014 63.9152 9.99989 63.6C9.98959 63.5811 9.98323 63.5602 9.98119 63.5388C9.97915 63.5173 9.98146 63.4956 9.988 63.4751C9.99454 63.4545 10.0052 63.4355 10.0192 63.4192C10.0333 63.4028 10.0505 63.3895 10.0699 63.38Z" fill="white"/>
<path fill-rule="evenodd" clip-rule="evenodd" d="M25.2104 57.09C25.3004 57.03 25.3304 57.09 25.3704 57.16C25.1804 57.4 25.2104 57.77 25.0804 58.1C24.8004 58.83 24.4104 59.81 23.6904 59.99C24.105 58.9778 24.6139 58.0068 25.2104 57.09V57.09Z" fill="white"/>
<path fill-rule="evenodd" clip-rule="evenodd" d="M32.4897 54.24C32.1397 54.9 32.0296 56.13 31.1396 56.24C31.2174 55.8325 31.3771 55.4451 31.6092 55.1013C31.8413 54.7575 32.1408 54.4645 32.4897 54.24V54.24Z" fill="white"/>
<path fill-rule="evenodd" clip-rule="evenodd" d="M66.1398 40.26C66.1856 40.3516 66.2094 40.4526 66.2094 40.555C66.2094 40.6574 66.1856 40.7584 66.1398 40.85C66.4177 40.9635 66.7056 41.0506 66.9998 41.11C67.0475 41.181 67.073 41.2645 67.073 41.35C67.073 41.4355 67.0475 41.5191 66.9998 41.59C66.1698 42 64.7498 40.37 66.1398 40.26Z" fill="white"/>
<path fill-rule="evenodd" clip-rule="evenodd" d="M29.4903 55.57C29.6303 55.57 29.5603 55.95 29.5503 56.02C29.3914 56.7604 28.9502 57.4097 28.3203 57.83C28.4539 56.9694 28.8647 56.1759 29.4903 55.57V55.57Z" fill="white"/>
<path fill-rule="evenodd" clip-rule="evenodd" d="M47.6301 48C47.7001 48 47.7201 48.08 47.7601 48.15C47.3459 48.8875 46.8919 49.6019 46.4001 50.29C46.3001 49.46 47.1101 48.65 47.6301 48Z" fill="white"/>
<path fill-rule="evenodd" clip-rule="evenodd" d="M49.5996 47.27C49.2865 48.1605 48.789 48.9749 48.1396 49.66C48.2974 48.704 48.821 47.8468 49.5996 47.27V47.27Z" fill="white"/>
<path fill-rule="evenodd" clip-rule="evenodd" d="M30.9296 55.1C30.4096 57.57 28.6496 59.53 28.0796 61.97C27.6896 61.75 28.0096 61.22 28.0796 60.97C28.5127 59.8888 29.0345 58.8452 29.6396 57.85C29.5696 57.75 29.4296 57.85 29.3996 57.61C29.672 56.6498 30.2009 55.782 30.9296 55.1Z" fill="white"/>
<path fill-rule="evenodd" clip-rule="evenodd" d="M26.3305 57.17C26.5805 57.47 26.2205 57.96 26.0605 58.31C25.9005 58.66 25.7405 59.21 25.2605 59.19C25.2005 58.89 25.4705 58.46 25.6505 58.19C25.8209 57.8157 26.0505 57.4713 26.3305 57.17V57.17Z" fill="white"/>
<path fill-rule="evenodd" clip-rule="evenodd" d="M33.3605 54.35C33.4405 54.35 33.4905 54.42 33.5805 54.35C33.4405 54.75 33.3105 55.35 32.7405 55.45C32.6605 55 33.2005 54.76 33.3605 54.35Z" fill="white"/>
<path fill-rule="evenodd" clip-rule="evenodd" d="M62.7096 42.18C62.3096 42.96 62.2296 44.18 61.3096 44.54C61.3179 44.0589 61.4513 43.5883 61.6968 43.1745C61.9423 42.7606 62.2913 42.4179 62.7096 42.18V42.18Z" fill="white"/>
<path fill-rule="evenodd" clip-rule="evenodd" d="M60.7899 43C60.7833 43.3421 60.6978 43.678 60.5399 43.9816C60.3821 44.2852 60.1562 44.5482 59.8799 44.75C59.8996 44.4106 59.9908 44.0792 60.1476 43.7776C60.3045 43.476 60.5234 43.211 60.7899 43V43Z" fill="white"/>
<path fill-rule="evenodd" clip-rule="evenodd" d="M35.2097 54.05C35.2198 54.4354 35.0841 54.8104 34.8297 55.1C34.7397 55.1 34.6497 55.1 34.5497 55.1L34.4297 54.81C34.7397 54.59 34.8697 54.09 35.2097 54.05Z" fill="white"/>
<path fill-rule="evenodd" clip-rule="evenodd" d="M50.46 47.86C50.46 48.38 50.36 49.3 49.75 49.26C49.79 48.74 50 48.05 50.46 47.86Z" fill="white"/>
<path fill-rule="evenodd" clip-rule="evenodd" d="M33.6603 54.91C33.6743 54.9098 33.688 54.9138 33.6997 54.9214C33.7114 54.9291 33.7205 54.9401 33.7259 54.953C33.7313 54.966 33.7327 54.9802 33.7299 54.9939C33.7271 55.0076 33.7203 55.0202 33.7103 55.03C33.2942 56.0951 32.8201 57.1366 32.2903 58.15C31.9093 59.2386 31.4025 60.2789 30.7803 61.25C30.8441 60.6813 31.0355 60.1343 31.3403 59.65C31.9404 57.9909 32.7183 56.4017 33.6603 54.91V54.91Z" fill="white"/>
<path fill-rule="evenodd" clip-rule="evenodd" d="M54.57 46.41C54.65 46.76 54.43 46.99 54.32 47.27C54.6915 47.3696 55.0757 47.4134 55.46 47.4C55.29 48.24 54.34 47.47 53.94 47.4C53.75 46.89 54.14 46.17 54.57 46.41Z" fill="white"/>
<path fill-rule="evenodd" clip-rule="evenodd" d="M32.2499 55.78C31.3299 57.88 30.1099 59.85 29.3199 62C29.2165 61.5374 29.2766 61.0533 29.4899 60.63C30.1799 58.94 31.2099 57.4 32.0499 55.79C32.1299 55.74 32.1699 55.81 32.2499 55.78Z" fill="white"/>
<path fill-rule="evenodd" clip-rule="evenodd" d="M13.3902 64.44C12.8902 63.77 13.8202 63.44 14.1102 63.73C14.4002 64.02 13.8902 64.66 13.3902 64.44Z" fill="white"/>
<path fill-rule="evenodd" clip-rule="evenodd" d="M69.3602 40.75C69.4502 40.75 69.4802 40.75 69.5602 40.75C72.5095 46.852 75.016 53.1583 77.0602 59.62C74.3302 53.82 71.7002 47.22 69.3702 40.96C69.3202 40.86 69.3902 40.83 69.3602 40.75Z" fill="white"/>
<path fill-rule="evenodd" clip-rule="evenodd" d="M63.3797 43.46C63.4697 43.69 63.3097 43.82 63.2697 43.99C62.7997 44.11 62.8697 43.5 63.3797 43.46Z" fill="white"/>
<path fill-rule="evenodd" clip-rule="evenodd" d="M34.5997 55.68C34.1071 57.4186 33.3768 59.081 32.4297 60.62C32.9681 58.8981 33.6959 57.2413 34.5997 55.68V55.68Z" fill="white"/>
<path fill-rule="evenodd" clip-rule="evenodd" d="M15 64.44C18.2 63.02 21.55 61.76 24.48 60.8C25.0129 60.611 25.5746 60.5163 26.14 60.52C26.61 61.17 26.76 61.96 25.79 62.3C24.82 62.64 23.1 63.48 21.79 63.93C21.14 64.14 20.24 64.25 19.63 64.49C18.35 65 17 65.69 16 66.09C15.37 66 14.65 65.06 15 64.44Z" fill="white"/>
<path fill-rule="evenodd" clip-rule="evenodd" d="M50.5 50.24C50.7176 50.4247 50.8715 50.673 50.94 50.95C51.18 50.95 51.37 51.05 51.39 51.37C50.87 51.64 50.48 51.73 50.39 52.21C49.85 52.35 49.54 51.93 49.29 51.37C49.3233 51.3377 49.3495 51.2988 49.3667 51.2557C49.3839 51.2126 49.3919 51.1664 49.39 51.12C49.56 51.01 49.68 51.05 49.82 51.01C49.92 50.71 49.94 50.2 50.5 50.24Z" fill="white"/>
<path fill-rule="evenodd" clip-rule="evenodd" d="M65.0598 45.5C64.9598 45.91 64.3898 46.12 63.9298 46.38C64.3198 46.38 64.8098 46.18 65.0398 46.6C63.9898 46.6 62.3998 48.34 61.3698 47.8C60.5864 47.9699 59.8408 48.2817 59.1698 48.72C58.9298 48.23 59.3998 48.02 59.6298 47.72C59.4698 47.63 59.2298 47.72 59.0998 47.6C59.0652 47.5445 59.0469 47.4804 59.0469 47.415C59.0469 47.3496 59.0652 47.2855 59.0998 47.23C60.5898 46.55 62.6798 45.39 63.9198 45.69C64.2632 45.4878 64.6693 45.4201 65.0598 45.5V45.5Z" fill="white"/>
<path fill-rule="evenodd" clip-rule="evenodd" d="M69.0004 43.56C69.0004 43.9 68.3404 44.17 68.2204 44.3C68.0004 43.8 68.6104 43.21 69.0004 43.56Z" fill="white"/>
<path fill-rule="evenodd" clip-rule="evenodd" d="M14.0898 66.61C14.171 66.6823 14.2348 66.772 14.2763 66.8725C14.3179 66.9729 14.3362 67.0815 14.3298 67.19L14.0398 67.31C13.8298 67.12 13.7498 66.73 14.0898 66.61Z" fill="white"/>
<path fill-rule="evenodd" clip-rule="evenodd" d="M67.5698 44.65C67.6898 44.5318 67.8377 44.4458 67.9998 44.4C68.1442 44.4837 68.2496 44.6212 68.2927 44.7824C68.3358 44.9437 68.3132 45.1154 68.2298 45.26C67.8598 45.42 67.8098 45.26 67.5898 45.53C67.3798 45.53 67.2598 45.3 67.0698 45.26C66.8798 45.22 67.0098 45.56 66.9798 45.71C66.6298 45.92 66.4298 45.71 66.2998 45.38C66.6198 45.13 67.0798 44.08 67.5698 44.65Z" fill="white"/>
<path fill-rule="evenodd" clip-rule="evenodd" d="M20.8398 68.36C21.8641 67.7729 22.9383 67.2776 24.0498 66.88C24.3898 66.77 25.0998 66.55 25.2298 66.93C25.3098 67.14 24.8098 67.66 24.5198 67.84C23.3998 68.56 21.0498 69.34 20.8398 68.36Z" fill="white"/>
<path fill-rule="evenodd" clip-rule="evenodd" d="M33.6203 75.51C31.5103 76.8 26.8904 77.94 24.5004 79.2C23.9504 79.49 22.6804 80.06 22.6104 78.76C22.9104 78.56 23.0804 78.09 23.4404 77.76C24.4813 77.159 25.5844 76.6728 26.7304 76.31C28.7304 75.45 30.8004 74.38 32.3804 74.48C32.5304 74.8 33.1804 74.87 32.9804 75.26C33.1804 75.4 33.5003 75.22 33.6203 75.51Z" fill="white"/>
<path fill-rule="evenodd" clip-rule="evenodd" d="M38.2401 83.76C37.0501 86.13 35.9101 88.52 34.9101 90.97C35.0401 91.23 35.4001 91.44 35.3701 91.73C34.8101 91.98 34.3701 91.04 34.3701 90.57C34.4415 90.5555 34.5157 90.5666 34.5797 90.6014C34.6437 90.6361 34.6934 90.6923 34.7201 90.76C35.8401 88.4 36.5801 85.89 38.2401 83.76Z" fill="white"/>
<path fill-rule="evenodd" clip-rule="evenodd" d="M34.1895 85.66C33.1895 87.66 32.4695 89.81 31.3495 91.78C31.5095 92.26 31.8395 92.78 31.5695 93.12C31.2816 92.7518 31.0615 92.3353 30.9195 91.89C30.7195 91.83 30.4295 91.98 30.2095 91.98C30.3295 92.42 30.8095 92.98 30.4595 93.25C30.2329 93.0922 30.0486 92.8811 29.923 92.6351C29.7975 92.3892 29.7344 92.1161 29.7395 91.84C30.2495 91.74 30.8395 91.41 31.2195 91.63C32.2195 89.63 32.9595 87.63 33.9895 85.68C34.0795 85.62 34.1095 85.69 34.1895 85.66Z" fill="white"/>
<path fill-rule="evenodd" clip-rule="evenodd" d="M39.3404 83.43C39.4304 83.37 39.4704 83.43 39.5004 83.5C38.3904 85.81 37.2804 88.12 36.2704 90.5C36.4297 90.7266 36.5734 90.9638 36.7004 91.21C36.3804 91.42 36.2404 91.21 36.0704 91C35.9004 90.79 35.9604 91.47 35.6504 91.31C35.8049 90.9262 35.8432 90.5054 35.7604 90.1C35.9504 89.95 36.0004 90.1 36.1204 90.16C37.1904 87.89 38.0604 85.58 39.3404 83.43Z" fill="white"/>
<path fill-rule="evenodd" clip-rule="evenodd" d="M62.3896 80.53C63.2996 78.94 64.1896 77.35 65.0296 75.73C65.1196 75.67 65.1597 75.73 65.1897 75.8C64.7597 76.61 64.3296 77.4 63.8696 78.2C63.5301 79.0643 63.0276 79.8553 62.3896 80.53V80.53Z" fill="white"/>
<path fill-rule="evenodd" clip-rule="evenodd" d="M28.1104 95.46C26.5204 96.82 24.1104 96.29 23.6904 94.38L23.8704 94.3C24.8304 95.78 26.3404 96 28.1104 95.46Z" fill="white"/>
<path fill-rule="evenodd" clip-rule="evenodd" d="M25.8198 93.76C26.0792 94.0399 26.4044 94.2506 26.7659 94.3728C27.1274 94.4951 27.5138 94.525 27.8898 94.46C28.3898 94.46 29.0298 93.96 29.3898 94.46C28.8115 94.9258 28.0877 95.1731 27.3453 95.1585C26.6029 95.1438 25.8893 94.8682 25.3298 94.38C25.2698 94.07 25.5798 93.93 25.8198 93.76Z" fill="white"/>
<path fill-rule="evenodd" clip-rule="evenodd" d="M37.8696 90.2C37.4196 90.49 37.0796 89.97 37.0596 89.59C37.4796 89.43 37.6196 89.94 37.8696 90.2Z" fill="white"/>
<path fill-rule="evenodd" clip-rule="evenodd" d="M53.6804 83.57C52.8004 84.57 52.8504 82.5 53.6804 83.57V83.57Z" fill="white"/>
<path fill-rule="evenodd" clip-rule="evenodd" d="M55.58 83.05C55.65 83.19 55.58 83.26 55.58 83.39C55.5091 83.4277 55.4302 83.4473 55.3499 83.4473C55.2697 83.4473 55.1908 83.4277 55.12 83.39C54.85 83 55.37 82.75 55.58 83.05Z" fill="white"/>
<path fill-rule="evenodd" clip-rule="evenodd" d="M32.8403 93.21C32.1503 93.1 31.2303 94.3 30.5303 93.9C30.5303 93.47 31.3303 93.29 31.7903 93.16C32.2503 93.03 32.6803 92.87 32.8403 93.21Z" fill="white"/>
<path fill-rule="evenodd" clip-rule="evenodd" d="M47.7095 6.42001C47.9995 6.77001 48.0295 5.72001 48.4195 5.51001C48.6939 5.64517 48.9232 5.85707 49.0795 6.12001C47.8695 7.43001 46.7295 8.78001 45.5695 10.12C45.4495 10.12 45.4295 9.65001 45.2695 9.42001C46.1331 8.46197 46.9475 7.46068 47.7095 6.42001V6.42001Z" fill="white"/>
<path fill-rule="evenodd" clip-rule="evenodd" d="M24.0004 34.43C24.1504 34.72 23.7704 34.79 23.7704 35.01C23.6504 34.94 23.8004 34.56 24.0004 34.43Z" fill="white"/>
<path fill-rule="evenodd" clip-rule="evenodd" d="M65.3895 29.84C65.3895 29.67 65.5895 29.63 65.5795 29.48C64.6495 30.48 62.4895 30.86 61.6695 31.4C61.6695 31.31 61.6095 31.16 61.5195 31.19C62.9395 30.58 65.0295 29.35 66.3195 29.45C66.2195 29.53 65.6795 29.69 65.3895 29.84Z" fill="white"/>
<path fill-rule="evenodd" clip-rule="evenodd" d="M19.43 54.25C19.43 54.25 19.3 54.25 19.29 54.25C18.5 53.12 20.36 52.52 20.96 53.34C21.0748 53.4893 21.1451 53.668 21.1628 53.8556C21.1805 54.0431 21.1449 54.2318 21.06 54.4C20.64 55 20 54.84 19.43 54.25ZM20.43 53.41C20.0558 53.3289 19.6647 53.3971 19.34 53.6C18.87 54.63 21.24 54.58 20.45 53.41H20.43Z" fill="white"/>
<path fill-rule="evenodd" clip-rule="evenodd" d="M68.3997 78.07L69.9197 77.44C70.2897 76.92 70.4797 76.32 70.7897 75.78C70.7897 75.72 70.3297 75.47 70.4597 75.16C71.7897 74.53 72.0897 73.01 72.5997 71.94C73.1097 70.87 73.4997 70.07 73.9897 69.23C73.3572 71.1226 72.5747 72.9618 71.6497 74.73C71.8297 74.84 71.8997 75.22 72.0197 75.46C72.1894 75.3054 72.3038 75.0995 72.3454 74.8738C72.3869 74.648 72.3533 74.4149 72.2497 74.21C72.5197 74.14 72.5397 73.97 72.8097 73.91C73.5697 72.4 74.2297 70.91 74.9997 69.36C74.8197 70.76 73.8497 72.26 73.2497 73.65C73.6697 73.59 73.9897 74.26 73.9397 74.65C73.6797 74.56 73.5297 74.16 73.2397 74.12C72.7397 74.31 72.7697 74.66 72.9297 75C72.2997 75 72.1797 76.12 71.7797 76.65C73.7797 76.35 73.7797 74.96 74.4697 73.95C74.3897 73.71 74.2297 73.67 74.1697 73.39C74.329 73.2445 74.5343 73.1596 74.7497 73.15C75.4197 71.85 75.8797 70.46 76.6497 69.15C76.2205 70.4584 75.7231 71.7435 75.1597 73C75.2517 72.9889 75.345 72.997 75.4337 73.0237C75.5224 73.0505 75.6046 73.0954 75.6751 73.1555C75.7456 73.2156 75.8028 73.2898 75.8432 73.3732C75.8836 73.4566 75.9063 73.5474 75.9097 73.64C76.9097 71.69 77.4697 69.56 78.7597 67.72C78.5121 68.5787 78.177 69.4097 77.7597 70.2C77.3697 71.05 76.9997 71.92 76.6297 72.72C76.7897 72.95 76.9297 73.06 76.9497 73.34C76.7597 73.34 76.5797 73.34 76.4797 73.2C76.195 73.7849 75.9446 74.386 75.7297 75C76.0936 74.9574 76.4365 74.807 76.7144 74.5683C76.9923 74.3296 77.1927 74.0133 77.2897 73.66C77.5197 73.1 77.7997 72.66 77.4297 72.04C77.5397 71.81 77.7997 72.04 77.8997 72.18C78.4162 70.7989 79.0871 69.4805 79.8997 68.25C79.7239 68.7378 79.5134 69.2123 79.2697 69.67C78.6697 71.14 77.9897 72.75 77.3497 74.24C78.9197 73.81 79.0497 72.66 79.5697 71.53C79.821 70.844 80.1183 70.1759 80.4597 69.53C80.409 70.1614 80.225 70.7749 79.9197 71.33C79.6897 71.94 79.4297 72.55 79.2297 73.12C79.7797 72.72 80.2997 72.31 80.8397 71.9C81.0797 71.41 80.6997 70.66 81.1697 70.26C80.9797 69.15 79.8197 67.65 80.1097 66.74C82.2097 69.86 83.4997 74.43 79.2997 75.08C79.2997 74.67 80.0397 74.45 80.2997 74.08C80.5597 73.71 80.7297 73.15 81.0097 72.83C80.5197 73.47 79.4297 73.71 78.7997 74.23C78.4197 74.55 78.5297 75.07 78.2397 75.36C78.3697 75.42 78.6497 75.36 78.5597 75.63C77.6321 75.958 76.774 76.4566 76.0297 77.1C75.8297 77.25 75.8297 76.89 75.6097 77.1C71.3597 79 66.9997 80.89 62.4297 82.57C53.5397 85.84 44.7197 90 36.0597 93.22C35.0597 93.57 34.1997 94.02 33.1297 94.38C32.3697 94.64 31.0197 95.13 30.5297 94.86C31.1197 94.14 32.1097 94.07 32.9397 93.78C35.8497 92.73 39.1097 91 41.9997 90C42.9997 89.64 44.0997 89.12 45.2597 88.63C46.3667 88.2954 47.4359 87.8463 48.4497 87.29C48.9316 86.5876 49.3026 85.8152 49.5497 85C50.6197 82.57 51.4697 80.41 52.7497 78.12C52.4997 78.884 52.1956 79.6292 51.8397 80.35C50.9297 82.56 49.8397 84.87 48.9297 87.11L51.1397 86.18C52.7597 82.97 53.9897 79.61 55.7397 76.45L53.1797 77.53C52.2901 77.7926 51.4316 78.1514 50.6197 78.6C50.0942 79.3353 49.6798 80.144 49.3897 81C48.5697 82.74 47.9197 84.23 47.1397 85.91C46.8777 86.7774 46.4498 87.5857 45.8797 88.29C45.9147 87.8683 46.0483 87.4606 46.2697 87.1C47.4565 84.239 48.7916 81.4419 50.2697 78.72C49.7997 79.03 49.0397 79.08 48.5197 79.45C47.9578 80.1415 47.4965 80.9092 47.1497 81.73C46.6797 82.58 46.2997 83.39 45.9497 84.08C45.3034 85.726 44.4714 87.2928 43.4697 88.75C44.7691 85.57 46.3417 82.5085 48.1697 79.6C47.5697 79.99 46.7697 80.01 46.1697 80.45C45.6323 81.0841 45.2185 81.8134 44.9497 82.6C44.1697 84.16 43.5797 85.49 42.9497 87.01C42.7144 87.7649 42.2991 88.4512 41.7397 89.01C42.8788 86.1345 44.2153 83.3412 45.7397 80.65C45.1097 81.07 44.2697 81.06 43.6397 81.53C43.1918 82.1329 42.8533 82.8099 42.6397 83.53C42.0397 85 41.5497 86.26 41.0397 87.69C40.7997 88.36 40.7497 89.16 40.1997 89.62C40.9029 86.9301 41.8398 84.3068 42.9997 81.78C42.5897 82.1 41.9997 82.01 41.5797 82.31C41.207 82.7819 40.9225 83.3171 40.7397 83.89C40.0197 85.49 39.3797 87.28 38.8297 88.8C39.1829 88.701 39.5566 88.701 39.9097 88.8C39.9897 89.03 40.1897 89.3 40.0397 89.44C39.6997 89.59 39.8997 89.15 39.6297 89.12C39.4108 89.1229 39.1928 89.1497 38.9797 89.2C38.8697 89.4 39.3397 89.66 39.2097 89.92C38.9197 90.01 38.8597 89.52 38.6497 89.4C38.3297 89.53 38.4197 90.48 37.8997 90.53C38.8997 87.85 39.8997 85.18 41.0597 82.53C38.2197 83.53 34.4697 85.38 31.6697 86.4C31.4002 86.4549 31.1383 86.5422 30.8897 86.66C30.5697 86.88 30.6597 87.27 30.3597 87.5C30.2397 87.23 30.4497 87.08 30.4297 86.85C28.4897 87.59 26.3097 88.9 24.5997 89.09C24.5997 89.5 24.5997 89.76 24.5197 90.22C24.1397 90.07 23.9697 89.57 23.7697 89.22C21.7697 85.79 19.9697 79.75 18.0897 76.02C18.15 75.8657 18.15 75.6943 18.0897 75.54C17.5797 73.54 16.0897 71.32 15.5897 69.27C15.4616 69.2353 15.3445 69.1685 15.2494 69.0759C15.1543 68.9832 15.0845 68.8679 15.0464 68.7407C15.0084 68.6136 15.0034 68.4788 15.032 68.3492C15.0606 68.2196 15.1217 68.0994 15.2097 68C20.6197 65.93 26.9397 63 33.0797 60.71C34.3997 60.22 35.8297 59.71 37.2497 59.23C47.5497 55.45 57.6197 50.57 67.4497 46.97C68.0557 46.6086 68.7444 46.4089 69.4497 46.39C69.6797 46.57 69.6097 46.82 69.7497 47.09C68.9314 47.6594 68.0444 48.1231 67.1097 48.47C63.6797 50.1 59.7197 51.17 56.2297 52.69C57.1397 54.52 57.9297 56.69 58.7797 58.6C61.1997 57.78 64.1097 56.54 66.5997 55.73C68.4297 55.13 70.5397 53.97 72.2097 53.44C72.5897 53.32 73.2097 53.05 73.4997 53.59C72.7297 53.84 72.4997 54.35 71.3497 54.83C68.9297 55.83 65.8697 57.26 62.9197 58.37C57.5397 60.37 52.1097 63.26 46.8297 64.98C44.2797 65.81 41.8297 66.98 39.3097 67.98C32.5797 70.45 26.0797 73.56 19.6497 75.98C21.0097 79.98 23.1697 84.32 24.3997 88.27C25.5497 87.66 26.7697 87.6 27.6497 86.91C28.2897 86.41 28.1097 85.33 28.5297 84.76C28.4284 85.4385 28.2712 86.1074 28.0597 86.76C28.3097 86.59 28.6097 86.6 28.8697 86.42C29.416 85.7883 29.8307 85.054 30.0897 84.26C30.4597 83.47 30.7497 82.71 31.0897 82.07C29.9297 82.37 28.0897 83.51 26.5097 83.86C26.2197 83.92 25.7697 83.86 25.2897 83.86C24.8097 83.86 24.3997 84.28 24.2897 83.73C24.1797 83.18 24.9297 83.22 25.2897 82.96C25.4797 82.89 25.2897 82.66 25.4797 82.6C28.0197 81.6 31.7597 79.39 34.3097 79.03C34.6497 79.03 35.2497 78.75 35.3097 79.24C34.9697 79.09 34.5297 79.4 34.3097 79.68C34.8397 79.68 35.4997 79.38 35.7597 80.03C35.6297 80.31 35.0797 80.42 34.6997 80.61C33.9365 81.9927 33.2845 83.4339 32.7497 84.92L33.7497 84.5C34.1297 83.74 34.4997 82.93 34.8697 82.12C35.1177 81.291 35.5444 80.5263 36.1197 79.88C35.4797 81.37 34.7597 82.88 34.1197 84.33C42.7997 81.03 51.6997 76.55 60.6497 73.26C65.0197 71.66 69.4997 69.26 73.8197 67.67C74.7197 67.34 75.7197 66.61 76.6797 66.33C77.0497 66.23 77.6797 66.26 77.7497 66.43C78.1297 67.05 76.9097 67.3 76.4897 67.51C73.8706 68.9045 71.1651 70.1303 68.3897 71.18C64.7797 72.51 62.0197 73.79 58.7197 75.18C57.8584 75.4386 57.0218 75.7733 56.2197 76.18C55.6597 76.59 55.3697 77.89 55.0397 78.59C53.8497 81.14 52.8197 83.29 51.6697 85.88C55.9497 84.26 60.7697 82.11 65.3197 80.43C66.5897 79.96 67.6097 79.84 67.6797 78.89C65.4281 79.8374 63.1205 80.6456 60.7697 81.31C61.6297 80.56 63.1897 80.52 64.1097 79.84C64.4597 79.58 64.6597 78.84 64.8897 78.28C65.6297 76.69 66.4997 75.1 67.2597 73.66C66.9592 74.7077 66.5328 75.715 65.9897 76.66C65.4997 77.66 64.9897 78.66 64.5797 79.66L66.0897 79.02C67.3197 76.8 68.1897 74.42 69.4497 72.21C68.6497 74.5 67.4497 76.61 66.4497 78.85C66.8497 78.56 67.4497 78.58 67.8997 78.24C68.2171 77.7838 68.4695 77.2857 68.6497 76.76C69.3997 75.26 70.2197 73.76 70.9697 72.37C71.1797 72.25 70.8697 72.74 70.7997 72.92C70.1597 74.6 69.0697 76.42 68.3997 78.07ZM16.4697 68.69C17.3297 70.17 18.2097 73.07 19.2197 74.92C22.8297 73.47 26.5797 72.09 30.0297 70.38C29.1197 68.46 28.2797 66.38 27.4097 64.3C23.6797 65.88 19.9997 66.86 16.4697 68.69ZM49.7397 55.27C44.128 57.8607 38.364 60.1082 32.4797 62C32.3797 62.05 32.5297 62.21 32.4797 62.28C31.218 62.6851 29.9795 63.1592 28.7697 63.7C29.4097 65.7 30.5297 67.92 31.0997 69.9C39.9997 66.31 48.8997 62.57 57.7097 59.11C56.6648 57.1684 55.7397 55.1647 54.9397 53.11C53.2197 53.86 51.4297 54.44 49.7397 55.27ZM31.2697 82C30.8558 83.2096 30.3441 84.3835 29.7397 85.51C29.6097 85.75 29.3397 86 29.4897 86.23C31.3597 85.84 31.4897 84.64 31.9897 83.54C32.1697 83.16 32.3997 82.82 32.5697 82.48C32.7397 82.14 32.7797 81.62 33.1697 81.48C32.7397 82.48 32.2697 83.65 31.7997 84.59C31.6497 84.9 31.2497 85.22 31.4297 85.49L32.2997 85.13C32.7897 84.13 33.2997 82.79 33.7697 81.78C33.9397 81.44 34.3897 80.99 34.1797 80.78L31.2697 82ZM70.9197 75.62C70.9197 75.41 71.1097 75.31 71.1197 75.12L70.7697 75.27C70.8997 75.36 70.7997 75.63 70.9197 75.59V75.62ZM74.9197 73.54C74.7097 73.81 75.2997 74.11 74.9797 74.33C74.8697 74.27 74.8197 74.09 74.6497 74.2C74.4997 74.81 73.9997 75.28 73.8597 75.9C74.3331 75.6266 74.8281 75.3925 75.3397 75.2C75.5697 74.83 75.6497 74.4 75.8697 74.02C75.5897 73.69 75.4097 73.2 74.8997 73.51L74.9197 73.54ZM70.3997 77.28C71.5897 76.92 72.2697 76.09 71.3997 75.2C71.1097 75.87 70.7297 76.56 70.3797 77.25L70.3997 77.28ZM67.7597 79.62C68.6897 79.35 69.8097 78.62 69.4897 78.21C68.5897 78.52 67.6097 78.83 67.7397 79.59L67.7597 79.62ZM72.7597 76.95C71.5797 77.51 69.4097 77.8 69.6597 78.87C71.8797 77.87 74.0597 77.06 76.2197 76.25C76.3833 76.0134 76.48 75.737 76.4997 75.45C75.894 75.6125 75.3441 75.9376 74.9097 76.39C74.7897 76.27 75.0897 76.05 74.8097 76.16C74.1897 76.46 73.2997 76.67 73.0297 77.16C72.9397 77.08 72.9397 76.79 72.7797 76.92L72.7597 76.95ZM76.6297 76.08C77.1397 75.86 77.5597 75.84 78.0697 75.61C78.0697 75.28 78.2397 75.04 78.2497 74.72C77.6297 74.94 76.6397 75.29 76.6497 76.05L76.6297 76.08Z" fill="white"/>
<path fill-rule="evenodd" clip-rule="evenodd" d="M36.11 82.6C36.1371 82.721 36.1348 82.8468 36.1035 82.9668C36.0722 83.0868 36.0127 83.1976 35.93 83.29C35.76 83 36.16 82.87 36.11 82.6Z" fill="white"/>
<path fill-rule="evenodd" clip-rule="evenodd" d="M36.1701 85.17C35.6978 86.7143 35.0254 88.1902 34.1701 89.56C33.9801 89.88 33.3401 90.68 33.3801 90.92C33.3801 90.98 34.2201 91.7 33.9601 91.98C33.7001 92.26 33.4801 91.66 33.3201 91.29C33.0201 91.35 33.2001 91.62 32.9501 91.72C32.9595 91.5952 32.9796 91.4714 33.0101 91.35C32.8601 91.35 32.7501 91.35 32.5801 91.46C32.4101 91.57 33.1701 92.15 32.8301 92.38C32.6096 92.2866 32.4212 92.1308 32.288 91.9319C32.1548 91.7329 32.0825 91.4994 32.0801 91.26C33.2601 91.26 33.4501 90.26 33.8901 89.55C34.7301 88.15 35.4701 86.5 36.1701 85.17Z" fill="white"/>
<path fill-rule="evenodd" clip-rule="evenodd" d="M36.1797 57.82C35.3297 57.82 35.5197 56.6 35.5897 56.09C38.7586 54.2559 42.203 52.9457 45.7897 52.21C46.4197 52.1 47.7297 51.69 47.9097 52.21C48.0897 52.73 47.4197 52.78 46.7197 53.12C44.9997 54 43.4397 54.71 41.0997 55.69C39.4084 56.2749 37.7637 56.987 36.1797 57.82V57.82Z" fill="white"/>
</g>
<defs>
<clipPath id="clip0_1274_1766">
<rect width="84.04" height="98.68" fill="white"/>
</clipPath>
</defs>
</svg>
