<svg width="85" height="99" viewBox="0 0 85 99" fill="none" xmlns="http://www.w3.org/2000/svg">
<g opacity="0.6" clip-path="url(#clip0_939_23901)">
<path fill-rule="evenodd" clip-rule="evenodd" d="M49.21 4.15C48.96 4 48.9 4.46 48.75 4.34C47.07 3 45.52 1.24 43.78 0C43.63 0.15 43.58 0.34 43.27 0.42C42.2251 1.85809 41.0501 3.19706 39.76 4.42C38.53 5.72 37.35 7.1 36.18 8.42C29.18 16.55 22.28 24.73 15.32 32.84C14.75 34.12 13.42 35.02 12.32 36.2C10.59 38.12 9.2 39.98 7.52 42.04C7 42.73 5.82 44.62 5.16 45C4.50749 45.2165 3.83868 45.3803 3.16 45.49C2.07068 45.8668 1.01385 46.3317 0 46.88C1.6 51.2 3.65 56.08 5.41 60.27C5.70271 61.2251 6.10894 62.1417 6.62 63C7.16 63.21 7.62 63.69 8.28 63.53C11.43 71.94 15.33 80.02 18.68 88.16C18.87 88.39 18.68 88.49 18.68 88.64C18.96 88.58 18.93 88.79 19.03 88.97C19.75 90.24 20.18 91.9 20.86 93.33C21.54 94.76 22.2 96 22.8 97.14C23 97.03 23.05 96.91 23.2 97.14C23.6644 97.7698 24.3281 98.2242 25.0832 98.4293C25.8384 98.6345 26.6408 98.5783 27.36 98.27C27.36 98.44 26.97 98.57 27.28 98.71C27.74 98.64 27.77 98.16 28.18 97.93C28.4125 97.8291 28.6535 97.7488 28.9 97.69C31.3 96.82 34.27 95.38 36.71 94.48C36.71 94.98 36.43 95.33 36.29 95.75C36.83 95.44 36.87 94.57 37.41 94.19C38.0284 93.8722 38.6787 93.6208 39.35 93.44C41.81 92.52 44.35 91.09 46.74 90.34C46.93 90.23 46.92 90.6 47.09 90.54C48.38 89.26 50.94 88.68 52.9 87.76C55.09 86.76 57.29 85.76 59.47 85C59.38 85.41 58.85 85.65 58.91 86.12C59.54 85.9 59.56 85.12 60.05 84.76C60.8612 84.3501 61.7168 84.0347 62.6 83.82C64.71 83.05 66.93 81.94 69.02 81.2C69.26 80.99 69.31 81.27 69.5 81.2C72.5 79.7 77.28 77.97 80.73 76.35C82.58 75.48 84.62 74.25 83.89 72.63C84.54 70.75 81.56 67.46 81.89 65.75C81.65 65.75 81.72 66.14 81.59 65.87C80.88 64.08 80.22 62.32 79.74 60.63C78.8545 59.1502 78.0887 57.6019 77.45 56C77.11 55.15 76.58 54.33 76.8 53.81C76.56 53.81 76.51 53.65 76.37 53.44C75.79 52.54 75.47 50.9 74.89 49.89C74.83 49.58 75.22 49.45 75.02 49.08C74.95 48.91 74.63 49.34 74.6 49.08C74.2269 48.4823 74.0486 47.7834 74.09 47.08C73.97 47.08 73.77 47.31 73.75 47.08C73.68 46.18 72.75 45.24 72.68 44.38C72.63 43.92 73.06 43.73 72.87 43.38C72.55 43.38 72.65 43.86 72.41 43.77C71.48 41.43 70.68 39.14 69.61 36.77C69.8911 36.5797 70.1851 36.4093 70.49 36.26C70.55 35.76 70.37 35.69 70.11 35.19C69.01 33.11 68.11 29.95 67.11 27.92C60.7262 29.947 54.4541 32.3103 48.32 35C38.88 39 29.45 43 20.32 46.7C19.54 46.06 18.62 45.22 17.7 45.34C20.43 42.15 22.78 38.59 25.7 35.47C28.62 32.35 31.17 28.89 34.03 25.68C36.89 22.47 39.69 19.17 42.45 15.93C45.21 12.69 47.56 9.12 50.45 6.2C50.21 5.4 49.67 5.29 49.27 4.85C49 4.67 49.58 4.32 49.21 4.15Z" fill="#1C1C1C"/>
<path fill-rule="evenodd" clip-rule="evenodd" d="M45.0801 2.11998C45.1955 2.3241 45.2278 2.56492 45.17 2.79223C45.1123 3.01953 44.969 3.21576 44.7701 3.33998C44.4101 2.99998 44.5501 1.99998 45.0801 2.11998Z" fill="white"/>
<path fill-rule="evenodd" clip-rule="evenodd" d="M42.39 3.52002C43.1 5.44002 43.62 7.69002 44.39 9.79002C43.39 10.87 42.57 12 41.6 13.08C40.85 10.89 40.46 8.86002 39.66 6.65002C40.6 5.62002 41.54 4.59002 42.39 3.52002Z" fill="white"/>
<path fill-rule="evenodd" clip-rule="evenodd" d="M46.5 3.71002C46.5 4.32002 46.57 4.99002 45.8 5.31002C46 4.79002 45.75 3.85002 46.5 3.71002Z" fill="white"/>
<path fill-rule="evenodd" clip-rule="evenodd" d="M38.54 7.88002C38.79 7.73002 39.06 8.03002 39.02 8.22002C38.9204 8.20094 38.826 8.16072 38.7432 8.10207C38.6604 8.04342 38.5911 7.9677 38.54 7.88002V7.88002Z" fill="white"/>
<path fill-rule="evenodd" clip-rule="evenodd" d="M38.44 8.12C38.44 8.23 38.56 8.22 38.59 8.33C38.42 8.41 38.23 8.52 38.17 8.33C38.32 8.27 38.25 8.14 38.44 8.12Z" fill="white"/>
<path fill-rule="evenodd" clip-rule="evenodd" d="M35.24 11.58C36.3 13.83 36.56 16.17 37.38 18.48C36.29 19.62 35.38 20.83 34.38 22.01C33.64 19.61 33.01 17.15 32.27 15.01C33.21 13.87 34.34 12.77 35.24 11.58Z" fill="white"/>
<path fill-rule="evenodd" clip-rule="evenodd" d="M44.8 11.06C43.8 12.14 43.01 13.28 42.01 14.35C42.01 14.09 41.74 13.69 41.76 13.43C42.62 12.37 43.54 11.33 44.4 10.27C44.75 10.26 44.61 10.82 44.8 11.06Z" fill="white"/>
<path fill-rule="evenodd" clip-rule="evenodd" d="M31.9 16.82C31.608 16.6926 31.3558 16.4888 31.17 16.23C31.6 15.56 31.66 16.24 31.9 16.82Z" fill="white"/>
<path fill-rule="evenodd" clip-rule="evenodd" d="M31 16.44C31.29 16.55 31.5 16.86 31.75 17.09C31.61 17.14 31.62 17.26 31.42 17.29C31.2407 17.0988 31.0353 16.9339 30.81 16.8C30.75 16.63 31 16.59 31 16.44Z" fill="white"/>
<path fill-rule="evenodd" clip-rule="evenodd" d="M31.25 17.56C31.15 17.62 31.08 17.68 31.07 17.78C30.7735 17.6646 30.5213 17.458 30.35 17.19C30.66 16.69 31 17.26 31.25 17.56Z" fill="white"/>
<path fill-rule="evenodd" clip-rule="evenodd" d="M30.24 17.44C30.4142 17.6264 30.6013 17.8001 30.8 17.96C30.7522 18.0961 30.6561 18.2099 30.53 18.28C30.3077 18.1375 30.1 17.9734 29.91 17.79C30 17.67 30 17.51 30.24 17.44Z" fill="white"/>
<path fill-rule="evenodd" clip-rule="evenodd" d="M29.7 17.94C29.9652 18.0526 30.1888 18.2448 30.34 18.49C30.34 18.56 30.2 18.59 30.22 18.68C29.96 18.68 29.82 18.33 29.57 18.27C29.53 18.13 29.69 18.07 29.7 17.94Z" fill="white"/>
<path fill-rule="evenodd" clip-rule="evenodd" d="M29.3 18.45C29.4432 18.4832 29.5761 18.5506 29.6876 18.6463C29.7991 18.7421 29.8857 18.8635 29.94 19C29.84 19.06 29.76 19.12 29.76 19.22C29.4952 19.1069 29.2717 18.9148 29.12 18.67C29.19 18.6 29.23 18.52 29.3 18.45Z" fill="white"/>
<path fill-rule="evenodd" clip-rule="evenodd" d="M28.78 19C29.16 18.86 29.3 19.32 29.54 19.5C29.4 19.57 29.38 19.7 29.32 19.8C29.08 19.76 28.6 19.35 28.78 19Z" fill="white"/>
<path fill-rule="evenodd" clip-rule="evenodd" d="M30.11 27.55C29.0807 28.7876 27.9752 29.9599 26.8 31.06C26.12 28.66 25.41 26.25 24.65 23.82C25.73 22.56 26.8 21.3 27.92 20.05C28.58 22.33 29.14 25 30.11 27.55Z" fill="white"/>
<path fill-rule="evenodd" clip-rule="evenodd" d="M40.94 14.73C41.1 14.73 41.13 15.13 41.24 15.29C40.31 16.43 39.41 17.59 38.36 18.69C38.13 18.11 38.73 18.06 39.01 17.8C39.29 17.54 39.21 17.39 39.4 17.09C39.7 16.59 40.24 16.09 40.51 15.66C40.78 15.23 40.74 15.06 40.94 14.73Z" fill="white"/>
<path fill-rule="evenodd" clip-rule="evenodd" d="M31.9999 18.6C31.6721 19.4788 31.2777 20.3313 30.8199 21.15C31.0028 20.2895 31.2951 19.4561 31.6899 18.67C31.7335 18.6366 31.7838 18.6131 31.8373 18.601C31.8908 18.5889 31.9463 18.5886 31.9999 18.6Z" fill="white"/>
<path fill-rule="evenodd" clip-rule="evenodd" d="M33.3401 19.77C33.2639 20.4665 33.0641 21.1437 32.7501 21.77C32.5529 22.433 32.2341 23.0536 31.8101 23.6C32.087 22.2421 32.6052 20.9449 33.3401 19.77V19.77Z" fill="white"/>
<path fill-rule="evenodd" clip-rule="evenodd" d="M37.37 18.62C37.57 18.62 37.82 19.17 37.8 19.33C36.8405 20.6439 35.7878 21.8871 34.65 23.05C34.6275 22.8361 34.5629 22.6288 34.46 22.44C35.48 21.19 36.46 19.92 37.37 18.62Z" fill="white"/>
<path fill-rule="evenodd" clip-rule="evenodd" d="M24 24.63C24 24.86 24.12 25.1 24.15 25.32C23.9547 25.2226 23.7811 25.0865 23.64 24.92C23.86 24.85 23.8 24.68 24 24.63Z" fill="white"/>
<path fill-rule="evenodd" clip-rule="evenodd" d="M23.45 25.21C23.67 25.21 23.91 25.5 23.91 25.64C23.7143 25.55 23.553 25.3992 23.45 25.21Z" fill="white"/>
<path fill-rule="evenodd" clip-rule="evenodd" d="M23.18 25.53C23.4 25.44 23.44 25.77 23.62 25.76C23.68 25.93 23.42 25.97 23.26 26.05C23.2 25.87 23.05 25.92 23 25.75C23.1 25.69 23.17 25.63 23.18 25.53Z" fill="white"/>
<path fill-rule="evenodd" clip-rule="evenodd" d="M22.54 26.28C22.5765 26.2853 22.6114 26.2986 22.6421 26.319C22.6729 26.3394 22.6987 26.3663 22.7178 26.3979C22.7369 26.4294 22.7489 26.4648 22.7527 26.5015C22.7565 26.5381 22.7522 26.5752 22.74 26.61C22.58 26.74 22.56 26.51 22.43 26.53C22.36 26.4 22.58 26.39 22.54 26.28Z" fill="white"/>
<path fill-rule="evenodd" clip-rule="evenodd" d="M22.17 26.71C22.3 26.71 22.39 26.8 22.46 26.93C22.27 27.08 22.23 26.88 22.1 26.87C21.97 26.86 22.2 26.79 22.17 26.71Z" fill="white"/>
<path fill-rule="evenodd" clip-rule="evenodd" d="M21.8 27.14L21.97 27.06C22.02 27.16 22.06 27.26 22.1 27.35C21.94 27.43 21.87 27.28 21.8 27.14Z" fill="white"/>
<path fill-rule="evenodd" clip-rule="evenodd" d="M21.28 27.7C21.44 27.7 21.55 27.82 21.63 28.03C21.45 28.08 21.23 27.86 21.28 27.7Z" fill="white"/>
<path fill-rule="evenodd" clip-rule="evenodd" d="M21 28C21.27 28.09 21.41 28.4 21.18 28.6C21 28.56 20.92 28.13 21 28Z" fill="white"/>
<path fill-rule="evenodd" clip-rule="evenodd" d="M33.61 22.86C33.7 23.04 33.55 23.13 33.42 23.22C33.34 23 33.49 23 33.61 22.86Z" fill="white"/>
<path fill-rule="evenodd" clip-rule="evenodd" d="M20.12 29C20.34 29.1 20.35 29.51 20.41 29.7C19.4131 31.0006 18.3307 32.2333 17.17 33.39C17.04 33.09 17.1 32.88 16.97 32.58C18.09 31.42 19.15 30.23 20.12 29Z" fill="white"/>
<path fill-rule="evenodd" clip-rule="evenodd" d="M33.75 23.35C33.95 23.44 33.75 23.76 33.88 23.98C33.3245 24.7345 32.6947 25.4313 32 26.06C31.83 25.78 32.2 25.54 32.32 25.38C32.8575 24.7483 33.3362 24.0688 33.75 23.35V23.35Z" fill="white"/>
<path fill-rule="evenodd" clip-rule="evenodd" d="M24.38 27.9C24.2311 28.5735 23.9673 29.2162 23.6 29.8C23.32 30.41 23.26 31.16 22.74 31.66C22.9788 30.2938 23.5411 29.0045 24.38 27.9V27.9Z" fill="white"/>
<path fill-rule="evenodd" clip-rule="evenodd" d="M20.41 30.18C20.62 30.3 20.68 30.77 20.83 31.03C20.83 31.14 20.56 31.14 20.59 31.27C20.62 31.4 20.85 31.18 20.9 31.34C21.27 32.28 21.42 33.13 21.76 34.06C21.88 34.27 21.76 34.37 21.68 34.5C22.2 34.8 22.18 35.77 22.48 36.42C21.48 37.7 20.4 38.94 19.27 40.17C18.83 38.17 17.77 35.86 17.27 33.82C18.3852 32.6675 19.4336 31.4522 20.41 30.18V30.18Z" fill="white"/>
<path fill-rule="evenodd" clip-rule="evenodd" d="M31.89 26.25C31.6712 26.682 31.3687 27.0661 31 27.38C31.0095 27.1216 31.1008 26.873 31.2608 26.6699C31.4207 26.4668 31.6411 26.3198 31.89 26.25V26.25Z" fill="white"/>
<path fill-rule="evenodd" clip-rule="evenodd" d="M24.65 29.36C24.72 29.36 24.74 29.45 24.78 29.51C24.68 30.07 24.52 30.66 24.41 31.24C24.3 31.82 24.36 32.48 23.77 32.81C23.9253 31.6291 24.2208 30.471 24.65 29.36V29.36Z" fill="white"/>
<path fill-rule="evenodd" clip-rule="evenodd" d="M15.93 33.84C15.9925 33.9009 16.0416 33.9742 16.0744 34.0551C16.1071 34.136 16.1226 34.2228 16.12 34.31C15.96 34.31 15.87 34.07 15.69 34.08C15.51 34.09 15.78 33.89 15.93 33.84Z" fill="white"/>
<path fill-rule="evenodd" clip-rule="evenodd" d="M30.2999 28C29.8928 28.7421 29.3733 29.4167 28.7599 30C28.1899 30.63 27.6299 31.31 27.0199 31.89C26.9099 31.44 27.3799 31.17 27.6299 30.89C28.3999 30.01 29.4799 28.98 30.1899 28.04L30.2999 28Z" fill="white"/>
<path fill-rule="evenodd" clip-rule="evenodd" d="M15.5 34.29C15.6308 34.4126 15.7544 34.5429 15.87 34.68C15.81 34.97 15.31 34.8 15.39 35.16C15.17 35 15.09 34.4 15.5 34.29Z" fill="white"/>
<path fill-rule="evenodd" clip-rule="evenodd" d="M15 34.93C15.07 35.28 15.1 35.61 14.83 35.83C14.56 36.05 14.6 35.61 14.35 35.83C14.3 35.44 14.66 35.2 15 34.93Z" fill="white"/>
<path fill-rule="evenodd" clip-rule="evenodd" d="M13.9999 36C14.2799 36.14 14.1199 36.91 13.6999 37.08C13.6946 36.9089 13.6502 36.7413 13.5699 36.59C13.6099 36.34 13.8599 36.19 13.9999 36Z" fill="white"/>
<path fill-rule="evenodd" clip-rule="evenodd" d="M13.22 36.82C13.62 37.05 13.16 37.72 12.88 37.99C12.66 37.94 12.83 37.65 12.67 37.47C12.83 37.25 13.05 37 13.22 36.82Z" fill="white"/>
<path fill-rule="evenodd" clip-rule="evenodd" d="M12.54 37.66C12.71 38.55 11.54 39.56 10.9 40.26C10.3306 40.904 9.81861 41.5966 9.37003 42.33C9.06003 42.4 9.20003 42.62 8.93003 42.59C8.72003 43.36 7.93003 43.9 7.53003 44.59C7.21003 44.59 6.83003 44.72 6.53003 44.75C8.69003 42.47 10.61 40.06 12.54 37.66Z" fill="white"/>
<path fill-rule="evenodd" clip-rule="evenodd" d="M25.92 32.72C25.9525 32.6908 25.994 32.6737 26.0376 32.6715C26.0813 32.6693 26.1243 32.6822 26.1595 32.708C26.1947 32.7339 26.22 32.771 26.231 32.8133C26.242 32.8555 26.2381 32.9003 26.22 32.94C26.09 33 26 32.85 25.92 32.72Z" fill="white"/>
<path fill-rule="evenodd" clip-rule="evenodd" d="M25.56 33.15C25.73 33.07 25.82 33.22 25.91 33.34C25.81 33.42 25.82 33.53 25.67 33.58C25.55 33.38 25.47 33.34 25.56 33.15Z" fill="white"/>
<path fill-rule="evenodd" clip-rule="evenodd" d="M23 34.62C23.15 34.62 23.19 34.77 23.26 34.92C23.1 35.07 23.11 34.73 23 34.62Z" fill="white"/>
<path fill-rule="evenodd" clip-rule="evenodd" d="M25.18 33.72C25.2105 33.7161 25.2415 33.7206 25.2696 33.7329C25.2978 33.7452 25.3221 33.7649 25.34 33.79C25.29 34.29 24.79 34.6 24.47 34.97C24.15 35.34 23.86 35.74 23.58 36.1C23.51 35.87 23.81 35.56 24 35.31C24.2345 34.9438 24.5132 34.608 24.83 34.31C24.9309 34.1044 25.0479 33.9071 25.18 33.72V33.72Z" fill="white"/>
<path fill-rule="evenodd" clip-rule="evenodd" d="M11.73 40.94C11.95 41.58 12.02 42.56 11.36 43C11.1947 42.6619 11.1414 42.2799 11.2079 41.9095C11.2745 41.539 11.4574 41.1994 11.73 40.94Z" fill="white"/>
<path fill-rule="evenodd" clip-rule="evenodd" d="M13.58 40.64C13.6707 41.3458 13.4922 42.0599 13.08 42.64C12.19 42.28 13 41.07 13.58 40.64Z" fill="white"/>
<path fill-rule="evenodd" clip-rule="evenodd" d="M22.6699 37C21.716 38.4198 20.6457 39.7577 19.4699 41C19.3699 40.54 19.8699 40.26 20.1299 40C20.8999 39.13 21.7899 38.09 22.5499 37.14L22.6699 37Z" fill="white"/>
<path fill-rule="evenodd" clip-rule="evenodd" d="M9.16994 43.31C9.39994 43.26 9.36994 43.59 9.16994 43.65C9.09994 43.51 9.18994 43.43 9.16994 43.31Z" fill="white"/>
<path fill-rule="evenodd" clip-rule="evenodd" d="M9.00004 45.5C8.17448 45.7465 7.32733 45.914 6.47004 46C5.50572 46.2175 4.57198 46.5534 3.69004 47C6.48889 46.4906 9.32545 46.2163 12.17 46.18C14.0543 46.2249 15.8863 46.8078 17.45 47.86C20.1617 49.3501 22.2797 51.7258 23.45 54.59C20.9 55.65 17.29 57.15 14.26 58.59C12.5394 59.2345 10.8932 60.0626 9.35004 61.06C9.89004 60.89 11.18 60.38 11.45 60.86C10.05 61.26 8.95004 62.19 7.69004 62.17C5.37004 58.17 3.69004 52.34 1.42004 47.57C3.50891 46.5879 5.72303 45.8981 8.00004 45.52C8.27004 45.46 8.76004 45.16 9.00004 45.5ZM2.75004 48.05C2.67004 48.05 2.64004 48.05 2.55004 48.05C2.46004 48.05 2.47004 48.15 2.48004 48.21C3.48004 51.72 6.36004 56.65 7.48004 60.21C7.69004 60.87 7.54004 61.43 8.48004 61.29C6.88469 56.747 4.96991 52.3227 2.75004 48.05V48.05ZM4.43004 50.43C4.80659 50.7608 5.27761 50.9649 5.7765 51.0133C6.27538 51.0618 6.77688 50.9522 7.21004 50.7C7.58467 50.1864 7.75569 49.5523 7.69004 48.92C7.64162 48.6457 7.52575 48.3877 7.35285 48.1693C7.17995 47.9509 6.95546 47.7789 6.69957 47.6688C6.44369 47.5587 6.16444 47.514 5.88697 47.5386C5.6095 47.5633 5.34252 47.6565 5.11004 47.81C4.85925 47.9005 4.63429 48.0507 4.45466 48.2477C4.27503 48.4448 4.14614 48.6826 4.07916 48.9407C4.01218 49.1987 4.00913 49.4692 4.07027 49.7288C4.13141 49.9883 4.2549 50.229 4.43004 50.43V50.43ZM8.50004 59.32C9.57004 60.72 12.57 59.15 11.35 57.16C11.026 56.7605 10.5604 56.5012 10.0502 56.436C9.53989 56.3708 9.02412 56.5047 8.61004 56.81C8.28331 57.14 8.09107 57.5798 8.07073 58.0438C8.0504 58.5077 8.20343 58.9626 8.50004 59.32V59.32ZM18.67 55.05C18.952 55.3832 19.3439 55.6046 19.7748 55.6743C20.2057 55.744 20.6474 55.6573 21.02 55.43C22.94 54.43 21.02 50.95 18.96 52.43C18.5865 52.7472 18.3483 53.1952 18.2944 53.6824C18.2405 54.1695 18.3749 54.6588 18.67 55.05Z" fill="white"/>
<path fill-rule="evenodd" clip-rule="evenodd" d="M18.43 40.79C18.67 40.84 18.48 41.12 18.32 41.18C18.31 41 18.45 40.94 18.43 40.79Z" fill="white"/>
<path fill-rule="evenodd" clip-rule="evenodd" d="M22.41 50.26C22.0721 50.2292 21.7375 50.1689 21.41 50.08C20.2079 48.7777 18.7989 47.683 17.24 46.84C16.5007 46.416 15.7017 46.1058 14.87 45.92C14.42 45.84 13.94 45.92 13.47 45.83C12.113 45.594 10.7372 45.4836 9.35999 45.5C9.35999 45.43 9.35999 45.39 9.35999 45.35C9.35999 45.31 9.35999 45.25 9.35999 45.21C10.1399 45.2682 10.924 45.2177 11.69 45.06C12.7949 45.0845 13.8929 45.2423 14.96 45.53C16.0308 45.691 17.0761 45.9902 18.07 46.42C18.4424 46.6781 18.7936 46.9657 19.12 47.28C20.28 48.19 21.52 48.65 22.41 50.26Z" fill="white"/>
<path fill-rule="evenodd" clip-rule="evenodd" d="M18.82 41.72C18.4058 42.4738 17.8645 43.1504 17.22 43.72C17.11 44.09 16.66 44.72 16.22 44.72C17.1 43.72 17.77 42.59 18.58 41.54C18.76 41.4 18.77 41.62 18.82 41.72Z" fill="white"/>
<path fill-rule="evenodd" clip-rule="evenodd" d="M6.99998 49.35C6.92836 49.6143 6.79466 49.8577 6.60998 50.06C6.08843 50.0742 5.57094 49.9645 5.09998 49.74C4.39998 48.29 6.64998 47.68 6.99998 49.35ZM6.48998 48.81C6.26998 48.54 5.75998 48.64 5.48998 48.97C5.25998 50.44 7.21998 49.71 6.47998 48.81H6.48998Z" fill="white"/>
<path fill-rule="evenodd" clip-rule="evenodd" d="M21.08 47.27C21.63 47.1 22.27 46.71 22.73 46.78C22.45 46.99 21.84 47.31 21.68 47.7C21.42 47.71 21.27 47.44 21.08 47.27Z" fill="white"/>
<path fill-rule="evenodd" clip-rule="evenodd" d="M23.4 46.43C23.4 46.43 23.4 46.37 23.4 46.35C24.29 45.96 25.35 45.52 26.22 45.23C26.9 45.01 27.63 44.53 28.22 44.66C26.7685 45.4236 25.2686 46.0917 23.73 46.66C23.6324 46.5669 23.5211 46.4893 23.4 46.43Z" fill="white"/>
<path fill-rule="evenodd" clip-rule="evenodd" d="M29.3199 44.08C30.3199 43.73 31.5999 43.08 32.6899 42.67C32.9799 42.57 33.4199 42.33 33.6899 42.54C32.7899 43.31 30.9199 43.54 29.5699 44.27C29.4899 44.15 29.3399 44.26 29.3199 44.08Z" fill="white"/>
<path fill-rule="evenodd" clip-rule="evenodd" d="M34.4 42L39 40.09C39.07 40.39 39.31 40.26 39.39 40.54C37.84 41.09 36.19 41.86 34.67 42.32C34.61 42.14 34.46 42.2 34.4 42Z" fill="white"/>
<path fill-rule="evenodd" clip-rule="evenodd" d="M39.9301 39.7C41.4101 39.33 43.5701 37.81 44.6001 38.29C44.4624 38.5069 44.2862 38.6967 44.0801 38.85C44.0801 38.65 44.3801 38.58 44.2001 38.32C43.8501 38.32 43.6801 38.74 43.4301 38.92C43.1801 39.1 43.2001 38.68 42.9801 38.83C42.1844 39.3485 41.3322 39.7745 40.4401 40.1C40.2701 40 40.0601 39.93 39.9301 39.7Z" fill="white"/>
<path fill-rule="evenodd" clip-rule="evenodd" d="M49.87 35.87C49.25 36.46 47.1 37 46 37.7C47.4492 37.392 48.8584 36.9189 50.2 36.29C50.9387 36.9234 51.728 37.4953 52.56 38C53.423 38.4533 54.2402 38.9892 55 39.6C55.28 39.87 55.36 40.23 55.81 40.22C55.81 40.45 55.42 40.22 55.51 40.48C55.81 40.53 56.21 40.35 56.4 40.65C55.34 41.24 54.29 41.58 53.26 42.11C53.01 42.2 53.01 41.7 52.77 41.77C52.53 41.84 52.77 42.12 52.77 42.31L52.07 42.6C52.07 42.45 51.96 42.32 51.87 42.28C49.64 40.79 47.47 39.14 45.22 37.68C45.8284 37.2622 46.5053 36.9542 47.22 36.77C48.16 36.43 49.08 35.79 49.87 35.87Z" fill="white"/>
<path fill-rule="evenodd" clip-rule="evenodd" d="M50.55 35.52C50.55 35.47 50.55 35.45 50.55 35.44C51.4 35.04 52.55 34.63 53.42 34.3C53.84 34.15 54.4201 33.62 54.7701 34.08C53.7701 34.45 52.6801 34.8 51.5801 35.28C51.3801 35.45 51.3701 35.17 51.2201 35.23C51.1101 35.46 50.83 35.71 50.55 35.52Z" fill="white"/>
<path fill-rule="evenodd" clip-rule="evenodd" d="M55.78 33.32C56.53 33.12 57.53 32.61 58.42 32.32C58.9012 32.046 59.4464 31.9045 60 31.91C58.87 32.4 57.23 33.12 56 33.53C55.9 33.42 55.81 33.44 55.78 33.32Z" fill="white"/>
<path fill-rule="evenodd" clip-rule="evenodd" d="M60.89 31.32C61.07 31.23 61.18 31.32 61.38 31.18C61.51 31.48 61 31.72 60.89 31.32Z" fill="white"/>
<path fill-rule="evenodd" clip-rule="evenodd" d="M24.3 46.94L28.7801 45.06C30.5301 46.34 32.3201 47.54 34.0601 48.86C32.9201 49.37 31.52 49.94 30.68 50.42C31.05 50.63 31.5601 50.37 32.0201 50.2C32.8001 49.91 33.7 49.46 34.46 49.2C34.74 49.2 34.92 49.49 35.17 49.59C34.2323 50.0651 33.2711 50.4924 32.2901 50.87C32.1301 50.99 32.07 50.87 31.98 50.79C31.89 50.71 31.93 51.06 31.71 51.11C31.49 51.16 31.55 51.02 31.5 50.93C31.15 51.11 31.19 51.45 30.66 51.55C28.8589 50.4304 27.1591 49.1556 25.58 47.74C25.1192 47.5324 24.6886 47.2633 24.3 46.94V46.94Z" fill="white"/>
<path fill-rule="evenodd" clip-rule="evenodd" d="M30 44.55L30.34 44.41C30.3566 44.4815 30.3465 44.5566 30.3115 44.621C30.2764 44.6855 30.219 44.735 30.15 44.76C30.1114 44.7378 30.078 44.7076 30.0521 44.6713C30.0262 44.6351 30.0085 44.5937 30 44.55V44.55Z" fill="white"/>
<path fill-rule="evenodd" clip-rule="evenodd" d="M35.16 42.52C36.62 42.01 38.16 41.33 39.66 40.7C41.4 42.04 43.42 43.3 45.06 44.45C43.55 45.02 42.06 45.57 40.48 46.24C39.94 45.85 39.29 45.52 38.72 45.13C38.1304 44.7873 37.6139 44.332 37.2 43.79C36.4299 43.5324 35.7311 43.0974 35.16 42.52V42.52Z" fill="white"/>
<path fill-rule="evenodd" clip-rule="evenodd" d="M43.6401 39.1C43.6401 39.66 43.2801 40.5 42.5601 40.44C42.6201 39.92 43.0001 39.06 43.6401 39.1Z" fill="white"/>
<path fill-rule="evenodd" clip-rule="evenodd" d="M40.77 40.24C40.91 40.17 41.04 40.11 41.14 40.15C41.24 40.19 41.08 40.28 41.14 40.37C41.1087 40.3923 41.0725 40.4067 41.0344 40.4121C40.9964 40.4174 40.9576 40.4136 40.9213 40.4009C40.8851 40.3881 40.8524 40.3669 40.8261 40.3389C40.7997 40.3109 40.7805 40.277 40.77 40.24V40.24Z" fill="white"/>
<path fill-rule="evenodd" clip-rule="evenodd" d="M56.42 33.87C57.53 33.25 58.99 32.77 60.23 32.21C62.1 33.45 63.91 34.85 65.77 36.11C64.7 36.6 63.19 37.11 61.93 37.72C61.62 37.4 60.93 37.27 61.09 36.72C60.87 36.72 60.87 36.97 60.69 36.89C60.05 36.2 59.16 36.15 58.62 35.23C57.8207 34.8933 57.0786 34.4345 56.42 33.87V33.87Z" fill="white"/>
<path fill-rule="evenodd" clip-rule="evenodd" d="M65.57 30.24C65.42 30.77 65.19 31.9 64.48 31.73C64.53 31.15 65 30.27 65.57 30.24Z" fill="white"/>
<path fill-rule="evenodd" clip-rule="evenodd" d="M44.59 40.07C44.59 40.55 44.42 41.18 43.86 41.26C43.8024 41.0056 43.8466 40.7388 43.9829 40.5165C44.1193 40.2942 44.3371 40.134 44.59 40.07Z" fill="white"/>
<path fill-rule="evenodd" clip-rule="evenodd" d="M66.5199 31.21C66.8599 31.65 66.52 32.68 65.92 32.56C65.73 32 66.1399 31.59 66.5199 31.21Z" fill="white"/>
<path fill-rule="evenodd" clip-rule="evenodd" d="M21.62 50.33C21.9199 50.3089 22.2197 50.3728 22.485 50.5143C22.7503 50.6558 22.9704 50.8692 23.12 51.13C22.8164 51.185 22.5031 51.136 22.2309 50.9908C21.9587 50.8456 21.7434 50.6128 21.62 50.33V50.33Z" fill="white"/>
<path fill-rule="evenodd" clip-rule="evenodd" d="M45.38 40.49C45.53 40.38 45.55 40.56 45.67 40.49C45.7221 40.5958 45.7491 40.7121 45.7491 40.83C45.7491 40.9479 45.7221 41.0642 45.67 41.17C45.53 41.27 45.5 41.1 45.39 41.17C45.3073 40.9515 45.3038 40.7109 45.38 40.49Z" fill="white"/>
<path fill-rule="evenodd" clip-rule="evenodd" d="M22.42 51.42C22.9 51.63 23.56 51.37 23.78 52.22C23.4862 52.1339 23.1739 52.1339 22.88 52.22C22.74 51.89 22.55 51.72 22.42 51.42Z" fill="white"/>
<path fill-rule="evenodd" clip-rule="evenodd" d="M9.69001 57.59C10.22 57.08 10.69 57.78 10.87 58.46C10.6 59.04 9.70001 58.87 9.24001 58.8C9.15001 58.6 9.05001 58.4 9.16001 58.29C9.45001 58.14 9.50001 58.56 9.77001 58.44C10.53 58.29 10.19 57.5 9.69001 57.59Z" fill="white"/>
<path fill-rule="evenodd" clip-rule="evenodd" d="M23.14 52.49C23.4098 52.5824 23.6877 52.6494 23.97 52.69C24.05 52.86 24.12 53.03 24.19 53.21C23.9586 53.2306 23.7272 53.1701 23.5356 53.0387C23.344 52.9073 23.2041 52.7133 23.14 52.49V52.49Z" fill="white"/>
<path fill-rule="evenodd" clip-rule="evenodd" d="M28.17 51.13C28.42 51.39 28.55 51.94 28.78 52.24C28.4397 51.9638 28.2208 51.5654 28.17 51.13Z" fill="white"/>
<path fill-rule="evenodd" clip-rule="evenodd" d="M27.17 51.82C27.1989 51.8621 27.2188 51.9097 27.2285 51.9598C27.2381 52.0099 27.2372 52.0615 27.226 52.1113C27.2147 52.161 27.1932 52.2079 27.163 52.249C27.1327 52.2901 27.0942 52.3245 27.05 52.35C26.88 52.09 27 51.93 27.17 51.82Z" fill="white"/>
<path fill-rule="evenodd" clip-rule="evenodd" d="M23.8101 53.44C23.9901 53.44 24.1501 53.54 24.3401 53.56L24.6101 54.2C24.2301 54.22 24.0001 54 23.8101 53.44Z" fill="white"/>
<path fill-rule="evenodd" clip-rule="evenodd" d="M27.64 52C27.88 51.89 27.87 52.38 28 52.53C27.76 52.61 27.77 52.12 27.64 52Z" fill="white"/>
<path fill-rule="evenodd" clip-rule="evenodd" d="M25.51 52.93C25.73 52.8 25.92 53.34 25.91 53.38C25.63 53.59 25.64 53.09 25.51 52.93Z" fill="white"/>
<path fill-rule="evenodd" clip-rule="evenodd" d="M36.79 48.2C36.9879 48.1176 37.1918 48.0507 37.4 48C37.47 48.24 37.63 48.28 37.7 48.56C37.4906 48.7502 37.2225 48.8632 36.94 48.88C36.8488 48.6644 36.7979 48.4339 36.79 48.2V48.2Z" fill="white"/>
<path fill-rule="evenodd" clip-rule="evenodd" d="M46.1299 45C44.7499 45.74 43.0199 46.33 41.4999 47C41.3299 46.87 40.9399 46.65 40.9399 46.48C42.3099 45.82 44.0699 45.18 45.5599 44.61C45.741 44.7526 45.9314 44.8829 46.1299 45V45Z" fill="white"/>
<path fill-rule="evenodd" clip-rule="evenodd" d="M26.64 52.52C26.78 52.52 26.98 53.01 26.72 53.04C26.6658 52.9661 26.6303 52.8803 26.6164 52.7898C26.6024 52.6993 26.6105 52.6067 26.64 52.52V52.52Z" fill="white"/>
<path fill-rule="evenodd" clip-rule="evenodd" d="M36.23 48.5L36.52 48.38C36.59 48.66 36.75 48.69 36.83 48.93L36.48 49.08C36.4 48.89 36.32 48.69 36.23 48.5Z" fill="white"/>
<path fill-rule="evenodd" clip-rule="evenodd" d="M37.6899 47.89L37.9799 47.77C37.9799 47.98 38.2799 48.28 38.1899 48.43C37.8899 48.56 37.8699 48 37.6899 47.89Z" fill="white"/>
<path fill-rule="evenodd" clip-rule="evenodd" d="M38.38 47.6L38.62 47.5C38.62 47.72 39.01 48.08 38.77 48.19C38.53 48.3 38.52 47.77 38.38 47.6Z" fill="white"/>
<path fill-rule="evenodd" clip-rule="evenodd" d="M39 47.33C39.22 47.23 39.33 47.82 39.32 47.94C39.18 47.9 39.14 47.51 39 47.33Z" fill="white"/>
<path fill-rule="evenodd" clip-rule="evenodd" d="M39.49 47.13L39.67 47.06C39.75 47.27 39.84 47.49 39.93 47.7C39.65 47.85 39.63 47.34 39.49 47.13Z" fill="white"/>
<path fill-rule="evenodd" clip-rule="evenodd" d="M50.5399 42.5C50.7399 42.56 50.8799 42.76 50.9799 43.06C50.8983 43.1475 50.7991 43.2168 50.6888 43.2634C50.5785 43.3099 50.4596 43.3326 50.3399 43.33L50.1899 43C50.3299 42.83 50.5199 42.7 50.5399 42.5Z" fill="white"/>
<path fill-rule="evenodd" clip-rule="evenodd" d="M35.85 48.73C36.05 48.67 36.08 49.02 36.19 49.2C36.0262 49.0868 35.9062 48.9209 35.85 48.73Z" fill="white"/>
<path fill-rule="evenodd" clip-rule="evenodd" d="M40.09 47.09C40.26 47.09 40.38 47.32 40.55 47.37C40.72 47.42 40.35 47.49 40.28 47.55L40.09 47.09Z" fill="white"/>
<path fill-rule="evenodd" clip-rule="evenodd" d="M47.2401 44.09L47.4301 44.55L47.3201 44.6C47.3001 44.44 47.0001 44.15 47.2401 44.09Z" fill="white"/>
<path fill-rule="evenodd" clip-rule="evenodd" d="M27.38 52.49C27.46 52.49 27.49 52.61 27.53 52.7L27.3 52.79C27.17 52.63 27.4 52.61 27.38 52.49Z" fill="white"/>
<path fill-rule="evenodd" clip-rule="evenodd" d="M47.61 44L47.9 43.88C47.96 44.01 48.01 44.15 48.07 44.28C47.8 44.49 47.69 44.26 47.61 44Z" fill="white"/>
<path fill-rule="evenodd" clip-rule="evenodd" d="M48.25 43.73L48.6 43.58C48.629 43.6617 48.6624 43.7418 48.7 43.82C48.88 43.73 48.7 43.5 49.03 43.47C49.15 43.63 49.03 43.68 49.12 43.84L48.59 44.06C48.53 43.83 48.28 44.06 48.25 43.73Z" fill="white"/>
<path fill-rule="evenodd" clip-rule="evenodd" d="M49.55 43.25L49.9001 43.11L50.05 43.45L49.7001 43.6L49.55 43.25Z" fill="white"/>
<path fill-rule="evenodd" clip-rule="evenodd" d="M57.23 40C57.45 39.81 57.65 40.14 57.38 40.21C57.35 40.13 57.26 40.15 57.23 40Z" fill="white"/>
<path fill-rule="evenodd" clip-rule="evenodd" d="M59.93 39C60.01 39 60.04 39.12 60.08 39.21L59.38 39.5C59.26 38.89 60 39.5 59.93 39Z" fill="white"/>
<path fill-rule="evenodd" clip-rule="evenodd" d="M61.53 38.57C61.17 38.67 60.72 39 60.41 38.97C60.61 38.85 61.23 38.19 61.53 38.57Z" fill="white"/>
<path fill-rule="evenodd" clip-rule="evenodd" d="M66.61 36.64C65.2418 37.2418 63.8394 37.7627 62.41 38.2V38.08C62.41 38.02 62.41 37.97 62.41 37.94C63.26 37.62 64.36 37.08 65.26 36.75C65.71 36.57 66.25 36.31 66.61 36.64Z" fill="white"/>
<path fill-rule="evenodd" clip-rule="evenodd" d="M68.5 35.44C68.63 35.5 68.71 35.72 68.81 35.86C68.59 36 68.61 35.57 68.5 35.44Z" fill="white"/>
<path fill-rule="evenodd" clip-rule="evenodd" d="M68.19 35.84C68.27 35.84 68.3 35.97 68.34 36.05L68.17 36.12C68 36 68.2 36 68.19 35.84Z" fill="white"/>
<path fill-rule="evenodd" clip-rule="evenodd" d="M24.17 54.45C24.3312 54.5018 24.4804 54.585 24.6091 54.6949C24.7379 54.8048 24.8435 54.939 24.92 55.09C24.6851 55.042 24.4613 54.9504 24.26 54.82C24.14 54.66 24.28 54.61 24.17 54.45Z" fill="white"/>
<path fill-rule="evenodd" clip-rule="evenodd" d="M22.7 55.68C23.27 55.31 23.51 55.75 23.91 55.79C23.8299 55.8756 23.7313 55.9417 23.6218 55.9834C23.5123 56.0251 23.3948 56.0413 23.2781 56.0307C23.1614 56.0201 23.0486 55.983 22.9485 55.9222C22.8483 55.8614 22.7633 55.7786 22.7 55.68V55.68Z" fill="white"/>
<path fill-rule="evenodd" clip-rule="evenodd" d="M11.35 60.58C11.5152 60.4206 11.7223 60.3116 11.9472 60.2656C12.1721 60.2195 12.4054 60.2384 12.62 60.32C12.4511 60.4734 12.2441 60.5785 12.0206 60.6242C11.7972 60.67 11.5655 60.6547 11.35 60.58V60.58Z" fill="white"/>
<path fill-rule="evenodd" clip-rule="evenodd" d="M12.58 60.07C12.89 59.73 13.51 59.67 13.71 60C13.5365 60.0885 13.3466 60.1404 13.1522 60.1525C12.9578 60.1645 12.763 60.1364 12.58 60.07V60.07Z" fill="white"/>
<path fill-rule="evenodd" clip-rule="evenodd" d="M13.66 59.55C13.8169 59.4268 14.0106 59.3597 14.21 59.3597C14.4095 59.3597 14.6032 59.4268 14.76 59.55C14.604 59.675 14.41 59.7431 14.21 59.7431C14.0101 59.7431 13.8161 59.675 13.66 59.55Z" fill="white"/>
<path fill-rule="evenodd" clip-rule="evenodd" d="M14.61 59.21C14.95 58.79 15.4 59.09 15.72 59.09C15.38 59.52 14.92 59.25 14.61 59.21Z" fill="white"/>
<path fill-rule="evenodd" clip-rule="evenodd" d="M15.6 58.8C15.91 58.41 16.37 58.63 16.6 58.7C16.34 59.11 15.89 58.84 15.6 58.8Z" fill="white"/>
<path fill-rule="evenodd" clip-rule="evenodd" d="M16.65 58.36C17 57.94 17.47 58.22 17.78 58.29C17.42 58.74 17 58.38 16.65 58.36Z" fill="white"/>
<path fill-rule="evenodd" clip-rule="evenodd" d="M17.63 57.94C17.99 57.5 18.43 57.88 18.77 57.88C18.4 58.34 18 57.94 17.63 57.94Z" fill="white"/>
<path fill-rule="evenodd" clip-rule="evenodd" d="M18.5601 57.55C18.5601 57.4 18.9201 57.38 19.0601 57.28C19.2007 57.4206 19.3832 57.5119 19.5801 57.54C19.2501 58 18.9001 57.49 18.5601 57.55Z" fill="white"/>
<path fill-rule="evenodd" clip-rule="evenodd" d="M19.49 57.16C20.0812 56.8367 20.6963 56.5592 21.33 56.33C21.4257 56.4723 21.5666 56.578 21.73 56.63C21.07 57.08 20 57.52 19.49 57.16Z" fill="white"/>
<path fill-rule="evenodd" clip-rule="evenodd" d="M21.7 56.24C22.05 55.79 22.51 56.08 22.78 56.24C22.44 56.64 22 56.36 21.7 56.24Z" fill="white"/>
<path fill-rule="evenodd" clip-rule="evenodd" d="M23.8199 55.42C24.1599 54.98 24.5499 55.42 24.8199 55.42C24.6799 55.65 24.2299 55.66 24.1299 55.71C24.0999 55.52 23.9999 55.4 23.8199 55.42Z" fill="white"/>
<path fill-rule="evenodd" clip-rule="evenodd" d="M47.75 46.13C42.68 48.49 37.04 50.83 31.75 52.84C30.0417 53.6522 28.269 54.3212 26.45 54.84L26.4 54.72C26.4 54.66 26.4 54.61 26.4 54.58C32.4 52.21 38.9 49.47 45.23 46.82C46.09 46.48 47 45.93 47.75 46.13Z" fill="white"/>
<path fill-rule="evenodd" clip-rule="evenodd" d="M67.8 37.85C67.88 38.21 67.48 38.16 67.37 38.3C67.26 38.44 67.53 38.58 67.26 38.69C64.47 39.6 61.61 40.76 58.72 41.8C55.83 42.84 53.04 44.12 50.27 44.8C50.21 44.8 50.16 44.8 50.13 44.8C50.1 44.8 50.13 44.69 50.13 44.66C55.86 42.47 61.79 40 67.8 37.85Z" fill="white"/>
<path fill-rule="evenodd" clip-rule="evenodd" d="M15 61C14.54 61.45 12.87 62.57 11.95 62.35C12.01 61.93 13.52 61.2 14.24 60.98C14.51 60.86 14.85 60.77 15 61Z" fill="white"/>
<path fill-rule="evenodd" clip-rule="evenodd" d="M17.86 59.63C18.01 60.02 17.25 60.2 17.17 59.78C17.29 59.59 17.73 59.45 17.86 59.63Z" fill="white"/>
<path fill-rule="evenodd" clip-rule="evenodd" d="M23.2799 57.22C23.4799 57.48 23.1699 57.91 23.0099 58.22C22.8499 58.53 22.5899 58.9 22.4099 59.22C22.0399 59.89 21.8299 60.9 21.0099 61.11C20.9099 60.74 21.2299 60.36 21.3899 60.11C21.8892 59.1026 22.5033 58.1563 23.2199 57.29L23.2799 57.22Z" fill="white"/>
<path fill-rule="evenodd" clip-rule="evenodd" d="M68 38.54C68.54 38.27 68.82 39.02 68.71 39.41C68.3 39.43 68 38.93 68 38.54Z" fill="white"/>
<path fill-rule="evenodd" clip-rule="evenodd" d="M21.26 58.27C21.32 58.77 20.95 59.21 20.74 59.65C20.53 60.09 20.51 60.75 19.93 60.81C19.9145 60.308 20.0288 59.8105 20.2618 59.3655C20.4947 58.9206 20.8386 58.5433 21.26 58.27V58.27Z" fill="white"/>
<path fill-rule="evenodd" clip-rule="evenodd" d="M24.21 57.17C24.36 57.76 23.91 58.4 23.61 58.99C23.31 59.58 23.08 60.35 22.51 60.61C22.5594 60.1001 22.7309 59.6096 23.01 59.18C23.34 58.5 23.66 57.91 24.01 57.24L24.21 57.17Z" fill="white"/>
<path fill-rule="evenodd" clip-rule="evenodd" d="M10.07 63.38C10.07 63.38 10.13 63.38 10.15 63.38C12.87 68.88 15.31 74.99 17.77 80.9C19.32 84.61 21.26 88.31 22.33 91.9C21.9287 91.5048 21.6122 91.0318 21.4 90.51C20.54 88.95 19.88 87.19 19.08 85.51C17.08 81.08 15.08 76.2 13.08 71.51C12.08 69.1 10.98 66.75 10.21 64.51C10.0732 64.2261 10.0015 63.9152 10 63.6C9.98972 63.5811 9.98335 63.5602 9.98131 63.5388C9.97927 63.5173 9.98158 63.4956 9.98812 63.4751C9.99466 63.4545 10.0053 63.4355 10.0194 63.4192C10.0334 63.4028 10.0507 63.3895 10.07 63.38Z" fill="white"/>
<path fill-rule="evenodd" clip-rule="evenodd" d="M25.2099 57.09C25.2999 57.03 25.3299 57.09 25.3699 57.16C25.1799 57.4 25.2099 57.77 25.0799 58.1C24.7999 58.83 24.4099 59.81 23.6899 59.99C24.1045 58.9778 24.6134 58.0068 25.2099 57.09V57.09Z" fill="white"/>
<path fill-rule="evenodd" clip-rule="evenodd" d="M32.49 54.24C32.14 54.9 32.03 56.13 31.14 56.24C31.2177 55.8325 31.3775 55.4451 31.6096 55.1013C31.8416 54.7575 32.1412 54.4645 32.49 54.24V54.24Z" fill="white"/>
<path fill-rule="evenodd" clip-rule="evenodd" d="M66.1401 40.26C66.1858 40.3516 66.2096 40.4526 66.2096 40.555C66.2096 40.6574 66.1858 40.7584 66.1401 40.85C66.4179 40.9635 66.7058 41.0506 67.0001 41.11C67.0478 41.181 67.0733 41.2645 67.0733 41.35C67.0733 41.4355 67.0478 41.5191 67.0001 41.59C66.1701 42 64.7501 40.37 66.1401 40.26Z" fill="white"/>
<path fill-rule="evenodd" clip-rule="evenodd" d="M29.4899 55.57C29.6299 55.57 29.5599 55.95 29.5499 56.02C29.3911 56.7604 28.9498 57.4097 28.3199 57.83C28.4535 56.9694 28.8643 56.1759 29.4899 55.57V55.57Z" fill="white"/>
<path fill-rule="evenodd" clip-rule="evenodd" d="M47.6301 48C47.7001 48 47.7201 48.08 47.7601 48.15C47.3459 48.8875 46.8919 49.6019 46.4001 50.29C46.3001 49.46 47.1101 48.65 47.6301 48Z" fill="white"/>
<path fill-rule="evenodd" clip-rule="evenodd" d="M49.6 47.27C49.2869 48.1605 48.7894 48.9749 48.14 49.66C48.2978 48.704 48.8214 47.8468 49.6 47.27V47.27Z" fill="white"/>
<path fill-rule="evenodd" clip-rule="evenodd" d="M30.93 55.1C30.41 57.57 28.65 59.53 28.08 61.97C27.69 61.75 28.01 61.22 28.08 60.97C28.5131 59.8888 29.0349 58.8452 29.64 57.85C29.57 57.75 29.43 57.85 29.4 57.61C29.6723 56.6498 30.2013 55.782 30.93 55.1Z" fill="white"/>
<path fill-rule="evenodd" clip-rule="evenodd" d="M26.33 57.17C26.58 57.47 26.22 57.96 26.06 58.31C25.9 58.66 25.74 59.21 25.26 59.19C25.2 58.89 25.47 58.46 25.65 58.19C25.8204 57.8157 26.05 57.4713 26.33 57.17V57.17Z" fill="white"/>
<path fill-rule="evenodd" clip-rule="evenodd" d="M33.36 54.35C33.44 54.35 33.49 54.42 33.58 54.35C33.44 54.75 33.31 55.35 32.74 55.45C32.66 55 33.2 54.76 33.36 54.35Z" fill="white"/>
<path fill-rule="evenodd" clip-rule="evenodd" d="M62.7101 42.18C62.3101 42.96 62.2301 44.18 61.3101 44.54C61.3183 44.0589 61.4518 43.5883 61.6973 43.1745C61.9428 42.7606 62.2918 42.4179 62.7101 42.18V42.18Z" fill="white"/>
<path fill-rule="evenodd" clip-rule="evenodd" d="M60.79 43C60.7834 43.3421 60.6979 43.678 60.54 43.9816C60.3822 44.2852 60.1563 44.5482 59.88 44.75C59.8997 44.4106 59.9909 44.0792 60.1478 43.7776C60.3046 43.476 60.5235 43.211 60.79 43V43Z" fill="white"/>
<path fill-rule="evenodd" clip-rule="evenodd" d="M35.2101 54.05C35.2202 54.4354 35.0845 54.8104 34.8301 55.1C34.7401 55.1 34.6501 55.1 34.5501 55.1L34.4301 54.81C34.7401 54.59 34.8701 54.09 35.2101 54.05Z" fill="white"/>
<path fill-rule="evenodd" clip-rule="evenodd" d="M50.46 47.86C50.46 48.38 50.36 49.3 49.75 49.26C49.79 48.74 50 48.05 50.46 47.86Z" fill="white"/>
<path fill-rule="evenodd" clip-rule="evenodd" d="M33.66 54.91C33.674 54.9098 33.6878 54.9138 33.6994 54.9214C33.7111 54.9291 33.7203 54.9401 33.7257 54.953C33.731 54.966 33.7324 54.9802 33.7296 54.9939C33.7269 55.0076 33.72 55.0202 33.71 55.03C33.2939 56.0951 32.8199 57.1366 32.29 58.15C31.909 59.2386 31.4023 60.2789 30.78 61.25C30.8438 60.6813 31.0353 60.1343 31.34 59.65C31.9402 57.9909 32.718 56.4017 33.66 54.91V54.91Z" fill="white"/>
<path fill-rule="evenodd" clip-rule="evenodd" d="M54.57 46.41C54.65 46.76 54.43 46.99 54.32 47.27C54.6915 47.3696 55.0757 47.4134 55.46 47.4C55.29 48.24 54.34 47.47 53.94 47.4C53.75 46.89 54.14 46.17 54.57 46.41Z" fill="white"/>
<path fill-rule="evenodd" clip-rule="evenodd" d="M32.25 55.78C31.33 57.88 30.11 59.85 29.32 62C29.2166 61.5374 29.2767 61.0533 29.49 60.63C30.18 58.94 31.21 57.4 32.05 55.79C32.13 55.74 32.17 55.81 32.25 55.78Z" fill="white"/>
<path fill-rule="evenodd" clip-rule="evenodd" d="M13.39 64.44C12.89 63.77 13.82 63.44 14.11 63.73C14.4 64.02 13.89 64.66 13.39 64.44Z" fill="white"/>
<path fill-rule="evenodd" clip-rule="evenodd" d="M69.36 40.75C69.45 40.75 69.48 40.75 69.56 40.75C72.5094 46.852 75.0159 53.1583 77.06 59.62C74.33 53.82 71.7 47.22 69.37 40.96C69.32 40.86 69.39 40.83 69.36 40.75Z" fill="white"/>
<path fill-rule="evenodd" clip-rule="evenodd" d="M63.3801 43.46C63.4701 43.69 63.3101 43.82 63.2701 43.99C62.8001 44.11 62.8701 43.5 63.3801 43.46Z" fill="white"/>
<path fill-rule="evenodd" clip-rule="evenodd" d="M34.6001 55.68C34.1074 57.4186 33.3772 59.081 32.4301 60.62C32.9685 58.8981 33.6962 57.2413 34.6001 55.68V55.68Z" fill="white"/>
<path fill-rule="evenodd" clip-rule="evenodd" d="M15 64.44C18.2 63.02 21.55 61.76 24.48 60.8C25.0129 60.611 25.5746 60.5163 26.14 60.52C26.61 61.17 26.76 61.96 25.79 62.3C24.82 62.64 23.1 63.48 21.79 63.93C21.14 64.14 20.24 64.25 19.63 64.49C18.35 65 17 65.69 16 66.09C15.37 66 14.65 65.06 15 64.44Z" fill="white"/>
<path fill-rule="evenodd" clip-rule="evenodd" d="M50.5 50.24C50.7176 50.4247 50.8715 50.673 50.94 50.95C51.18 50.95 51.37 51.05 51.39 51.37C50.87 51.64 50.48 51.73 50.39 52.21C49.85 52.35 49.54 51.93 49.29 51.37C49.3233 51.3377 49.3495 51.2988 49.3667 51.2557C49.3839 51.2126 49.3919 51.1664 49.39 51.12C49.56 51.01 49.68 51.05 49.82 51.01C49.92 50.71 49.94 50.2 50.5 50.24Z" fill="white"/>
<path fill-rule="evenodd" clip-rule="evenodd" d="M65.06 45.5C64.96 45.91 64.39 46.12 63.93 46.38C64.32 46.38 64.81 46.18 65.04 46.6C63.99 46.6 62.4 48.34 61.37 47.8C60.5867 47.9699 59.8411 48.2817 59.17 48.72C58.93 48.23 59.4 48.02 59.63 47.72C59.47 47.63 59.23 47.72 59.1 47.6C59.0654 47.5445 59.0471 47.4804 59.0471 47.415C59.0471 47.3496 59.0654 47.2855 59.1 47.23C60.59 46.55 62.68 45.39 63.92 45.69C64.2634 45.4878 64.6696 45.4201 65.06 45.5V45.5Z" fill="white"/>
<path fill-rule="evenodd" clip-rule="evenodd" d="M69 43.56C69 43.9 68.34 44.17 68.22 44.3C68 43.8 68.61 43.21 69 43.56Z" fill="white"/>
<path fill-rule="evenodd" clip-rule="evenodd" d="M14.09 66.61C14.1712 66.6823 14.235 66.772 14.2766 66.8725C14.3181 66.9729 14.3364 67.0815 14.33 67.19L14.04 67.31C13.83 67.12 13.75 66.73 14.09 66.61Z" fill="white"/>
<path fill-rule="evenodd" clip-rule="evenodd" d="M67.57 44.65C67.69 44.5318 67.8379 44.4458 68 44.4C68.1445 44.4837 68.2498 44.6212 68.293 44.7824C68.3361 44.9437 68.3135 45.1154 68.23 45.26C67.86 45.42 67.81 45.26 67.59 45.53C67.38 45.53 67.26 45.3 67.07 45.26C66.88 45.22 67.01 45.56 66.98 45.71C66.63 45.92 66.43 45.71 66.3 45.38C66.62 45.13 67.08 44.08 67.57 44.65Z" fill="white"/>
<path fill-rule="evenodd" clip-rule="evenodd" d="M20.84 68.36C21.8642 67.7729 22.9384 67.2776 24.05 66.88C24.39 66.77 25.1 66.55 25.23 66.93C25.31 67.14 24.81 67.66 24.52 67.84C23.4 68.56 21.05 69.34 20.84 68.36Z" fill="white"/>
<path fill-rule="evenodd" clip-rule="evenodd" d="M33.62 75.51C31.51 76.8 26.89 77.94 24.5 79.2C23.95 79.49 22.68 80.06 22.61 78.76C22.91 78.56 23.08 78.09 23.44 77.76C24.4809 77.159 25.5841 76.6728 26.73 76.31C28.73 75.45 30.8 74.38 32.38 74.48C32.53 74.8 33.18 74.87 32.98 75.26C33.18 75.4 33.5 75.22 33.62 75.51Z" fill="white"/>
<path fill-rule="evenodd" clip-rule="evenodd" d="M38.24 83.76C37.05 86.13 35.91 88.52 34.91 90.97C35.04 91.23 35.4 91.44 35.37 91.73C34.81 91.98 34.37 91.04 34.37 90.57C34.4414 90.5555 34.5155 90.5666 34.5795 90.6014C34.6435 90.6361 34.6933 90.6923 34.72 90.76C35.84 88.4 36.58 85.89 38.24 83.76Z" fill="white"/>
<path fill-rule="evenodd" clip-rule="evenodd" d="M34.19 85.66C33.19 87.66 32.47 89.81 31.35 91.78C31.51 92.26 31.84 92.78 31.57 93.12C31.2821 92.7518 31.062 92.3353 30.92 91.89C30.72 91.83 30.43 91.98 30.21 91.98C30.33 92.42 30.81 92.98 30.46 93.25C30.2334 93.0922 30.0491 92.8811 29.9235 92.6351C29.7979 92.3892 29.7349 92.1161 29.74 91.84C30.25 91.74 30.84 91.41 31.22 91.63C32.22 89.63 32.96 87.63 33.99 85.68C34.08 85.62 34.11 85.69 34.19 85.66Z" fill="white"/>
<path fill-rule="evenodd" clip-rule="evenodd" d="M39.34 83.43C39.43 83.37 39.47 83.43 39.5 83.5C38.39 85.81 37.28 88.12 36.27 90.5C36.4294 90.7266 36.573 90.9638 36.7 91.21C36.38 91.42 36.24 91.21 36.07 91C35.9 90.79 35.96 91.47 35.65 91.31C35.8045 90.9262 35.8428 90.5054 35.76 90.1C35.95 89.95 36 90.1 36.12 90.16C37.19 87.89 38.06 85.58 39.34 83.43Z" fill="white"/>
<path fill-rule="evenodd" clip-rule="evenodd" d="M62.39 80.53C63.3 78.94 64.19 77.35 65.03 75.73C65.12 75.67 65.16 75.73 65.19 75.8C64.76 76.61 64.33 77.4 63.87 78.2C63.5304 79.0643 63.028 79.8553 62.39 80.53V80.53Z" fill="white"/>
<path fill-rule="evenodd" clip-rule="evenodd" d="M28.1099 95.46C26.5199 96.82 24.1099 96.29 23.6899 94.38L23.8699 94.3C24.8299 95.78 26.3399 96 28.1099 95.46Z" fill="white"/>
<path fill-rule="evenodd" clip-rule="evenodd" d="M25.8201 93.76C26.0794 94.0399 26.4047 94.2506 26.7662 94.3728C27.1277 94.4951 27.514 94.525 27.8901 94.46C28.3901 94.46 29.0301 93.96 29.3901 94.46C28.8118 94.9258 28.0879 95.1731 27.3455 95.1585C26.6031 95.1438 25.8895 94.8682 25.3301 94.38C25.2701 94.07 25.5801 93.93 25.8201 93.76Z" fill="white"/>
<path fill-rule="evenodd" clip-rule="evenodd" d="M37.8701 90.2C37.4201 90.49 37.0801 89.97 37.0601 89.59C37.4801 89.43 37.6201 89.94 37.8701 90.2Z" fill="white"/>
<path fill-rule="evenodd" clip-rule="evenodd" d="M53.68 83.57C52.8 84.57 52.85 82.5 53.68 83.57V83.57Z" fill="white"/>
<path fill-rule="evenodd" clip-rule="evenodd" d="M55.58 83.05C55.65 83.19 55.58 83.26 55.58 83.39C55.5091 83.4277 55.4302 83.4473 55.3499 83.4473C55.2697 83.4473 55.1908 83.4277 55.12 83.39C54.85 83 55.37 82.75 55.58 83.05Z" fill="white"/>
<path fill-rule="evenodd" clip-rule="evenodd" d="M32.84 93.21C32.15 93.1 31.23 94.3 30.53 93.9C30.53 93.47 31.33 93.29 31.79 93.16C32.25 93.03 32.68 92.87 32.84 93.21Z" fill="white"/>
<path fill-rule="evenodd" clip-rule="evenodd" d="M47.71 6.42001C48 6.77001 48.03 5.72001 48.42 5.51001C48.6944 5.64517 48.9237 5.85707 49.08 6.12001C47.87 7.43001 46.73 8.78001 45.57 10.12C45.45 10.12 45.43 9.65001 45.27 9.42001C46.1336 8.46197 46.948 7.46068 47.71 6.42001V6.42001Z" fill="white"/>
<path fill-rule="evenodd" clip-rule="evenodd" d="M24 34.43C24.15 34.72 23.77 34.79 23.77 35.01C23.65 34.94 23.8 34.56 24 34.43Z" fill="white"/>
<path fill-rule="evenodd" clip-rule="evenodd" d="M65.39 29.84C65.39 29.67 65.59 29.63 65.58 29.48C64.65 30.48 62.49 30.86 61.67 31.4C61.67 31.31 61.61 31.16 61.52 31.19C62.94 30.58 65.03 29.35 66.32 29.45C66.22 29.53 65.68 29.69 65.39 29.84Z" fill="white"/>
<path fill-rule="evenodd" clip-rule="evenodd" d="M19.43 54.25C19.43 54.25 19.3 54.25 19.29 54.25C18.5 53.12 20.36 52.52 20.96 53.34C21.0748 53.4893 21.1451 53.668 21.1628 53.8556C21.1805 54.0431 21.1449 54.2318 21.06 54.4C20.64 55 20 54.84 19.43 54.25ZM20.43 53.41C20.0558 53.3289 19.6647 53.3971 19.34 53.6C18.87 54.63 21.24 54.58 20.45 53.41H20.43Z" fill="white"/>
<path fill-rule="evenodd" clip-rule="evenodd" d="M68.4 78.07L69.92 77.44C70.29 76.92 70.48 76.32 70.79 75.78C70.79 75.72 70.33 75.47 70.46 75.16C71.79 74.53 72.09 73.01 72.6 71.94C73.11 70.87 73.5 70.07 73.99 69.23C73.3574 71.1226 72.5749 72.9618 71.65 74.73C71.83 74.84 71.9 75.22 72.02 75.46C72.1897 75.3054 72.3041 75.0995 72.3456 74.8738C72.3871 74.648 72.3536 74.4149 72.25 74.21C72.52 74.14 72.54 73.97 72.81 73.91C73.57 72.4 74.23 70.91 75 69.36C74.82 70.76 73.85 72.26 73.25 73.65C73.67 73.59 73.99 74.26 73.94 74.65C73.68 74.56 73.53 74.16 73.24 74.12C72.74 74.31 72.77 74.66 72.93 75C72.3 75 72.18 76.12 71.78 76.65C73.78 76.35 73.78 74.96 74.47 73.95C74.39 73.71 74.23 73.67 74.17 73.39C74.3292 73.2445 74.5345 73.1596 74.75 73.15C75.42 71.85 75.88 70.46 76.65 69.15C76.2207 70.4584 75.7234 71.7435 75.16 73C75.252 72.9889 75.3453 72.997 75.434 73.0237C75.5227 73.0505 75.6049 73.0954 75.6754 73.1555C75.7459 73.2156 75.8031 73.2898 75.8435 73.3732C75.8839 73.4566 75.9065 73.5474 75.91 73.64C76.91 71.69 77.47 69.56 78.76 67.72C78.5123 68.5787 78.1772 69.4097 77.76 70.2C77.37 71.05 77 71.92 76.63 72.72C76.79 72.95 76.93 73.06 76.95 73.34C76.76 73.34 76.58 73.34 76.48 73.2C76.1952 73.7849 75.9448 74.386 75.73 75C76.0939 74.9574 76.4367 74.807 76.7147 74.5683C76.9926 74.3296 77.1929 74.0133 77.29 73.66C77.52 73.1 77.8 72.66 77.43 72.04C77.54 71.81 77.8 72.04 77.9 72.18C78.4165 70.7989 79.0874 69.4805 79.9 68.25C79.7242 68.7378 79.5136 69.2123 79.27 69.67C78.67 71.14 77.99 72.75 77.35 74.24C78.92 73.81 79.05 72.66 79.57 71.53C79.8212 70.844 80.1186 70.1759 80.46 69.53C80.4093 70.1614 80.2252 70.7749 79.92 71.33C79.69 71.94 79.43 72.55 79.23 73.12C79.78 72.72 80.3 72.31 80.84 71.9C81.08 71.41 80.7 70.66 81.17 70.26C80.98 69.15 79.82 67.65 80.11 66.74C82.21 69.86 83.5 74.43 79.3 75.08C79.3 74.67 80.04 74.45 80.3 74.08C80.56 73.71 80.73 73.15 81.01 72.83C80.52 73.47 79.43 73.71 78.8 74.23C78.42 74.55 78.53 75.07 78.24 75.36C78.37 75.42 78.65 75.36 78.56 75.63C77.6324 75.958 76.7743 76.4566 76.03 77.1C75.83 77.25 75.83 76.89 75.61 77.1C71.36 79 67 80.89 62.43 82.57C53.54 85.84 44.72 90 36.06 93.22C35.06 93.57 34.2 94.02 33.13 94.38C32.37 94.64 31.02 95.13 30.53 94.86C31.12 94.14 32.11 94.07 32.94 93.78C35.85 92.73 39.11 91 42 90C43 89.64 44.1 89.12 45.26 88.63C46.367 88.2954 47.4361 87.8463 48.45 87.29C48.9319 86.5876 49.3029 85.8152 49.55 85C50.62 82.57 51.47 80.41 52.75 78.12C52.5 78.884 52.1959 79.6292 51.84 80.35C50.93 82.56 49.84 84.87 48.93 87.11L51.14 86.18C52.76 82.97 53.99 79.61 55.74 76.45L53.18 77.53C52.2903 77.7926 51.4319 78.1514 50.62 78.6C50.0944 79.3353 49.68 80.144 49.39 81C48.57 82.74 47.92 84.23 47.14 85.91C46.878 86.7774 46.4501 87.5857 45.88 88.29C45.9149 87.8683 46.0485 87.4606 46.27 87.1C47.4567 84.239 48.7919 81.4419 50.27 78.72C49.8 79.03 49.04 79.08 48.52 79.45C47.958 80.1415 47.4968 80.9092 47.15 81.73C46.68 82.58 46.3 83.39 45.95 84.08C45.3037 85.726 44.4716 87.2928 43.47 88.75C44.7694 85.57 46.3419 82.5085 48.17 79.6C47.57 79.99 46.77 80.01 46.17 80.45C45.6325 81.0841 45.2187 81.8134 44.95 82.6C44.17 84.16 43.58 85.49 42.95 87.01C42.7146 87.7649 42.2994 88.4512 41.74 89.01C42.879 86.1345 44.2155 83.3412 45.74 80.65C45.11 81.07 44.27 81.06 43.64 81.53C43.192 82.1329 42.8536 82.8099 42.64 83.53C42.04 85 41.55 86.26 41.04 87.69C40.8 88.36 40.75 89.16 40.2 89.62C40.9031 86.9301 41.84 84.3068 43 81.78C42.59 82.1 42 82.01 41.58 82.31C41.2073 82.7819 40.9227 83.3171 40.74 83.89C40.02 85.49 39.38 87.28 38.83 88.8C39.1832 88.701 39.5568 88.701 39.91 88.8C39.99 89.03 40.19 89.3 40.04 89.44C39.7 89.59 39.9 89.15 39.63 89.12C39.411 89.1229 39.1931 89.1497 38.98 89.2C38.87 89.4 39.34 89.66 39.21 89.92C38.92 90.01 38.86 89.52 38.65 89.4C38.33 89.53 38.42 90.48 37.9 90.53C38.9 87.85 39.9 85.18 41.06 82.53C38.22 83.53 34.47 85.38 31.67 86.4C31.4005 86.4549 31.1385 86.5422 30.89 86.66C30.57 86.88 30.66 87.27 30.36 87.5C30.24 87.23 30.45 87.08 30.43 86.85C28.49 87.59 26.31 88.9 24.6 89.09C24.6 89.5 24.6 89.76 24.52 90.22C24.14 90.07 23.97 89.57 23.77 89.22C21.77 85.79 19.97 79.75 18.09 76.02C18.1502 75.8657 18.1502 75.6943 18.09 75.54C17.58 73.54 16.09 71.32 15.59 69.27C15.4619 69.2353 15.3447 69.1685 15.2496 69.0759C15.1546 68.9832 15.0847 68.8679 15.0467 68.7407C15.0086 68.6136 15.0036 68.4788 15.0322 68.3492C15.0608 68.2196 15.122 68.0994 15.21 68C20.62 65.93 26.94 63 33.08 60.71C34.4 60.22 35.83 59.71 37.25 59.23C47.55 55.45 57.62 50.57 67.45 46.97C68.056 46.6086 68.7446 46.4089 69.45 46.39C69.68 46.57 69.61 46.82 69.75 47.09C68.9316 47.6594 68.0446 48.1231 67.11 48.47C63.68 50.1 59.72 51.17 56.23 52.69C57.14 54.52 57.93 56.69 58.78 58.6C61.2 57.78 64.11 56.54 66.6 55.73C68.43 55.13 70.54 53.97 72.21 53.44C72.59 53.32 73.21 53.05 73.5 53.59C72.73 53.84 72.5 54.35 71.35 54.83C68.93 55.83 65.87 57.26 62.92 58.37C57.54 60.37 52.11 63.26 46.83 64.98C44.28 65.81 41.83 66.98 39.31 67.98C32.58 70.45 26.08 73.56 19.65 75.98C21.01 79.98 23.17 84.32 24.4 88.27C25.55 87.66 26.77 87.6 27.65 86.91C28.29 86.41 28.11 85.33 28.53 84.76C28.4287 85.4385 28.2715 86.1074 28.06 86.76C28.31 86.59 28.61 86.6 28.87 86.42C29.4162 85.7883 29.831 85.054 30.09 84.26C30.46 83.47 30.75 82.71 31.09 82.07C29.93 82.37 28.09 83.51 26.51 83.86C26.22 83.92 25.77 83.86 25.29 83.86C24.81 83.86 24.4 84.28 24.29 83.73C24.18 83.18 24.93 83.22 25.29 82.96C25.48 82.89 25.29 82.66 25.48 82.6C28.02 81.6 31.76 79.39 34.31 79.03C34.65 79.03 35.25 78.75 35.31 79.24C34.97 79.09 34.53 79.4 34.31 79.68C34.84 79.68 35.5 79.38 35.76 80.03C35.63 80.31 35.08 80.42 34.7 80.61C33.9368 81.9927 33.2847 83.4339 32.75 84.92L33.75 84.5C34.13 83.74 34.5 82.93 34.87 82.12C35.1179 81.291 35.5446 80.5263 36.12 79.88C35.48 81.37 34.76 82.88 34.12 84.33C42.8 81.03 51.7 76.55 60.65 73.26C65.02 71.66 69.5 69.26 73.82 67.67C74.72 67.34 75.72 66.61 76.68 66.33C77.05 66.23 77.68 66.26 77.75 66.43C78.13 67.05 76.91 67.3 76.49 67.51C73.8709 68.9045 71.1654 70.1303 68.39 71.18C64.78 72.51 62.02 73.79 58.72 75.18C57.8587 75.4386 57.0221 75.7733 56.22 76.18C55.66 76.59 55.37 77.89 55.04 78.59C53.85 81.14 52.82 83.29 51.67 85.88C55.95 84.26 60.77 82.11 65.32 80.43C66.59 79.96 67.61 79.84 67.68 78.89C65.4284 79.8374 63.1207 80.6456 60.77 81.31C61.63 80.56 63.19 80.52 64.11 79.84C64.46 79.58 64.66 78.84 64.89 78.28C65.63 76.69 66.5 75.1 67.26 73.66C66.9595 74.7077 66.533 75.715 65.99 76.66C65.5 77.66 64.99 78.66 64.58 79.66L66.09 79.02C67.32 76.8 68.19 74.42 69.45 72.21C68.65 74.5 67.45 76.61 66.45 78.85C66.85 78.56 67.45 78.58 67.9 78.24C68.2173 77.7838 68.4697 77.2857 68.65 76.76C69.4 75.26 70.22 73.76 70.97 72.37C71.18 72.25 70.87 72.74 70.8 72.92C70.16 74.6 69.07 76.42 68.4 78.07ZM16.47 68.69C17.33 70.17 18.21 73.07 19.22 74.92C22.83 73.47 26.58 72.09 30.03 70.38C29.12 68.46 28.28 66.38 27.41 64.3C23.68 65.88 20 66.86 16.47 68.69ZM49.74 55.27C44.1282 57.8607 38.3643 60.1082 32.48 62C32.38 62.05 32.53 62.21 32.48 62.28C31.2183 62.6851 29.9797 63.1592 28.77 63.7C29.41 65.7 30.53 67.92 31.1 69.9C40 66.31 48.9 62.57 57.71 59.11C56.665 57.1684 55.74 55.1647 54.94 53.11C53.22 53.86 51.43 54.44 49.74 55.27ZM31.27 82C30.8561 83.2096 30.3444 84.3835 29.74 85.51C29.61 85.75 29.34 86 29.49 86.23C31.36 85.84 31.49 84.64 31.99 83.54C32.17 83.16 32.4 82.82 32.57 82.48C32.74 82.14 32.78 81.62 33.17 81.48C32.74 82.48 32.27 83.65 31.8 84.59C31.65 84.9 31.25 85.22 31.43 85.49L32.3 85.13C32.79 84.13 33.3 82.79 33.77 81.78C33.94 81.44 34.39 80.99 34.18 80.78L31.27 82ZM70.92 75.62C70.92 75.41 71.11 75.31 71.12 75.12L70.77 75.27C70.9 75.36 70.8 75.63 70.92 75.59V75.62ZM74.92 73.54C74.71 73.81 75.3 74.11 74.98 74.33C74.87 74.27 74.82 74.09 74.65 74.2C74.5 74.81 74 75.28 73.86 75.9C74.3334 75.6266 74.8283 75.3925 75.34 75.2C75.57 74.83 75.65 74.4 75.87 74.02C75.59 73.69 75.41 73.2 74.9 73.51L74.92 73.54ZM70.4 77.28C71.59 76.92 72.27 76.09 71.4 75.2C71.11 75.87 70.73 76.56 70.38 77.25L70.4 77.28ZM67.76 79.62C68.69 79.35 69.81 78.62 69.49 78.21C68.59 78.52 67.61 78.83 67.74 79.59L67.76 79.62ZM72.76 76.95C71.58 77.51 69.41 77.8 69.66 78.87C71.88 77.87 74.06 77.06 76.22 76.25C76.3835 76.0134 76.4803 75.737 76.5 75.45C75.8942 75.6125 75.3444 75.9376 74.91 76.39C74.79 76.27 75.09 76.05 74.81 76.16C74.19 76.46 73.3 76.67 73.03 77.16C72.94 77.08 72.94 76.79 72.78 76.92L72.76 76.95ZM76.63 76.08C77.14 75.86 77.56 75.84 78.07 75.61C78.07 75.28 78.24 75.04 78.25 74.72C77.63 74.94 76.64 75.29 76.65 76.05L76.63 76.08Z" fill="white"/>
<path fill-rule="evenodd" clip-rule="evenodd" d="M36.11 82.6C36.1371 82.721 36.1348 82.8468 36.1035 82.9668C36.0722 83.0868 36.0127 83.1976 35.93 83.29C35.76 83 36.16 82.87 36.11 82.6Z" fill="white"/>
<path fill-rule="evenodd" clip-rule="evenodd" d="M36.17 85.17C35.6976 86.7143 35.0253 88.1902 34.17 89.56C33.98 89.88 33.34 90.68 33.38 90.92C33.38 90.98 34.22 91.7 33.96 91.98C33.7 92.26 33.48 91.66 33.32 91.29C33.02 91.35 33.2 91.62 32.95 91.72C32.9594 91.5952 32.9795 91.4714 33.01 91.35C32.86 91.35 32.75 91.35 32.58 91.46C32.41 91.57 33.17 92.15 32.83 92.38C32.6095 92.2866 32.4211 92.1308 32.2879 91.9319C32.1547 91.7329 32.0824 91.4994 32.08 91.26C33.26 91.26 33.45 90.26 33.89 89.55C34.73 88.15 35.47 86.5 36.17 85.17Z" fill="white"/>
<path fill-rule="evenodd" clip-rule="evenodd" d="M36.18 57.82C35.33 57.82 35.52 56.6 35.59 56.09C38.7589 54.2559 42.2032 52.9457 45.79 52.21C46.42 52.1 47.73 51.69 47.91 52.21C48.09 52.73 47.42 52.78 46.72 53.12C45 54 43.44 54.71 41.1 55.69C39.4086 56.2749 37.7639 56.987 36.18 57.82V57.82Z" fill="white"/>
</g>
<defs>
<clipPath id="clip0_939_23901">
<rect width="84.04" height="98.68" fill="white"/>
</clipPath>
</defs>
</svg>
