<svg width="136" height="147" viewBox="0 0 136 147" fill="none" xmlns="http://www.w3.org/2000/svg">
<g opacity="0.6">
<path fill-rule="evenodd" clip-rule="evenodd" d="M132.512 53.319C128.402 38.8727 120.346 26.1033 109.401 16.683C101.061 9.34412 91.251 4.20608 80.7501 1.67703C76.4791 0.698094 72.1305 0.166845 67.7649 0.0906886C58.5522 -0.338054 49.9946 0.712365 43.2241 4.12087C39.7891 5.83583 36.6123 7.25068 33.5944 9.11571C27.7937 12.937 22.4061 17.4452 17.5317 22.5568C15.1689 25.2157 13.017 28.0841 11.0986 31.1316C6.59844 37.2022 3.47121 44.322 1.96531 51.9256C0.264016 61.3325 -0.336333 70.9328 0.178353 80.5013C0.614966 89.0703 2.49206 97.482 5.71791 105.325C7.05676 108.793 8.87058 112.023 11.0986 114.908C12.2304 116.237 13.2231 117.716 14.3151 119.067C17.6111 123.161 21.1651 127.256 24.7192 130.857C27.4009 133.191 30.2869 135.237 33.3363 136.967C34.7755 137.991 36.2744 138.915 37.8235 139.732C39.531 140.568 41.4371 140.697 43.3432 141.533C46.9214 143.181 50.6874 144.306 54.5414 144.877C58.9691 145.456 62.96 146.399 67.2487 146.528C71.641 146.502 76.0238 146.086 80.353 145.284C84.0709 144.669 87.6479 143.302 90.896 141.254C94.0331 139.453 97.6467 138.703 100.526 136.259C100.883 136.259 100.982 136.002 100.784 136.409C100.585 136.817 100.248 136.645 100.148 136.967C100.049 137.288 99.8308 137.181 100.009 137.245C100.188 137.31 100.009 137.074 100.148 137.095C104.906 134.725 109.251 131.491 112.995 127.534C116.835 123.759 120.175 119.431 122.922 114.672C124.252 112.121 125.622 109.72 126.893 107.169C128.075 104.418 129.096 101.59 129.951 98.7014C132.075 92.6849 133.625 86.4502 134.577 80.094C135.9 71.1198 135.191 61.9334 132.512 53.319V53.319ZM101.24 26.9514C105.41 30.4885 107.634 36.4266 106.879 43.8653C106.482 44.1654 106.204 43.1364 105.867 42.6219C103.22 38.7637 100.054 35.3534 96.4753 32.5036C92.3661 28.8811 87.6465 26.1513 82.5767 24.4647C85.6288 23.1426 88.9415 22.6772 92.2053 23.112C95.4691 23.5469 98.5776 24.8678 101.24 26.9514V26.9514ZM39.6899 22.7926C39.8179 22.7301 39.9508 22.6799 40.087 22.6425C44.0719 22.1655 48.1052 22.6412 51.9007 24.0359C42.3181 28.1285 34.1609 35.3542 28.5711 44.7013C27.3763 40.2044 27.8741 35.3801 29.9562 31.2774C32.0384 27.1747 35.5365 24.1254 39.6899 22.7926V22.7926ZM13.5408 83.4167C14.1187 78.4244 16.3046 73.8106 19.7157 70.383C19.7157 70.2115 19.9738 70.383 19.9738 70.1043C19.9738 69.8256 20.093 70.1043 20.093 70.2329C20.9666 83.8026 24.064 95.8074 30.0205 103.396C19.9738 102.303 12.6473 96.1289 13.5408 83.4167ZM114.662 74.113C114.782 74.113 114.782 74.113 114.801 74.2631C121.89 80.6942 117.7 97.994 111.327 102.281C109.758 103.332 107.634 103.503 106.045 104.425C109.997 96.0003 114.643 87.1897 114.662 74.113ZM50.8087 121.275C53.2352 122.357 55.7868 123.078 58.3933 123.418C60.5947 123.962 62.8217 124.377 65.0646 124.662C68.2126 124.707 71.3575 124.427 74.456 123.826C77.0747 123.76 79.6516 123.103 82.0208 121.896C81.0691 124.647 79.4698 127.082 77.3808 128.961C75.2917 130.841 72.785 132.1 70.1078 132.615C66.7427 133.081 63.3231 132.601 60.1803 131.221C55.9058 129.421 52.4508 125.891 50.5506 121.382C50.6498 121.296 50.7293 121.296 50.8087 121.275Z" fill="#414141"/>
<path fill-rule="evenodd" clip-rule="evenodd" d="M86.7867 19.5985C86.493 20.1802 86.2343 20.7817 86.0124 21.3993C85.794 21.5708 85.2579 21.3993 85.1189 21.6779C85.1388 20.9705 85.3572 19.3842 86.7867 19.5985Z" fill="white"/>
<path fill-rule="evenodd" clip-rule="evenodd" d="M84.8611 20.0057C84.325 21.0561 83.9279 22.2566 82.5381 22.3638C82.8359 21.0561 83.372 20.07 84.8611 20.0057Z" fill="white"/>
<path fill-rule="evenodd" clip-rule="evenodd" d="M114.284 25.8152C114.026 26.2868 113.53 26.4798 113.371 27.0586C112.914 27.0586 112.736 26.5441 112.478 26.2225C112.835 25.0864 113.788 24.4861 114.284 25.8152Z" fill="white"/>
<path fill-rule="evenodd" clip-rule="evenodd" d="M114.801 26.3941C115.037 26.7296 115.289 27.0516 115.555 27.3587C115.238 27.7232 115.059 28.2162 114.662 28.4735C114.202 28.1907 113.84 27.7544 113.629 27.2301C114.225 27.1872 114.185 26.4369 114.801 26.3941Z" fill="white"/>
<path fill-rule="evenodd" clip-rule="evenodd" d="M84.2057 27.2302C84.6425 27.2302 85.0793 27.2302 84.98 27.7875C84.6822 27.6589 84.1659 27.7447 84.2057 27.2302Z" fill="white"/>
<path fill-rule="evenodd" clip-rule="evenodd" d="M85.7534 27.7874H86.15V28.3448C85.8129 28.3877 85.7138 28.1518 85.7534 27.7874Z" fill="white"/>
<path fill-rule="evenodd" clip-rule="evenodd" d="M86.9048 28.1947C87.3019 28.1947 87.3813 28.3448 87.6791 28.3448V29.1808C87.2225 29.0737 86.8254 28.9022 86.9048 28.1947Z" fill="white"/>
<path fill-rule="evenodd" clip-rule="evenodd" d="M57.7387 28.752C56.1503 29.5881 54.4626 30.2955 52.8544 31.1101C52.8544 30.6814 53.0926 30.7028 52.9933 30.2741C54.5817 29.9311 56.19 28.2375 57.7387 28.752Z" fill="white"/>
<path fill-rule="evenodd" clip-rule="evenodd" d="M88.3336 28.7521C88.7903 28.7521 88.9491 29.0093 89.3462 29.0308C89.4094 29.3856 89.4026 29.7508 89.3263 30.1026C88.7307 29.8882 88.135 29.7382 88.3336 28.7521Z" fill="white"/>
<path fill-rule="evenodd" clip-rule="evenodd" d="M90.002 29.4595C90.1123 29.5433 90.2439 29.5882 90.3787 29.5881V30.8315C89.7442 30.9172 90.0813 29.974 90.002 29.4595Z" fill="white"/>
<path fill-rule="evenodd" clip-rule="evenodd" d="M91.1544 30.2741C91.5515 30.2741 91.4919 30.66 91.7898 30.7029C91.5912 30.8958 91.6706 31.4103 91.6706 31.8176C91.3927 31.8176 91.2537 31.5175 91.0353 31.3889C90.9161 30.8744 91.1742 30.7243 91.1544 30.2741Z" fill="white"/>
<path fill-rule="evenodd" clip-rule="evenodd" d="M59.544 31.2602C56.9126 32.1114 54.3386 33.1571 51.8402 34.3901C51.9208 33.9612 52.0474 33.5439 52.2175 33.1467C54.4611 32.3321 56.5856 31.3889 58.9086 30.6386C59.266 30.6171 59.2064 31.1531 59.544 31.2602Z" fill="white"/>
<path fill-rule="evenodd" clip-rule="evenodd" d="M52.0989 30.8316C52.0891 31.1238 51.9771 31.4012 51.7856 31.608C51.5941 31.8148 51.3372 31.9357 51.0665 31.9463C51.2849 31.4532 51.4437 30.8959 52.0989 30.8316Z" fill="white"/>
<path fill-rule="evenodd" clip-rule="evenodd" d="M102.194 54.691C101.559 54.691 101.301 53.8549 101.043 53.4476C97.3968 47.3678 92.7541 42.0573 87.3426 37.7771C85.3961 36.1037 83.2855 34.6659 81.0485 33.4897C80.1352 33.0824 75.9259 32.4821 75.509 31.346H75.648C75.6358 31.2555 75.6556 31.1634 75.7034 31.088C75.7512 31.0125 75.8236 30.9592 75.9061 30.9387C81.8551 32.5798 87.3206 35.8254 91.7901 40.371C95.1407 43.4145 98.1167 46.9085 100.645 50.768L101.936 52.7188C102.115 53.2333 102.889 54.0907 102.194 54.691Z" fill="white"/>
<path fill-rule="evenodd" clip-rule="evenodd" d="M92.305 31.1102C92.9006 31.3032 93.2183 31.7962 93.0793 32.7823C92.4439 32.6323 92.2057 32.0535 92.305 31.1102Z" fill="white"/>
<path fill-rule="evenodd" clip-rule="evenodd" d="M50.4116 31.5389C50.4497 31.6659 50.459 31.8009 50.4389 31.9326C50.4188 32.0643 50.3697 32.1889 50.2958 32.2959C50.222 32.4029 50.1254 32.4893 50.0143 32.5478C49.9032 32.6063 49.7807 32.6353 49.6571 32.6322C49.6174 32.032 50.1138 31.839 50.4116 31.5389Z" fill="white"/>
<path fill-rule="evenodd" clip-rule="evenodd" d="M116.47 31.6675C121.303 36.9754 124.985 43.3744 127.251 50.4035C127.569 51.261 128.224 52.5472 127.648 53.4476C124.511 45.5373 121.235 37.7985 116.47 31.6675Z" fill="white"/>
<path fill-rule="evenodd" clip-rule="evenodd" d="M93.7157 32.2464C93.914 32.2464 94.033 32.4607 94.2313 32.5251V33.6398C93.5373 33.4897 93.5968 32.9538 93.7157 32.2464Z" fill="white"/>
<path fill-rule="evenodd" clip-rule="evenodd" d="M48.7638 32.6322C48.7638 33.3397 48.4461 33.5112 47.9894 33.6183C48.2079 33.2539 48.2079 32.6537 48.7638 32.6322Z" fill="white"/>
<path fill-rule="evenodd" clip-rule="evenodd" d="M95.0058 33.3397C95.661 33.4897 96.0581 33.9399 95.8993 34.9903C95.4823 34.9903 95.3433 34.583 95.0058 34.433V33.3397Z" fill="white"/>
<path fill-rule="evenodd" clip-rule="evenodd" d="M51.4452 33.4683C51.3916 33.9412 51.2018 34.384 50.9025 34.734C50.6033 35.0841 50.2096 35.3237 49.7773 35.4191C49.9759 34.3901 50.2936 33.4683 51.4452 33.4683Z" fill="white"/>
<path fill-rule="evenodd" clip-rule="evenodd" d="M47.2148 33.6184C47.2148 34.1543 46.838 34.3043 46.5802 34.583C46.2233 34.1972 46.7587 33.5969 47.2148 33.6184Z" fill="white"/>
<path fill-rule="evenodd" clip-rule="evenodd" d="M49.3995 34.39C49.4602 34.8025 49.4079 35.2251 49.2492 35.6059C49.0905 35.9868 48.8322 36.3092 48.5061 36.5338C48.4254 36.1203 48.4684 35.6899 48.629 35.3046C48.7896 34.9193 49.0594 34.599 49.3995 34.39Z" fill="white"/>
<path fill-rule="evenodd" clip-rule="evenodd" d="M45.4079 34.5831C45.6855 34.9904 45.2691 35.805 44.7734 35.8264C44.7337 35.1404 45.1501 34.9475 45.4079 34.5831Z" fill="white"/>
<path fill-rule="evenodd" clip-rule="evenodd" d="M96.5545 34.5831C99.6682 37.1084 102.436 40.0963 104.775 43.458C105.509 44.5084 106.76 45.7947 106.184 47.2095C103.385 42.9941 100.155 39.1325 96.5545 35.6978V34.5831Z" fill="white"/>
<path fill-rule="evenodd" clip-rule="evenodd" d="M47.989 35.1404C48.0624 35.6343 47.9737 36.1404 47.738 36.571C47.5023 37.0017 47.1345 37.3298 46.6984 37.4985C46.9962 36.5338 47.1749 35.5048 47.989 35.1404Z" fill="white"/>
<path fill-rule="evenodd" clip-rule="evenodd" d="M44.1177 35.5476C44.1177 36.7696 41.7351 38.4845 40.524 39.5778C36.9023 42.887 34.0467 47.0639 32.1848 51.7755C30.7553 50.7251 32.1848 48.9887 32.6812 48.0455C34.8454 44.7227 37.9229 41.6143 40.1467 38.6131C41.5178 37.6649 42.8432 36.6418 44.1177 35.5476V35.5476Z" fill="white"/>
<path fill-rule="evenodd" clip-rule="evenodd" d="M61.0937 36.105C61.3121 36.2336 61.3717 36.5337 61.332 36.941C60.9349 36.941 60.776 37.2626 60.3194 37.2197V36.5337C60.4782 36.2765 61.0738 36.5337 61.0937 36.105Z" fill="white"/>
<path fill-rule="evenodd" clip-rule="evenodd" d="M74.1956 36.6624V37.7771H73.9387C74.0375 37.4341 73.6818 36.5338 74.1956 36.6624Z" fill="white"/>
<path fill-rule="evenodd" clip-rule="evenodd" d="M74.9525 36.9411H75.4285C75.5462 37.298 75.5869 37.6793 75.5474 38.0558C74.9724 38.0344 75.1508 37.3055 74.9525 36.9411Z" fill="white"/>
<path fill-rule="evenodd" clip-rule="evenodd" d="M57.9959 37.0697H58.393V38.0558C58.115 38.0558 58.0157 38.3988 57.6186 38.3345C57.8172 37.9915 57.8172 37.4341 57.9959 37.0697Z" fill="white"/>
<path fill-rule="evenodd" clip-rule="evenodd" d="M75.984 37.3484C75.984 37.1984 76.2219 37.2412 76.3806 37.2198C76.5392 37.1984 76.4995 38.013 76.6383 38.3345C75.8848 38.6775 76.3012 37.5842 75.984 37.3484Z" fill="white"/>
<path fill-rule="evenodd" clip-rule="evenodd" d="M77.2757 37.4985C77.6921 37.4985 77.6326 38.5489 77.5335 38.7418C77.0972 38.6775 77.4145 37.9487 77.2757 37.4985Z" fill="white"/>
<path fill-rule="evenodd" clip-rule="evenodd" d="M56.7056 37.627C57.2608 37.7771 56.7056 38.9561 56.3288 39.0205C56.4187 38.5456 56.5448 38.0795 56.7056 37.627V37.627Z" fill="white"/>
<path fill-rule="evenodd" clip-rule="evenodd" d="M78.1696 37.7772C78.6851 37.7772 78.7446 38.4631 78.6851 39.1706C77.9911 39.2563 78.1894 38.3988 78.1696 37.7772Z" fill="white"/>
<path fill-rule="evenodd" clip-rule="evenodd" d="M44.5141 38.0558C44.6729 38.6989 44.0773 39.7065 43.7397 40.1995C43.6959 39.801 43.7436 39.397 43.8786 39.0231C44.0137 38.6492 44.2319 38.317 44.5141 38.0558V38.0558Z" fill="white"/>
<path fill-rule="evenodd" clip-rule="evenodd" d="M55.2953 38.1844C55.7321 38.5274 55.196 40.0924 54.4018 39.9852C54.6997 39.3849 54.7592 38.5274 55.2953 38.1844Z" fill="white"/>
<path fill-rule="evenodd" clip-rule="evenodd" d="M79.2008 38.3344C79.5577 38.2058 79.5379 38.5274 79.8353 38.4631V39.7064C79.3991 39.5992 79.2404 38.9776 79.2008 38.3344Z" fill="white"/>
<path fill-rule="evenodd" clip-rule="evenodd" d="M80.492 38.6775C80.8688 38.8705 80.8886 39.4493 80.8688 40.0709C80.2541 40.1996 80.5714 39.2563 80.492 38.6775Z" fill="white"/>
<path fill-rule="evenodd" clip-rule="evenodd" d="M53.7663 38.8919C53.7663 39.3635 53.5479 40.7784 52.7338 40.8212C53.0515 40.1353 53.0515 39.1492 53.7663 38.8919Z" fill="white"/>
<path fill-rule="evenodd" clip-rule="evenodd" d="M81.3861 39.1705C82.0008 39.2991 82.0603 39.9851 82.0206 40.8211C81.3861 40.8211 81.3861 39.9208 81.3861 39.1705Z" fill="white"/>
<path fill-rule="evenodd" clip-rule="evenodd" d="M61.3307 39.7064C57.5956 41.4957 53.9915 43.5883 50.5495 45.966C50.3509 44.7013 51.6613 44.1225 52.535 43.608C55.2213 41.8416 58.1212 40.4853 61.152 39.5778C61.152 39.5778 61.2116 39.7064 61.3307 39.7064Z" fill="white"/>
<path fill-rule="evenodd" clip-rule="evenodd" d="M82.5381 39.8565C82.7364 39.8565 82.8554 40.0494 83.0537 40.1352V41.5071C82.3398 41.55 82.5778 40.5639 82.5381 39.8565Z" fill="white"/>
<path fill-rule="evenodd" clip-rule="evenodd" d="M83.6875 40.5424C83.8858 40.5424 84.0246 40.7568 84.203 40.8211C84.203 41.2499 84.3815 42.0216 84.0841 42.2145C83.3702 42.2574 83.8064 41.1213 83.6875 40.5424Z" fill="white"/>
<path fill-rule="evenodd" clip-rule="evenodd" d="M50.5503 40.8212C50.6893 41.4429 50.5503 42.8363 49.6568 42.9649C49.8554 42.1074 49.9149 41.1642 50.5503 40.8212Z" fill="white"/>
<path fill-rule="evenodd" clip-rule="evenodd" d="M84.8602 41.3785C85.3311 41.5764 85.7675 41.8591 86.1508 42.2146C86.0393 42.6688 85.9924 43.1386 86.0118 43.608C85.5353 43.3722 85.2176 42.9863 84.7212 42.772C84.622 42.1503 84.8999 41.9359 84.8602 41.3785Z" fill="white"/>
<path fill-rule="evenodd" clip-rule="evenodd" d="M48.8833 42.0646C48.9671 42.5737 48.8892 43.0985 48.6621 43.5537C48.4351 44.009 48.0722 44.3681 47.6324 44.5727C47.6597 44.0817 47.7857 43.6029 48.0017 43.1698C48.2177 42.7367 48.5186 42.3595 48.8833 42.0646V42.0646Z" fill="white"/>
<path fill-rule="evenodd" clip-rule="evenodd" d="M61.7296 42.7719C58.7116 43.9295 55.773 45.323 52.8544 46.5234C53.4302 45.2372 54.8399 45.0443 56.0709 44.5727C57.8578 43.9081 59.7441 42.0645 61.7296 42.7719Z" fill="white"/>
<path fill-rule="evenodd" clip-rule="evenodd" d="M86.6477 42.6219C87.5213 43.6938 91.1349 45.1301 90.7577 47.6168C89.9237 47.3595 89.0501 45.7518 88.0772 44.98C87.1043 44.2083 85.9924 44.3584 86.6477 42.6219Z" fill="white"/>
<path fill-rule="evenodd" clip-rule="evenodd" d="M46.6982 43.8652C47.2939 44.594 46.2813 45.9017 45.7849 46.3733C45.858 45.4594 46.1753 44.5881 46.6982 43.8652V43.8652Z" fill="white"/>
<path fill-rule="evenodd" clip-rule="evenodd" d="M76.7596 44.8514C76.978 44.5298 77.673 44.8514 77.534 45.4087C77.0972 45.4087 76.978 45.1086 76.7596 44.8514Z" fill="white"/>
<path fill-rule="evenodd" clip-rule="evenodd" d="M78.0496 44.98C78.5651 44.98 78.6246 45.3873 78.5651 45.9661C78.0892 45.9447 77.9901 45.5588 78.0496 44.98Z" fill="white"/>
<path fill-rule="evenodd" clip-rule="evenodd" d="M79.2006 45.4088C79.7162 45.4088 79.5774 45.9233 79.5774 46.3735C79.0816 46.4592 79.2205 45.8376 79.2006 45.4088Z" fill="white"/>
<path fill-rule="evenodd" clip-rule="evenodd" d="M45.1508 45.6875C45.6869 47.1452 43.9198 48.7101 42.8476 49.6962C42.9072 47.5954 44.5353 47.2524 45.1508 45.6875Z" fill="white"/>
<path fill-rule="evenodd" clip-rule="evenodd" d="M80.096 45.816L80.8704 46.2448V47.2523C80.5999 47.1582 80.3712 46.9595 80.2283 46.6944C80.0853 46.4292 80.0382 46.1164 80.096 45.816V45.816Z" fill="white"/>
<path fill-rule="evenodd" clip-rule="evenodd" d="M48.6248 48.1741C48.4548 47.8232 48.3996 47.4205 48.4681 47.0314C48.5366 46.6423 48.7247 46.2896 49.0021 46.0304C49.6176 46.5878 48.9822 47.874 48.6248 48.1741Z" fill="white"/>
<path fill-rule="evenodd" clip-rule="evenodd" d="M75.8654 46.5236C76.262 46.5236 76.3017 46.9737 76.2422 47.4882C75.7068 47.5954 75.5878 46.8451 75.8654 46.5236Z" fill="white"/>
<path fill-rule="evenodd" clip-rule="evenodd" d="M81.5256 46.7808C82.1411 46.7808 82.3992 47.4239 82.2801 48.3242C81.7043 48.1742 81.3866 47.6811 81.5256 46.7808Z" fill="white"/>
<path fill-rule="evenodd" clip-rule="evenodd" d="M77.0175 46.9309C77.091 46.9888 77.1746 47.03 77.2632 47.0522C77.3518 47.0743 77.4436 47.0768 77.5331 47.0595V47.7669H77.0175C76.7598 47.5097 76.9779 47.2524 77.0175 46.9309Z" fill="white"/>
<path fill-rule="evenodd" clip-rule="evenodd" d="M47.8505 47.0594C48.0284 47.4296 48.1025 47.8479 48.0637 48.2629C48.025 48.678 47.8751 49.0718 47.6324 49.3961C47.3151 48.7101 47.3944 47.2524 47.8505 47.0594Z" fill="white"/>
<path fill-rule="evenodd" clip-rule="evenodd" d="M91.5316 47.0594C91.8981 47.2945 92.1849 47.6508 92.3494 48.0755C92.5138 48.5001 92.5473 48.9707 92.4449 49.4175C92.0609 49.2023 91.7591 48.8483 91.5922 48.4173C91.4253 47.9863 91.4038 47.5058 91.5316 47.0594V47.0594Z" fill="white"/>
<path fill-rule="evenodd" clip-rule="evenodd" d="M78.1689 47.2523C78.4068 47.2523 78.4465 47.4238 78.6844 47.4024V48.0884C78.1491 48.3028 78.1292 47.8526 78.1689 47.2523Z" fill="white"/>
<path fill-rule="evenodd" clip-rule="evenodd" d="M79.3998 47.8954C79.717 47.8954 79.6377 48.3671 79.6377 48.7315C79.1222 48.8601 79.3998 48.1956 79.3998 47.8954Z" fill="white"/>
<path fill-rule="evenodd" clip-rule="evenodd" d="M82.7944 47.8954C83.3893 47.8954 83.1315 48.6672 83.191 49.1388C82.7547 49.0531 82.7746 48.4742 82.7944 47.8954Z" fill="white"/>
<path fill-rule="evenodd" clip-rule="evenodd" d="M46.9562 48.1741C46.5794 48.71 47.1942 50.3178 46.4406 50.3178C46.5398 49.589 46.1035 48.1955 46.9562 48.1741Z" fill="white"/>
<path fill-rule="evenodd" clip-rule="evenodd" d="M80.2328 48.4528C80.6498 48.5599 81.0469 48.6886 81.0072 49.2888C80.6895 49.5246 80.1137 49.1173 80.2328 48.4528Z" fill="white"/>
<path fill-rule="evenodd" clip-rule="evenodd" d="M83.6881 48.6029C84.6213 49.8034 86.5075 49.9963 86.5274 52.2043C85.5545 51.4111 84.661 50.5108 83.6881 49.6962V48.6029Z" fill="white"/>
<path fill-rule="evenodd" clip-rule="evenodd" d="M81.5247 49.1388C81.9814 49.2459 82.3785 49.4174 82.2792 50.1249C81.8821 49.9534 81.3857 49.8676 81.5247 49.1388Z" fill="white"/>
<path fill-rule="evenodd" clip-rule="evenodd" d="M93.2985 49.1388C93.6045 49.331 93.8451 49.6245 93.9845 49.9759C94.124 50.3272 94.155 50.7177 94.0728 51.0895C93.2985 50.9609 93.1396 50.1463 93.2985 49.1388Z" fill="white"/>
<path fill-rule="evenodd" clip-rule="evenodd" d="M45.7843 49.3961C45.9003 49.892 45.9161 50.4091 45.8306 50.9122C45.745 51.4154 45.5601 51.8926 45.2885 52.3115C45.1536 51.8176 45.1282 51.2963 45.2143 50.7898C45.3005 50.2833 45.4957 49.8058 45.7843 49.3961Z" fill="white"/>
<path fill-rule="evenodd" clip-rule="evenodd" d="M82.6752 49.8463C82.973 49.9749 83.2907 50.0821 83.1914 50.6823C83.8826 50.9274 84.5214 51.3192 85.0703 51.8346C85.6193 52.35 86.0673 52.9786 86.3881 53.6835C85.7924 53.8121 85.1769 52.5474 84.4026 51.8828C83.7698 51.4285 83.1721 50.9195 82.6156 50.3608L82.6752 49.8463Z" fill="white"/>
<path fill-rule="evenodd" clip-rule="evenodd" d="M42.1902 50.1249C42.6066 50.5751 41.9721 51.0682 41.8135 51.3683C41.4565 50.9824 42.0712 50.4465 42.1902 50.1249Z" fill="white"/>
<path fill-rule="evenodd" clip-rule="evenodd" d="M94.7481 51.2396C95.3628 51.5183 95.2042 52.0971 95.1447 52.8903C94.6489 52.7617 94.4506 51.7756 94.7481 51.2396Z" fill="white"/>
<path fill-rule="evenodd" clip-rule="evenodd" d="M44.3748 51.5397C44.5929 51.8827 44.6722 53.2547 44.117 53.2118C44.0288 52.639 44.1195 52.0507 44.3748 51.5397Z" fill="white"/>
<path fill-rule="evenodd" clip-rule="evenodd" d="M86.9048 51.6469C87.1949 51.7835 87.4314 52.0257 87.5729 52.3313C87.7144 52.6369 87.752 52.9865 87.6791 53.319C87.0438 53.169 86.8055 52.5902 86.9048 51.6469Z" fill="white"/>
<path fill-rule="evenodd" clip-rule="evenodd" d="M95.9004 52.8903C96.3565 53.0189 96.416 54.1336 96.1582 54.5624C95.7616 54.348 95.9401 53.4905 95.9004 52.8903Z" fill="white"/>
<path fill-rule="evenodd" clip-rule="evenodd" d="M88.0757 53.0403C88.4921 53.2333 88.6507 53.7049 88.5714 54.4123C87.9964 54.3909 88.0559 53.6835 88.0757 53.0403Z" fill="white"/>
<path fill-rule="evenodd" clip-rule="evenodd" d="M43.3422 53.169C43.4632 53.456 43.5157 53.7712 43.4949 54.0857C43.4742 54.4003 43.3808 54.7042 43.2233 54.9697C43.1074 54.6814 43.0578 54.3671 43.0785 54.0536C43.0992 53.7401 43.1897 53.4366 43.3422 53.169V53.169Z" fill="white"/>
<path fill-rule="evenodd" clip-rule="evenodd" d="M128.284 53.855C128.463 54.0318 128.606 54.247 128.704 54.4869C128.802 54.7268 128.853 54.9862 128.853 55.2484C128.853 55.5106 128.802 55.77 128.704 56.0099C128.606 56.2498 128.463 56.465 128.284 56.6418C128.031 56.2283 127.896 55.7438 127.896 55.2484C127.896 54.753 128.031 54.2685 128.284 53.855V53.855Z" fill="white"/>
<path fill-rule="evenodd" clip-rule="evenodd" d="M86.786 54.0051C87.1434 54.3481 87.6794 54.5196 87.5603 55.3985C87.1632 55.0555 86.7264 54.7983 86.786 54.0051Z" fill="white"/>
<path fill-rule="evenodd" clip-rule="evenodd" d="M89.0883 54.5624C89.465 54.7982 89.4254 55.5057 89.4848 56.0845C89.0288 55.8272 89.0883 55.2056 89.0883 54.5624Z" fill="white"/>
<path fill-rule="evenodd" clip-rule="evenodd" d="M96.9314 54.5624C97.3311 55.1892 97.5136 55.9483 97.4469 56.7061C97.1578 56.4575 96.9511 56.1139 96.8582 55.7273C96.7652 55.3407 96.7909 54.9319 96.9314 54.5624V54.5624Z" fill="white"/>
<path fill-rule="evenodd" clip-rule="evenodd" d="M42.3295 55.3983C42.7261 55.8914 42.4683 56.4488 42.1907 56.9204C41.6752 56.5988 42.2502 55.8271 42.3295 55.3983Z" fill="white"/>
<path fill-rule="evenodd" clip-rule="evenodd" d="M88.0773 55.3983C88.2427 55.5457 88.3659 55.7408 88.4326 55.9609C88.4993 56.1811 88.5068 56.4172 88.4541 56.6417C88.0179 56.5559 88.0377 55.9771 88.0773 55.3983Z" fill="white"/>
<path fill-rule="evenodd" clip-rule="evenodd" d="M39.371 55.6771C40.0848 55.6771 39.9262 57.0491 39.4899 57.3278C39.0537 57.6064 39.252 55.9343 39.371 55.6771Z" fill="white"/>
<path fill-rule="evenodd" clip-rule="evenodd" d="M90.0023 55.9343C90.5185 56.6846 91.4517 57.6707 91.1539 58.8498C90.2803 58.421 89.9229 57.4135 90.0023 55.9343Z" fill="white"/>
<path fill-rule="evenodd" clip-rule="evenodd" d="M129.315 56.4917C130.328 57.6493 129.315 58.8498 128.799 59.8359C127.906 58.7641 128.7 57.1777 129.315 56.4917Z" fill="white"/>
<path fill-rule="evenodd" clip-rule="evenodd" d="M88.97 56.9205C89.4664 57.2421 89.5856 58.0138 89.7444 58.7212C89.4714 58.5302 89.2538 58.2599 89.1169 57.9413C88.9799 57.6228 88.929 57.2689 88.97 56.9205V56.9205Z" fill="white"/>
<path fill-rule="evenodd" clip-rule="evenodd" d="M68.0227 57.4778C67.7844 57.9494 67.1888 58.0566 66.9902 58.571C66.7917 58.1637 67.3278 57.3706 68.0227 57.4778Z" fill="white"/>
<path fill-rule="evenodd" clip-rule="evenodd" d="M69.1752 57.7565C68.8773 58.0781 68.7582 58.5926 68.1626 58.5711C68.1969 58.3182 68.3229 58.0903 68.5127 57.9376C68.7026 57.7848 68.9409 57.7197 69.1752 57.7565V57.7565Z" fill="white"/>
<path fill-rule="evenodd" clip-rule="evenodd" d="M98.9968 58.5711C98.9968 59.1071 98.8778 59.6644 98.3424 59.6859C98.4019 59.1714 98.4614 58.614 98.9968 58.5711Z" fill="white"/>
<path fill-rule="evenodd" clip-rule="evenodd" d="M67.4873 59.1284C67.8049 59.4499 67.2689 60.0073 66.971 60.1145C66.4349 59.5786 67.3284 59.5786 67.4873 59.1284Z" fill="white"/>
<path fill-rule="evenodd" clip-rule="evenodd" d="M97.2698 59.1284C97.5676 59.3213 97.1308 59.8787 97.1506 60.2431C96.972 60.2431 96.7933 60.2431 96.7734 60.3932C96.416 60.1359 96.7734 59.5571 96.8925 59.2784C97.0117 58.9998 97.2698 59.2999 97.2698 59.1284Z" fill="white"/>
<path fill-rule="evenodd" clip-rule="evenodd" d="M130.089 59.2785C130.228 59.2785 130.308 59.2785 130.347 59.4071C130.128 60.4094 129.73 61.3559 129.176 62.1939C128.402 60.8434 129.732 60.1146 130.089 59.2785Z" fill="white"/>
<path fill-rule="evenodd" clip-rule="evenodd" d="M95.5216 59.6858H96.0378C95.7996 60.0717 95.8988 60.8434 95.2635 60.8006C95.2905 60.4159 95.3778 60.039 95.5216 59.6858V59.6858Z" fill="white"/>
<path fill-rule="evenodd" clip-rule="evenodd" d="M94.7489 59.8359C94.5705 60.1752 94.4812 60.5606 94.4907 60.9506C94.1625 61.0986 93.8134 61.1855 93.4583 61.2079C93.5995 60.8091 93.6865 60.3903 93.7164 59.9645C94.1929 60.1146 94.2723 59.7287 94.7489 59.8359Z" fill="white"/>
<path fill-rule="evenodd" clip-rule="evenodd" d="M130.468 61.0793C131.52 62.2584 129.912 63.5446 129.575 64.5521C128.721 63.0087 130.27 62.2584 130.468 61.0793Z" fill="white"/>
<path fill-rule="evenodd" clip-rule="evenodd" d="M131.024 63.4373C131.878 64.9594 130.131 65.9455 129.873 67.1888C129.039 65.6025 130.687 64.6807 131.024 63.4373Z" fill="white"/>
<path fill-rule="evenodd" clip-rule="evenodd" d="M57.5591 68.1535C57.0093 68.3528 56.4258 68.4195 55.8495 68.3492C55.2732 68.2788 54.7182 68.073 54.2235 67.7462C53.1315 63.2659 59.5446 65.3024 57.5591 68.1535ZM56.0303 67.4676C56.3149 67.4645 56.5888 67.3497 56.8007 67.1446C57.0126 66.9394 57.1481 66.658 57.1819 66.3528C56.5267 64.745 54.5412 66.5458 55.9509 67.4676H56.0303Z" fill="white"/>
<path fill-rule="evenodd" clip-rule="evenodd" d="M78.6852 68.1536C77.7918 65.2596 82.0407 64.6808 81.1274 67.5962C81.0045 67.8102 80.8427 67.9952 80.6518 68.1399C80.4609 68.2846 80.2448 68.386 80.0166 68.4381C79.7884 68.4902 79.5528 68.4918 79.324 68.4429C79.0951 68.394 78.8779 68.2956 78.6852 68.1536V68.1536Z" fill="white"/>
<path fill-rule="evenodd" clip-rule="evenodd" d="M106.443 66.3527C106.979 66.2455 107.098 66.5671 107.594 66.4813C107.455 66.9744 107.058 67.1887 106.959 67.7461C106.463 67.7461 106.324 67.4889 105.807 67.5961C105.963 67.151 106.177 66.7324 106.443 66.3527Z" fill="white"/>
<path fill-rule="evenodd" clip-rule="evenodd" d="M69.949 66.7601C68.0826 68.9038 65.5014 70.1043 63.9924 72.4623C65.9636 71.3462 67.7812 69.9393 69.393 68.2821C69.8497 67.9177 70.5645 67.0173 71.18 67.4675C70.0396 68.9198 68.6066 70.0711 66.9906 70.8331C66.1653 72.3133 65.021 73.5563 63.6549 74.456C63.345 73.6601 63.1701 72.8105 63.1387 71.9478C65.1242 70.1471 67.2487 68.5393 69.0952 66.6743L69.949 66.7601Z" fill="white"/>
<path fill-rule="evenodd" clip-rule="evenodd" d="M109.521 67.1889C109.325 67.5459 109.015 67.813 108.649 67.9395C108.283 68.066 107.886 68.0429 107.535 67.8748C107.576 67.6495 107.673 67.4402 107.815 67.2688C107.956 67.0973 108.138 66.97 108.341 66.9C108.543 66.83 108.76 66.8198 108.967 66.8706C109.175 66.9214 109.366 67.0313 109.521 67.1889V67.1889Z" fill="white"/>
<path fill-rule="evenodd" clip-rule="evenodd" d="M37.7037 102.003C36.5719 101.767 35.9961 100.566 35.2615 99.6446C32.9506 96.9818 31.1192 93.8777 29.8609 90.491C27.1429 83.0941 26.0422 75.1199 26.6444 67.1888H26.9025C27.0614 67.0173 27.1805 67.0602 27.1607 67.3175C26.6444 83.2452 31.1317 93.7494 37.7037 102.003Z" fill="white"/>
<path fill-rule="evenodd" clip-rule="evenodd" d="M29.346 67.1888C30.0608 67.3389 29.7232 68.4965 29.7431 69.1182C29.6948 78.2131 31.7417 87.1784 35.6996 95.2071C36.2872 96.2354 36.9512 97.2104 37.6851 98.1226C38.2609 98.8729 39.4125 99.7732 39.0948 101.038C38.0659 100.304 37.2258 99.3013 36.6526 98.1226C34.5037 94.8132 32.7742 91.2084 31.5102 87.404C29.423 81.0048 28.5519 74.217 28.9489 67.4461C28.9489 67.2103 29.068 67.1888 29.068 67.0173C29.068 66.8458 29.3261 67.0816 29.346 67.1888Z" fill="white"/>
<path fill-rule="evenodd" clip-rule="evenodd" d="M110.294 67.4675C110.552 67.639 110.91 67.7247 111.188 67.8748C110.791 68.4107 110.334 68.9252 109.639 68.4321C109.659 67.8962 110.175 67.8748 110.294 67.4675Z" fill="white"/>
<path fill-rule="evenodd" clip-rule="evenodd" d="M71.4575 67.8748C71.7156 67.8748 71.7156 68.2607 71.9737 68.2821C71.5478 68.9656 71.0329 69.5793 70.4449 70.1043C69.9485 70.5759 69.194 71.4977 68.4594 70.9189C69.5215 69.9788 70.5232 68.9617 71.4575 67.8748V67.8748Z" fill="white"/>
<path fill-rule="evenodd" clip-rule="evenodd" d="M34.3696 68.0034H34.7469C34.405 71.0083 34.492 74.0521 35.005 77.0285C34.6277 77.0285 34.4888 77.9288 34.1115 77.5858C33.8959 74.3905 33.9824 71.1798 34.3696 68.0034V68.0034Z" fill="white"/>
<path fill-rule="evenodd" clip-rule="evenodd" d="M26.2687 83.9741C24.6086 78.95 24.0381 73.5817 24.6008 68.2821C24.7795 68.2821 24.9582 68.2822 24.9781 68.1535C24.9979 68.0249 25.0972 68.1535 25.1171 68.2821C25.673 73.2341 25.5737 79.6224 26.2687 83.9741Z" fill="white"/>
<path fill-rule="evenodd" clip-rule="evenodd" d="M100.783 68.1535C101.831 76.2426 100.147 84.4687 96.0381 91.327C95.78 88.6902 97.2294 86.5036 98.0236 84.2527C99.7631 79.2489 100.336 73.86 99.6915 68.5608C99.6915 68.3678 99.6915 68.1749 99.8304 68.1535H100.783Z" fill="white"/>
<path fill-rule="evenodd" clip-rule="evenodd" d="M112.995 68.6895C112.816 69.0968 112.4 69.2468 112.221 69.6541C111.804 69.6541 111.585 69.2254 111.188 69.0968C111.253 68.9105 111.36 68.7449 111.5 68.6154C111.64 68.4859 111.808 68.3966 111.988 68.356C112.168 68.3153 112.355 68.3246 112.531 68.3829C112.707 68.4412 112.867 68.5467 112.995 68.6895V68.6895Z" fill="white"/>
<path fill-rule="evenodd" clip-rule="evenodd" d="M22.5349 68.4322C22.6739 68.4322 22.6342 68.6037 22.6739 68.7109C21.84 75.335 23.9844 83.2453 25.3742 88.969C26.8908 94.1908 29.1915 99.1082 32.1845 103.525C30.9138 103.525 30.4174 102.024 29.7423 101.038C29.0125 100.07 28.3489 99.0451 27.7568 97.9726C26.5367 95.7538 25.5826 93.3767 24.9175 90.8983C24.5999 89.3548 24.4609 87.6613 24.0241 85.9035C23.047 82.2321 22.3824 78.4722 22.0386 74.6704C22.1677 72.6864 22.1677 70.695 22.0386 68.7109C22.2173 68.6895 22.3562 68.4965 22.5349 68.4322Z" fill="white"/>
<path fill-rule="evenodd" clip-rule="evenodd" d="M38.339 68.4322C38.5574 68.4322 38.5574 68.5608 38.7361 68.5608C38.9259 74.3992 40.2804 80.1246 42.7071 85.3461C42.1313 85.5819 41.9923 84.703 41.8136 84.3814C39.3214 79.6533 38.0783 74.2776 38.2199 68.8395C38.1801 68.6895 38.339 68.6895 38.339 68.4322Z" fill="white"/>
<path fill-rule="evenodd" clip-rule="evenodd" d="M104.774 68.5608C105.211 68.4536 105.27 68.7752 105.668 68.7108C106.68 73.4056 105.092 77.8002 104.377 81.8947C104.377 82.2377 103.94 82.3449 103.742 82.5807C103.771 83.9068 103.555 85.2259 103.106 86.4608C102.709 83.1166 104.476 78.8077 104.774 74.949C104.913 73.0411 104.774 71.1547 104.774 68.9895V68.5608Z" fill="white"/>
<path fill-rule="evenodd" clip-rule="evenodd" d="M72.6498 69.2683C71.7068 70.3376 70.6768 71.3133 69.5722 72.1837C69.6715 70.8118 71.5577 70.2115 72.1335 68.9896C72.4909 68.8824 72.3916 69.2683 72.6498 69.2683Z" fill="white"/>
<path fill-rule="evenodd" clip-rule="evenodd" d="M107.077 69.1182C107.236 69.1182 107.316 69.1182 107.336 69.2683C107.971 69.2683 107.931 70.2973 107.991 70.6403C108.281 75.8305 107.487 81.0249 105.668 85.8392C106.144 80.4585 107.872 75.1206 107.077 69.1182Z" fill="white"/>
<path fill-rule="evenodd" clip-rule="evenodd" d="M114.286 69.547C114.048 70.2544 113.253 70.8118 112.737 70.1043C113.154 69.4827 113.65 68.7967 114.286 69.547Z" fill="white"/>
<path fill-rule="evenodd" clip-rule="evenodd" d="M73.1663 69.8257C73.1663 70.0615 73.1663 70.383 73.4244 70.5116C72.5511 71.609 71.5577 72.5879 70.466 73.4271C69.0166 74.8419 68.0437 77.4787 65.5817 77.0285C66.7134 75.678 68.282 74.7133 69.5527 73.4271C70.6509 72.1079 71.8607 70.9023 73.1663 69.8257V69.8257Z" fill="white"/>
<path fill-rule="evenodd" clip-rule="evenodd" d="M112.479 72.1837C113.948 72.6982 113.353 75.2921 113.373 77.0285C113.373 77.6716 113.194 76.8784 112.856 77.0285C113.197 78.579 113.197 80.1942 112.856 81.7447C112.499 81.4017 112.459 80.7157 112.102 80.3512C112.102 82.0448 113.075 83.9098 112.102 85.6248C111.744 85.1317 111.665 84.3386 111.327 83.8241C112.07 79.9951 112.455 76.0956 112.479 72.1837V72.1837Z" fill="white"/>
<path fill-rule="evenodd" clip-rule="evenodd" d="M94.2328 72.3123C94.9466 72.6553 94.9069 73.8129 94.8871 74.949C94.1336 74.6275 94.2129 73.4485 94.2328 72.3123Z" fill="white"/>
<path fill-rule="evenodd" clip-rule="evenodd" d="M66.2156 72.9768C66.4737 72.9768 66.2156 73.427 66.6127 73.3841C65.9729 74.3581 65.1382 75.1641 64.1705 75.7422C64.1705 75.5493 63.972 75.3992 63.9124 75.1848C64.5478 74.1987 65.6001 73.77 66.2156 72.9768Z" fill="white"/>
<path fill-rule="evenodd" clip-rule="evenodd" d="M67.9046 73.9844C66.892 74.649 65.7603 76.9428 64.6881 76.1281C65.7603 75.5279 66.5346 73.8987 67.9046 73.9844Z" fill="white"/>
<path fill-rule="evenodd" clip-rule="evenodd" d="M40.2668 74.3918C41.9743 79.6867 43.7414 84.896 46.9579 88.5403C43.106 85.582 41.2198 80.5014 40.2668 74.3918Z" fill="white"/>
<path fill-rule="evenodd" clip-rule="evenodd" d="M94.1122 75.2277C94.4336 75.4483 94.6732 75.7837 94.7893 76.1754C94.9054 76.567 94.8906 76.9903 94.7476 77.3714C94.1718 77.007 94.0129 76.2567 94.1122 75.2277Z" fill="white"/>
<path fill-rule="evenodd" clip-rule="evenodd" d="M91.3124 77.8645C91.3124 78.3147 91.0345 78.4648 90.5579 78.4219C90.4388 78.4219 90.5579 78.036 90.28 77.9932C90.2998 77.3929 91.3124 76.9856 91.3124 77.8645Z" fill="white"/>
<path fill-rule="evenodd" clip-rule="evenodd" d="M93.855 77.4573C94.6095 77.6288 94.7088 78.5077 94.4904 79.3866C94.2274 79.1618 94.0284 78.8617 93.9161 78.5205C93.8037 78.1793 93.7825 77.8109 93.855 77.4573Z" fill="white"/>
<path fill-rule="evenodd" clip-rule="evenodd" d="M35.004 77.7145C35.6195 78.3791 34.9048 79.0436 34.6069 79.5367C34.4462 79.2374 34.3638 78.8965 34.3687 78.5506C34.5474 78.2719 34.8253 78.0361 35.004 77.7145Z" fill="white"/>
<path fill-rule="evenodd" clip-rule="evenodd" d="M35.3809 79.408C35.5198 79.408 35.4801 79.6866 35.639 79.6866C35.639 80.5013 35.1426 80.6299 35.0036 81.2087C34.3683 80.5013 35.1625 79.9439 35.3809 79.408Z" fill="white"/>
<path fill-rule="evenodd" clip-rule="evenodd" d="M93.5961 79.408C93.8826 79.5762 94.0969 79.8586 94.1933 80.195C94.2897 80.5314 94.2607 80.8951 94.1123 81.2087C93.2983 81.1229 93.4571 80.1368 93.5961 79.408Z" fill="white"/>
<path fill-rule="evenodd" clip-rule="evenodd" d="M35.897 81.0587C36.4927 81.7661 35.897 82.9023 35.2617 83.2024C34.9837 82.0448 35.5396 81.7661 35.897 81.0587Z" fill="white"/>
<path fill-rule="evenodd" clip-rule="evenodd" d="M75.866 82.3021C75.8527 82.6306 75.7696 82.9515 75.623 83.2398C75.4765 83.5281 75.2705 83.7761 75.021 83.9647C74.7714 84.1533 74.4851 84.2774 74.184 84.3274C73.883 84.3773 73.5753 84.3518 73.2848 84.2528C73.157 83.1606 73.4354 82.0582 74.0592 81.1873C74.7251 81.4232 75.3397 81.8024 75.866 82.3021Z" fill="white"/>
<path fill-rule="evenodd" clip-rule="evenodd" d="M93.299 81.3373C93.6763 81.3373 93.6167 81.9376 93.9542 82.0233C92.8348 86.4842 90.3418 90.4006 86.8858 93.1278C86.7469 92.6347 87.3028 92.3131 87.5212 92.013C88.57 90.7769 89.5575 89.4817 90.4796 88.1329C91.6216 85.9719 92.5658 83.696 93.299 81.3373V81.3373Z" fill="white"/>
<path fill-rule="evenodd" clip-rule="evenodd" d="M59.1469 81.7446C58.9535 82.1275 58.8874 82.5703 58.9597 82.9994C59.0319 83.4284 59.2381 83.8178 59.544 84.1027C60.5566 84.2313 60.7154 83.4381 60.6956 82.4306C61.5692 82.4306 61.3309 83.3738 61.2118 83.9741C60.7693 84.4256 60.1967 84.6996 59.5896 84.7503C58.9826 84.801 58.3777 84.6254 57.8761 84.2527C57.5585 83.0094 57.8761 81.5517 59.1469 81.7446Z" fill="white"/>
<path fill-rule="evenodd" clip-rule="evenodd" d="M90.3806 82.5806C90.3665 82.9197 90.2781 83.2503 90.1225 83.5453C89.9033 83.594 89.6751 83.5478 89.4872 83.4166C89.3283 82.7092 90.0232 82.3234 90.3806 82.5806Z" fill="white"/>
<path fill-rule="evenodd" clip-rule="evenodd" d="M36.1552 83.138C36.592 83.6954 35.9566 84.2956 35.7779 84.66C35.5396 84.66 35.7779 84.1884 35.5198 84.1027C35.5396 83.5667 36.036 83.5667 36.1552 83.138Z" fill="white"/>
<path fill-rule="evenodd" clip-rule="evenodd" d="M89.6053 84.6601C89.3853 85.968 88.9194 87.2134 88.2365 88.3195C87.5535 89.4256 86.6679 90.3689 85.6343 91.0912C86.6668 88.7975 88.2155 87.0396 89.2281 84.6601H89.6053Z" fill="white"/>
<path fill-rule="evenodd" clip-rule="evenodd" d="M36.552 84.8102C37.1865 85.1532 36.3735 85.7748 36.2942 86.1822C35.7192 85.8392 36.3339 85.1746 36.552 84.8102Z" fill="white"/>
<path fill-rule="evenodd" clip-rule="evenodd" d="M111.168 85.2175C111.724 85.7963 112.161 87.5541 111.287 88.1329C111.029 87.0182 110.652 86.3108 111.168 85.2175Z" fill="white"/>
<path fill-rule="evenodd" clip-rule="evenodd" d="M105.212 85.8391C105.43 85.9677 105.212 86.4822 105.589 86.5251C105.331 87.4898 105.013 88.4116 104.814 89.4405C104.633 88.8454 104.574 88.2145 104.643 87.5923C104.712 86.97 104.906 86.3716 105.212 85.8391Z" fill="white"/>
<path fill-rule="evenodd" clip-rule="evenodd" d="M37.0694 86.1822C37.3474 86.1822 37.2084 86.5895 37.4466 86.6109C37.4466 87.0825 36.99 87.1254 36.9304 87.5756C36.6326 87.5756 36.7914 87.1683 36.5532 87.1468C36.573 86.6752 37.0098 86.6323 37.0694 86.1822Z" fill="white"/>
<path fill-rule="evenodd" clip-rule="evenodd" d="M102.333 86.3321C102.809 86.718 102.551 88.0685 102.452 88.6902C102.287 88.3259 102.191 87.9293 102.17 87.5242C102.15 87.1191 102.205 86.7137 102.333 86.3321V86.3321Z" fill="white"/>
<path fill-rule="evenodd" clip-rule="evenodd" d="M37.7034 87.7042C38.1402 87.7042 37.9218 88.2187 38.2196 88.2615C38.2196 88.7546 37.7629 88.7975 37.7034 89.2476C37.346 89.2476 37.4651 88.6474 37.1871 88.5402C37.3261 88.2401 37.7034 88.09 37.7034 87.7042Z" fill="white"/>
<path fill-rule="evenodd" clip-rule="evenodd" d="M43.9989 87.9828C44.6939 88.5831 45.8653 89.2262 45.7859 90.1265C45.3103 90.0331 44.8768 89.772 44.5535 89.384C44.2301 88.9961 44.0351 88.5033 43.9989 87.9828V87.9828Z" fill="white"/>
<path fill-rule="evenodd" clip-rule="evenodd" d="M101.678 87.9828C101.884 88.5213 101.97 89.1046 101.928 89.6857C101.887 90.2667 101.72 90.829 101.44 91.327C101.259 90.783 101.186 90.2038 101.227 89.6274C101.268 89.051 101.422 88.4905 101.678 87.9828V87.9828Z" fill="white"/>
<path fill-rule="evenodd" clip-rule="evenodd" d="M110.432 87.9828C110.73 88.3093 110.916 88.7357 110.959 89.1917C111.002 89.6477 110.9 90.106 110.67 90.491C110.36 89.6996 110.277 88.8258 110.432 87.9828V87.9828Z" fill="white"/>
<path fill-rule="evenodd" clip-rule="evenodd" d="M26.7835 88.1329H27.299C27.418 88.4759 27.4973 88.9047 27.1602 89.0976C27.0722 89.0679 26.9913 89.0178 26.923 88.9508C26.8548 88.8838 26.8008 88.8015 26.765 88.7097C26.7291 88.6179 26.7122 88.5187 26.7154 88.4191C26.7186 88.3195 26.7418 88.2218 26.7835 88.1329V88.1329Z" fill="white"/>
<path fill-rule="evenodd" clip-rule="evenodd" d="M104.259 88.5402C104.426 89.1152 104.478 89.7217 104.413 90.32C104.348 90.9184 104.167 91.4953 103.882 92.013C103.227 90.8554 103.942 89.5049 104.259 88.5402Z" fill="white"/>
<path fill-rule="evenodd" clip-rule="evenodd" d="M38.5982 89.2477C38.8563 89.2477 38.7173 89.7622 38.9953 89.805C38.9553 90.0083 38.8604 90.1942 38.7226 90.3392C38.5847 90.4842 38.4102 90.5818 38.2209 90.6197C38.2288 90.5299 38.2072 90.44 38.1601 90.3656C38.1129 90.2912 38.0431 90.237 37.9628 90.2124C38.0621 89.7622 38.4195 89.6121 38.5982 89.2477Z" fill="white"/>
<path fill-rule="evenodd" clip-rule="evenodd" d="M109.777 90.1265C110.016 90.4137 110.168 90.7723 110.214 91.1551C110.26 91.5378 110.198 91.9266 110.035 92.2702C109.846 91.9569 109.724 91.6014 109.679 91.2302C109.635 90.859 109.668 90.4818 109.777 90.1265Z" fill="white"/>
<path fill-rule="evenodd" clip-rule="evenodd" d="M39.2527 90.7696C39.6498 90.641 39.5108 91.1341 39.7491 91.1769C39.7491 91.6271 39.3917 91.7986 39.2527 92.1416C38.4585 91.7343 38.9747 91.3484 39.2527 90.7696Z" fill="white"/>
<path fill-rule="evenodd" clip-rule="evenodd" d="M95.1455 91.0483C95.9794 92.0988 95.1455 93.1921 94.6293 93.9638C93.8946 92.8276 94.6293 91.8844 95.1455 91.0483Z" fill="white"/>
<path fill-rule="evenodd" clip-rule="evenodd" d="M100.664 91.0483C101.2 91.52 100.982 92.6347 100.664 93.1921C100.208 92.5275 100.526 91.7343 100.664 91.0483Z" fill="white"/>
<path fill-rule="evenodd" clip-rule="evenodd" d="M103.106 91.6057C103.581 92.1201 103.324 93.3849 102.967 93.7494C102.757 93.042 102.807 92.2745 103.106 91.6057V91.6057Z" fill="white"/>
<path fill-rule="evenodd" clip-rule="evenodd" d="M40.4045 92.2703C40.4045 92.7419 39.9484 92.7848 39.8889 93.2349C39.6906 92.9777 40.0277 92.2703 40.4045 92.2703Z" fill="white"/>
<path fill-rule="evenodd" clip-rule="evenodd" d="M109.005 92.2703C109.186 92.5469 109.303 92.8661 109.348 93.2014C109.393 93.5368 109.364 93.8789 109.262 94.1996C109.081 93.9229 108.964 93.6038 108.919 93.2684C108.874 92.9331 108.903 92.591 109.005 92.2703Z" fill="white"/>
<path fill-rule="evenodd" clip-rule="evenodd" d="M41.0395 93.2564C41.0395 93.7494 40.5835 93.7923 40.524 94.221C40.167 93.8781 40.6429 93.2564 41.0395 93.2564Z" fill="white"/>
<path fill-rule="evenodd" clip-rule="evenodd" d="M102.332 93.2564C102.511 93.6208 102.491 94.1996 102.71 94.5212C102.368 94.917 102.105 95.3838 101.935 95.8931C101.808 95.4504 101.778 94.9819 101.847 94.5244C101.916 94.067 102.082 93.6329 102.332 93.2564V93.2564Z" fill="white"/>
<path fill-rule="evenodd" clip-rule="evenodd" d="M99.8906 93.4065C100.167 93.7924 100.088 94.1354 100.009 94.6499C99.7325 94.414 99.9697 93.7709 99.8906 93.4065Z" fill="white"/>
<path fill-rule="evenodd" clip-rule="evenodd" d="M93.5963 93.5351C93.8137 93.8515 93.9193 94.2415 93.8938 94.6347C93.8683 95.0279 93.7136 95.3982 93.4575 95.6788C93.2989 95.1643 93.2989 93.8137 93.5963 93.5351Z" fill="white"/>
<path fill-rule="evenodd" clip-rule="evenodd" d="M108.368 93.8138C108.59 94.1143 108.72 94.4816 108.741 94.8653C108.763 95.249 108.674 95.6305 108.487 95.9575C108.294 95.6431 108.182 95.2793 108.161 94.9029C108.14 94.5266 108.211 94.1509 108.368 93.8138Z" fill="white"/>
<path fill-rule="evenodd" clip-rule="evenodd" d="M99.254 94.9284C99.5911 95.2928 99.254 96.1932 99.135 96.4504C98.7186 96.0217 99.254 95.3143 99.254 94.9284Z" fill="white"/>
<path fill-rule="evenodd" clip-rule="evenodd" d="M92.4443 95.057C92.94 95.2071 92.7219 96.8149 92.4443 97.0078C92.2685 96.718 92.1749 96.379 92.1749 96.0324C92.1749 95.6859 92.2685 95.3469 92.4443 95.057V95.057Z" fill="white"/>
<path fill-rule="evenodd" clip-rule="evenodd" d="M101.241 95.3357C101.395 95.6395 101.465 95.9843 101.444 96.3298C101.423 96.6753 101.311 97.0071 101.122 97.2865C100.966 96.9835 100.894 96.6382 100.915 96.2921C100.936 95.946 101.05 95.6139 101.241 95.3357V95.3357Z" fill="white"/>
<path fill-rule="evenodd" clip-rule="evenodd" d="M107.595 95.7645C107.873 96.3861 108.269 96.8792 107.853 97.5652C107.668 96.9864 107.581 96.3765 107.595 95.7645V95.7645Z" fill="white"/>
<path fill-rule="evenodd" clip-rule="evenodd" d="M42.449 95.8931H42.8456C42.8456 96.2576 42.8456 96.4934 42.449 96.4505C42.0524 96.4076 42.4688 96.279 42.449 95.8931Z" fill="white"/>
<path fill-rule="evenodd" clip-rule="evenodd" d="M98.3424 96.8578C98.7991 97.6081 97.8262 97.9725 97.7071 98.5299C97.3894 97.9511 98.1836 97.3937 98.3424 96.8578Z" fill="white"/>
<path fill-rule="evenodd" clip-rule="evenodd" d="M66.3557 99.9233C63.4172 99.4088 60.2007 99.1516 58.652 97.1365C58.7513 97.1365 58.7711 97.0079 58.9101 97.0079C59.0491 97.0079 59.0292 97.0079 59.0292 97.1365C60.2404 97.5438 61.4714 98.1226 62.762 98.5299C64.0199 98.7891 65.2325 99.2592 66.3557 99.9233Z" fill="white"/>
<path fill-rule="evenodd" clip-rule="evenodd" d="M100.406 97.1365C100.555 97.3429 100.623 97.6036 100.598 97.8636C100.572 98.1236 100.453 98.3626 100.267 98.5299C99.95 98.2084 100.228 97.3723 100.406 97.1365Z" fill="white"/>
<path fill-rule="evenodd" clip-rule="evenodd" d="M106.958 97.1365C107.202 97.3854 107.35 97.7248 107.372 98.0867C107.394 98.4485 107.289 98.806 107.077 99.0873C106.886 98.8091 106.773 98.477 106.751 98.1309C106.73 97.7848 106.802 97.4396 106.958 97.1365V97.1365Z" fill="white"/>
<path fill-rule="evenodd" clip-rule="evenodd" d="M90.6381 97.4152C91.2925 97.6296 91.0148 98.9373 90.6381 99.2374C90.3605 98.8729 90.5191 97.8225 90.6381 97.4152Z" fill="white"/>
<path fill-rule="evenodd" clip-rule="evenodd" d="M99.6316 98.2511C100.028 98.7871 99.6316 99.5802 99.3738 99.9232C99.2531 99.6495 99.213 99.3424 99.2592 99.0433C99.3053 98.7442 99.4353 98.4677 99.6316 98.2511V98.2511Z" fill="white"/>
<path fill-rule="evenodd" clip-rule="evenodd" d="M76.7602 100.052C71.8163 102.774 61.174 102.196 56.9051 98.6799C57.0044 98.6799 57.0243 98.5299 57.1632 98.5299C62.4433 100.673 68.1385 101.343 73.7223 100.481C74.8144 100.288 75.7873 99.4731 76.7602 100.052Z" fill="white"/>
<path fill-rule="evenodd" clip-rule="evenodd" d="M106.183 98.7014C106.323 98.9741 106.406 99.2765 106.427 99.5875C106.447 99.8985 106.405 100.211 106.302 100.502C106.084 99.9447 105.767 99.1301 106.183 98.7014Z" fill="white"/>
<path fill-rule="evenodd" clip-rule="evenodd" d="M77.0173 98.8085H77.6526C77.7519 99.2373 77.7519 99.0872 77.6526 99.4945C77.057 99.5588 76.7989 99.2801 77.0173 98.8085Z" fill="white"/>
<path fill-rule="evenodd" clip-rule="evenodd" d="M97.0701 98.9586C97.427 99.2373 96.8916 99.6661 96.8123 99.9233C96.4157 99.6446 96.9709 99.1945 97.0701 98.9586Z" fill="white"/>
<path fill-rule="evenodd" clip-rule="evenodd" d="M98.5995 99.6446C99.1356 100.738 98.1627 101.381 97.9641 102.131C97.4479 101.059 98.2818 100.266 98.5995 99.6446Z" fill="white"/>
<path fill-rule="evenodd" clip-rule="evenodd" d="M105.213 100.202C105.649 100.202 105.688 101.36 105.47 101.724C105.213 101.531 105.213 100.524 105.213 100.202Z" fill="white"/>
<path fill-rule="evenodd" clip-rule="evenodd" d="M95.8985 100.481C96.2951 100.867 95.8985 101.467 95.6407 101.724C95.2838 101.295 95.8192 100.845 95.8985 100.481Z" fill="white"/>
<path fill-rule="evenodd" clip-rule="evenodd" d="M104.635 101.295C104.747 101.431 104.832 101.59 104.887 101.762C104.942 101.934 104.964 102.116 104.953 102.298C104.942 102.479 104.898 102.657 104.823 102.819C104.747 102.982 104.643 103.127 104.515 103.246C103.86 102.732 104.277 101.81 104.635 101.295Z" fill="white"/>
<path fill-rule="evenodd" clip-rule="evenodd" d="M97.2702 101.724C98.2034 102.517 96.615 104.532 96.1186 103.396C96.4165 103.396 96.3966 103.632 96.754 103.525C96.5356 102.582 96.9526 102.26 97.2702 101.724Z" fill="white"/>
<path fill-rule="evenodd" clip-rule="evenodd" d="M54.0254 102.131C54.3665 102.06 54.7196 102.102 55.0384 102.252C55.3572 102.401 55.6269 102.65 55.8123 102.967C55.4549 103.846 53.5885 102.989 54.0254 102.131Z" fill="white"/>
<path fill-rule="evenodd" clip-rule="evenodd" d="M94.7476 102.131C95.1045 102.431 94.589 102.967 94.232 102.967C94.3907 102.667 94.6683 102.517 94.7476 102.131Z" fill="white"/>
<path fill-rule="evenodd" clip-rule="evenodd" d="M103.484 103.246C104.199 104.061 103.365 105.39 102.193 105.047C102.491 104.296 103.226 103.975 103.484 103.246Z" fill="white"/>
<path fill-rule="evenodd" clip-rule="evenodd" d="M57.877 103.525C58.0951 103.525 58.1546 103.696 58.3925 103.675C58.3925 104.103 58.2736 104.275 57.877 104.211C57.7989 104.116 57.7558 103.994 57.7558 103.868C57.7558 103.741 57.7989 103.619 57.877 103.525V103.525Z" fill="white"/>
<path fill-rule="evenodd" clip-rule="evenodd" d="M56.8457 106.44C54.8602 106.44 53.0732 105.068 51.187 104.489C51.2863 104.125 51.5642 103.975 51.7032 103.675C53.4617 104.497 55.1782 105.42 56.8457 106.44Z" fill="white"/>
<path fill-rule="evenodd" clip-rule="evenodd" d="M81.1265 103.932C81.464 103.932 81.2854 104.039 81.2655 104.211C78.8035 105.154 75.6664 107.491 72.5293 107.962C71.7554 108.005 70.9801 108.005 70.2062 107.962C68.0818 108.091 65.6992 108.948 63.6541 107.962C63.6541 106.504 64.9248 107.255 65.6396 107.276C70.9841 107.645 76.3245 106.492 81.1265 103.932Z" fill="white"/>
<path fill-rule="evenodd" clip-rule="evenodd" d="M62.761 104.211H63.2765V104.768C62.8601 104.832 62.7015 104.661 62.761 104.211Z" fill="white"/>
<path fill-rule="evenodd" clip-rule="evenodd" d="M69.1753 104.64H69.5719C69.6932 104.842 69.736 105.089 69.6909 105.326C69.2943 105.326 69.453 105.326 69.0564 105.326C69.0113 105.089 69.0541 104.842 69.1753 104.64V104.64Z" fill="white"/>
<path fill-rule="evenodd" clip-rule="evenodd" d="M58.2545 106.161C58.9495 106.161 59.3267 106.483 60.0614 106.44C60.0614 106.955 59.9025 107.105 59.9224 107.555C59.2672 107.555 58.9098 107.19 58.2545 107.126V106.161Z" fill="white"/>
<path fill-rule="evenodd" clip-rule="evenodd" d="M61.213 106.719C61.7689 106.612 61.9476 106.955 62.5035 106.848C62.5461 107.275 62.4986 107.707 62.3646 108.112C62.166 107.812 61.4314 108.112 61.213 107.834V106.719Z" fill="white"/>
<path fill-rule="evenodd" clip-rule="evenodd" d="M49.9152 111.564C54.0217 113.406 58.3449 114.625 62.7614 115.187C64.2902 115.379 65.9183 115.765 67.3876 115.873C70.2495 115.713 73.0895 115.246 75.8657 114.479C77.335 114.265 78.7844 114.136 80.0948 113.793C81.2464 113.296 82.4555 112.972 83.6886 112.828C83.0135 113.986 81.4648 114.2 80.2338 114.629C71.4579 117.545 56.6857 116.773 49.9152 112.485V111.564Z" fill="white"/>
<path fill-rule="evenodd" clip-rule="evenodd" d="M82.6755 118.788C82.9535 119.067 82.4174 119.624 82.5365 120.181C79.1157 121.424 75.5916 122.307 72.0134 122.818C71.4971 122.647 72.5296 121.939 72.6487 121.553C76.1228 121.324 79.5251 120.386 82.6755 118.788V118.788Z" fill="white"/>
<path fill-rule="evenodd" clip-rule="evenodd" d="M50.1536 119.195C55.7745 121.004 61.6234 121.851 67.4871 121.703C67.4871 122.346 66.7127 122.261 66.5737 122.818C60.1804 122.539 54.3033 121.811 50.1536 119.195Z" fill="white"/>
<path fill-rule="evenodd" clip-rule="evenodd" d="M71.7559 121.703C71.4843 122.159 71.0954 122.52 70.637 122.74C70.1785 122.961 69.6704 123.033 69.1748 122.947C69.4325 122.476 69.8194 122.104 70.2818 121.881C70.7443 121.658 71.2594 121.596 71.7559 121.703Z" fill="white"/>
<path fill-rule="evenodd" clip-rule="evenodd" d="M69.4731 121.832C69.2149 122.239 68.6987 122.389 68.5796 122.947H67.4875C67.8648 122.282 68.2023 121.618 69.4731 121.832Z" fill="white"/>
<path fill-rule="evenodd" clip-rule="evenodd" d="M56.3293 138.489C56.2102 139.046 55.7336 139.239 55.5549 139.732C55.1181 139.732 55.0784 139.518 54.6615 139.603C55.1181 139.132 55.2174 138.253 56.3293 138.489Z" fill="white"/>
<path fill-rule="evenodd" clip-rule="evenodd" d="M58.1361 138.489C57.6199 139.046 57.2824 140.354 56.1506 139.882C56.786 139.432 56.9448 138.382 58.1361 138.489Z" fill="white"/>
<path fill-rule="evenodd" clip-rule="evenodd" d="M59.6633 138.617C59.5243 139.389 58.9683 139.732 58.6507 140.289C58.333 140.289 58.2734 140.054 57.8763 140.161C58.4521 139.625 58.6705 138.703 59.6633 138.617Z" fill="white"/>
<path fill-rule="evenodd" clip-rule="evenodd" d="M61.7297 138.896C61.0744 139.496 60.8958 140.59 59.5456 140.418C59.9626 139.432 60.32 138.532 61.7297 138.896Z" fill="white"/>
<path fill-rule="evenodd" clip-rule="evenodd" d="M63.0203 139.046C62.6033 139.732 62.0275 140.911 61.0348 140.418C61.6304 139.946 61.829 138.96 63.0203 139.046Z" fill="white"/>
<path fill-rule="evenodd" clip-rule="evenodd" d="M64.6876 139.175C64.0126 139.753 63.7941 141.083 62.7021 140.697C63.2183 140.096 63.5162 139.132 64.6876 139.175Z" fill="white"/>
<path fill-rule="evenodd" clip-rule="evenodd" d="M67.1297 139.432C65.9582 139.818 65.7994 141.318 64.0323 141.083C64.7669 140.096 65.2633 138.982 67.1297 139.432Z" fill="white"/>
<path fill-rule="evenodd" clip-rule="evenodd" d="M68.798 139.432C68.1627 140.311 67.7656 141.576 66.0977 141.233C66.9317 140.439 67.0706 139.025 68.798 139.432Z" fill="white"/>
<path fill-rule="evenodd" clip-rule="evenodd" d="M54.0259 140.289C54.3238 140.289 54.3635 140.761 54.6613 140.847C54.4826 141.254 54.1649 140.675 53.7678 140.847C53.5891 140.461 54.0259 140.568 54.0259 140.289Z" fill="white"/>
<path fill-rule="evenodd" clip-rule="evenodd" d="M73.2844 5.72868C79.7094 5.58644 86.0816 7.00785 91.9283 9.88748C90.6977 8.5048 89.0912 7.58124 87.3418 7.25071C80.869 4.89263 72.4704 4.76401 63.5157 4.33526C59.6265 3.99446 55.7163 4.61013 52.0792 6.13598C53.1911 6.86484 54.7001 6.00736 56.0502 5.72868C58.7679 5.26378 61.5201 5.07716 64.2702 5.17131C56.0707 6.21744 48.1135 8.85363 40.7817 12.953C39.511 13.7247 38.2601 14.1963 37.0688 14.9038C35.9761 15.6968 34.9407 16.5783 33.9715 17.5405C32.2044 18.9982 30.1593 20.1559 28.3128 21.5707C26.4662 22.9855 24.858 24.5505 22.9321 25.8581C22.2967 27.4873 20.2913 29.0523 18.961 30.7243C15.5554 34.9297 12.6658 39.5913 10.3638 44.5942C11.7729 40.4332 13.7179 36.5073 16.1416 32.9324C17.3479 31.2473 18.6335 29.6302 19.9935 28.0876C21.3635 26.5441 22.3761 24.5933 23.7064 23.0927C25.3544 21.2491 27.3002 19.5127 29.107 17.8192C34.6664 12.6529 41.7943 9.95179 48.962 6.30748C44.1285 7.46566 39.4926 9.43307 35.2223 12.1384C43.4904 5.85032 53.4047 2.58271 63.5157 2.81323C67.9807 2.8778 72.4373 3.25013 76.8583 3.92796C79.3998 4.37814 82.1001 4.37814 84.3437 4.89263C87.147 5.6236 89.8646 6.69515 92.4445 8.08676C99.9299 11.7311 105.906 17.4976 111.704 22.6426C111.488 23.0417 111.315 23.466 111.188 23.9073C111.545 24.2718 111.922 22.8998 112.478 23.4786C112.478 23.8859 112.776 23.9931 112.994 24.186C112.994 24.8291 112.419 25.0435 112.22 25.558C109.651 22.7208 106.905 20.0778 104 17.6477C102.073 15.5869 99.8627 13.8589 97.448 12.5242C98.7886 14.0571 100.295 15.4102 101.935 16.5544C103.504 17.9264 104.913 19.5556 106.442 20.8418C97.726 13.8319 87.58 7.16496 73.2844 5.72868Z" fill="white"/>
<path fill-rule="evenodd" clip-rule="evenodd" d="M5.57895 65.9241C6.71069 65.1952 6.47243 63.5231 6.61141 62.4727C7.82257 53.4048 11.3369 46.4163 14.5534 39.4278C16.4545 36.0425 18.8402 33.0037 21.6218 30.4242C24.111 27.569 26.8358 24.9644 29.7624 22.6425C32.7385 20.3228 35.827 18.176 39.0148 16.2114C42.2193 13.9782 45.6585 12.1648 49.26 10.8093C53.2017 9.38913 57.2371 8.29271 61.3319 7.52939C66.0496 7.13618 70.795 7.46091 75.429 8.49406C83.366 9.93491 91.0152 12.8353 98.0438 17.0689C109.758 24.3146 119.904 38.6775 124.55 53.855C125.464 56.7919 125.861 60.2861 126.536 63.566C127.36 67.0064 127.622 70.5755 127.31 74.113C126.778 80.8255 125.485 87.4419 123.458 93.8137C121.452 99.3368 118.952 104.635 115.993 109.634C113.154 114.479 108.607 117.545 105.47 122.111C102.71 124.426 100.148 127.213 97.0709 129.335C96.7533 129.549 96.0583 129.335 95.7804 129.614C92.2035 131.787 88.4058 133.506 84.463 134.737C80.1782 136.273 75.7391 137.252 71.2395 137.653C66.5006 137.749 61.7647 137.333 57.1028 136.409C49.1725 135.099 41.5413 132.19 34.607 127.834C31.4552 125.894 28.5005 123.602 25.7914 120.996C24.7589 119.967 23.8059 118.424 22.7138 117.116C21.6218 115.808 20.2121 114.844 19.3186 113.707C17.9129 111.652 16.6264 109.504 15.4668 107.276C9.75725 96.654 6.74382 84.5937 6.73054 72.3123C6.73054 71.1333 7.16736 69.3754 5.97605 68.4322C5.4744 70.2751 5.25311 72.1936 5.32084 74.113C5.49154 85.126 7.99788 95.9502 12.6473 105.754C13.5586 107.951 14.6763 110.042 15.983 111.992C16.3801 112.528 16.936 112.828 17.3927 113.386C19.0605 115.315 20.3511 117.673 22.277 119.624C23.978 121.662 25.8163 123.56 27.7769 125.305C28.7696 126.012 29.9411 126.548 30.9934 127.256C38.4482 132.137 46.4568 135.956 54.8194 138.617C53.8862 139.968 52.2581 138.875 51.1065 138.489C49.9549 138.103 48.1879 137.61 46.8576 137.245C39.2455 134.822 32.2267 130.605 26.3076 124.898C20.3053 119.77 15.3616 113.344 11.7936 106.033C10.8511 103.393 9.54585 100.922 7.92185 98.7014C11.4983 108.999 17.4754 118.125 25.2751 125.198C29.0905 128.819 33.3212 131.895 37.8632 134.351C42.9049 136.869 48.1748 138.816 53.5884 140.161C52.9928 140.975 52.0397 140.161 51.4044 140.011C49.2005 139.346 46.3413 138.81 44.197 137.867C42.4895 137.16 40.8216 135.981 39.0744 135.102C33.8556 132.739 28.9647 129.608 24.5405 125.798C18.9569 120.664 14.2525 114.511 10.642 107.619C4.86417 96.8364 1.96534 83.5454 2.87867 66.7601C3.14352 63.0884 3.61429 59.4374 4.28838 55.8272C4.50678 54.6053 4.48693 53.4477 4.68548 52.2258C5.1987 50.1851 5.86266 48.1923 6.67098 46.2662C8.47733 40.7608 11.2252 35.6706 14.7718 31.2603C19.1072 25.4213 24.1491 20.2372 29.7624 15.847C25.2433 20.1151 21.0349 24.7521 17.1743 29.7168C15.792 31.3096 14.5429 33.0313 13.4415 34.8617C12.6871 36.1908 12.2304 37.9701 11.456 39.5779C10.6817 41.1856 9.90735 42.5148 9.3117 44.0153C8.17996 47.3381 7.60417 50.9395 6.47243 54.5624C5.42533 58.2592 4.75947 62.0695 4.48693 65.9241C3.92374 71.5626 4.05058 77.2566 4.86417 82.8594C5.04287 77.4144 4.44722 70.6617 5.51939 64.8308C5.7775 63.8018 5.26127 65.7311 5.57895 65.9241ZM56.3284 58.9999C59.0124 57.4285 61.3388 55.2316 63.1387 52.5688C67.5266 46.352 66.1964 33.2754 62.2452 27.1872C61.2954 25.4889 60.1769 23.9075 58.9096 22.4711C58.0757 21.7422 57.0432 21.1848 56.2093 20.5203C55.3754 19.8557 54.5216 19.1054 53.509 18.3766C50.5257 17.3253 47.3919 16.8606 44.2566 17.0046C42.137 17.2413 40.0586 17.7969 38.0816 18.6552C34.9843 19.8557 31.5295 21.6564 30.1396 24.2075C35.0041 21.2063 40.9606 16.7688 49.0218 18.3766C50.7558 18.916 52.438 19.6339 54.0451 20.5203C58.2003 22.6778 61.4531 26.4422 63.1585 31.0673C65.2848 36.6905 65.4261 42.9605 63.5556 48.6886C62.1255 51.9847 60.0128 54.8819 57.3807 57.1563C55.7762 58.3734 54.0515 59.3943 52.2383 60.2004C51.3448 60.6505 50.4116 60.5434 49.677 61.165C52.0993 61.7653 54.5017 60.1146 56.3284 58.9999ZM81.0082 23.0713C81.1274 22.6425 81.4649 22.4496 81.3855 21.8279C80.1942 22.2138 79.9956 23.4786 79.4 24.3146C77.9108 26.1582 76.3224 26.6084 75.151 28.9022C74.7142 29.7382 74.059 30.6172 73.7413 31.3889C73.4399 32.6583 73.2668 33.9593 73.225 35.269C72.6712 37.3571 72.4562 39.5329 72.5897 41.7001C73.1132 45.64 74.4721 49.3962 76.5607 52.6759C78.6189 55.2321 81.2089 57.2253 84.1182 58.4922C87.0276 59.7591 90.1736 60.2637 93.2985 59.9646C93.1992 60.3504 93.2985 60.9507 93.0404 61.2079C91.6307 61.1007 90.1415 60.9935 88.6723 60.8006C87.203 60.6077 85.8528 59.9217 84.9594 60.5219C88.6963 62.3371 92.8826 62.774 96.8724 61.7653C102.829 60.0932 109.004 54.5195 110.493 48.4528C111.041 45.1248 110.864 41.7047 109.977 38.4631C109.738 44.0368 109.778 48.9459 107.991 52.483C107.013 53.9074 105.841 55.1648 104.517 56.2131C103.254 57.5231 101.713 58.4798 100.029 58.9999C100.208 58.4211 100.208 57.6065 100.923 57.6065C100.923 57.9066 100.724 58.5711 101.181 58.4425C101.32 57.4135 102.194 56.9848 102.213 56.2988C103.683 56.063 104.358 54.4767 105.688 54.4981C105.688 53.9622 105.45 53.8335 105.549 53.2547C107.058 51.7541 107.435 48.9673 108.368 46.8236C108.11 44.6799 108.964 42.772 108.885 40.5854C108.706 35.6549 106.899 29.8669 104.397 27.273C101.845 24.6407 98.7055 22.7651 95.284 21.8279C92.7028 21.4206 90.1217 21.2063 87.064 20.9919C87.2626 20.4988 87.3023 19.8557 87.6994 19.5985C90.7068 19.4977 93.7167 19.6842 96.6937 20.1558C95.1544 19.099 93.3751 18.5204 91.5512 18.4837C88.2716 18.1073 84.9556 18.4129 81.7826 19.3841C76.7592 21.7636 72.2919 26.0296 71.3587 32.1392C72.2919 31.5604 72.6294 30.2956 73.1655 29.3738C75.334 25.5327 78.5728 22.5311 82.4179 20.799C81.7826 21.3992 82.0208 22.8998 81.0082 23.0713ZM44.8919 20.0058C43.7999 20.113 42.5689 20.0058 41.4173 20.1558C36.6221 21.2524 32.3196 24.0895 29.2263 28.1948C27.7755 30.5868 26.8081 33.2822 26.387 36.1051C25.6524 43.9939 28.6505 52.0114 32.4428 54.9697C34.6269 56.7061 37.2874 59.5144 40.3848 59.4072C41.9137 59.4072 43.0851 59.7073 44.3558 59.6859C45.6266 59.6644 46.4803 59.3214 47.4532 59.2786C48.4261 59.2357 48.9423 59.5144 49.6373 59.4072C51.5503 58.8458 53.3671 57.9555 55.018 56.7704C57.4472 55.5067 59.4675 53.4823 60.8156 50.961C61.2127 50.2321 61.6496 49.3532 61.9672 48.6029C63.3472 44.9018 63.6587 40.8367 62.8607 36.9411C62.6397 35.1044 62.254 33.2952 61.7091 31.5389C59.2868 24.8291 52.2383 20.6703 45.2692 19.5985C45.2692 19.5985 45.1103 19.5985 45.1302 19.7271C45.15 19.8557 44.9515 19.8986 44.8919 20.0058ZM104.636 25.8152C102.933 23.5178 100.596 21.8659 97.9644 21.0991C100.208 22.664 102.333 24.3575 104.636 25.8152ZM24.7192 44.6799C25.3883 46.5182 25.8677 48.4305 26.1488 50.3822C28.313 54.8625 31.0728 58.7426 36.0763 60.0932C34.9445 58.3782 32.3832 57.9495 30.9338 56.1916C29.5658 54.315 28.4063 52.2717 27.4791 50.1035C26.4244 47.6455 25.7535 45.0162 25.4936 42.3218C24.9773 37.7709 25.6657 33.1552 27.4791 29.0094C27.8166 28.2591 28.313 27.5731 28.1343 27.2087C24.4412 29.824 23.647 38.6775 24.7192 44.7013V44.6799ZM107.991 30.9601C107.991 30.3385 107.832 29.9097 107.336 29.8454C107.336 30.4885 107.495 30.8958 107.991 30.9816V30.9601ZM109.639 36.3623C109.703 35.0899 109.39 33.8285 108.746 32.7609C108.54 33.3917 108.515 34.075 108.674 34.7213C108.833 35.3677 109.17 35.9471 109.639 36.3837V36.3623ZM70.3461 38.3131C70.1078 43.801 71.5175 50.3607 73.6817 53.4262C74.5951 54.4807 75.5844 55.4556 76.6401 56.3417C78.4079 58.2727 80.706 59.5359 83.1923 59.9431C83.2915 59.2571 82.4973 59.3643 82.1598 59.1071C81.8223 58.8498 81.4053 58.2925 81.0082 58.0138C80.2934 57.4993 79.4 57.3707 78.6852 56.8991C72.9272 52.9975 71.1998 44.637 70.7432 35.2476C70.4341 36.2409 70.2995 37.2878 70.3461 38.3345V38.3131ZM69.0555 55.6557C64.191 53.7907 62.7416 64.2305 68.6584 62.7299C69.5126 62.3643 70.2229 61.6901 70.6682 60.8222C71.1135 59.9544 71.2663 58.9467 71.1006 57.9709C70.3064 56.9205 69.949 56.0201 69.0555 55.6771V55.6557ZM38.856 61.2079C39.7098 61.3365 40.4841 62.2155 41.4173 61.7653C41.6754 60.4362 39.2928 60.6077 38.856 61.2079ZM43.6212 61.4866C43.4226 62.537 45.3684 62.3441 45.6067 61.7653C45.3684 61.2293 44.1176 61.2508 43.6609 61.4866H43.6212ZM25.1163 63.6303C22.5238 64.1356 20.0522 65.2001 17.8494 66.7601C17.3331 67.2103 16.9162 67.982 16.3205 68.5608C14.9179 69.7351 13.7891 71.2474 13.0246 72.9769C12.4889 73.8915 12.2256 74.9613 12.2701 76.0424C14.4186 72.3726 17.3192 69.2849 20.7482 67.0174C23.8324 65.2405 27.2014 64.1129 30.6757 63.6946C32.9988 63.6946 34.8056 64.595 36.8506 64.6593C34.5077 61.508 29.2462 62.5584 25.1163 63.7161V63.6303ZM58.5125 68.9038C60.498 65.8812 57.4006 62.6013 54.5415 63.3516C52.9531 63.7589 52.3177 65.9241 52.3574 68.4751C53.3104 70.8332 57.341 70.8332 58.5125 68.9896V68.9038ZM76.8784 67.9177C77.3549 70.2972 81.3656 70.4902 82.4179 68.9038C84.2644 66.0956 82.1995 62.6871 78.6852 63.909C77.9684 64.2295 77.387 64.8253 77.0533 65.5815C76.7196 66.3377 76.6573 67.2006 76.8784 68.0035V67.9177ZM48.5055 74.113C47.0363 72.441 45.845 70.1686 44.1176 68.4322C42.352 66.6755 40.342 65.2288 38.1611 64.1448C38.0419 64.1448 38.0022 64.2734 37.9029 64.2949C37.8037 64.3163 37.7044 64.402 37.7044 64.6807C39.0347 66.3314 40.9408 66.8244 42.4497 68.0035C46.937 71.7978 49.0019 77.8002 50.1535 85.1532C50.615 81.3783 50.0421 77.5402 48.5055 74.113V74.113ZM101.042 64.6807C97.6381 64.7546 94.33 65.9104 91.5314 68.0035C92.822 68.325 94.0728 67.1031 95.6414 66.6315C98.8046 65.555 102.176 65.407 105.41 66.2028C105.3 66.6316 105.08 67.0181 104.775 67.3175C95.4428 66.6744 88.6921 70.8117 85.4955 77.5859C83.6655 80.8314 82.8575 84.6292 83.1923 88.4116C83.5612 93.4986 85.6873 98.2501 89.1488 101.724C91.522 103.618 94.1732 105.067 96.9915 106.011C99.6995 107.088 102.613 107.42 105.47 106.976C109.531 105.893 113.202 103.527 116.013 100.181C118.725 96.0786 120.245 91.1984 120.381 86.1607C120.388 83.5618 119.957 80.9831 119.11 78.5505C118.872 77.9074 118.911 77.0928 118.733 76.6212C117.819 74.2202 115.437 72.8054 113.968 70.9189C114.385 70.9189 114.583 69.9114 115 70.2329C115.417 70.5545 115 70.9189 115 71.6263C115.556 71.8193 115.278 71.0904 115.774 71.1976C119.487 74.9705 121.512 81.5517 121.096 89.5263C121.096 91.4128 120.54 93.1278 120.321 95.0571C123.26 91.7558 122.307 84.4886 121.354 79.6653C120.837 77.2 119.785 75.0563 119.368 73.2341C118.971 71.6692 116.032 69.5255 114.742 68.518C112.535 66.9096 110.038 65.8213 107.415 65.3238C107.137 65.3238 107.137 64.9808 107.157 64.6378C105.35 65.2381 103.107 64.5521 101.042 64.6807V64.6807ZM43.8793 99.4946C45.9328 96.8997 47.3827 93.8129 48.1084 90.491C48.4633 89.2728 48.6833 88.0135 48.7636 86.7395C48.8828 80.7371 47.3738 73.3199 43.105 69.8256C42.7476 69.5255 42.2313 69.2897 41.8144 68.9896C39.4053 67.2183 36.7122 65.9462 33.8724 65.2381C28.2137 63.6946 23.6669 66.0741 20.1128 68.0035C19.3583 69.3326 17.9288 70.1472 16.9162 71.4763C15.4334 73.4824 14.2601 75.7336 13.4415 78.1432C9.90735 88.3902 13.6997 98.7014 20.7482 102.689C24.1074 104.721 27.8975 105.777 31.7479 105.754C33.9246 105.412 36.0748 104.896 38.1809 104.211C40.1528 102.743 42.0547 101.169 43.8793 99.4946V99.4946ZM63.7939 68.6895C64.1314 67.639 65.2036 67.3389 65.5809 66.3314C59.2272 67.982 61.451 78.7863 67.1295 79.5152C68.2553 79.5878 69.381 79.3733 70.4158 78.8892C71.4506 78.4051 72.3653 77.6649 73.0861 76.7284C73.6221 75.9352 74.3369 74.2417 73.4832 73.1269C73.2396 73.9714 72.8245 74.7465 72.268 75.3955C71.7115 76.0446 71.0277 76.5512 70.2666 76.8784C71.1998 75.5708 72.55 74.7347 73.0861 72.9769C71.1006 73.7057 69.8298 77.9717 67.3082 77.4358C69.6134 75.5415 71.7235 73.3855 73.6023 71.0047C73.9001 71.1762 73.6023 71.9479 74.1185 71.9693C74.2303 70.6651 73.9381 69.3577 73.2878 68.2521C72.6374 67.1464 71.6656 66.305 70.5248 65.8598C70.3064 65.6025 70.5248 65.6883 70.5248 65.3238C69.7107 65.3238 69.393 66.0313 68.3407 65.8598C68.0826 66.117 68.3407 66.3743 68.3407 66.6958C66.5736 67.9392 64.8859 69.9971 63.3372 70.9832C63.3372 68.8395 65.1043 68.3679 66.0177 67.1031C65.144 67.5104 64.3498 68.6895 63.7939 68.6895ZM90.1217 69.3754C84.8402 73.4485 78.5661 83.0094 82.2789 92.549C81.9946 90.7152 81.908 88.852 82.0208 86.9967C82.4758 82.0232 84.2627 77.3005 87.1633 73.4056C88.2156 72.0337 89.9231 71.2619 90.3798 69.3754H90.1217ZM10.5824 78.9793C9.47054 85.8391 10.2846 94.6284 14.0571 97.4152C12.2384 94.0335 11.184 90.2364 10.9795 86.3322C10.781 82.9237 12.0318 79.9011 12.2701 76.6212H11.8929C11.4958 77.4572 11.3766 78.572 10.5824 78.9793ZM76.382 86.4608C77.0621 85.9037 77.5637 85.1308 77.8165 84.2505C78.0693 83.3702 78.0606 82.4265 77.7917 81.5517C77.3463 80.7263 76.6704 80.0744 75.8607 79.6893C75.0511 79.3042 74.1493 79.2057 73.2846 79.408C71.6962 79.8582 71.18 82.6236 71.2991 84.6815C72.6492 85.8391 74.595 87.3183 76.382 86.4608V86.4608ZM62.8806 81.5517C62.5033 80.0726 60.359 79.1936 58.5125 79.6009C56.6659 80.0082 55.9512 82.0233 56.2093 84.4672C58.1154 87.9829 64.1513 86.568 62.8806 81.5517ZM6.47243 90.6196C6.56249 89.4709 6.2429 88.3284 5.57895 87.4255C5.34069 88.5617 5.32084 90.5553 6.47243 90.6196ZM48.168 93.6851C47.5154 95.4596 46.6688 97.1436 45.6464 98.7014C44.2416 100.345 42.6467 101.786 40.9011 102.989C40.0812 103.7 39.219 104.351 38.3199 104.94C37.4463 105.454 36.1756 105.518 35.5005 106.59C39.7495 106.462 41.457 103.589 44.3558 102.024C46.9965 99.7304 47.9694 96.4076 49.4983 92.9991C50.3174 91.44 50.7227 89.6673 50.6697 87.8757C50.6477 87.8189 50.6075 87.7725 50.5565 87.745C50.5055 87.7174 50.4471 87.7106 50.3918 87.7256C49.4546 89.6281 48.6899 91.6238 48.1084 93.6851H48.168ZM87.0441 109.42C86.4135 106.133 84.9414 103.103 82.7952 100.674C79.6978 96.2361 76.382 92.8062 70.5843 91.7987C68.6177 91.4258 66.6246 91.2393 64.6278 91.2413C60.5832 91.5239 56.7627 93.347 53.8465 96.3862C51.5536 98.2143 49.6284 100.526 48.1879 103.182C47.7908 103.975 47.1355 104.682 46.8973 105.325C45.8081 108.466 45.3282 111.816 45.4876 115.165C46.3016 120.717 49.121 127.706 52.4368 130.428C52.7744 130.707 53.092 131.243 53.5884 131.136C52.5596 129.194 51.3981 127.339 50.1138 125.584C48.9609 123.574 48.0533 121.413 47.4135 119.152C46.5748 115.235 46.6498 111.154 47.6319 107.276C48.8178 103.26 51.2154 99.7884 54.4422 97.4152C55.631 96.3107 56.9218 95.341 58.2941 94.5212C61.7576 92.8362 65.582 92.2061 69.3533 92.699C71.7263 93.0477 74.0079 93.9181 76.0569 95.2566C78.106 96.595 79.879 98.3731 81.2663 100.481C82.3642 101.864 83.3474 103.349 84.2049 104.918C85.9578 109.385 86.7519 114.222 86.5279 119.067C87.9972 116.323 87.5207 112.764 87.0441 109.42ZM7.38576 95.8931C7.38536 95.4859 7.30355 95.0836 7.14593 94.7136C6.9883 94.3436 6.75857 94.0148 6.47243 93.7494C6.23417 94.414 6.23417 96.1504 7.38576 95.8931ZM76.6401 97.0079C76.2232 96.622 76.2232 96.1933 75.7268 95.8931C73.6951 94.966 71.5188 94.464 69.3136 94.414C65.7823 93.9809 62.2068 94.5039 58.9096 95.936C57.6193 96.4781 56.3711 97.1305 55.1768 97.8868C54.6606 98.2512 54.1046 99.0873 53.37 99.6875C50.8951 102.002 49.1023 105.048 48.2131 108.45C47.3239 111.852 47.3773 115.461 48.3665 118.831C48.6959 120.506 49.1136 122.159 49.6174 123.783C51.1035 126.405 53.145 128.609 55.5739 130.214C57.8161 132.033 60.4007 133.298 63.1453 133.92C65.8899 134.543 68.7276 134.507 71.4579 133.815C73.0758 133.281 74.6608 132.637 76.2033 131.886C77.5932 129.742 80.1743 128.52 81.862 126.184C83.7145 123.358 84.8632 120.066 85.1976 116.623C85.4514 113.486 85.1027 110.327 84.1734 107.343C83.2441 104.359 81.7542 101.614 79.7971 99.2802C78.8242 98.487 77.5534 97.8868 76.6401 97.0079ZM83.4504 94.8642C83.1724 94.8642 83.1923 94.4569 82.9342 94.7355C84.7013 99.9448 88.1163 105.111 92.4447 106.933C95.3237 108.155 98.5799 110.192 102.372 109.077C93.0404 107.491 86.7463 102.667 83.371 94.7784L83.4504 94.8642ZM113.233 104.168C110.652 106.655 107.554 107.383 103.98 109.163C108.999 108.567 113.672 106.113 117.204 102.217C118.771 100.676 119.854 98.645 120.301 96.4076C120.301 96.4076 120.44 96.279 120.301 96.2576C120.162 96.2361 120.301 96.1075 120.162 96.129C117.991 98.9102 115.685 101.565 113.253 104.082L113.233 104.168ZM25.8708 106.805C26.6849 106.955 28.1541 107.212 28.8093 106.655C23.7549 105.348 19.0167 102.892 14.9108 99.4517C17.5476 103.334 21.4902 105.943 25.8907 106.719L25.8708 106.805ZM30.7353 107.083C31.0132 107.083 31.0132 107.298 30.8743 107.491C31.6685 107.726 33.3561 107.791 33.5745 106.933C33.0186 106.269 31.2714 106.612 30.7551 106.998L30.7353 107.083ZM85.7337 121.232C85.5843 121.28 85.4525 121.378 85.3565 121.51C84.2679 123.199 83.2798 124.96 82.3981 126.784C81.3393 128.43 80.0382 129.879 78.5462 131.071C75.2071 133.723 71.2435 135.306 67.1097 135.638C65.0051 135.638 62.7019 134.523 60.6767 135.08C64.1042 136.606 67.9047 136.854 71.4778 135.788C72.6691 135.423 74.0192 135.23 75.0716 134.801C76.3203 134.071 77.4863 133.186 78.5462 132.165C79.1021 131.757 79.7574 131.586 80.214 131.2C80.8112 130.524 81.3682 129.808 81.8818 129.056C83.6886 126.913 85.8528 124.469 85.9918 121.403C85.8926 121.275 85.8528 121.168 85.7536 121.146L85.7337 121.232ZM55.9512 132.744C56.5468 133.387 57.0233 134.18 58.2544 134.137C57.9565 133.151 56.6858 131.757 55.9512 132.658V132.744Z" fill="white"/>
<path fill-rule="evenodd" clip-rule="evenodd" d="M29.6042 47.2524C32.6023 40.1138 38.4 34.3901 44.8926 30.1027C47.594 28.2884 50.5227 26.9023 53.5891 25.9868C53.7281 26.3726 53.2317 26.3083 53.0729 26.3941C51.0874 27.4659 48.5856 28.5378 46.6597 29.8669C40.0304 34.4772 34.248 40.3715 29.6042 47.2524V47.2524Z" fill="white"/>
<path fill-rule="evenodd" clip-rule="evenodd" d="M115.299 29.0308C115.656 28.9022 115.736 28.4734 115.954 28.1947C122.157 35.7496 126.8 44.6428 129.575 54.2837C126.974 47.3595 124.551 40.6068 120.58 35.1404C118.952 32.9109 116.967 31.1959 115.299 29.0308Z" fill="white"/>
<path fill-rule="evenodd" clip-rule="evenodd" d="M76.1237 29.7168C77.7411 29.7003 79.3348 30.1361 80.75 30.9816C85.0028 32.7064 88.9563 35.1921 92.4446 38.3345C96.8524 42.4505 101.379 46.9094 103.881 52.7617C97.0311 42.4719 89.3273 33.1896 76.1237 29.7168Z" fill="white"/>
<path fill-rule="evenodd" clip-rule="evenodd" d="M46.1816 36.6624C46.4993 37.9272 45.3874 38.8061 44.6329 39.4278C44.8453 38.3437 45.3911 37.3691 46.1816 36.6624V36.6624Z" fill="white"/>
<path fill-rule="evenodd" clip-rule="evenodd" d="M43.1056 39.4279C43.2843 39.728 42.8276 40.5211 42.8474 41.0999C39.3331 43.6724 37.1689 47.7883 34.9054 51.9257C34.5878 52.5045 34.2304 53.3191 33.6347 53.5978C32.6817 52.5045 34.1907 50.7466 34.7863 49.5676C37.0532 45.7404 39.8602 42.3192 43.1056 39.4279V39.4279Z" fill="white"/>
<path fill-rule="evenodd" clip-rule="evenodd" d="M52.2186 39.8565C52.1298 40.5643 51.8619 41.2319 51.4442 41.7858C51.4244 41.4 51.6031 40.0065 52.2186 39.8565Z" fill="white"/>
<path fill-rule="evenodd" clip-rule="evenodd" d="M102.849 128.713C98.8717 131.331 94.7545 133.694 90.5192 135.788C88.3351 136.731 85.9724 137.61 83.5699 138.553C78.7884 140.568 73.6659 141.466 68.5396 141.19C68.222 140.933 68.8375 140.504 69.0559 140.225C69.2743 139.946 69.4728 139.432 70.2075 139.432C70.9421 139.432 69.3735 140.182 69.4331 140.954C70.9421 141.383 70.7832 138.81 72.6496 139.153C73.3247 139.153 72.3518 139.432 72.3915 139.711C79.6982 139.496 88.2755 136.173 94.2321 133.472C98.4356 130.857 102.469 127.935 106.304 124.726C109.122 121.435 112.126 118.335 115.298 115.444C115.298 114.844 114.901 115.036 115.298 114.608C124.096 102.965 129.148 88.5488 129.693 73.5342C129.812 70.7903 129.375 67.489 131.103 66.6101C131.213 75.3697 130.177 84.1022 128.025 92.549C126.651 97.7546 124.649 102.742 122.069 107.383C120.878 109.527 119.388 111.671 118.098 113.815C116.22 116.93 114.022 119.807 111.546 122.389C115.298 120.246 117.502 115.83 120.024 111.842C122.641 107.962 124.921 103.828 126.834 99.4946C127.211 98.5299 127.549 97.3509 127.866 96.1718C130.904 86.5206 132.25 76.3432 131.837 66.1599C132.325 67.3886 132.503 68.7345 132.354 70.0614C133.009 85.4962 128.085 98.487 123.081 108.52C121.328 112.326 119.125 115.871 116.529 119.067C113.93 122.229 111.043 125.101 107.912 127.642C104.755 129.785 101.439 132.186 97.9847 134.437C94.2201 136.562 90.2521 138.236 86.1511 139.432C81.8637 141.068 77.4225 142.19 72.9077 142.776C67.8282 143.23 62.7143 142.854 57.7385 141.661C62.6573 142.122 67.5998 142.215 72.5305 141.94C73.8012 141.94 75.1315 142.09 76.3824 141.94C78.9527 141.448 81.4546 140.605 83.828 139.432C90.7574 136.581 98.0244 133.708 102.849 128.713Z" fill="white"/>
<path fill-rule="evenodd" clip-rule="evenodd" d="M49.7773 109.42C57.9179 112.378 72.2135 114.586 81.1284 110.535C81.5255 110.792 79.9371 111.242 79.3415 111.499C74.6541 113.547 69.5917 114.398 64.5495 113.986C61.8214 113.721 59.1185 113.212 56.4685 112.464C53.8476 111.735 51.1076 111.135 49.7773 109.42Z" fill="white"/>
<path fill-rule="evenodd" clip-rule="evenodd" d="M69.3141 58.5711C69.8502 59.8788 68.4007 61.6152 67.3286 60.7148C68.075 60.0979 68.7427 59.3771 69.3141 58.5711Z" fill="white"/>
</g>
</svg>
