<svg width="37" height="41" viewBox="0 0 37 41" fill="none" xmlns="http://www.w3.org/2000/svg">
<path d="M21.5759 5.71214C23.1352 4.01398 24.0899 3.21822 25.9183 2.13477V26.3797L36.7285 24.1552C36.6097 25.2313 36.4944 25.6883 36.2851 26.4699C36.0759 27.2515 35.8778 27.8983 35.49 28.7697L21.5759 31.6706V5.71214Z" fill="white"/>
<path d="M17.2957 0C15.048 1.29243 14.6657 1.77366 12.9576 3.487V30.1972L1.24093 32.6774C0.598738 33.7896 -0.0434513 37.2167 0.00241939 37.2768C0.04829 37.337 12.3678 34.6314 12.7392 34.6314C13.4593 34.3008 13.9165 34.1053 14.4058 33.5191C14.8951 32.9329 15.5373 31.9559 15.5373 31.9559L16.7758 30.092C17.1491 29.5662 17.2706 29.2489 17.2957 28.634V0Z" fill="white"/>
<path d="M3.29959 22.7846L36.7527 15.7085C36.4237 17.7786 36.135 18.8025 35.4531 20.4004L2.06116 27.4765C2.29778 25.7093 2.48737 24.7044 3.29959 22.7846Z" fill="white"/>
<path d="M22.8093 36.2462L36.7363 33.3726C36.4702 35.3074 36.2048 36.3386 35.4827 38.0652L21.5404 41C21.8544 39.1609 22.1366 38.1282 22.8093 36.2462Z" fill="white"/>
</svg>
