<svg xmlns="http://www.w3.org/2000/svg" width="110" height="119" viewBox="0 0 110 119" fill="none">
<path d="M6.45969 113.39C5.25969 113.39 4.23969 113.177 3.39969 112.75C2.57302 112.323 1.85969 111.763 1.25969 111.07L3.03969 109.35C3.51969 109.91 4.05302 110.337 4.63969 110.63C5.23969 110.923 5.89969 111.07 6.61969 111.07C7.43302 111.07 8.04636 110.897 8.45969 110.55C8.87302 110.19 9.07969 109.71 9.07969 109.11C9.07969 108.643 8.94636 108.263 8.67969 107.97C8.41302 107.677 7.91302 107.463 7.17969 107.33L5.85969 107.13C3.07302 106.69 1.67969 105.337 1.67969 103.07C1.67969 102.443 1.79302 101.877 2.01969 101.37C2.25969 100.863 2.59969 100.43 3.03969 100.07C3.47969 99.71 4.00636 99.4367 4.61969 99.25C5.24636 99.05 5.95302 98.95 6.73969 98.95C7.79302 98.95 8.71302 99.1233 9.49969 99.47C10.2864 99.8167 10.9597 100.33 11.5197 101.01L9.71969 102.71C9.37302 102.283 8.95302 101.937 8.45969 101.67C7.96636 101.403 7.34636 101.27 6.59969 101.27C5.83969 101.27 5.26636 101.417 4.87969 101.71C4.50636 101.99 4.31969 102.39 4.31969 102.91C4.31969 103.443 4.47302 103.837 4.77969 104.09C5.08636 104.343 5.57969 104.53 6.25969 104.65L7.55969 104.89C8.97302 105.143 10.013 105.597 10.6797 106.25C11.3597 106.89 11.6997 107.79 11.6997 108.95C11.6997 109.617 11.5797 110.223 11.3397 110.77C11.113 111.303 10.773 111.77 10.3197 112.17C9.87969 112.557 9.33302 112.857 8.67969 113.07C8.03969 113.283 7.29969 113.39 6.45969 113.39ZM19.7063 113.39C18.9329 113.39 18.2463 113.263 17.6463 113.01C17.0463 112.757 16.5396 112.39 16.1263 111.91C15.7263 111.43 15.4196 110.857 15.2063 110.19C14.9929 109.51 14.8863 108.75 14.8863 107.91C14.8863 107.07 14.9929 106.317 15.2063 105.65C15.4196 104.983 15.7263 104.417 16.1263 103.95C16.5396 103.47 17.0463 103.103 17.6463 102.85C18.2463 102.597 18.9329 102.47 19.7063 102.47C20.7596 102.47 21.6263 102.703 22.3063 103.17C22.9996 103.637 23.4996 104.283 23.8063 105.11L21.7063 106.05C21.5863 105.61 21.3596 105.25 21.0263 104.97C20.7063 104.677 20.2663 104.53 19.7063 104.53C18.9863 104.53 18.4463 104.757 18.0863 105.21C17.7396 105.663 17.5663 106.257 17.5663 106.99V108.89C17.5663 109.623 17.7396 110.217 18.0863 110.67C18.4463 111.11 18.9863 111.33 19.7063 111.33C20.3196 111.33 20.7929 111.177 21.1263 110.87C21.4596 110.55 21.7196 110.157 21.9063 109.69L23.8663 110.63C23.5196 111.55 22.9929 112.243 22.2863 112.71C21.5796 113.163 20.7196 113.39 19.7063 113.39ZM31.3625 113.39C30.5892 113.39 29.8958 113.263 29.2825 113.01C28.6825 112.743 28.1692 112.377 27.7425 111.91C27.3292 111.43 27.0092 110.857 26.7825 110.19C26.5558 109.51 26.4425 108.75 26.4425 107.91C26.4425 107.083 26.5492 106.337 26.7625 105.67C26.9892 105.003 27.3092 104.437 27.7225 103.97C28.1358 103.49 28.6425 103.123 29.2425 102.87C29.8425 102.603 30.5225 102.47 31.2825 102.47C32.0958 102.47 32.8025 102.61 33.4025 102.89C34.0025 103.17 34.4958 103.55 34.8825 104.03C35.2692 104.51 35.5558 105.07 35.7425 105.71C35.9425 106.337 36.0425 107.01 36.0425 107.73V108.57H29.1025V108.83C29.1025 109.59 29.3158 110.203 29.7425 110.67C30.1692 111.123 30.8025 111.35 31.6425 111.35C32.2825 111.35 32.8025 111.217 33.2025 110.95C33.6158 110.683 33.9825 110.343 34.3025 109.93L35.6825 111.47C35.2558 112.07 34.6692 112.543 33.9225 112.89C33.1892 113.223 32.3358 113.39 31.3625 113.39ZM31.3225 104.39C30.6425 104.39 30.1025 104.617 29.7025 105.07C29.3025 105.523 29.1025 106.11 29.1025 106.83V106.99H33.3825V106.81C33.3825 106.09 33.2025 105.51 32.8425 105.07C32.4958 104.617 31.9892 104.39 31.3225 104.39ZM39.6948 113.15V102.71H42.2548V104.45H42.3548C42.5682 103.89 42.9015 103.423 43.3548 103.05C43.8215 102.663 44.4615 102.47 45.2748 102.47C46.3548 102.47 47.1815 102.823 47.7548 103.53C48.3282 104.237 48.6148 105.243 48.6148 106.55V113.15H46.0548V106.81C46.0548 106.063 45.9215 105.503 45.6548 105.13C45.3882 104.757 44.9482 104.57 44.3348 104.57C44.0682 104.57 43.8082 104.61 43.5548 104.69C43.3148 104.757 43.0948 104.863 42.8948 105.01C42.7082 105.143 42.5548 105.317 42.4348 105.53C42.3148 105.73 42.2548 105.97 42.2548 106.25V113.15H39.6948ZM57.0727 113.39C56.2993 113.39 55.606 113.263 54.9927 113.01C54.3927 112.743 53.8793 112.377 53.4527 111.91C53.0393 111.43 52.7193 110.857 52.4927 110.19C52.266 109.51 52.1527 108.75 52.1527 107.91C52.1527 107.083 52.2593 106.337 52.4727 105.67C52.6993 105.003 53.0193 104.437 53.4327 103.97C53.846 103.49 54.3527 103.123 54.9527 102.87C55.5527 102.603 56.2327 102.47 56.9927 102.47C57.806 102.47 58.5127 102.61 59.1127 102.89C59.7127 103.17 60.206 103.55 60.5927 104.03C60.9793 104.51 61.266 105.07 61.4527 105.71C61.6527 106.337 61.7527 107.01 61.7527 107.73V108.57H54.8127V108.83C54.8127 109.59 55.026 110.203 55.4527 110.67C55.8793 111.123 56.5127 111.35 57.3527 111.35C57.9927 111.35 58.5127 111.217 58.9127 110.95C59.326 110.683 59.6927 110.343 60.0127 109.93L61.3927 111.47C60.966 112.07 60.3793 112.543 59.6327 112.89C58.8993 113.223 58.046 113.39 57.0727 113.39ZM57.0327 104.39C56.3527 104.39 55.8127 104.617 55.4127 105.07C55.0127 105.523 54.8127 106.11 54.8127 106.83V106.99H59.0927V106.81C59.0927 106.09 58.9127 105.51 58.5527 105.07C58.206 104.617 57.6993 104.39 57.0327 104.39ZM77.1716 113.39C76.2516 113.39 75.4182 113.237 74.6716 112.93C73.9249 112.623 73.2849 112.163 72.7516 111.55C72.2316 110.937 71.8249 110.183 71.5316 109.29C71.2382 108.397 71.0916 107.357 71.0916 106.17C71.0916 104.997 71.2382 103.963 71.5316 103.07C71.8249 102.163 72.2316 101.403 72.7516 100.79C73.2849 100.177 73.9249 99.7167 74.6716 99.41C75.4182 99.1033 76.2516 98.95 77.1716 98.95C78.0916 98.95 78.9249 99.1033 79.6716 99.41C80.4182 99.7167 81.0582 100.177 81.5916 100.79C82.1249 101.403 82.5316 102.163 82.8116 103.07C83.1049 103.963 83.2516 104.997 83.2516 106.17C83.2516 107.357 83.1049 108.397 82.8116 109.29C82.5316 110.183 82.1249 110.937 81.5916 111.55C81.0582 112.163 80.4182 112.623 79.6716 112.93C78.9249 113.237 78.0916 113.39 77.1716 113.39ZM77.1716 111.05C78.1716 111.05 78.9649 110.717 79.5516 110.05C80.1516 109.383 80.4516 108.45 80.4516 107.25V105.09C80.4516 103.89 80.1516 102.957 79.5516 102.29C78.9649 101.623 78.1716 101.29 77.1716 101.29C76.1716 101.29 75.3716 101.623 74.7716 102.29C74.1849 102.957 73.8916 103.89 73.8916 105.09V107.25C73.8916 108.45 74.1849 109.383 74.7716 110.05C75.3716 110.717 76.1716 111.05 77.1716 111.05ZM87.1698 113.15V102.71H89.7298V104.45H89.8299C90.0432 103.89 90.3765 103.423 90.8298 103.05C91.2965 102.663 91.9365 102.47 92.7499 102.47C93.8299 102.47 94.6565 102.823 95.2299 103.53C95.8032 104.237 96.0899 105.243 96.0899 106.55V113.15H93.5299V106.81C93.5299 106.063 93.3965 105.503 93.1299 105.13C92.8632 104.757 92.4232 104.57 91.8099 104.57C91.5432 104.57 91.2832 104.61 91.0299 104.69C90.7899 104.757 90.5699 104.863 90.3699 105.01C90.1832 105.143 90.0299 105.317 89.9099 105.53C89.7899 105.73 89.7298 105.97 89.7298 106.25V113.15H87.1698ZM104.548 113.39C103.774 113.39 103.081 113.263 102.468 113.01C101.868 112.743 101.354 112.377 100.928 111.91C100.514 111.43 100.194 110.857 99.9677 110.19C99.741 109.51 99.6277 108.75 99.6277 107.91C99.6277 107.083 99.7343 106.337 99.9477 105.67C100.174 105.003 100.494 104.437 100.908 103.97C101.321 103.49 101.828 103.123 102.428 102.87C103.028 102.603 103.708 102.47 104.468 102.47C105.281 102.47 105.988 102.61 106.588 102.89C107.188 103.17 107.681 103.55 108.068 104.03C108.454 104.51 108.741 105.07 108.928 105.71C109.128 106.337 109.228 107.01 109.228 107.73V108.57H102.288V108.83C102.288 109.59 102.501 110.203 102.928 110.67C103.354 111.123 103.988 111.35 104.828 111.35C105.468 111.35 105.988 111.217 106.388 110.95C106.801 110.683 107.168 110.343 107.488 109.93L108.868 111.47C108.441 112.07 107.854 112.543 107.108 112.89C106.374 113.223 105.521 113.39 104.548 113.39ZM104.508 104.39C103.828 104.39 103.288 104.617 102.888 105.07C102.488 105.523 102.288 106.11 102.288 106.83V106.99H106.568V106.81C106.568 106.09 106.388 105.51 106.028 105.07C105.681 104.617 105.174 104.39 104.508 104.39Z" fill="white"/>
<circle cx="18.5" cy="11.65" r="3.5" fill="#CD2E07"/>
<path d="M33.8261 2.14999H8V27.9761" stroke="white" stroke-width="4.3" stroke-linecap="round" stroke-linejoin="round"/>
<path d="M81.174 2.14999H107V27.9761" stroke="white" stroke-width="4.3" stroke-linecap="round" stroke-linejoin="round"/>
<path d="M33.8261 88.237H8V62.4109" stroke="white" stroke-width="4.3" stroke-linecap="round" stroke-linejoin="round"/>
<path d="M81.174 88.237H107V62.4109" stroke="white" stroke-width="4.3" stroke-linecap="round" stroke-linejoin="round"/>
<path d="M29.5218 26.9V49.4978H81.174V73.1717H23.0653" stroke="white" stroke-width="9.46" stroke-linecap="round" stroke-linejoin="round"/>
<path d="M82.7025 21.0081L32.5034 27.1718C29.554 27.534 27.4567 30.2185 27.8188 33.1679L28.0811 35.304C28.4432 38.2534 31.1277 40.3508 34.0771 39.9886L84.2762 33.8249C87.2256 33.4628 89.323 30.7783 88.9609 27.8289L88.6986 25.6928C88.3364 22.7434 85.6519 20.646 82.7025 21.0081Z" fill="white"/>
<path d="M42.247 27.0596L37.15 38.5271" stroke="#0E0202" stroke-width="3.096" stroke-linecap="round"/>
<path d="M55.0637 25.4859L49.9667 36.9534" stroke="#0E0202" stroke-width="3.096" stroke-linecap="round"/>
<path d="M67.8806 23.9122L62.7836 35.3797" stroke="#0E0202" stroke-width="3.096" stroke-linecap="round"/>
<path d="M79.6292 22.4696L74.5322 33.9371" stroke="#0E0202" stroke-width="3.096" stroke-linecap="round"/>
</svg>