<svg width="65" height="68" viewBox="0 0 65 68" fill="none" xmlns="http://www.w3.org/2000/svg">
<path d="M61.9592 67.9998C61.4953 67.9998 61.0794 67.9238 60.7114 67.7718C60.3515 67.6119 60.0436 67.3919 59.7876 67.112C59.5397 66.824 59.3477 66.4801 59.2118 66.0802C59.0758 65.6723 59.0078 65.2164 59.0078 64.7125C59.0078 64.2166 59.0718 63.7687 59.1998 63.3688C59.3357 62.9689 59.5277 62.629 59.7756 62.349C60.0236 62.0611 60.3275 61.8411 60.6874 61.6892C61.0474 61.5292 61.4553 61.4492 61.9112 61.4492C62.3991 61.4492 62.823 61.5332 63.1829 61.7012C63.5428 61.8691 63.8388 62.0971 64.0707 62.385C64.3027 62.673 64.4746 63.0089 64.5866 63.3928C64.7066 63.7687 64.7666 64.1726 64.7666 64.6045V65.1084H60.6035V65.2644C60.6035 65.7203 60.7314 66.0882 60.9874 66.3681C61.2433 66.6401 61.6232 66.7761 62.1271 66.7761C62.511 66.7761 62.823 66.6961 63.0629 66.5361C63.3109 66.3761 63.5308 66.1722 63.7228 65.9242L64.5506 66.848C64.2947 67.208 63.9427 67.4919 63.4948 67.6999C63.0549 67.8998 62.543 67.9998 61.9592 67.9998ZM61.9352 62.601C61.5273 62.601 61.2033 62.7369 60.9634 63.0089C60.7234 63.2808 60.6035 63.6327 60.6035 64.0646V64.1606H63.1709V64.0526C63.1709 63.6207 63.0629 63.2728 62.847 63.0089C62.639 62.7369 62.3351 62.601 61.9352 62.601Z" fill="black"/>
<path d="M51.5347 67.8558V61.5932H53.0703V62.637H53.1303C53.2583 62.301 53.4582 62.0211 53.7302 61.7971C54.0101 61.5652 54.394 61.4492 54.8819 61.4492C55.5298 61.4492 56.0257 61.6612 56.3696 62.0851C56.7135 62.509 56.8855 63.1129 56.8855 63.8967V67.8558H55.3498V64.0526C55.3498 63.6047 55.2699 63.2688 55.1099 63.0449C54.9499 62.8209 54.686 62.7089 54.3181 62.7089C54.1581 62.7089 54.0021 62.7329 53.8502 62.7809C53.7062 62.8209 53.5742 62.8849 53.4542 62.9729C53.3423 63.0529 53.2503 63.1568 53.1783 63.2848C53.1063 63.4048 53.0703 63.5488 53.0703 63.7167V67.8558H51.5347Z" fill="black"/>
<path d="M45.5373 68C44.9855 68 44.4856 67.908 44.0377 67.7241C43.5898 67.5401 43.2058 67.2642 42.8859 66.8962C42.574 66.5283 42.33 66.0764 42.1541 65.5405C41.9781 65.0047 41.8901 64.3808 41.8901 63.6689C41.8901 62.9651 41.9781 62.3452 42.1541 61.8093C42.33 61.2655 42.574 60.8096 42.8859 60.4416C43.2058 60.0737 43.5898 59.7978 44.0377 59.6138C44.4856 59.4299 44.9855 59.3379 45.5373 59.3379C46.0892 59.3379 46.5891 59.4299 47.037 59.6138C47.4849 59.7978 47.8688 60.0737 48.1888 60.4416C48.5087 60.8096 48.7526 61.2655 48.9206 61.8093C49.0966 62.3452 49.1845 62.9651 49.1845 63.6689C49.1845 64.3808 49.0966 65.0047 48.9206 65.5405C48.7526 66.0764 48.5087 66.5283 48.1888 66.8962C47.8688 67.2642 47.4849 67.5401 47.037 67.7241C46.5891 67.908 46.0892 68 45.5373 68ZM45.5373 66.5963C46.1372 66.5963 46.6131 66.3963 46.965 65.9964C47.3249 65.5965 47.5049 65.0366 47.5049 64.3168V63.0211C47.5049 62.3012 47.3249 61.7414 46.965 61.3415C46.6131 60.9415 46.1372 60.7416 45.5373 60.7416C44.9375 60.7416 44.4576 60.9415 44.0977 61.3415C43.7457 61.7414 43.5698 62.3012 43.5698 63.0211V64.3168C43.5698 65.0366 43.7457 65.5965 44.0977 65.9964C44.4576 66.3963 44.9375 66.5963 45.5373 66.5963Z" fill="black"/>
<path d="M33.4807 67.9998C33.0168 67.9998 32.6008 67.9238 32.2329 67.7718C31.873 67.6119 31.5651 67.3919 31.3091 67.112C31.0612 66.824 30.8692 66.4801 30.7333 66.0802C30.5973 65.6723 30.5293 65.2164 30.5293 64.7125C30.5293 64.2166 30.5933 63.7687 30.7213 63.3688C30.8572 62.9689 31.0492 62.629 31.2971 62.349C31.5451 62.0611 31.849 61.8411 32.2089 61.6892C32.5689 61.5292 32.9768 61.4492 33.4327 61.4492C33.9206 61.4492 34.3445 61.5332 34.7044 61.7012C35.0643 61.8691 35.3602 62.0971 35.5922 62.385C35.8241 62.673 35.9961 63.0089 36.1081 63.3928C36.2281 63.7687 36.288 64.1726 36.288 64.6045V65.1084H32.1249V65.2644C32.1249 65.7203 32.2529 66.0882 32.5089 66.3681C32.7648 66.6401 33.1447 66.7761 33.6486 66.7761C34.0325 66.7761 34.3445 66.6961 34.5844 66.5361C34.8324 66.3761 35.0523 66.1722 35.2443 65.9242L36.0721 66.848C35.8161 67.208 35.4642 67.4919 35.0163 67.6999C34.5764 67.8998 34.0645 67.9998 33.4807 67.9998ZM33.4567 62.601C33.0487 62.601 32.7248 62.7369 32.4849 63.0089C32.2449 63.2808 32.1249 63.6327 32.1249 64.0646V64.1606H34.6924V64.0526C34.6924 63.6207 34.5844 63.2728 34.3685 63.0089C34.1605 62.7369 33.8566 62.601 33.4567 62.601Z" fill="black"/>
<path d="M23.0562 67.8558V61.5932H24.5918V62.637H24.6518C24.7798 62.301 24.9797 62.0211 25.2517 61.7971C25.5316 61.5652 25.9155 61.4492 26.4034 61.4492C27.0513 61.4492 27.5472 61.6612 27.8911 62.0851C28.235 62.509 28.407 63.1129 28.407 63.8967V67.8558H26.8713V64.0526C26.8713 63.6047 26.7913 63.2688 26.6314 63.0449C26.4714 62.8209 26.2075 62.7089 25.8395 62.7089C25.6796 62.7089 25.5236 62.7329 25.3716 62.7809C25.2277 62.8209 25.0957 62.8849 24.9757 62.9729C24.8638 63.0529 24.7718 63.1568 24.6998 63.2848C24.6278 63.4048 24.5918 63.5488 24.5918 63.7167V67.8558H23.0562Z" fill="black"/>
<path d="M18.0578 67.9998C17.5939 67.9998 17.178 67.9238 16.8101 67.7718C16.4502 67.6119 16.1422 67.3919 15.8863 67.112C15.6383 66.824 15.4464 66.4801 15.3104 66.0802C15.1744 65.6723 15.1064 65.2164 15.1064 64.7125C15.1064 64.2166 15.1704 63.7687 15.2984 63.3688C15.4344 62.9689 15.6263 62.629 15.8743 62.349C16.1222 62.0611 16.4262 61.8411 16.7861 61.6892C17.146 61.5292 17.5539 61.4492 18.0098 61.4492C18.4977 61.4492 18.9216 61.5332 19.2815 61.7012C19.6415 61.8691 19.9374 62.0971 20.1693 62.385C20.4013 62.673 20.5732 63.0089 20.6852 63.3928C20.8052 63.7687 20.8652 64.1726 20.8652 64.6045V65.1084H16.7021V65.2644C16.7021 65.7203 16.8301 66.0882 17.086 66.3681C17.342 66.6401 17.7219 66.7761 18.2258 66.7761C18.6097 66.7761 18.9216 66.6961 19.1616 66.5361C19.4095 66.3761 19.6295 66.1722 19.8214 65.9242L20.6492 66.848C20.3933 67.208 20.0414 67.4919 19.5935 67.6999C19.1536 67.8998 18.6417 67.9998 18.0578 67.9998ZM18.0338 62.601C17.6259 62.601 17.302 62.7369 17.062 63.0089C16.8221 63.2808 16.7021 63.6327 16.7021 64.0646V64.1606H19.2695V64.0526C19.2695 63.6207 19.1616 63.2728 18.9456 63.0089C18.7376 62.7369 18.4337 62.601 18.0338 62.601Z" fill="black"/>
<path d="M11.0657 67.9998C10.6018 67.9998 10.1899 67.9238 9.82995 67.7718C9.47003 67.6199 9.1661 67.3999 8.91815 67.112C8.67821 66.824 8.49425 66.4801 8.36627 66.0802C8.2383 65.6723 8.17432 65.2164 8.17432 64.7125C8.17432 64.2086 8.2383 63.7567 8.36627 63.3568C8.49425 62.9569 8.67821 62.617 8.91815 62.337C9.1661 62.0491 9.47003 61.8291 9.82995 61.6772C10.1899 61.5252 10.6018 61.4492 11.0657 61.4492C11.6975 61.4492 12.2174 61.5892 12.6253 61.8691C13.0413 62.1491 13.3412 62.537 13.5251 63.0329L12.2654 63.5967C12.1934 63.3328 12.0575 63.1169 11.8575 62.9489C11.6656 62.7729 11.4016 62.6849 11.0657 62.6849C10.6338 62.6849 10.3098 62.8209 10.0939 63.0929C9.88594 63.3648 9.78197 63.7207 9.78197 64.1606V65.3004C9.78197 65.7403 9.88594 66.0962 10.0939 66.3681C10.3098 66.6321 10.6338 66.7641 11.0657 66.7641C11.4336 66.7641 11.7175 66.6721 11.9175 66.4881C12.1175 66.2962 12.2734 66.0602 12.3854 65.7803L13.5611 66.3441C13.3532 66.896 13.0373 67.3119 12.6133 67.5919C12.1894 67.8638 11.6736 67.9998 11.0657 67.9998Z" fill="black"/>
<path d="M3.11932 68C2.39948 68 1.78761 67.872 1.28372 67.6161C0.787828 67.3601 0.359921 67.0242 0 66.6083L1.06777 65.5765C1.3557 65.9125 1.67563 66.1684 2.02756 66.3444C2.38748 66.5203 2.78339 66.6083 3.2153 66.6083C3.70319 66.6083 4.07111 66.5043 4.31906 66.2964C4.567 66.0804 4.69097 65.7925 4.69097 65.4326C4.69097 65.1526 4.61099 64.9247 4.45103 64.7487C4.29106 64.5727 3.99113 64.4448 3.55122 64.3648L2.7594 64.2448C1.08776 63.9809 0.251945 63.1691 0.251945 61.8093C0.251945 61.4334 0.31993 61.0935 0.4559 60.7896C0.599869 60.4856 0.803824 60.2257 1.06777 60.0097C1.33171 59.7938 1.64764 59.6298 2.01556 59.5179C2.39148 59.3979 2.81538 59.3379 3.28728 59.3379C3.91914 59.3379 4.47102 59.4419 4.94292 59.6498C5.41482 59.8578 5.81873 60.1657 6.15465 60.5736L5.07489 61.5934C4.86693 61.3375 4.61499 61.1295 4.31906 60.9695C4.02312 60.8096 3.6512 60.7296 3.2033 60.7296C2.7474 60.7296 2.40347 60.8176 2.17152 60.9935C1.94757 61.1615 1.8356 61.4014 1.8356 61.7134C1.8356 62.0333 1.92758 62.2692 2.11154 62.4212C2.2955 62.5732 2.59143 62.6852 2.99934 62.7571L3.77917 62.9011C4.62699 63.0531 5.25085 63.325 5.65076 63.7169C6.05867 64.1008 6.26263 64.6407 6.26263 65.3366C6.26263 65.7365 6.19065 66.1004 6.04668 66.4283C5.91071 66.7483 5.70675 67.0282 5.43481 67.2682C5.17087 67.5001 4.84294 67.6801 4.45103 67.808C4.06711 67.936 3.62321 68 3.11932 68Z" fill="black"/>
<path d="M12.7402 7C12.7402 8.10457 11.8448 9 10.7402 9C9.63566 9 8.74023 8.10457 8.74023 7C8.74023 5.89543 9.63566 5 10.7402 5C11.8448 5 12.7402 5.89543 12.7402 7Z" fill="#CD2E07"/>
<path d="M2.74023 16.7152V1.2848C2.74023 0.575352 3.31559 0 4.02503 0H19.4554C20.1649 2.5246e-05 20.7402 0.575368 20.7402 1.2848C20.7402 1.99423 20.1649 2.56957 19.4554 2.56959H5.30983V16.7152C5.3098 17.4246 4.73446 18 4.02503 18C3.3156 18 2.74026 17.4246 2.74023 16.7152Z" fill="black"/>
<path d="M62.1706 16.7152V2.56959H48.025C47.3156 2.56959 46.7402 1.99424 46.7402 1.2848C46.7402 0.575352 47.3156 0 48.025 0H63.4554C64.1649 2.5246e-05 64.7402 0.575368 64.7402 1.2848V16.7152C64.7402 17.4246 64.1648 18 63.4554 18C62.746 18 62.1707 17.4246 62.1706 16.7152Z" fill="black"/>
<path d="M2.74023 37.2848C2.74023 36.5754 3.31559 36 4.02503 36C4.73448 36 5.30983 36.5754 5.30983 37.2848V51.4304H19.4554C20.1649 51.4304 20.7402 52.0058 20.7402 52.7152C20.7402 53.4246 20.1648 54 19.4554 54H4.02503C3.3156 54 2.74026 53.4246 2.74023 52.7152V37.2848Z" fill="black"/>
<path d="M62.1706 37.2848C62.1706 36.5754 62.746 36 63.4554 36C64.1649 36 64.7402 36.5754 64.7402 37.2848V52.7152C64.7402 53.4246 64.1648 54 63.4554 54H48.025C47.3156 54 46.7403 53.4246 46.7402 52.7152C46.7402 52.0058 47.3156 51.4304 48.025 51.4304H62.1706V37.2848Z" fill="black"/>
<path d="M14.5627 15.8859C14.5627 14.2923 15.8162 13.0002 17.3625 13C18.9089 13 20.1628 14.2922 20.1628 15.8859V26.7865H47.9399C49.4863 26.7865 50.7402 28.0781 50.7402 29.6717V44.1141C50.7402 45.7078 49.4863 47 47.9399 47H13.5406C11.9942 47 10.7402 45.7078 10.7402 44.1141C10.7403 42.5206 11.9942 41.2289 13.5406 41.2289H45.1401V32.5576H17.3625C15.8162 32.5574 14.5627 31.2653 14.5627 29.6717V15.8859Z" fill="black"/>
<path d="M48.8554 12.5821L18.7426 16.2795C16.9733 16.4967 15.7152 18.1071 15.9324 19.8763L16.0897 21.1577C16.307 22.927 17.9173 24.1851 19.6866 23.9679L49.7995 20.2705C51.5687 20.0533 52.8268 18.4429 52.6096 16.6737L52.4523 15.3923C52.235 13.623 50.6247 12.3649 48.8554 12.5821Z" fill="black"/>
<path d="M49.7363 19.7583L49.7992 20.2705L19.6868 23.9679L19.6239 23.4556L49.7363 19.7583ZM52.0973 16.7363L51.9401 15.4554C51.7575 13.969 50.4045 12.9119 48.9181 13.0944L18.8057 16.7917C17.3193 16.9742 16.2622 18.3272 16.4447 19.8137L16.602 21.0946C16.7845 22.5811 18.1375 23.6381 19.6239 23.4556L19.6868 23.9679L19.5212 23.9841C17.818 24.1061 16.3002 22.8714 16.0897 21.1575L15.9324 19.8766C15.722 18.1626 16.8961 16.5975 18.5782 16.3038L18.7428 16.2795L48.8552 12.5821C50.6244 12.3649 52.2351 13.6233 52.4523 15.3925L52.6096 16.6734C52.8268 18.4427 51.5684 20.0533 49.7992 20.2705L49.7363 19.7583C51.2228 19.5758 52.2798 18.2228 52.0973 16.7363Z" fill="black"/>
<path d="M23.7383 15.8351C23.9467 15.3666 24.4956 15.1559 24.9642 15.3641C25.4328 15.5725 25.6441 16.1213 25.4358 16.5899L22.3779 23.4689C22.1696 23.9374 21.6206 24.1482 21.1521 23.9399C20.6837 23.7315 20.473 23.1831 20.6811 22.7146L23.7383 15.8351Z" fill="white"/>
<path d="M31.4268 14.8918C31.6351 14.4232 32.1841 14.2125 32.6527 14.4208C33.1213 14.6291 33.3325 15.178 33.1242 15.6466L30.0664 22.5255C29.858 22.994 29.3091 23.2048 28.8405 22.9965C28.3722 22.7882 28.1615 22.2398 28.3696 21.7713L31.4268 14.8918Z" fill="white"/>
<path d="M39.1148 13.9474C39.3231 13.4789 39.8721 13.2682 40.3406 13.4764C40.8093 13.6848 41.0205 14.2336 40.8122 14.7022L37.7544 21.5812C37.546 22.0497 36.9971 22.2605 36.5285 22.0522C36.0601 21.8438 35.8494 21.2954 36.0576 20.8269L39.1148 13.9474Z" fill="white"/>
<path d="M46.1631 13.0822C46.3715 12.6137 46.9204 12.4029 47.389 12.6112C47.8576 12.8195 48.0689 13.3684 47.8606 13.837L44.8027 20.716C44.5944 21.1845 44.0454 21.3952 43.5769 21.187C43.1085 20.9786 42.8978 20.4302 43.1059 19.9617L46.1631 13.0822Z" fill="white"/>
</svg>
